<svg width="702" height="745" viewBox="0 0 702 745" fill="none" xmlns="http://www.w3.org/2000/svg">
<path d="M343.514 140.197C350.912 140.197 358.007 143.136 363.238 148.367C365.828 150.958 367.883 154.033 369.285 157.417C370.687 160.802 371.409 164.429 371.409 168.092" stroke="#FFA500"/>
<path d="M298.185 185.526C298.185 173.504 302.96 161.975 311.461 153.474C315.67 149.265 320.667 145.926 326.167 143.648C331.667 141.37 337.561 140.197 343.514 140.197" stroke="#FFA500"/>
<path d="M371.409 258.75C351.989 258.75 333.364 251.035 319.632 237.303C305.9 223.571 298.185 204.946 298.185 185.526" stroke="#FFA500"/>
<path d="M489.995 140.197C489.995 155.77 486.927 171.191 480.968 185.578C475.008 199.966 466.273 213.039 455.262 224.05C433.022 246.289 402.86 258.783 371.409 258.783" stroke="#FFA500"/>
<path d="M371.409 168.092C371.409 170.382 370.958 172.649 370.082 174.764C369.206 176.879 367.921 178.801 366.302 180.42C363.033 183.69 358.598 185.526 353.975 185.526" stroke="#FFA500"/>
<path d="M353.974 185.526C351.2 185.526 348.539 184.424 346.578 182.462C344.616 180.501 343.514 177.84 343.514 175.066" stroke="#FFA500"/>
<path d="M343.514 175.066C343.514 173.216 344.249 171.443 345.556 170.135C346.204 169.487 346.973 168.973 347.819 168.623C348.665 168.273 349.572 168.092 350.488 168.092" stroke="#FFA500"/>
<path d="M350.487 168.092C351.412 168.092 352.299 168.46 352.953 169.113C353.276 169.437 353.533 169.822 353.709 170.245C353.884 170.668 353.974 171.121 353.974 171.579" stroke="#FFA500"/>
<path d="M353.974 171.579C353.974 172.037 353.884 172.49 353.709 172.913C353.533 173.336 353.276 173.721 352.953 174.044C352.299 174.698 351.412 175.066 350.487 175.066" stroke="#FFA500"/>
<path d="M343.514 371.404C350.912 371.405 358.007 374.343 363.238 379.575C365.828 382.165 367.883 385.24 369.285 388.624C370.687 392.009 371.409 395.636 371.409 399.299" stroke="#FFA500"/>
<path d="M298.185 416.734C298.185 404.712 302.96 393.182 311.461 384.681C315.67 380.472 320.667 377.133 326.167 374.855C331.667 372.577 337.561 371.404 343.514 371.404" stroke="#FFA500"/>
<path d="M371.409 489.957C351.989 489.957 333.364 482.243 319.632 468.511C305.9 454.779 298.185 436.154 298.185 416.734" stroke="#FFA500"/>
<path d="M489.995 371.404C489.995 386.977 486.927 402.398 480.968 416.785C475.008 431.173 466.273 444.246 455.262 455.258C433.022 477.497 402.86 489.99 371.409 489.99" stroke="#FFA500"/>
<path d="M371.409 399.299C371.409 401.589 370.958 403.856 370.082 405.971C369.206 408.086 367.921 410.008 366.302 411.627C363.033 414.897 358.598 416.734 353.975 416.734" stroke="#FFA500"/>
<path d="M353.974 416.734C351.2 416.734 348.539 415.632 346.578 413.67C344.616 411.708 343.514 409.048 343.514 406.273" stroke="#FFA500"/>
<path d="M343.514 406.273C343.514 404.424 344.249 402.65 345.556 401.342C346.204 400.694 346.973 400.181 347.819 399.83C348.665 399.48 349.572 399.299 350.488 399.299" stroke="#FFA500"/>
<path d="M350.487 399.299C351.412 399.299 352.299 399.667 352.953 400.321C353.276 400.644 353.533 401.029 353.709 401.452C353.884 401.875 353.974 402.328 353.974 402.786" stroke="#FFA500"/>
<path d="M353.974 402.786C353.974 403.244 353.884 403.698 353.709 404.121C353.533 404.544 353.276 404.928 352.953 405.252C352.299 405.906 351.412 406.273 350.487 406.273" stroke="#FFA500"/>
<path d="M343.514 603.302C350.912 603.302 358.007 606.241 363.238 611.472C365.828 614.063 367.883 617.138 369.285 620.522C370.687 623.906 371.409 627.534 371.409 631.197" stroke="#FFA500"/>
<path d="M298.185 648.631C298.185 636.609 302.96 625.08 311.461 616.579C315.67 612.369 320.667 609.03 326.167 606.752C331.667 604.474 337.561 603.302 343.514 603.302" stroke="#FFA500"/>
<path d="M371.409 721.855C351.989 721.855 333.364 714.14 319.632 700.408C305.9 686.676 298.185 668.051 298.185 648.631" stroke="#FFA500"/>
<path d="M489.995 603.302C489.995 618.875 486.927 634.296 480.968 648.683C475.008 663.071 466.273 676.143 455.262 687.155C433.022 709.394 402.86 721.888 371.409 721.888" stroke="#FFA500"/>
<path d="M371.409 631.197C371.409 633.486 370.958 635.754 370.082 637.869C369.206 639.984 367.921 641.906 366.302 643.525C363.033 646.794 358.598 648.631 353.975 648.631" stroke="#FFA500"/>
<path d="M353.974 648.631C351.2 648.631 348.539 647.529 346.578 645.567C344.616 643.605 343.514 640.945 343.514 638.17" stroke="#FFA500"/>
<path d="M343.514 638.171C343.514 636.321 344.249 634.547 345.556 633.24C346.204 632.592 346.973 632.078 347.819 631.728C348.665 631.377 349.572 631.197 350.488 631.197" stroke="#FFA500"/>
<path d="M350.487 631.197C351.412 631.197 352.299 631.564 352.953 632.218C353.276 632.542 353.533 632.926 353.709 633.349C353.884 633.772 353.974 634.226 353.974 634.684" stroke="#FFA500"/>
<path d="M353.974 634.684C353.974 635.142 353.884 635.595 353.709 636.018C353.533 636.441 353.276 636.826 352.953 637.149C352.299 637.803 351.412 638.17 350.487 638.171" stroke="#FFA500"/>
<path d="M357.637 140.197C350.239 140.197 343.144 143.136 337.913 148.367C335.322 150.958 333.268 154.033 331.866 157.417C330.464 160.802 329.742 164.429 329.742 168.092" stroke="#FFA500"/>
<path d="M402.967 185.526C402.967 173.504 398.191 161.975 389.691 153.474C385.482 149.265 380.484 145.926 374.985 143.648C369.485 141.37 363.591 140.197 357.638 140.197" stroke="#FFA500"/>
<path d="M329.743 258.75C349.163 258.75 367.788 251.035 381.52 237.303C395.252 223.571 402.967 204.946 402.967 185.526" stroke="#FFA500"/>
<path d="M211.157 140.197C211.157 155.77 214.224 171.191 220.184 185.578C226.143 199.966 234.878 213.039 245.89 224.05C268.129 246.289 298.292 258.783 329.743 258.783" stroke="#FFA500"/>
<path d="M329.743 168.092C329.743 170.382 330.194 172.649 331.07 174.764C331.946 176.879 333.23 178.801 334.849 180.42C338.119 183.69 342.553 185.526 347.177 185.526" stroke="#FFA500"/>
<path d="M347.177 185.526C349.952 185.526 352.612 184.424 354.574 182.462C356.536 180.501 357.638 177.84 357.638 175.066" stroke="#FFA500"/>
<path d="M357.638 175.066C357.638 173.216 356.903 171.443 355.595 170.135C354.948 169.487 354.179 168.973 353.333 168.623C352.487 168.273 351.58 168.092 350.664 168.092" stroke="#FFA500"/>
<path d="M350.664 168.092C349.74 168.092 348.853 168.46 348.199 169.113C347.875 169.437 347.618 169.822 347.443 170.245C347.268 170.668 347.178 171.121 347.177 171.579" stroke="#FFA500"/>
<path d="M347.177 171.579C347.178 172.037 347.268 172.49 347.443 172.913C347.618 173.336 347.875 173.721 348.199 174.045C348.853 174.698 349.74 175.066 350.664 175.066" stroke="#FFA500"/>
<path d="M357.638 371.404C350.24 371.405 343.145 374.343 337.914 379.575C335.323 382.165 333.268 385.24 331.867 388.624C330.465 392.009 329.743 395.636 329.743 399.299" stroke="#FFA500"/>
<path d="M402.967 416.734C402.967 404.712 398.191 393.182 389.691 384.681C385.482 380.472 380.484 377.133 374.985 374.855C369.485 372.577 363.591 371.404 357.638 371.404" stroke="#FFA500"/>
<path d="M329.743 489.957C349.163 489.957 367.788 482.243 381.52 468.511C395.252 454.779 402.967 436.154 402.967 416.734" stroke="#FFA500"/>
<path d="M211.157 371.404C211.157 386.977 214.224 402.398 220.184 416.785C226.143 431.173 234.878 444.246 245.89 455.258C268.129 477.497 298.292 489.99 329.743 489.99" stroke="#FFA500"/>
<path d="M329.743 399.299C329.743 401.589 330.194 403.856 331.07 405.971C331.946 408.086 333.23 410.008 334.849 411.627C338.119 414.897 342.553 416.734 347.177 416.734" stroke="#FFA500"/>
<path d="M347.177 416.734C349.952 416.734 352.612 415.632 354.574 413.67C356.536 411.708 357.638 409.048 357.638 406.273" stroke="#FFA500"/>
<path d="M357.638 406.273C357.638 404.424 356.903 402.65 355.595 401.342C354.948 400.694 354.179 400.181 353.333 399.83C352.487 399.48 351.58 399.299 350.664 399.299" stroke="#FFA500"/>
<path d="M350.664 399.299C349.74 399.299 348.853 399.667 348.199 400.321C347.875 400.644 347.618 401.029 347.443 401.452C347.268 401.875 347.178 402.328 347.177 402.786" stroke="#FFA500"/>
<path d="M347.177 402.786C347.178 403.244 347.268 403.698 347.443 404.121C347.618 404.544 347.875 404.928 348.199 405.252C348.853 405.906 349.74 406.273 350.664 406.273" stroke="#FFA500"/>
<path d="M357.637 603.302C350.239 603.302 343.144 606.241 337.913 611.472C335.322 614.063 333.268 617.138 331.866 620.522C330.464 623.906 329.742 627.534 329.742 631.197" stroke="#FFA500"/>
<path d="M402.967 648.631C402.967 636.609 398.191 625.08 389.691 616.579C385.482 612.369 380.484 609.03 374.985 606.752C369.485 604.474 363.591 603.302 357.638 603.302" stroke="#FFA500"/>
<path d="M329.743 721.855C349.163 721.855 367.788 714.14 381.52 700.408C395.252 686.676 402.967 668.051 402.967 648.631" stroke="#FFA500"/>
<path d="M211.157 603.302C211.157 618.875 214.224 634.296 220.184 648.683C226.143 663.071 234.878 676.143 245.89 687.155C268.129 709.394 298.292 721.888 329.743 721.888" stroke="#FFA500"/>
<path d="M329.743 631.197C329.743 633.486 330.194 635.754 331.07 637.869C331.946 639.984 333.23 641.906 334.849 643.525C338.119 646.794 342.553 648.631 347.177 648.631" stroke="#FFA500"/>
<path d="M347.177 648.631C349.952 648.631 352.612 647.529 354.574 645.567C356.536 643.605 357.638 640.945 357.638 638.17" stroke="#FFA500"/>
<path d="M357.638 638.171C357.638 636.321 356.903 634.547 355.595 633.24C354.948 632.592 354.179 632.078 353.333 631.728C352.487 631.377 351.58 631.197 350.664 631.197" stroke="#FFA500"/>
<path d="M350.664 631.197C349.74 631.197 348.853 631.564 348.199 632.218C347.875 632.542 347.618 632.926 347.443 633.349C347.268 633.772 347.178 634.226 347.177 634.684" stroke="#FFA500"/>
<path d="M347.177 634.684C347.178 635.142 347.268 635.595 347.443 636.018C347.618 636.441 347.875 636.826 348.199 637.149C348.853 637.803 349.74 638.17 350.664 638.171" stroke="#FFA500"/>
<path d="M343.514 140.474C350.912 140.474 358.007 137.535 363.238 132.303C365.829 129.713 367.883 126.638 369.285 123.254C370.687 119.869 371.409 116.242 371.409 112.579" stroke="#FFA500"/>
<path d="M298.185 95.1445C298.185 107.166 302.96 118.696 311.461 127.197C315.67 131.406 320.667 134.745 326.167 137.023C331.667 139.301 337.561 140.474 343.514 140.474" stroke="#FFA500"/>
<path d="M371.409 21.9211C351.989 21.9211 333.364 29.6357 319.632 43.3677C305.9 57.0998 298.185 75.7244 298.185 95.1445" stroke="#FFA500"/>
<path d="M489.995 140.474C489.995 124.901 486.927 109.48 480.968 95.0926C475.008 80.7051 466.273 67.6323 455.262 56.6205C433.022 34.3815 402.86 21.8878 371.409 21.8879" stroke="#FFA500"/>
<path d="M371.409 112.579C371.409 110.289 370.958 108.022 370.082 105.907C369.206 103.792 367.921 101.87 366.302 100.251C363.033 96.9813 358.598 95.1445 353.975 95.1445" stroke="#FFA500"/>
<path d="M353.974 95.1447C351.2 95.1447 348.539 96.2468 346.578 98.2085C344.616 100.17 343.514 102.831 343.514 105.605" stroke="#FFA500"/>
<path d="M343.514 105.605C343.514 107.455 344.249 109.228 345.556 110.536C346.204 111.184 346.973 111.697 347.819 112.048C348.665 112.398 349.572 112.579 350.488 112.579" stroke="#FFA500"/>
<path d="M350.487 112.579C351.412 112.579 352.299 112.211 352.953 111.557C353.276 111.234 353.533 110.849 353.709 110.426C353.884 110.003 353.974 109.55 353.974 109.092" stroke="#FFA500"/>
<path d="M353.974 109.092C353.974 108.634 353.884 108.181 353.709 107.758C353.533 107.335 353.276 106.95 352.953 106.626C352.299 105.973 351.412 105.605 350.487 105.605" stroke="#FFA500"/>
<path d="M343.514 371.681C350.912 371.681 358.007 368.742 363.238 363.511C365.829 360.921 367.883 357.846 369.285 354.461C370.687 351.077 371.409 347.45 371.409 343.786" stroke="#FFA500"/>
<path d="M298.185 326.352C298.185 338.374 302.96 349.904 311.461 358.405C315.67 362.614 320.667 365.953 326.167 368.231C331.667 370.509 337.561 371.681 343.514 371.681" stroke="#FFA500"/>
<path d="M371.409 253.128C351.989 253.128 333.364 260.843 319.632 274.575C305.9 288.307 298.185 306.932 298.185 326.352" stroke="#FFA500"/>
<path d="M489.995 371.681C489.995 356.108 486.927 340.688 480.968 326.3C475.008 311.913 466.273 298.84 455.262 287.828C433.022 265.589 402.86 253.095 371.409 253.096" stroke="#FFA500"/>
<path d="M371.409 343.786C371.409 341.497 370.958 339.23 370.082 337.115C369.206 334.999 367.921 333.077 366.302 331.458C363.033 328.189 358.598 326.352 353.975 326.352" stroke="#FFA500"/>
<path d="M353.974 326.352C351.2 326.352 348.539 327.454 346.578 329.416C344.616 331.378 343.514 334.038 343.514 336.812" stroke="#FFA500"/>
<path d="M343.514 336.813C343.514 338.662 344.249 340.436 345.556 341.744C346.204 342.391 346.973 342.905 347.819 343.256C348.665 343.606 349.572 343.786 350.488 343.786" stroke="#FFA500"/>
<path d="M350.487 343.786C351.412 343.786 352.299 343.419 352.953 342.765C353.276 342.441 353.533 342.057 353.709 341.634C353.884 341.211 353.974 340.757 353.974 340.3" stroke="#FFA500"/>
<path d="M353.974 340.3C353.974 339.842 353.884 339.388 353.709 338.965C353.533 338.542 353.276 338.158 352.953 337.834C352.299 337.18 351.412 336.813 350.487 336.813" stroke="#FFA500"/>
<path d="M343.514 603.578C350.912 603.578 358.007 600.639 363.238 595.408C365.829 592.818 367.883 589.743 369.285 586.359C370.687 582.974 371.409 579.347 371.409 575.684" stroke="#FFA500"/>
<path d="M298.185 558.249C298.185 570.271 302.96 581.801 311.461 590.302C315.67 594.511 320.667 597.85 326.167 600.128C331.667 602.406 337.561 603.579 343.514 603.578" stroke="#FFA500"/>
<path d="M371.409 485.026C351.989 485.026 333.364 492.741 319.632 506.473C305.9 520.205 298.185 538.829 298.185 558.249" stroke="#FFA500"/>
<path d="M489.995 603.578C489.995 588.006 486.927 572.585 480.968 558.197C475.008 543.81 466.273 530.737 455.262 519.725C433.022 497.486 402.86 484.993 371.409 484.993" stroke="#FFA500"/>
<path d="M371.409 575.684C371.409 573.394 370.958 571.127 370.082 569.012C369.206 566.897 367.921 564.975 366.302 563.356C363.033 560.086 358.598 558.249 353.975 558.249" stroke="#FFA500"/>
<path d="M353.974 558.25C351.2 558.25 348.539 559.352 346.578 561.313C344.616 563.275 343.514 565.936 343.514 568.71" stroke="#FFA500"/>
<path d="M343.514 568.71C343.514 570.559 344.249 572.333 345.556 573.641C346.204 574.289 346.973 574.802 347.819 575.153C348.665 575.503 349.572 575.684 350.488 575.684" stroke="#FFA500"/>
<path d="M350.487 575.684C351.412 575.683 352.299 575.316 352.953 574.662C353.276 574.339 353.533 573.954 353.709 573.531C353.884 573.108 353.974 572.655 353.974 572.197" stroke="#FFA500"/>
<path d="M353.974 572.197C353.974 571.739 353.884 571.285 353.709 570.862C353.533 570.439 353.276 570.055 352.953 569.731C352.299 569.077 351.412 568.71 350.487 568.71" stroke="#FFA500"/>
<path d="M357.638 140.473C350.24 140.473 343.145 137.534 337.914 132.303C335.323 129.713 333.268 126.638 331.867 123.253C330.465 119.869 329.743 116.242 329.743 112.578" stroke="#FFA500"/>
<path d="M402.967 95.1445C402.967 107.166 398.191 118.696 389.691 127.197C385.482 131.406 380.484 134.745 374.985 137.023C369.485 139.301 363.591 140.474 357.638 140.474" stroke="#FFA500"/>
<path d="M329.743 21.9211C349.163 21.9211 367.788 29.6356 381.52 43.3677C395.252 57.0998 402.967 75.7244 402.967 95.1445" stroke="#FFA500"/>
<path d="M211.157 140.473C211.157 124.9 214.224 109.48 220.184 95.0923C226.143 80.7047 234.878 67.6319 245.89 56.6202C268.129 34.3811 298.292 21.8874 329.743 21.8875" stroke="#FFA500"/>
<path d="M329.743 112.579C329.743 110.289 330.194 108.022 331.07 105.907C331.946 103.792 333.23 101.87 334.849 100.251C338.119 96.9813 342.553 95.1445 347.177 95.1445" stroke="#FFA500"/>
<path d="M347.177 95.1447C349.952 95.1447 352.612 96.2468 354.574 98.2085C356.536 100.17 357.638 102.831 357.638 105.605" stroke="#FFA500"/>
<path d="M357.638 105.605C357.638 107.455 356.903 109.228 355.595 110.536C354.948 111.184 354.179 111.697 353.333 112.048C352.487 112.398 351.58 112.579 350.664 112.579" stroke="#FFA500"/>
<path d="M350.664 112.579C349.74 112.579 348.853 112.211 348.199 111.557C347.875 111.234 347.618 110.849 347.443 110.426C347.268 110.003 347.178 109.55 347.177 109.092" stroke="#FFA500"/>
<path d="M347.177 109.092C347.178 108.634 347.268 108.181 347.443 107.758C347.618 107.334 347.875 106.95 348.199 106.626C348.853 105.973 349.74 105.605 350.664 105.605" stroke="#FFA500"/>
<path d="M357.638 603.578C350.24 603.578 343.145 600.639 337.914 595.408C335.323 592.818 333.268 589.742 331.867 586.358C330.465 582.974 329.743 579.346 329.743 575.683" stroke="#FFA500"/>
<path d="M402.967 558.249C402.967 570.271 398.191 581.801 389.691 590.302C385.482 594.511 380.484 597.85 374.985 600.128C369.485 602.406 363.591 603.579 357.638 603.578" stroke="#FFA500"/>
<path d="M329.743 485.026C349.163 485.026 367.788 492.741 381.52 506.473C395.252 520.205 402.967 538.829 402.967 558.249" stroke="#FFA500"/>
<path d="M211.157 603.578C211.157 588.005 214.224 572.585 220.184 558.197C226.143 543.81 234.878 530.737 245.89 519.725C268.129 497.486 298.292 484.992 329.743 484.992" stroke="#FFA500"/>
<path d="M329.743 575.684C329.743 573.394 330.194 571.127 331.07 569.012C331.946 566.897 333.23 564.975 334.849 563.356C338.119 560.086 342.553 558.249 347.177 558.249" stroke="#FFA500"/>
<path d="M347.177 558.25C349.952 558.25 352.612 559.352 354.574 561.313C356.536 563.275 357.638 565.936 357.638 568.71" stroke="#FFA500"/>
<path d="M357.638 568.71C357.638 570.559 356.903 572.333 355.595 573.641C354.948 574.289 354.179 574.802 353.333 575.153C352.487 575.503 351.58 575.684 350.664 575.684" stroke="#FFA500"/>
<path d="M350.664 575.684C349.74 575.683 348.853 575.316 348.199 574.662C347.875 574.339 347.618 573.954 347.443 573.531C347.268 573.108 347.178 572.655 347.177 572.197" stroke="#FFA500"/>
<path d="M347.177 572.197C347.178 571.739 347.268 571.285 347.443 570.862C347.618 570.439 347.875 570.055 348.199 569.731C348.853 569.077 349.74 568.71 350.664 568.71" stroke="#FFA500"/>
<path d="M357.638 371.681C350.24 371.681 343.145 368.742 337.914 363.511C335.323 360.921 333.268 357.846 331.867 354.461C330.465 351.077 329.743 347.45 329.743 343.786" stroke="#FFA500"/>
<path d="M402.967 326.352C402.967 338.374 398.191 349.904 389.691 358.405C385.482 362.614 380.484 365.953 374.985 368.231C369.485 370.509 363.591 371.681 357.638 371.681" stroke="#FFA500"/>
<path d="M329.743 253.128C349.163 253.128 367.788 260.843 381.52 274.575C395.252 288.307 402.967 306.932 402.967 326.352" stroke="#FFA500"/>
<path d="M211.157 371.681C211.157 356.108 214.224 340.688 220.184 326.3C226.143 311.913 234.878 298.84 245.89 287.828C268.129 265.589 298.292 253.095 329.743 253.096" stroke="#FFA500"/>
<path d="M329.743 343.786C329.743 341.497 330.194 339.23 331.07 337.115C331.946 334.999 333.23 333.077 334.849 331.458C338.119 328.189 342.553 326.352 347.177 326.352" stroke="#FFA500"/>
<path d="M347.177 326.352C349.952 326.352 352.612 327.454 354.574 329.416C356.536 331.377 357.638 334.038 357.638 336.812" stroke="#FFA500"/>
<path d="M357.638 336.813C357.638 338.662 356.903 340.436 355.595 341.744C354.948 342.391 354.179 342.905 353.333 343.256C352.487 343.606 351.58 343.786 350.664 343.786" stroke="#FFA500"/>
<path d="M350.664 343.786C349.74 343.786 348.853 343.419 348.199 342.765C347.875 342.441 347.618 342.057 347.443 341.634C347.268 341.211 347.178 340.757 347.177 340.3" stroke="#FFA500"/>
<path d="M347.177 340.3C347.178 339.842 347.268 339.388 347.443 338.965C347.618 338.542 347.875 338.158 348.199 337.834C348.853 337.18 349.74 336.813 350.664 336.813" stroke="#FFA500"/>
<path d="M119.31 378.902C119.31 371.504 122.249 364.409 127.48 359.178C130.07 356.588 133.145 354.533 136.53 353.131C139.914 351.729 143.542 351.007 147.205 351.007" stroke="#FFA500"/>
<path d="M164.639 424.231C152.617 424.231 141.087 419.456 132.586 410.955C128.377 406.746 125.038 401.749 122.76 396.249C120.482 390.749 119.31 384.855 119.31 378.902" stroke="#FFA500"/>
<path d="M237.862 351.007C237.862 370.428 230.148 389.052 216.416 402.784C202.684 416.517 184.059 424.231 164.639 424.231" stroke="#FFA500"/>
<path d="M119.31 232.421C134.883 232.421 150.303 235.489 164.691 241.448C179.078 247.408 192.151 256.143 203.163 267.154C225.402 289.394 237.896 319.556 237.896 351.007" stroke="#FFA500"/>
<path d="M147.205 351.008C149.494 351.008 151.761 351.459 153.877 352.335C155.992 353.211 157.914 354.495 159.533 356.114C162.802 359.384 164.639 363.818 164.639 368.442" stroke="#FFA500"/>
<path d="M164.639 368.442C164.639 371.216 163.537 373.877 161.575 375.839C159.613 377.8 156.953 378.903 154.178 378.903" stroke="#FFA500"/>
<path d="M154.178 378.903C152.329 378.903 150.555 378.168 149.247 376.86C148.6 376.213 148.086 375.444 147.736 374.598C147.385 373.752 147.205 372.845 147.205 371.929" stroke="#FFA500"/>
<path d="M147.205 371.929C147.205 371.004 147.572 370.117 148.226 369.463C148.55 369.14 148.934 368.883 149.357 368.707C149.78 368.532 150.234 368.442 150.692 368.442" stroke="#FFA500"/>
<path d="M150.691 368.442C151.149 368.442 151.602 368.532 152.025 368.707C152.448 368.883 152.833 369.14 153.157 369.463C153.81 370.117 154.178 371.004 154.178 371.929" stroke="#FFA500"/>
<path d="M350.517 378.902C350.518 371.504 353.456 364.409 358.688 359.178C361.278 356.588 364.353 354.533 367.737 353.131C371.122 351.729 374.749 351.007 378.412 351.007" stroke="#FFA500"/>
<path d="M395.847 424.231C383.825 424.231 372.295 419.456 363.794 410.955C359.585 406.746 356.246 401.749 353.968 396.249C351.69 390.749 350.517 384.855 350.517 378.902" stroke="#FFA500"/>
<path d="M469.069 351.007C469.069 370.428 461.355 389.052 447.623 402.784C433.89 416.517 415.266 424.231 395.846 424.231" stroke="#FFA500"/>
<path d="M350.517 232.421C366.09 232.421 381.511 235.489 395.898 241.448C410.286 247.408 423.359 256.143 434.371 267.154C456.61 289.394 469.103 319.556 469.103 351.007" stroke="#FFA500"/>
<path d="M378.412 351.008C380.701 351.008 382.968 351.459 385.083 352.335C387.199 353.211 389.121 354.495 390.739 356.114C394.009 359.384 395.846 363.818 395.846 368.442" stroke="#FFA500"/>
<path d="M395.846 368.442C395.846 371.216 394.744 373.877 392.783 375.839C390.821 377.8 388.16 378.903 385.386 378.903" stroke="#FFA500"/>
<path d="M385.385 378.903C383.536 378.903 381.762 378.168 380.454 376.86C379.807 376.213 379.293 375.444 378.942 374.598C378.592 373.752 378.411 372.845 378.411 371.929" stroke="#FFA500"/>
<path d="M378.411 371.929C378.412 371.004 378.779 370.117 379.433 369.463C379.757 369.14 380.141 368.883 380.564 368.707C380.987 368.532 381.44 368.442 381.898 368.442" stroke="#FFA500"/>
<path d="M381.899 368.442C382.357 368.442 382.81 368.532 383.233 368.707C383.656 368.883 384.04 369.14 384.364 369.463C385.018 370.117 385.385 371.004 385.386 371.929" stroke="#FFA500"/>
<path d="M582.414 378.902C582.415 371.504 585.353 364.409 590.585 359.178C593.175 356.588 596.25 354.533 599.634 353.131C603.019 351.729 606.646 351.007 610.309 351.007" stroke="#FFA500"/>
<path d="M627.744 424.231C615.722 424.231 604.192 419.456 595.691 410.955C591.482 406.746 588.143 401.749 585.865 396.249C583.587 390.749 582.414 384.855 582.414 378.902" stroke="#FFA500"/>
<path d="M700.967 351.007C700.967 370.428 693.252 389.052 679.52 402.784C665.788 416.517 647.164 424.231 627.744 424.231" stroke="#FFA500"/>
<path d="M582.414 232.421C597.987 232.421 613.408 235.489 627.795 241.448C642.183 247.408 655.256 256.143 666.268 267.154C688.507 289.394 701 319.556 701 351.007" stroke="#FFA500"/>
<path d="M610.309 351.008C612.599 351.008 614.866 351.459 616.981 352.335C619.096 353.211 621.018 354.495 622.637 356.114C625.907 359.384 627.744 363.818 627.744 368.442" stroke="#FFA500"/>
<path d="M627.743 368.442C627.743 371.216 626.641 373.877 624.68 375.839C622.718 377.8 620.057 378.903 617.283 378.903" stroke="#FFA500"/>
<path d="M617.283 378.903C615.434 378.903 613.66 378.168 612.352 376.86C611.704 376.213 611.191 375.444 610.84 374.598C610.49 373.752 610.309 372.845 610.309 371.929" stroke="#FFA500"/>
<path d="M610.309 371.929C610.309 371.004 610.677 370.117 611.331 369.463C611.654 369.14 612.039 368.883 612.462 368.707C612.885 368.532 613.338 368.442 613.796 368.442" stroke="#FFA500"/>
<path d="M613.796 368.442C614.254 368.442 614.707 368.532 615.13 368.707C615.553 368.883 615.937 369.14 616.261 369.463C616.915 370.117 617.282 371.004 617.283 371.929" stroke="#FFA500"/>
<path d="M119.31 364.778C119.31 372.176 122.249 379.271 127.48 384.502C130.07 387.093 133.145 389.148 136.53 390.549C139.914 391.951 143.542 392.673 147.205 392.673" stroke="#FFA500"/>
<path d="M164.639 319.449C152.617 319.449 141.087 324.225 132.586 332.725C128.377 336.935 125.038 341.932 122.76 347.431C120.482 352.931 119.31 358.825 119.31 364.778" stroke="#FFA500"/>
<path d="M237.862 392.673C237.862 373.253 230.148 354.628 216.416 340.896C202.684 327.164 184.059 319.449 164.639 319.449" stroke="#FFA500"/>
<path d="M119.31 511.259C134.883 511.259 150.303 508.192 164.691 502.232C179.078 496.273 192.151 487.538 203.163 476.526C225.402 454.287 237.896 424.124 237.896 392.673" stroke="#FFA500"/>
<path d="M147.205 392.673C149.494 392.673 151.761 392.222 153.877 391.346C155.992 390.47 157.914 389.186 159.533 387.567C162.802 384.297 164.639 379.863 164.639 375.239" stroke="#FFA500"/>
<path d="M164.639 375.239C164.639 372.464 163.537 369.804 161.575 367.842C159.613 365.88 156.953 364.778 154.178 364.778" stroke="#FFA500"/>
<path d="M154.178 364.778C152.329 364.778 150.555 365.513 149.247 366.821C148.6 367.468 148.086 368.237 147.736 369.083C147.385 369.929 147.205 370.836 147.205 371.752" stroke="#FFA500"/>
<path d="M147.205 371.752C147.205 372.677 147.572 373.564 148.226 374.217C148.55 374.541 148.934 374.798 149.357 374.973C149.78 375.149 150.234 375.239 150.692 375.239" stroke="#FFA500"/>
<path d="M150.691 375.239C151.149 375.239 151.602 375.149 152.025 374.973C152.448 374.798 152.833 374.541 153.157 374.217C153.81 373.564 154.178 372.677 154.178 371.752" stroke="#FFA500"/>
<path d="M350.517 364.778C350.518 372.176 353.456 379.271 358.688 384.502C361.278 387.093 364.353 389.148 367.737 390.549C371.122 391.951 374.749 392.673 378.412 392.673" stroke="#FFA500"/>
<path d="M395.847 319.449C383.825 319.449 372.295 324.225 363.794 332.725C359.585 336.935 356.246 341.932 353.968 347.431C351.69 352.931 350.517 358.825 350.517 364.778" stroke="#FFA500"/>
<path d="M469.07 392.673C469.07 373.253 461.355 354.628 447.623 340.896C433.891 327.164 415.267 319.449 395.847 319.449" stroke="#FFA500"/>
<path d="M350.517 511.259C366.09 511.259 381.511 508.192 395.898 502.232C410.286 496.273 423.359 487.538 434.371 476.526C456.61 454.287 469.103 424.124 469.103 392.673" stroke="#FFA500"/>
<path d="M378.412 392.673C380.701 392.673 382.968 392.222 385.083 391.346C387.199 390.47 389.121 389.186 390.739 387.567C394.009 384.297 395.846 379.863 395.846 375.239" stroke="#FFA500"/>
<path d="M395.846 375.239C395.846 372.464 394.744 369.804 392.783 367.842C390.821 365.88 388.16 364.778 385.386 364.778" stroke="#FFA500"/>
<path d="M385.385 364.778C383.536 364.778 381.762 365.513 380.454 366.821C379.807 367.468 379.293 368.237 378.942 369.083C378.592 369.929 378.411 370.836 378.411 371.752" stroke="#FFA500"/>
<path d="M378.411 371.752C378.412 372.677 378.779 373.564 379.433 374.217C379.757 374.541 380.141 374.798 380.564 374.973C380.987 375.149 381.44 375.239 381.898 375.239" stroke="#FFA500"/>
<path d="M381.899 375.239C382.357 375.239 382.81 375.149 383.233 374.973C383.656 374.798 384.04 374.541 384.364 374.217C385.018 373.564 385.385 372.677 385.386 371.752" stroke="#FFA500"/>
<path d="M582.414 364.778C582.415 372.176 585.353 379.271 590.585 384.503C593.175 387.093 596.25 389.148 599.634 390.55C603.019 391.952 606.646 392.673 610.309 392.673" stroke="#FFA500"/>
<path d="M627.744 319.449C615.722 319.449 604.192 324.225 595.691 332.725C591.482 336.935 588.143 341.932 585.865 347.431C583.587 352.931 582.414 358.825 582.414 364.778" stroke="#FFA500"/>
<path d="M700.967 392.673C700.967 373.253 693.252 354.628 679.52 340.896C665.788 327.164 647.164 319.449 627.744 319.449" stroke="#FFA500"/>
<path d="M582.414 511.259C597.987 511.259 613.408 508.192 627.795 502.232C642.183 496.273 655.256 487.538 666.268 476.526C688.507 454.287 701 424.124 701 392.673" stroke="#FFA500"/>
<path d="M610.309 392.673C612.599 392.673 614.866 392.222 616.981 391.346C619.096 390.47 621.018 389.186 622.637 387.567C625.907 384.297 627.744 379.863 627.744 375.239" stroke="#FFA500"/>
<path d="M627.743 375.239C627.743 372.465 626.641 369.804 624.68 367.842C622.718 365.88 620.057 364.778 617.283 364.778" stroke="#FFA500"/>
<path d="M617.283 364.778C615.434 364.778 613.66 365.513 612.352 366.821C611.704 367.468 611.191 368.237 610.84 369.083C610.49 369.929 610.309 370.836 610.309 371.752" stroke="#FFA500"/>
<path d="M610.309 371.752C610.309 372.677 610.677 373.564 611.331 374.217C611.654 374.541 612.039 374.798 612.462 374.974C612.885 375.149 613.338 375.239 613.796 375.239" stroke="#FFA500"/>
<path d="M613.796 375.239C614.254 375.239 614.707 375.149 615.13 374.974C615.553 374.798 615.937 374.541 616.261 374.217C616.915 373.564 617.282 372.677 617.283 371.752" stroke="#FFA500"/>
<path d="M119.586 378.902C119.586 371.504 116.647 364.409 111.416 359.178C108.825 356.588 105.75 354.533 102.366 353.131C98.9815 351.729 95.3541 351.007 91.6909 351.007" stroke="#FFA500"/>
<path d="M74.2567 424.231C86.2787 424.231 97.8083 419.456 106.309 410.955C110.518 406.746 113.857 401.749 116.135 396.249C118.413 390.749 119.586 384.855 119.586 378.902" stroke="#FFA500"/>
<path d="M1.03324 351.007C1.03324 370.428 8.74783 389.052 22.4799 402.784C36.2119 416.516 54.8366 424.231 74.2567 424.231" stroke="#FFA500"/>
<path d="M119.586 232.421C104.013 232.421 88.5924 235.489 74.2048 241.448C59.8173 247.408 46.7444 256.143 35.7327 267.154C13.4937 289.394 0.999992 319.556 1.00004 351.007" stroke="#FFA500"/>
<path d="M91.6909 351.008C89.4014 351.008 87.1343 351.459 85.0191 352.335C82.9038 353.211 80.9819 354.495 79.363 356.114C76.0935 359.384 74.2567 363.818 74.2567 368.442" stroke="#FFA500"/>
<path d="M74.2569 368.442C74.2569 371.216 75.359 373.877 77.3207 375.839C79.2824 377.8 81.9431 378.903 84.7174 378.903" stroke="#FFA500"/>
<path d="M84.7172 378.903C86.5667 378.903 88.3405 378.168 89.6483 376.86C90.2959 376.213 90.8096 375.444 91.1601 374.598C91.5105 373.752 91.6909 372.845 91.6909 371.929" stroke="#FFA500"/>
<path d="M91.6909 371.929C91.6908 371.004 91.3234 370.117 90.6696 369.463C90.3459 369.14 89.9615 368.883 89.5385 368.707C89.1154 368.532 88.662 368.442 88.2041 368.442" stroke="#FFA500"/>
<path d="M88.2046 368.442C87.7467 368.442 87.2932 368.532 86.8702 368.707C86.4472 368.883 86.0628 369.14 85.739 369.463C85.0852 370.117 84.7178 371.004 84.7177 371.929" stroke="#FFA500"/>
<path d="M350.793 378.902C350.793 371.504 347.854 364.409 342.623 359.178C340.033 356.588 336.958 354.533 333.573 353.131C330.189 351.729 326.562 351.007 322.898 351.007" stroke="#FFA500"/>
<path d="M305.464 424.231C317.486 424.231 329.016 419.456 337.517 410.955C341.726 406.746 345.065 401.749 347.343 396.249C349.621 390.749 350.794 384.855 350.793 378.902" stroke="#FFA500"/>
<path d="M232.241 351.007C232.241 370.428 239.955 389.052 253.688 402.784C267.42 416.516 286.044 424.231 305.464 424.231" stroke="#FFA500"/>
<path d="M350.793 232.421C335.22 232.421 319.8 235.489 305.412 241.448C291.025 247.408 277.952 256.143 266.94 267.154C244.701 289.394 232.208 319.556 232.208 351.007" stroke="#FFA500"/>
<path d="M322.899 351.008C320.609 351.008 318.342 351.459 316.227 352.335C314.111 353.211 312.19 354.495 310.571 356.114C307.301 359.384 305.464 363.818 305.464 368.442" stroke="#FFA500"/>
<path d="M305.465 368.442C305.465 371.216 306.567 373.877 308.528 375.839C310.49 377.8 313.151 378.903 315.925 378.903" stroke="#FFA500"/>
<path d="M315.925 378.903C317.774 378.903 319.548 378.168 320.856 376.86C321.504 376.213 322.017 375.444 322.368 374.598C322.718 373.752 322.899 372.845 322.899 371.929" stroke="#FFA500"/>
<path d="M322.899 371.929C322.898 371.004 322.531 370.117 321.877 369.463C321.554 369.14 321.169 368.883 320.746 368.707C320.323 368.532 319.87 368.442 319.412 368.442" stroke="#FFA500"/>
<path d="M319.412 368.442C318.954 368.442 318.501 368.532 318.078 368.707C317.655 368.883 317.27 369.14 316.947 369.463C316.293 370.117 315.925 371.004 315.925 371.929" stroke="#FFA500"/>
<path d="M582.69 378.902C582.69 371.504 579.751 364.409 574.52 359.178C571.93 356.588 568.855 354.533 565.47 353.131C562.086 351.729 558.459 351.007 554.795 351.007" stroke="#FFA500"/>
<path d="M537.361 424.231C549.383 424.231 560.913 419.456 569.414 410.955C573.623 406.746 576.962 401.749 579.24 396.249C581.518 390.749 582.69 384.855 582.69 378.902" stroke="#FFA500"/>
<path d="M464.138 351.007C464.138 370.428 471.852 389.052 485.585 402.784C499.317 416.516 517.941 424.231 537.361 424.231" stroke="#FFA500"/>
<path d="M582.69 232.421C567.117 232.421 551.697 235.489 537.309 241.448C522.922 247.408 509.849 256.143 498.837 267.154C476.598 289.394 464.105 319.556 464.105 351.007" stroke="#FFA500"/>
<path d="M554.796 351.008C552.506 351.008 550.239 351.459 548.124 352.335C546.008 353.211 544.087 354.495 542.468 356.114C539.198 359.384 537.361 363.818 537.361 368.442" stroke="#FFA500"/>
<path d="M537.361 368.442C537.361 371.216 538.464 373.877 540.425 375.839C542.387 377.8 545.048 378.903 547.822 378.903" stroke="#FFA500"/>
<path d="M547.822 378.903C549.671 378.903 551.445 378.168 552.753 376.86C553.401 376.213 553.914 375.444 554.265 374.598C554.615 373.752 554.796 372.845 554.796 371.929" stroke="#FFA500"/>
<path d="M554.796 371.929C554.795 371.004 554.428 370.117 553.774 369.463C553.45 369.14 553.066 368.883 552.643 368.707C552.22 368.532 551.767 368.442 551.309 368.442" stroke="#FFA500"/>
<path d="M551.308 368.442C550.85 368.442 550.397 368.532 549.974 368.707C549.551 368.883 549.167 369.14 548.843 369.463C548.189 370.117 547.822 371.004 547.822 371.929" stroke="#FFA500"/>
<path d="M119.586 364.778C119.586 372.176 116.647 379.271 111.416 384.502C108.825 387.093 105.75 389.148 102.366 390.549C98.9815 391.951 95.3541 392.673 91.6909 392.673" stroke="#FFA500"/>
<path d="M74.2567 319.449C86.2787 319.449 97.8083 324.225 106.309 332.725C110.518 336.935 113.857 341.932 116.135 347.431C118.413 352.931 119.586 358.825 119.586 364.778" stroke="#FFA500"/>
<path d="M1.03324 392.673C1.03324 373.253 8.74783 354.628 22.4799 340.896C36.2119 327.164 54.8366 319.449 74.2567 319.449" stroke="#FFA500"/>
<path d="M119.586 511.259C104.013 511.259 88.5924 508.192 74.2048 502.232C59.8173 496.273 46.7444 487.538 35.7327 476.526C13.4937 454.287 0.999992 424.124 1.00004 392.673" stroke="#FFA500"/>
<path d="M91.6909 392.673C89.4014 392.673 87.1343 392.222 85.0191 391.346C82.9038 390.47 80.9819 389.186 79.363 387.567C76.0935 384.297 74.2567 379.863 74.2567 375.239" stroke="#FFA500"/>
<path d="M74.2569 375.239C74.2569 372.464 75.359 369.804 77.3207 367.842C79.2824 365.88 81.9431 364.778 84.7174 364.778" stroke="#FFA500"/>
<path d="M84.7172 364.778C86.5667 364.778 88.3405 365.513 89.6483 366.821C90.2959 367.468 90.8096 368.237 91.1601 369.083C91.5105 369.929 91.6909 370.836 91.6909 371.752" stroke="#FFA500"/>
<path d="M91.6909 371.752C91.6908 372.677 91.3234 373.564 90.6696 374.217C90.3459 374.541 89.9615 374.798 89.5385 374.973C89.1154 375.149 88.662 375.239 88.2041 375.239" stroke="#FFA500"/>
<path d="M88.2046 375.239C87.7467 375.239 87.2932 375.149 86.8702 374.973C86.4472 374.798 86.0628 374.541 85.739 374.217C85.0852 373.564 84.7178 372.677 84.7177 371.752" stroke="#FFA500"/>
<path d="M582.69 364.778C582.69 372.176 579.751 379.271 574.52 384.503C571.93 387.093 568.855 389.148 565.47 390.55C562.086 391.952 558.459 392.673 554.795 392.673" stroke="#FFA500"/>
<path d="M537.361 319.449C549.383 319.449 560.913 324.225 569.414 332.725C573.623 336.935 576.962 341.932 579.24 347.431C581.518 352.931 582.69 358.825 582.69 364.778" stroke="#FFA500"/>
<path d="M464.138 392.673C464.138 373.253 471.852 354.628 485.585 340.896C499.317 327.164 517.941 319.449 537.361 319.449" stroke="#FFA500"/>
<path d="M582.69 511.259C567.117 511.259 551.697 508.192 537.309 502.232C522.922 496.273 509.849 487.538 498.837 476.526C476.598 454.287 464.105 424.124 464.105 392.673" stroke="#FFA500"/>
<path d="M554.796 392.673C552.506 392.673 550.239 392.222 548.124 391.346C546.008 390.47 544.087 389.186 542.468 387.567C539.198 384.297 537.361 379.863 537.361 375.239" stroke="#FFA500"/>
<path d="M537.361 375.239C537.361 372.465 538.464 369.804 540.425 367.842C542.387 365.88 545.048 364.778 547.822 364.778" stroke="#FFA500"/>
<path d="M547.822 364.778C549.671 364.778 551.445 365.513 552.753 366.821C553.401 367.468 553.914 368.237 554.265 369.083C554.615 369.929 554.796 370.836 554.796 371.752" stroke="#FFA500"/>
<path d="M554.796 371.752C554.795 372.677 554.428 373.564 553.774 374.217C553.45 374.541 553.066 374.798 552.643 374.974C552.22 375.149 551.767 375.239 551.309 375.239" stroke="#FFA500"/>
<path d="M551.308 375.239C550.85 375.239 550.397 375.149 549.974 374.974C549.551 374.798 549.167 374.541 548.843 374.217C548.189 373.564 547.822 372.677 547.822 371.752" stroke="#FFA500"/>
<path d="M350.793 364.778C350.793 372.176 347.854 379.271 342.623 384.502C340.033 387.093 336.958 389.148 333.573 390.549C330.189 391.951 326.562 392.673 322.898 392.673" stroke="#FFA500"/>
<path d="M305.464 319.449C317.486 319.449 329.016 324.225 337.517 332.725C341.726 336.935 345.065 341.932 347.343 347.431C349.621 352.931 350.794 358.825 350.793 364.778" stroke="#FFA500"/>
<path d="M232.241 392.673C232.241 373.253 239.955 354.628 253.688 340.896C267.42 327.164 286.044 319.449 305.464 319.449" stroke="#FFA500"/>
<path d="M350.793 511.259C335.22 511.259 319.8 508.192 305.412 502.232C291.025 496.273 277.952 487.538 266.94 476.526C244.701 454.287 232.208 424.124 232.208 392.673" stroke="#FFA500"/>
<path d="M322.899 392.673C320.609 392.673 318.342 392.222 316.227 391.346C314.111 390.47 312.19 389.186 310.571 387.567C307.301 384.297 305.464 379.863 305.464 375.239" stroke="#FFA500"/>
<path d="M305.465 375.239C305.465 372.464 306.567 369.804 308.528 367.842C310.49 365.88 313.151 364.778 315.925 364.778" stroke="#FFA500"/>
<path d="M315.925 364.778C317.774 364.778 319.548 365.513 320.856 366.821C321.504 367.468 322.017 368.237 322.368 369.083C322.718 369.929 322.899 370.836 322.899 371.752" stroke="#FFA500"/>
<path d="M322.899 371.752C322.898 372.677 322.531 373.564 321.877 374.217C321.554 374.541 321.169 374.798 320.746 374.973C320.323 375.149 319.87 375.239 319.412 375.239" stroke="#FFA500"/>
<path d="M319.412 375.239C318.954 375.239 318.501 375.149 318.078 374.973C317.655 374.798 317.27 374.541 316.947 374.217C316.293 373.564 315.925 372.677 315.925 371.752" stroke="#FFA500"/>
<path d="M119.31 147.48C119.31 140.082 122.249 132.987 127.48 127.756C130.07 125.166 133.145 123.111 136.53 121.709C139.914 120.307 143.542 119.586 147.205 119.586" stroke="#FFA500"/>
<path d="M164.639 192.81C152.617 192.81 141.087 188.034 132.586 179.533C128.377 175.324 125.038 170.327 122.76 164.827C120.482 159.328 119.31 153.433 119.31 147.481" stroke="#FFA500"/>
<path d="M237.862 119.586C237.862 139.006 230.148 157.631 216.416 171.363C202.684 185.095 184.059 192.809 164.639 192.81" stroke="#FFA500"/>
<path d="M119.31 0.999964C134.883 0.999966 150.303 4.06731 164.691 10.0268C179.078 15.9864 192.151 24.7214 203.163 35.7332C225.402 57.9724 237.896 88.1351 237.896 119.586" stroke="#FFA500"/>
<path d="M147.205 119.586C149.494 119.586 151.761 120.037 153.877 120.913C155.992 121.789 157.914 123.073 159.533 124.692C162.802 127.962 164.639 132.396 164.639 137.02" stroke="#FFA500"/>
<path d="M164.639 137.02C164.639 139.794 163.537 142.455 161.575 144.417C159.613 146.378 156.953 147.48 154.178 147.48" stroke="#FFA500"/>
<path d="M154.178 147.48C152.329 147.48 150.555 146.746 149.247 145.438C148.6 144.79 148.086 144.022 147.736 143.176C147.385 142.329 147.205 141.423 147.205 140.507" stroke="#FFA500"/>
<path d="M147.205 140.507C147.205 139.583 147.572 138.696 148.226 138.042C148.55 137.718 148.934 137.461 149.357 137.286C149.78 137.111 150.234 137.021 150.692 137.02" stroke="#FFA500"/>
<path d="M150.691 137.021C151.149 137.021 151.602 137.111 152.025 137.286C152.448 137.461 152.833 137.718 153.157 138.042C153.81 138.696 154.178 139.583 154.178 140.507" stroke="#FFA500"/>
<path d="M350.517 147.48C350.518 140.082 353.456 132.987 358.688 127.756C361.278 125.166 364.353 123.111 367.737 121.709C371.122 120.307 374.749 119.586 378.412 119.586" stroke="#FFA500"/>
<path d="M395.847 192.81C383.825 192.81 372.295 188.034 363.794 179.533C359.585 175.324 356.246 170.327 353.968 164.827C351.69 159.328 350.517 153.433 350.517 147.481" stroke="#FFA500"/>
<path d="M469.069 119.586C469.069 139.006 461.355 157.631 447.623 171.363C433.89 185.095 415.266 192.809 395.846 192.81" stroke="#FFA500"/>
<path d="M350.517 0.999964C366.09 0.999966 381.511 4.06731 395.898 10.0268C410.286 15.9864 423.359 24.7214 434.371 35.7332C456.61 57.9724 469.103 88.1351 469.103 119.586" stroke="#FFA500"/>
<path d="M378.412 119.586C380.701 119.586 382.968 120.037 385.083 120.913C387.199 121.789 389.121 123.073 390.739 124.692C394.009 127.962 395.846 132.396 395.846 137.02" stroke="#FFA500"/>
<path d="M395.846 137.02C395.846 139.794 394.744 142.455 392.783 144.417C390.821 146.378 388.16 147.48 385.386 147.48" stroke="#FFA500"/>
<path d="M385.385 147.48C383.536 147.48 381.762 146.746 380.454 145.438C379.807 144.79 379.293 144.022 378.942 143.176C378.592 142.329 378.411 141.423 378.411 140.507" stroke="#FFA500"/>
<path d="M378.411 140.507C378.412 139.582 378.779 138.696 379.433 138.042C379.757 137.718 380.141 137.461 380.564 137.286C380.987 137.11 381.44 137.02 381.898 137.02" stroke="#FFA500"/>
<path d="M381.899 137.02C382.357 137.02 382.81 137.11 383.233 137.286C383.656 137.461 384.04 137.718 384.364 138.042C385.018 138.696 385.385 139.582 385.386 140.507" stroke="#FFA500"/>
<path d="M582.415 147.48C582.415 140.082 585.354 132.987 590.585 127.756C593.175 125.166 596.25 123.111 599.635 121.709C603.019 120.307 606.646 119.586 610.31 119.586" stroke="#FFA500"/>
<path d="M627.744 192.81C615.722 192.81 604.192 188.034 595.691 179.533C591.482 175.324 588.143 170.327 585.865 164.827C583.587 159.328 582.415 153.433 582.415 147.481" stroke="#FFA500"/>
<path d="M700.967 119.586C700.967 139.006 693.253 157.631 679.52 171.363C665.788 185.095 647.164 192.809 627.744 192.81" stroke="#FFA500"/>
<path d="M582.415 0.999964C597.988 0.999966 613.408 4.06731 627.796 10.0268C642.183 15.9864 655.256 24.7214 666.268 35.7332C688.507 57.9724 701 88.1351 701 119.586" stroke="#FFA500"/>
<path d="M610.309 119.586C612.599 119.586 614.866 120.037 616.981 120.913C619.097 121.789 621.018 123.073 622.637 124.692C625.907 127.962 627.744 132.396 627.744 137.02" stroke="#FFA500"/>
<path d="M627.744 137.02C627.744 139.794 626.641 142.455 624.68 144.417C622.718 146.378 620.057 147.48 617.283 147.48" stroke="#FFA500"/>
<path d="M617.283 147.48C615.434 147.48 613.66 146.746 612.352 145.438C611.704 144.79 611.191 144.022 610.84 143.176C610.49 142.329 610.309 141.423 610.309 140.507" stroke="#FFA500"/>
<path d="M610.309 140.507C610.31 139.582 610.677 138.696 611.331 138.042C611.654 137.718 612.039 137.461 612.462 137.286C612.885 137.11 613.338 137.02 613.796 137.02" stroke="#FFA500"/>
<path d="M613.796 137.02C614.254 137.02 614.707 137.11 615.13 137.286C615.553 137.461 615.938 137.718 616.261 138.042C616.915 138.696 617.283 139.582 617.283 140.507" stroke="#FFA500"/>
<path d="M119.31 133.357C119.31 140.755 122.249 147.85 127.48 153.081C130.07 155.672 133.145 157.726 136.53 159.128C139.914 160.53 143.542 161.252 147.205 161.252" stroke="#FFA500"/>
<path d="M164.639 88.0279C152.617 88.0278 141.087 92.8034 132.586 101.304C128.377 105.513 125.038 110.51 122.76 116.01C120.482 121.51 119.31 127.404 119.31 133.357" stroke="#FFA500"/>
<path d="M237.862 161.252C237.862 141.832 230.148 123.207 216.416 109.475C202.684 95.7427 184.059 88.028 164.639 88.028" stroke="#FFA500"/>
<path d="M119.31 279.838C134.883 279.838 150.303 276.771 164.691 270.811C179.078 264.852 192.151 256.116 203.163 245.105C225.402 222.866 237.896 192.703 237.896 161.252" stroke="#FFA500"/>
<path d="M147.205 161.252C149.494 161.252 151.761 160.801 153.877 159.924C155.992 159.048 157.914 157.764 159.533 156.145C162.802 152.876 164.639 148.441 164.639 143.817" stroke="#FFA500"/>
<path d="M164.639 143.818C164.639 141.043 163.537 138.383 161.575 136.421C159.613 134.459 156.953 133.357 154.178 133.357" stroke="#FFA500"/>
<path d="M154.178 133.357C152.329 133.357 150.555 134.092 149.247 135.399C148.6 136.047 148.086 136.816 147.736 137.662C147.385 138.508 147.205 139.415 147.205 140.331" stroke="#FFA500"/>
<path d="M147.205 140.331C147.205 141.255 147.572 142.142 148.226 142.796C148.55 143.12 148.934 143.377 149.357 143.552C149.78 143.727 150.234 143.817 150.692 143.817" stroke="#FFA500"/>
<path d="M150.691 143.817C151.149 143.817 151.602 143.727 152.025 143.552C152.448 143.377 152.833 143.12 153.157 142.796C153.81 142.142 154.178 141.255 154.178 140.331" stroke="#FFA500"/>
<path d="M350.517 133.357C350.518 140.755 353.456 147.85 358.688 153.081C361.278 155.672 364.353 157.726 367.737 159.128C371.122 160.53 374.749 161.252 378.412 161.252" stroke="#FFA500"/>
<path d="M395.847 88.0279C383.825 88.0278 372.295 92.8034 363.794 101.304C359.585 105.513 356.246 110.51 353.968 116.01C351.69 121.51 350.517 127.404 350.517 133.357" stroke="#FFA500"/>
<path d="M469.069 161.252C469.069 141.832 461.355 123.207 447.623 109.475C433.89 95.7427 415.266 88.028 395.846 88.028" stroke="#FFA500"/>
<path d="M350.517 279.838C366.09 279.838 381.511 276.77 395.898 270.811C410.286 264.851 423.359 256.116 434.371 245.104C456.61 222.865 469.103 192.702 469.103 161.252" stroke="#FFA500"/>
<path d="M378.412 161.252C380.701 161.252 382.968 160.801 385.083 159.924C387.199 159.048 389.121 157.764 390.739 156.145C394.009 152.876 395.846 148.441 395.846 143.817" stroke="#FFA500"/>
<path d="M395.846 143.818C395.846 141.043 394.744 138.383 392.783 136.421C390.821 134.459 388.16 133.357 385.386 133.357" stroke="#FFA500"/>
<path d="M385.385 133.357C383.536 133.357 381.762 134.092 380.454 135.399C379.807 136.047 379.293 136.816 378.942 137.662C378.592 138.508 378.411 139.415 378.411 140.331" stroke="#FFA500"/>
<path d="M378.411 140.331C378.412 141.255 378.779 142.142 379.433 142.796C379.757 143.12 380.141 143.377 380.564 143.552C380.987 143.727 381.44 143.817 381.898 143.817" stroke="#FFA500"/>
<path d="M381.899 143.817C382.357 143.817 382.81 143.727 383.233 143.552C383.656 143.377 384.04 143.12 384.364 142.796C385.018 142.142 385.385 141.255 385.386 140.331" stroke="#FFA500"/>
<path d="M582.415 133.357C582.415 140.755 585.354 147.85 590.585 153.081C593.175 155.672 596.25 157.726 599.635 159.128C603.019 160.53 606.646 161.252 610.31 161.252" stroke="#FFA500"/>
<path d="M627.744 88.0279C615.722 88.0278 604.192 92.8034 595.691 101.304C591.482 105.513 588.143 110.51 585.865 116.01C583.587 121.51 582.415 127.404 582.415 133.357" stroke="#FFA500"/>
<path d="M700.967 161.252C700.967 141.832 693.253 123.207 679.52 109.475C665.788 95.7427 647.164 88.028 627.744 88.028" stroke="#FFA500"/>
<path d="M582.415 279.838C597.988 279.838 613.408 276.77 627.796 270.811C642.183 264.851 655.256 256.116 666.268 245.104C688.507 222.865 701 192.702 701 161.252" stroke="#FFA500"/>
<path d="M610.309 161.252C612.599 161.252 614.866 160.801 616.981 159.924C619.097 159.048 621.018 157.764 622.637 156.145C625.907 152.876 627.744 148.441 627.744 143.817" stroke="#FFA500"/>
<path d="M627.744 143.818C627.744 141.043 626.641 138.383 624.68 136.421C622.718 134.459 620.057 133.357 617.283 133.357" stroke="#FFA500"/>
<path d="M617.283 133.357C615.434 133.357 613.66 134.092 612.352 135.399C611.704 136.047 611.191 136.816 610.84 137.662C610.49 138.508 610.309 139.415 610.309 140.331" stroke="#FFA500"/>
<path d="M610.309 140.331C610.31 141.255 610.677 142.142 611.331 142.796C611.654 143.12 612.039 143.377 612.462 143.552C612.885 143.727 613.338 143.817 613.796 143.817" stroke="#FFA500"/>
<path d="M613.796 143.817C614.254 143.817 614.707 143.727 615.13 143.552C615.553 143.377 615.938 143.12 616.261 142.796C616.915 142.142 617.283 141.255 617.283 140.331" stroke="#FFA500"/>
<path d="M119.586 147.48C119.586 140.082 116.647 132.987 111.416 127.756C108.825 125.166 105.75 123.111 102.366 121.709C98.9815 120.307 95.3541 119.586 91.6909 119.586" stroke="#FFA500"/>
<path d="M74.2567 192.81C86.2787 192.81 97.8083 188.034 106.309 179.533C110.518 175.324 113.857 170.327 116.135 164.827C118.413 159.328 119.586 153.433 119.586 147.481" stroke="#FFA500"/>
<path d="M1.03324 119.586C1.03324 139.006 8.74783 157.631 22.4799 171.363C36.2119 185.095 54.8366 192.809 74.2567 192.81" stroke="#FFA500"/>
<path d="M119.586 0.999974C104.013 0.999975 88.5924 4.06731 74.2048 10.0268C59.8173 15.9864 46.7444 24.7214 35.7327 35.7332C13.4937 57.9724 0.999992 88.1351 1.00004 119.586" stroke="#FFA500"/>
<path d="M91.6909 119.586C89.4014 119.586 87.1343 120.037 85.0191 120.913C82.9038 121.789 80.9819 123.074 79.363 124.693C76.0935 127.962 74.2567 132.396 74.2567 137.02" stroke="#FFA500"/>
<path d="M74.2569 137.02C74.2569 139.794 75.359 142.455 77.3207 144.417C79.2824 146.378 81.9431 147.48 84.7174 147.48" stroke="#FFA500"/>
<path d="M84.7172 147.48C86.5667 147.48 88.3405 146.746 89.6483 145.438C90.2959 144.79 90.8096 144.022 91.1601 143.176C91.5105 142.329 91.6909 141.423 91.6909 140.507" stroke="#FFA500"/>
<path d="M91.6909 140.507C91.6908 139.583 91.3234 138.696 90.6696 138.042C90.3459 137.718 89.9615 137.461 89.5385 137.286C89.1154 137.111 88.662 137.021 88.2041 137.021" stroke="#FFA500"/>
<path d="M88.2046 137.021C87.7467 137.021 87.2932 137.111 86.8702 137.286C86.4472 137.461 86.0628 137.718 85.739 138.042C85.0852 138.696 84.7178 139.583 84.7177 140.507" stroke="#FFA500"/>
<path d="M350.793 147.48C350.793 140.082 347.854 132.987 342.623 127.756C340.033 125.166 336.958 123.111 333.573 121.709C330.189 120.307 326.562 119.586 322.898 119.586" stroke="#FFA500"/>
<path d="M305.464 192.81C317.486 192.81 329.016 188.034 337.517 179.533C341.726 175.324 345.065 170.327 347.343 164.827C349.621 159.328 350.794 153.433 350.793 147.481" stroke="#FFA500"/>
<path d="M232.241 119.586C232.241 139.006 239.955 157.631 253.688 171.363C267.42 185.095 286.044 192.809 305.464 192.81" stroke="#FFA500"/>
<path d="M350.793 0.999974C335.22 0.999975 319.8 4.06731 305.412 10.0268C291.025 15.9864 277.952 24.7214 266.94 35.7332C244.701 57.9724 232.208 88.1351 232.208 119.586" stroke="#FFA500"/>
<path d="M322.899 119.586C320.609 119.586 318.342 120.037 316.227 120.913C314.111 121.789 312.19 123.074 310.571 124.693C307.301 127.962 305.464 132.396 305.464 137.02" stroke="#FFA500"/>
<path d="M305.465 137.02C305.465 139.794 306.567 142.455 308.528 144.417C310.49 146.378 313.151 147.48 315.925 147.48" stroke="#FFA500"/>
<path d="M315.925 147.48C317.774 147.48 319.548 146.746 320.856 145.438C321.504 144.79 322.017 144.022 322.368 143.176C322.718 142.329 322.899 141.423 322.899 140.507" stroke="#FFA500"/>
<path d="M322.899 140.507C322.898 139.582 322.531 138.696 321.877 138.042C321.554 137.718 321.169 137.461 320.746 137.286C320.323 137.11 319.87 137.02 319.412 137.02" stroke="#FFA500"/>
<path d="M319.412 137.02C318.954 137.02 318.501 137.11 318.078 137.286C317.655 137.461 317.27 137.718 316.947 138.042C316.293 138.696 315.925 139.582 315.925 140.507" stroke="#FFA500"/>
<path d="M582.691 147.48C582.69 140.082 579.752 132.987 574.52 127.756C571.93 125.166 568.855 123.111 565.471 121.709C562.086 120.307 558.459 119.586 554.796 119.586" stroke="#FFA500"/>
<path d="M537.361 192.81C549.383 192.81 560.913 188.034 569.414 179.533C573.623 175.324 576.962 170.327 579.24 164.827C581.518 159.328 582.691 153.433 582.691 147.481" stroke="#FFA500"/>
<path d="M464.138 119.586C464.138 139.006 471.853 157.631 485.585 171.363C499.317 185.095 517.941 192.809 537.361 192.81" stroke="#FFA500"/>
<path d="M582.691 0.999974C567.118 0.999975 551.697 4.06731 537.31 10.0268C522.922 15.9864 509.849 24.7214 498.837 35.7332C476.598 57.9724 464.105 88.1351 464.105 119.586" stroke="#FFA500"/>
<path d="M554.796 119.586C552.506 119.586 550.239 120.037 548.124 120.913C546.009 121.789 544.087 123.074 542.468 124.693C539.198 127.962 537.361 132.396 537.361 137.02" stroke="#FFA500"/>
<path d="M537.362 137.02C537.362 139.794 538.464 142.455 540.425 144.417C542.387 146.378 545.048 147.48 547.822 147.48" stroke="#FFA500"/>
<path d="M547.822 147.48C549.671 147.48 551.445 146.746 552.753 145.438C553.401 144.79 553.914 144.022 554.265 143.176C554.615 142.329 554.796 141.423 554.796 140.507" stroke="#FFA500"/>
<path d="M554.796 140.507C554.796 139.582 554.428 138.696 553.774 138.042C553.451 137.718 553.066 137.461 552.643 137.286C552.22 137.11 551.767 137.02 551.309 137.02" stroke="#FFA500"/>
<path d="M551.308 137.02C550.851 137.02 550.397 137.11 549.974 137.286C549.551 137.461 549.167 137.718 548.843 138.042C548.189 138.696 547.822 139.582 547.822 140.507" stroke="#FFA500"/>
<path d="M119.586 133.357C119.586 140.755 116.647 147.85 111.416 153.081C108.825 155.672 105.75 157.726 102.366 159.128C98.9815 160.53 95.3541 161.252 91.6909 161.252" stroke="#FFA500"/>
<path d="M74.2567 88.028C86.2787 88.0278 97.8083 92.8034 106.309 101.304C110.518 105.513 113.857 110.51 116.135 116.01C118.413 121.51 119.586 127.404 119.586 133.357" stroke="#FFA500"/>
<path d="M1.03324 161.252C1.03324 141.832 8.74783 123.207 22.4799 109.475C36.2119 95.7427 54.8366 88.028 74.2567 88.028" stroke="#FFA500"/>
<path d="M119.586 279.838C104.013 279.838 88.5924 276.771 74.2048 270.811C59.8173 264.852 46.7444 256.116 35.7327 245.105C13.4937 222.866 0.999992 192.703 1.00004 161.252" stroke="#FFA500"/>
<path d="M91.6909 161.252C89.4014 161.251 87.1343 160.801 85.0191 159.924C82.9038 159.048 80.9819 157.764 79.363 156.145C76.0935 152.875 74.2567 148.441 74.2567 143.817" stroke="#FFA500"/>
<path d="M74.2569 143.818C74.2569 141.043 75.359 138.383 77.3207 136.421C79.2824 134.459 81.9431 133.357 84.7174 133.357" stroke="#FFA500"/>
<path d="M84.7172 133.357C86.5667 133.357 88.3405 134.092 89.6483 135.399C90.2959 136.047 90.8096 136.816 91.1601 137.662C91.5105 138.508 91.6909 139.415 91.6909 140.331" stroke="#FFA500"/>
<path d="M91.6909 140.331C91.6908 141.255 91.3234 142.142 90.6696 142.796C90.3459 143.12 89.9615 143.377 89.5385 143.552C89.1154 143.727 88.662 143.817 88.2041 143.817" stroke="#FFA500"/>
<path d="M88.2046 143.817C87.7467 143.817 87.2932 143.727 86.8702 143.552C86.4472 143.377 86.0628 143.12 85.739 142.796C85.0852 142.142 84.7178 141.255 84.7177 140.331" stroke="#FFA500"/>
<path d="M582.691 133.357C582.69 140.755 579.752 147.85 574.52 153.081C571.93 155.672 568.855 157.726 565.471 159.128C562.086 160.53 558.459 161.252 554.796 161.252" stroke="#FFA500"/>
<path d="M537.361 88.028C549.383 88.0278 560.913 92.8034 569.414 101.304C573.623 105.513 576.962 110.51 579.24 116.01C581.518 121.51 582.691 127.404 582.691 133.357" stroke="#FFA500"/>
<path d="M464.138 161.252C464.138 141.832 471.853 123.207 485.585 109.475C499.317 95.7427 517.941 88.028 537.361 88.028" stroke="#FFA500"/>
<path d="M582.691 279.838C567.118 279.838 551.697 276.77 537.31 270.811C522.922 264.851 509.849 256.116 498.837 245.104C476.598 222.865 464.105 192.702 464.105 161.252" stroke="#FFA500"/>
<path d="M554.796 161.252C552.506 161.251 550.239 160.801 548.124 159.924C546.009 159.048 544.087 157.764 542.468 156.145C539.198 152.875 537.361 148.441 537.361 143.817" stroke="#FFA500"/>
<path d="M537.362 143.818C537.362 141.043 538.464 138.383 540.425 136.421C542.387 134.459 545.048 133.357 547.822 133.357" stroke="#FFA500"/>
<path d="M547.822 133.357C549.671 133.357 551.445 134.092 552.753 135.399C553.401 136.047 553.914 136.816 554.265 137.662C554.615 138.508 554.796 139.415 554.796 140.331" stroke="#FFA500"/>
<path d="M554.796 140.331C554.796 141.255 554.428 142.142 553.774 142.796C553.451 143.12 553.066 143.377 552.643 143.552C552.22 143.727 551.767 143.817 551.309 143.817" stroke="#FFA500"/>
<path d="M551.308 143.817C550.851 143.817 550.397 143.727 549.974 143.552C549.551 143.377 549.167 143.12 548.843 142.796C548.189 142.142 547.822 141.255 547.822 140.331" stroke="#FFA500"/>
<path d="M350.793 133.357C350.793 140.755 347.854 147.85 342.623 153.081C340.033 155.672 336.958 157.726 333.573 159.128C330.189 160.53 326.562 161.252 322.898 161.252" stroke="#FFA500"/>
<path d="M305.464 88.028C317.486 88.0278 329.016 92.8034 337.517 101.304C341.726 105.513 345.065 110.51 347.343 116.01C349.621 121.51 350.794 127.404 350.793 133.357" stroke="#FFA500"/>
<path d="M232.241 161.252C232.241 141.832 239.955 123.207 253.688 109.475C267.42 95.7427 286.044 88.028 305.464 88.028" stroke="#FFA500"/>
<path d="M350.793 279.838C335.22 279.838 319.8 276.77 305.412 270.811C291.025 264.851 277.952 256.116 266.94 245.104C244.701 222.865 232.208 192.702 232.208 161.252" stroke="#FFA500"/>
<path d="M322.899 161.252C320.609 161.251 318.342 160.801 316.227 159.924C314.111 159.048 312.19 157.764 310.571 156.145C307.301 152.875 305.464 148.441 305.464 143.817" stroke="#FFA500"/>
<path d="M305.465 143.818C305.465 141.043 306.567 138.383 308.528 136.421C310.49 134.459 313.151 133.357 315.925 133.357" stroke="#FFA500"/>
<path d="M315.925 133.357C317.774 133.357 319.548 134.092 320.856 135.399C321.504 136.047 322.017 136.816 322.368 137.662C322.718 138.508 322.899 139.415 322.899 140.331" stroke="#FFA500"/>
<path d="M322.899 140.331C322.898 141.255 322.531 142.142 321.877 142.796C321.554 143.12 321.169 143.377 320.746 143.552C320.323 143.727 319.87 143.817 319.412 143.817" stroke="#FFA500"/>
<path d="M319.412 143.817C318.954 143.817 318.501 143.727 318.078 143.552C317.655 143.377 317.27 143.12 316.947 142.796C316.293 142.142 315.925 141.255 315.925 140.331" stroke="#FFA500"/>
<path d="M119.31 611.275C119.31 603.877 122.249 596.782 127.48 591.551C130.07 588.961 133.145 586.906 136.53 585.504C139.914 584.102 143.542 583.381 147.205 583.381" stroke="#FFA500"/>
<path d="M164.639 656.604C152.617 656.605 141.087 651.829 132.586 643.328C128.377 639.119 125.038 634.122 122.76 628.622C120.482 623.123 119.31 617.228 119.31 611.275" stroke="#FFA500"/>
<path d="M237.862 583.381C237.862 602.801 230.148 621.425 216.416 635.158C202.684 648.89 184.059 656.604 164.639 656.604" stroke="#FFA500"/>
<path d="M119.31 464.794C134.883 464.794 150.303 467.862 164.691 473.821C179.078 479.781 192.151 488.516 203.163 499.528C225.402 521.767 237.896 551.93 237.896 583.38" stroke="#FFA500"/>
<path d="M147.205 583.38C149.494 583.38 151.761 583.831 153.877 584.708C155.992 585.584 157.914 586.868 159.533 588.487C162.802 591.756 164.639 596.191 164.639 600.815" stroke="#FFA500"/>
<path d="M164.639 600.815C164.639 603.589 163.537 606.25 161.575 608.212C159.613 610.173 156.953 611.275 154.178 611.275" stroke="#FFA500"/>
<path d="M154.178 611.275C152.329 611.275 150.555 610.541 149.247 609.233C148.6 608.585 148.086 607.817 147.736 606.97C147.385 606.124 147.205 605.217 147.205 604.302" stroke="#FFA500"/>
<path d="M147.205 604.302C147.205 603.377 147.572 602.49 148.226 601.837C148.55 601.513 148.934 601.256 149.357 601.081C149.78 600.905 150.234 600.815 150.692 600.815" stroke="#FFA500"/>
<path d="M150.691 600.815C151.149 600.815 151.602 600.905 152.025 601.081C152.448 601.256 152.833 601.513 153.157 601.837C153.81 602.49 154.178 603.377 154.178 604.302" stroke="#FFA500"/>
<path d="M350.517 611.275C350.518 603.877 353.456 596.782 358.688 591.551C361.278 588.961 364.353 586.906 367.737 585.504C371.122 584.102 374.749 583.381 378.412 583.381" stroke="#FFA500"/>
<path d="M395.847 656.604C383.825 656.605 372.295 651.829 363.794 643.328C359.585 639.119 356.246 634.122 353.968 628.622C351.69 623.123 350.517 617.228 350.517 611.275" stroke="#FFA500"/>
<path d="M469.069 583.381C469.069 602.801 461.355 621.425 447.623 635.158C433.89 648.89 415.266 656.604 395.846 656.604" stroke="#FFA500"/>
<path d="M350.517 464.794C366.09 464.794 381.511 467.862 395.898 473.821C410.286 479.781 423.359 488.516 434.371 499.528C456.61 521.767 469.103 551.93 469.103 583.38" stroke="#FFA500"/>
<path d="M378.412 583.38C380.701 583.38 382.968 583.831 385.083 584.708C387.199 585.584 389.121 586.868 390.739 588.487C394.009 591.756 395.846 596.191 395.846 600.815" stroke="#FFA500"/>
<path d="M395.846 600.815C395.846 603.589 394.744 606.25 392.783 608.212C390.821 610.173 388.16 611.275 385.386 611.275" stroke="#FFA500"/>
<path d="M385.385 611.275C383.536 611.275 381.762 610.541 380.454 609.233C379.807 608.585 379.293 607.817 378.942 606.97C378.592 606.124 378.411 605.217 378.411 604.302" stroke="#FFA500"/>
<path d="M378.411 604.302C378.412 603.377 378.779 602.49 379.433 601.837C379.757 601.513 380.141 601.256 380.564 601.081C380.987 600.905 381.44 600.815 381.898 600.815" stroke="#FFA500"/>
<path d="M381.899 600.815C382.357 600.815 382.81 600.905 383.233 601.081C383.656 601.256 384.04 601.513 384.364 601.837C385.018 602.49 385.385 603.377 385.386 604.302" stroke="#FFA500"/>
<path d="M582.415 611.275C582.415 603.877 585.354 596.782 590.585 591.551C593.175 588.961 596.25 586.906 599.635 585.504C603.019 584.102 606.646 583.381 610.31 583.381" stroke="#FFA500"/>
<path d="M627.744 656.604C615.722 656.605 604.192 651.829 595.691 643.328C591.482 639.119 588.143 634.122 585.865 628.622C583.587 623.123 582.415 617.228 582.415 611.275" stroke="#FFA500"/>
<path d="M700.967 583.381C700.967 602.801 693.253 621.425 679.52 635.158C665.788 648.89 647.164 656.604 627.744 656.604" stroke="#FFA500"/>
<path d="M582.415 464.794C597.988 464.794 613.408 467.862 627.796 473.821C642.183 479.781 655.256 488.516 666.268 499.528C688.507 521.767 701 551.93 701 583.38" stroke="#FFA500"/>
<path d="M610.309 583.38C612.599 583.38 614.866 583.831 616.981 584.708C619.097 585.584 621.018 586.868 622.637 588.487C625.907 591.756 627.744 596.191 627.744 600.815" stroke="#FFA500"/>
<path d="M627.744 600.815C627.744 603.589 626.641 606.25 624.68 608.212C622.718 610.173 620.057 611.275 617.283 611.275" stroke="#FFA500"/>
<path d="M617.283 611.275C615.434 611.275 613.66 610.541 612.352 609.233C611.704 608.585 611.191 607.817 610.84 606.97C610.49 606.124 610.309 605.217 610.309 604.302" stroke="#FFA500"/>
<path d="M610.309 604.302C610.31 603.377 610.677 602.49 611.331 601.837C611.654 601.513 612.039 601.256 612.462 601.081C612.885 600.905 613.338 600.815 613.796 600.815" stroke="#FFA500"/>
<path d="M613.796 600.815C614.254 600.815 614.707 600.905 615.13 601.081C615.553 601.256 615.938 601.513 616.261 601.837C616.915 602.49 617.283 603.377 617.283 604.302" stroke="#FFA500"/>
<path d="M119.31 597.151C119.31 604.549 122.249 611.644 127.48 616.876C130.07 619.466 133.145 621.521 136.53 622.923C139.914 624.325 143.542 625.046 147.205 625.046" stroke="#FFA500"/>
<path d="M164.639 551.822C152.617 551.822 141.087 556.598 132.586 565.099C128.377 569.308 125.038 574.305 122.76 579.804C120.482 585.304 119.31 591.199 119.31 597.151" stroke="#FFA500"/>
<path d="M237.862 625.046C237.862 605.626 230.148 587.001 216.416 573.269C202.684 559.537 184.059 551.822 164.639 551.822" stroke="#FFA500"/>
<path d="M119.31 743.632C134.883 743.632 150.303 740.565 164.691 734.605C179.078 728.646 192.151 719.911 203.163 708.899C225.402 686.66 237.896 656.497 237.896 625.046" stroke="#FFA500"/>
<path d="M147.205 625.046C149.494 625.046 151.761 624.595 153.877 623.719C155.992 622.843 157.914 621.558 159.533 619.939C162.802 616.67 164.639 612.235 164.639 607.612" stroke="#FFA500"/>
<path d="M164.639 607.612C164.639 604.838 163.537 602.177 161.575 600.215C159.613 598.254 156.953 597.151 154.178 597.151" stroke="#FFA500"/>
<path d="M154.178 597.151C152.329 597.151 150.555 597.886 149.247 599.194C148.6 599.841 148.086 600.61 147.736 601.456C147.385 602.302 147.205 603.209 147.205 604.125" stroke="#FFA500"/>
<path d="M147.205 604.125C147.205 605.05 147.572 605.936 148.226 606.59C148.55 606.914 148.934 607.171 149.357 607.346C149.78 607.521 150.234 607.612 150.692 607.612" stroke="#FFA500"/>
<path d="M150.691 607.612C151.149 607.612 151.602 607.521 152.025 607.346C152.448 607.171 152.833 606.914 153.157 606.59C153.81 605.936 154.178 605.05 154.178 604.125" stroke="#FFA500"/>
<path d="M350.517 597.151C350.518 604.549 353.456 611.644 358.688 616.876C361.278 619.466 364.353 621.521 367.737 622.923C371.122 624.325 374.749 625.046 378.412 625.046" stroke="#FFA500"/>
<path d="M395.847 551.822C383.825 551.822 372.295 556.598 363.794 565.099C359.585 569.308 356.246 574.305 353.968 579.804C351.69 585.304 350.517 591.199 350.517 597.151" stroke="#FFA500"/>
<path d="M469.07 625.046C469.07 605.626 461.355 587.001 447.623 573.269C433.891 559.537 415.267 551.822 395.847 551.822" stroke="#FFA500"/>
<path d="M350.517 743.632C366.09 743.632 381.511 740.565 395.898 734.605C410.286 728.646 423.359 719.911 434.371 708.899C456.61 686.66 469.103 656.497 469.103 625.046" stroke="#FFA500"/>
<path d="M378.412 625.046C380.701 625.046 382.968 624.595 385.083 623.719C387.199 622.843 389.121 621.558 390.739 619.939C394.009 616.67 395.846 612.235 395.846 607.612" stroke="#FFA500"/>
<path d="M395.846 607.612C395.846 604.838 394.744 602.177 392.783 600.215C390.821 598.254 388.16 597.151 385.386 597.151" stroke="#FFA500"/>
<path d="M385.385 597.151C383.536 597.151 381.762 597.886 380.454 599.194C379.807 599.841 379.293 600.61 378.942 601.456C378.592 602.302 378.411 603.209 378.411 604.125" stroke="#FFA500"/>
<path d="M378.411 604.125C378.412 605.05 378.779 605.936 379.433 606.59C379.757 606.914 380.141 607.171 380.564 607.346C380.987 607.521 381.44 607.612 381.898 607.612" stroke="#FFA500"/>
<path d="M381.899 607.612C382.357 607.612 382.81 607.521 383.233 607.346C383.656 607.171 384.04 606.914 384.364 606.59C385.018 605.936 385.385 605.05 385.386 604.125" stroke="#FFA500"/>
<path d="M582.415 597.151C582.415 604.549 585.354 611.644 590.585 616.876C593.175 619.466 596.25 621.521 599.635 622.923C603.019 624.325 606.646 625.046 610.31 625.046" stroke="#FFA500"/>
<path d="M627.744 551.822C615.722 551.822 604.192 556.598 595.691 565.099C591.482 569.308 588.143 574.305 585.865 579.804C583.587 585.304 582.415 591.199 582.415 597.151" stroke="#FFA500"/>
<path d="M700.967 625.046C700.967 605.626 693.253 587.001 679.52 573.269C665.788 559.537 647.164 551.822 627.744 551.822" stroke="#FFA500"/>
<path d="M582.415 743.632C597.988 743.632 613.408 740.565 627.796 734.605C642.183 728.646 655.256 719.911 666.268 708.899C688.507 686.66 701 656.497 701 625.046" stroke="#FFA500"/>
<path d="M610.309 625.046C612.599 625.046 614.866 624.595 616.981 623.719C619.097 622.843 621.018 621.558 622.637 619.939C625.907 616.67 627.744 612.235 627.744 607.612" stroke="#FFA500"/>
<path d="M627.744 607.612C627.744 604.838 626.641 602.177 624.68 600.215C622.718 598.254 620.057 597.151 617.283 597.151" stroke="#FFA500"/>
<path d="M617.283 597.151C615.434 597.151 613.66 597.886 612.352 599.194C611.704 599.841 611.191 600.61 610.84 601.456C610.49 602.302 610.309 603.209 610.309 604.125" stroke="#FFA500"/>
<path d="M610.309 604.125C610.31 605.05 610.677 605.936 611.331 606.59C611.654 606.914 612.039 607.171 612.462 607.346C612.885 607.521 613.338 607.612 613.796 607.612" stroke="#FFA500"/>
<path d="M613.796 607.612C614.254 607.612 614.707 607.521 615.13 607.346C615.553 607.171 615.938 606.914 616.261 606.59C616.915 605.936 617.283 605.05 617.283 604.125" stroke="#FFA500"/>
<path d="M119.586 611.275C119.586 603.877 116.647 596.782 111.416 591.551C108.825 588.961 105.75 586.906 102.366 585.504C98.9815 584.102 95.3541 583.381 91.6909 583.381" stroke="#FFA500"/>
<path d="M74.2567 656.604C86.2787 656.605 97.8083 651.829 106.309 643.328C110.518 639.119 113.857 634.122 116.135 628.622C118.413 623.123 119.586 617.228 119.586 611.275" stroke="#FFA500"/>
<path d="M1.03324 583.381C1.03324 602.801 8.74783 621.425 22.4799 635.158C36.2119 648.89 54.8366 656.604 74.2567 656.604" stroke="#FFA500"/>
<path d="M119.586 464.794C104.013 464.794 88.5924 467.862 74.2048 473.821C59.8173 479.781 46.7444 488.516 35.7327 499.528C13.4937 521.767 0.999992 551.93 1.00004 583.38" stroke="#FFA500"/>
<path d="M91.6909 583.38C89.4014 583.38 87.1343 583.831 85.0191 584.708C82.9038 585.584 80.9819 586.868 79.363 588.487C76.0935 591.756 74.2567 596.191 74.2567 600.815" stroke="#FFA500"/>
<path d="M74.2569 600.815C74.2569 603.589 75.359 606.25 77.3207 608.212C79.2824 610.173 81.9431 611.275 84.7174 611.275" stroke="#FFA500"/>
<path d="M84.7172 611.275C86.5667 611.275 88.3405 610.541 89.6483 609.233C90.2959 608.585 90.8096 607.817 91.1601 606.97C91.5105 606.124 91.6909 605.217 91.6909 604.302" stroke="#FFA500"/>
<path d="M91.6909 604.302C91.6908 603.377 91.3234 602.49 90.6696 601.837C90.3459 601.513 89.9615 601.256 89.5385 601.081C89.1154 600.905 88.662 600.815 88.2041 600.815" stroke="#FFA500"/>
<path d="M88.2046 600.815C87.7467 600.815 87.2932 600.905 86.8702 601.081C86.4472 601.256 86.0628 601.513 85.739 601.837C85.0852 602.49 84.7178 603.377 84.7177 604.302" stroke="#FFA500"/>
<path d="M350.793 611.275C350.793 603.877 347.854 596.782 342.623 591.551C340.033 588.961 336.958 586.906 333.573 585.504C330.189 584.102 326.562 583.381 322.898 583.381" stroke="#FFA500"/>
<path d="M305.464 656.604C317.486 656.605 329.016 651.829 337.517 643.328C341.726 639.119 345.065 634.122 347.343 628.622C349.621 623.123 350.794 617.228 350.793 611.275" stroke="#FFA500"/>
<path d="M232.241 583.381C232.241 602.801 239.955 621.425 253.688 635.158C267.42 648.89 286.044 656.604 305.464 656.604" stroke="#FFA500"/>
<path d="M350.793 464.794C335.22 464.794 319.8 467.862 305.412 473.821C291.025 479.781 277.952 488.516 266.94 499.528C244.701 521.767 232.208 551.93 232.208 583.38" stroke="#FFA500"/>
<path d="M322.899 583.38C320.609 583.38 318.342 583.831 316.227 584.708C314.111 585.584 312.19 586.868 310.571 588.487C307.301 591.756 305.464 596.191 305.464 600.815" stroke="#FFA500"/>
<path d="M305.465 600.815C305.465 603.589 306.567 606.25 308.528 608.212C310.49 610.173 313.151 611.275 315.925 611.275" stroke="#FFA500"/>
<path d="M315.925 611.275C317.774 611.275 319.548 610.541 320.856 609.233C321.504 608.585 322.017 607.817 322.368 606.97C322.718 606.124 322.899 605.217 322.899 604.302" stroke="#FFA500"/>
<path d="M322.899 604.302C322.898 603.377 322.531 602.49 321.877 601.837C321.554 601.513 321.169 601.256 320.746 601.081C320.323 600.905 319.87 600.815 319.412 600.815" stroke="#FFA500"/>
<path d="M319.412 600.815C318.954 600.815 318.501 600.905 318.078 601.081C317.655 601.256 317.27 601.513 316.947 601.837C316.293 602.49 315.925 603.377 315.925 604.302" stroke="#FFA500"/>
<path d="M582.691 611.275C582.69 603.877 579.752 596.782 574.52 591.551C571.93 588.961 568.855 586.906 565.471 585.504C562.086 584.102 558.459 583.381 554.796 583.381" stroke="#FFA500"/>
<path d="M537.361 656.604C549.383 656.605 560.913 651.829 569.414 643.328C573.623 639.119 576.962 634.122 579.24 628.622C581.518 623.123 582.691 617.228 582.691 611.275" stroke="#FFA500"/>
<path d="M464.138 583.381C464.138 602.801 471.853 621.425 485.585 635.158C499.317 648.89 517.941 656.604 537.361 656.604" stroke="#FFA500"/>
<path d="M582.691 464.794C567.118 464.794 551.697 467.862 537.31 473.821C522.922 479.781 509.849 488.516 498.837 499.528C476.598 521.767 464.105 551.93 464.105 583.38" stroke="#FFA500"/>
<path d="M554.796 583.38C552.506 583.38 550.239 583.831 548.124 584.708C546.009 585.584 544.087 586.868 542.468 588.487C539.198 591.756 537.361 596.191 537.361 600.815" stroke="#FFA500"/>
<path d="M537.362 600.815C537.362 603.589 538.464 606.25 540.425 608.212C542.387 610.173 545.048 611.275 547.822 611.275" stroke="#FFA500"/>
<path d="M547.822 611.275C549.671 611.275 551.445 610.541 552.753 609.233C553.401 608.585 553.914 607.817 554.265 606.97C554.615 606.124 554.796 605.217 554.796 604.302" stroke="#FFA500"/>
<path d="M554.796 604.302C554.796 603.377 554.428 602.49 553.774 601.837C553.451 601.513 553.066 601.256 552.643 601.081C552.22 600.905 551.767 600.815 551.309 600.815" stroke="#FFA500"/>
<path d="M551.308 600.815C550.851 600.815 550.397 600.905 549.974 601.081C549.551 601.256 549.167 601.513 548.843 601.837C548.189 602.49 547.822 603.377 547.822 604.302" stroke="#FFA500"/>
<path d="M119.586 597.151C119.586 604.549 116.647 611.644 111.416 616.876C108.825 619.466 105.75 621.521 102.366 622.923C98.9815 624.325 95.3541 625.046 91.6909 625.046" stroke="#FFA500"/>
<path d="M74.2567 551.822C86.2787 551.822 97.8083 556.598 106.309 565.099C110.518 569.308 113.857 574.305 116.135 579.804C118.413 585.304 119.586 591.199 119.586 597.151" stroke="#FFA500"/>
<path d="M1.03324 625.046C1.03324 605.626 8.74783 587.001 22.4799 573.269C36.2119 559.537 54.8366 551.822 74.2567 551.822" stroke="#FFA500"/>
<path d="M119.586 743.632C104.013 743.632 88.5924 740.565 74.2048 734.605C59.8173 728.646 46.7444 719.911 35.7327 708.899C13.4937 686.66 0.999992 656.497 1.00004 625.046" stroke="#FFA500"/>
<path d="M91.6909 625.046C89.4014 625.046 87.1343 624.595 85.0191 623.719C82.9038 622.843 80.9819 621.558 79.363 619.939C76.0935 616.67 74.2567 612.235 74.2567 607.612" stroke="#FFA500"/>
<path d="M74.2569 607.612C74.2569 604.838 75.359 602.177 77.3207 600.215C79.2824 598.254 81.9431 597.151 84.7174 597.151" stroke="#FFA500"/>
<path d="M84.7172 597.151C86.5667 597.151 88.3405 597.886 89.6483 599.194C90.2959 599.841 90.8096 600.61 91.1601 601.456C91.5105 602.302 91.6909 603.209 91.6909 604.125" stroke="#FFA500"/>
<path d="M91.6909 604.125C91.6908 605.05 91.3234 605.936 90.6696 606.59C90.3459 606.914 89.9615 607.171 89.5385 607.346C89.1154 607.521 88.662 607.612 88.2041 607.612" stroke="#FFA500"/>
<path d="M88.2046 607.612C87.7467 607.612 87.2932 607.521 86.8702 607.346C86.4472 607.171 86.0628 606.914 85.739 606.59C85.0852 605.936 84.7178 605.05 84.7177 604.125" stroke="#FFA500"/>
<path d="M582.691 597.151C582.69 604.549 579.752 611.644 574.52 616.876C571.93 619.466 568.855 621.521 565.471 622.923C562.086 624.325 558.459 625.046 554.796 625.046" stroke="#FFA500"/>
<path d="M537.361 551.822C549.383 551.822 560.913 556.598 569.414 565.099C573.623 569.308 576.962 574.305 579.24 579.804C581.518 585.304 582.691 591.199 582.691 597.151" stroke="#FFA500"/>
<path d="M464.138 625.046C464.138 605.626 471.853 587.001 485.585 573.269C499.317 559.537 517.941 551.822 537.361 551.822" stroke="#FFA500"/>
<path d="M582.691 743.632C567.118 743.632 551.697 740.565 537.31 734.605C522.922 728.646 509.849 719.911 498.837 708.899C476.598 686.66 464.105 656.497 464.105 625.046" stroke="#FFA500"/>
<path d="M554.796 625.046C552.506 625.046 550.239 624.595 548.124 623.719C546.009 622.843 544.087 621.558 542.468 619.939C539.198 616.67 537.361 612.235 537.361 607.612" stroke="#FFA500"/>
<path d="M537.362 607.612C537.362 604.838 538.464 602.177 540.425 600.215C542.387 598.254 545.048 597.151 547.822 597.151" stroke="#FFA500"/>
<path d="M547.822 597.151C549.671 597.151 551.445 597.886 552.753 599.194C553.401 599.841 553.914 600.61 554.265 601.456C554.615 602.302 554.796 603.209 554.796 604.125" stroke="#FFA500"/>
<path d="M554.796 604.125C554.796 605.05 554.428 605.936 553.774 606.59C553.451 606.914 553.066 607.171 552.643 607.346C552.22 607.521 551.767 607.612 551.309 607.612" stroke="#FFA500"/>
<path d="M551.308 607.612C550.851 607.612 550.397 607.521 549.974 607.346C549.551 607.171 549.167 606.914 548.843 606.59C548.189 605.936 547.822 605.05 547.822 604.125" stroke="#FFA500"/>
<path d="M350.793 597.151C350.793 604.549 347.854 611.644 342.623 616.876C340.033 619.466 336.958 621.521 333.573 622.923C330.189 624.325 326.562 625.046 322.898 625.046" stroke="#FFA500"/>
<path d="M305.464 551.822C317.486 551.822 329.016 556.598 337.517 565.099C341.726 569.308 345.065 574.305 347.343 579.804C349.621 585.304 350.794 591.199 350.793 597.151" stroke="#FFA500"/>
<path d="M232.241 625.046C232.241 605.626 239.955 587.001 253.688 573.269C267.42 559.537 286.044 551.822 305.464 551.822" stroke="#FFA500"/>
<path d="M350.793 743.632C335.22 743.632 319.8 740.565 305.412 734.605C291.025 728.646 277.952 719.911 266.94 708.899C244.701 686.66 232.208 656.497 232.208 625.046" stroke="#FFA500"/>
<path d="M322.899 625.046C320.609 625.046 318.342 624.595 316.227 623.719C314.111 622.843 312.19 621.558 310.571 619.939C307.301 616.67 305.464 612.235 305.464 607.612" stroke="#FFA500"/>
<path d="M305.465 607.612C305.465 604.838 306.567 602.177 308.528 600.215C310.49 598.254 313.151 597.151 315.925 597.151" stroke="#FFA500"/>
<path d="M315.925 597.151C317.774 597.151 319.548 597.886 320.856 599.194C321.504 599.841 322.017 600.61 322.368 601.456C322.718 602.302 322.899 603.209 322.899 604.125" stroke="#FFA500"/>
<path d="M322.899 604.125C322.898 605.05 322.531 605.936 321.877 606.59C321.554 606.914 321.169 607.171 320.746 607.346C320.323 607.521 319.87 607.612 319.412 607.612" stroke="#FFA500"/>
<path d="M319.412 607.612C318.954 607.612 318.501 607.521 318.078 607.346C317.655 607.171 317.27 606.914 316.947 606.59C316.293 605.936 315.925 605.05 315.925 604.125" stroke="#FFA500"/>
</svg>
