<svg width="1104" height="658" viewBox="0 0 1104 658" fill="none" xmlns="http://www.w3.org/2000/svg">
<path d="M280.156 345.468C280.156 328.114 287.05 311.47 299.322 299.198C305.398 293.121 312.612 288.301 320.551 285.012C328.491 281.724 337 280.031 345.594 280.031" stroke="#2E8B57" stroke-width="2.92424"/>
<path d="M386.492 451.804C358.29 451.805 331.243 440.602 311.301 420.66C301.427 410.786 293.594 399.063 288.25 386.162C282.906 373.26 280.156 359.433 280.156 345.468" stroke="#2E8B57" stroke-width="2.92424"/>
<path d="M558.264 280.031C558.264 325.588 540.167 369.279 507.954 401.493C475.74 433.706 432.049 451.804 386.492 451.804" stroke="#2E8B57" stroke-width="2.92424"/>
<path d="M280.156 1.8442C316.688 1.84421 352.862 9.03978 386.614 23.02C420.365 37.0003 451.032 57.4915 476.864 83.3237C529.034 135.494 558.342 206.252 558.342 280.031" stroke="#2E8B57" stroke-width="2.92424"/>
<path d="M345.593 280.031C350.964 280.031 356.282 281.089 361.244 283.144C366.206 285.2 370.715 288.212 374.513 292.01C382.183 299.68 386.492 310.083 386.492 320.929" stroke="#2E8B57" stroke-width="2.92424"/>
<path d="M386.492 320.929C386.492 327.438 383.906 333.679 379.304 338.281C374.702 342.883 368.461 345.468 361.953 345.468" stroke="#2E8B57" stroke-width="2.92424"/>
<path d="M361.953 345.468C357.614 345.469 353.453 343.745 350.385 340.677C348.866 339.158 347.661 337.355 346.838 335.37C346.016 333.385 345.593 331.258 345.593 329.109" stroke="#2E8B57" stroke-width="2.92424"/>
<path d="M345.593 329.109C345.593 326.94 346.455 324.86 347.989 323.326C348.749 322.566 349.65 321.964 350.643 321.552C351.635 321.141 352.699 320.93 353.773 320.929" stroke="#2E8B57" stroke-width="2.92424"/>
<path d="M353.773 320.929C354.847 320.93 355.911 321.141 356.903 321.552C357.896 321.964 358.797 322.566 359.557 323.326C361.091 324.86 361.952 326.94 361.953 329.109" stroke="#2E8B57" stroke-width="2.92424"/>
<path d="M823.538 345.468C823.538 328.114 830.432 311.47 842.704 299.198C848.78 293.121 855.994 288.301 863.934 285.012C871.873 281.724 880.382 280.031 888.976 280.031" stroke="#2E8B57" stroke-width="2.92424"/>
<path d="M929.874 451.804C901.672 451.805 874.625 440.602 854.683 420.66C844.809 410.786 836.976 399.063 831.632 386.162C826.288 373.26 823.538 359.433 823.538 345.468" stroke="#2E8B57" stroke-width="2.92424"/>
<path d="M1101.65 280.031C1101.65 325.588 1083.55 369.279 1051.34 401.493C1019.12 433.706 975.431 451.804 929.874 451.804" stroke="#2E8B57" stroke-width="2.92424"/>
<path d="M823.538 1.8442C860.07 1.84421 896.244 9.03978 929.996 23.02C963.747 37.0003 994.414 57.4915 1020.25 83.3237C1072.42 135.494 1101.72 206.252 1101.72 280.031" stroke="#2E8B57" stroke-width="2.92424"/>
<path d="M888.975 280.031C894.346 280.031 899.665 281.089 904.627 283.144C909.589 285.2 914.097 288.212 917.895 292.01C925.565 299.68 929.874 310.083 929.874 320.929" stroke="#2E8B57" stroke-width="2.92424"/>
<path d="M929.874 320.929C929.874 327.438 927.288 333.679 922.686 338.281C918.084 342.883 911.843 345.468 905.335 345.468" stroke="#2E8B57" stroke-width="2.92424"/>
<path d="M905.335 345.468C900.996 345.469 896.835 343.745 893.767 340.677C892.248 339.158 891.043 337.355 890.22 335.37C889.398 333.385 888.975 331.258 888.975 329.109" stroke="#2E8B57" stroke-width="2.92424"/>
<path d="M888.975 329.109C888.976 326.94 889.837 324.86 891.371 323.326C892.131 322.566 893.032 321.964 894.025 321.552C895.017 321.141 896.081 320.93 897.155 320.929" stroke="#2E8B57" stroke-width="2.92424"/>
<path d="M897.155 320.929C898.229 320.93 899.293 321.141 900.285 321.552C901.278 321.964 902.179 322.566 902.939 323.326C904.473 324.86 905.334 326.94 905.335 329.109" stroke="#2E8B57" stroke-width="2.92424"/>
<path d="M280.156 312.336C280.156 329.691 287.05 346.335 299.322 358.606C305.398 364.683 312.612 369.503 320.551 372.792C328.491 376.081 337 377.773 345.594 377.773" stroke="#2E8B57" stroke-width="2.92424"/>
<path d="M386.492 206C358.29 206 331.243 217.203 311.301 237.144C301.427 247.018 293.594 258.741 288.25 271.642C282.906 284.544 280.156 298.371 280.156 312.336" stroke="#2E8B57" stroke-width="2.92424"/>
<path d="M558.264 377.773C558.264 332.216 540.167 288.525 507.954 256.312C475.74 224.098 432.049 206 386.492 206" stroke="#2E8B57" stroke-width="2.92424"/>
<path d="M280.156 655.96C316.688 655.96 352.862 648.765 386.614 634.784C420.365 620.804 451.032 600.313 476.864 574.481C529.034 522.31 558.342 451.553 558.342 377.773" stroke="#2E8B57" stroke-width="2.92424"/>
<path d="M345.593 377.773C350.964 377.773 356.282 376.715 361.244 374.66C366.206 372.605 370.715 369.592 374.513 365.794C382.183 358.124 386.492 347.722 386.492 336.875" stroke="#2E8B57" stroke-width="2.92424"/>
<path d="M386.492 336.875C386.492 330.367 383.906 324.125 379.304 319.523C374.702 314.921 368.461 312.336 361.953 312.336" stroke="#2E8B57" stroke-width="2.92424"/>
<path d="M361.953 312.336C357.614 312.336 353.453 314.059 350.385 317.127C348.866 318.646 347.661 320.45 346.838 322.435C346.016 324.419 345.593 326.547 345.593 328.695" stroke="#2E8B57" stroke-width="2.92424"/>
<path d="M345.593 328.695C345.593 330.864 346.455 332.944 347.989 334.478C348.749 335.238 349.65 335.841 350.643 336.252C351.635 336.663 352.699 336.875 353.773 336.875" stroke="#2E8B57" stroke-width="2.92424"/>
<path d="M353.773 336.875C354.847 336.875 355.911 336.663 356.903 336.252C357.896 335.841 358.797 335.238 359.557 334.478C361.091 332.944 361.952 330.864 361.953 328.695" stroke="#2E8B57" stroke-width="2.92424"/>
<path d="M823.538 312.336C823.538 329.691 830.432 346.335 842.704 358.606C848.78 364.683 855.994 369.503 863.934 372.792C871.873 376.081 880.382 377.773 888.976 377.773" stroke="#2E8B57" stroke-width="2.92424"/>
<path d="M929.874 206C901.672 206 874.625 217.203 854.683 237.144C844.809 247.018 836.976 258.741 831.632 271.642C826.288 284.544 823.538 298.371 823.538 312.336" stroke="#2E8B57" stroke-width="2.92424"/>
<path d="M1101.65 377.773C1101.65 332.216 1083.55 288.525 1051.34 256.312C1019.12 224.098 975.431 206 929.874 206" stroke="#2E8B57" stroke-width="2.92424"/>
<path d="M823.538 655.96C860.07 655.96 896.244 648.765 929.996 634.784C963.747 620.804 994.414 600.313 1020.25 574.481C1072.42 522.31 1101.72 451.553 1101.72 377.773" stroke="#2E8B57" stroke-width="2.92424"/>
<path d="M888.975 377.773C894.346 377.773 899.665 376.715 904.627 374.66C909.589 372.605 914.097 369.592 917.895 365.794C925.565 358.124 929.874 347.722 929.874 336.875" stroke="#2E8B57" stroke-width="2.92424"/>
<path d="M929.874 336.875C929.874 330.367 927.288 324.125 922.686 319.523C918.084 314.921 911.843 312.336 905.335 312.336" stroke="#2E8B57" stroke-width="2.92424"/>
<path d="M905.335 312.336C900.996 312.336 896.835 314.059 893.767 317.127C892.248 318.646 891.043 320.45 890.22 322.435C889.398 324.419 888.975 326.547 888.975 328.695" stroke="#2E8B57" stroke-width="2.92424"/>
<path d="M888.975 328.695C888.976 330.864 889.837 332.944 891.371 334.478C892.131 335.238 893.032 335.841 894.025 336.252C895.017 336.663 896.081 336.875 897.155 336.875" stroke="#2E8B57" stroke-width="2.92424"/>
<path d="M897.155 336.875C898.229 336.875 899.293 336.663 900.285 336.252C901.278 335.841 902.179 335.238 902.939 334.478C904.473 332.944 905.334 330.864 905.335 328.695" stroke="#2E8B57" stroke-width="2.92424"/>
<path d="M279.804 345.468C279.804 328.114 272.91 311.47 260.638 299.198C254.562 293.121 247.348 288.301 239.409 285.012C231.469 281.724 222.96 280.031 214.366 280.031" stroke="#2E8B57" stroke-width="2.92424"/>
<path d="M173.468 451.804C201.67 451.805 228.717 440.602 248.659 420.66C258.533 410.786 266.366 399.063 271.71 386.162C277.054 373.26 279.804 359.433 279.804 345.468" stroke="#2E8B57" stroke-width="2.92424"/>
<path d="M1.69561 280.031C1.69561 325.588 19.793 369.279 52.0066 401.493C84.2201 433.706 127.911 451.804 173.468 451.804" stroke="#2E8B57" stroke-width="2.92424"/>
<path d="M279.804 1.8442C243.272 1.84421 207.098 9.03977 173.347 23.02C139.595 37.0003 108.928 57.4915 83.0961 83.3236C30.9263 135.494 1.61778 206.252 1.6179 280.031" stroke="#2E8B57" stroke-width="2.92424"/>
<path d="M214.367 280.031C208.996 280.031 203.678 281.089 198.716 283.144C193.754 285.2 189.245 288.212 185.447 292.01C177.777 299.68 173.469 310.083 173.468 320.929" stroke="#2E8B57" stroke-width="2.92424"/>
<path d="M173.468 320.929C173.468 327.438 176.054 333.679 180.656 338.281C185.258 342.883 191.499 345.468 198.008 345.468" stroke="#2E8B57" stroke-width="2.92424"/>
<path d="M198.008 345.468C202.346 345.469 206.507 343.745 209.575 340.677C211.094 339.158 212.299 337.355 213.122 335.37C213.944 333.385 214.367 331.258 214.367 329.109" stroke="#2E8B57" stroke-width="2.92424"/>
<path d="M214.367 329.109C214.367 326.94 213.505 324.86 211.971 323.326C211.212 322.566 210.31 321.964 209.317 321.552C208.325 321.141 207.261 320.93 206.187 320.929" stroke="#2E8B57" stroke-width="2.92424"/>
<path d="M206.187 320.929C205.113 320.93 204.049 321.141 203.057 321.552C202.064 321.964 201.163 322.566 200.403 323.326C198.87 324.86 198.008 326.94 198.008 329.109" stroke="#2E8B57" stroke-width="2.92424"/>
<path d="M823.186 345.468C823.186 328.114 816.292 311.47 804.02 299.198C797.944 293.121 790.73 288.301 782.791 285.012C774.851 281.724 766.342 280.031 757.749 280.031" stroke="#2E8B57" stroke-width="2.92424"/>
<path d="M716.85 451.804C745.052 451.805 772.099 440.602 792.041 420.66C801.916 410.786 809.748 399.063 815.092 386.162C820.436 373.26 823.187 359.433 823.186 345.468" stroke="#2E8B57" stroke-width="2.92424"/>
<path d="M545.078 280.031C545.078 325.588 563.175 369.279 595.389 401.493C627.602 433.706 671.293 451.804 716.85 451.804" stroke="#2E8B57" stroke-width="2.92424"/>
<path d="M823.186 1.8442C786.654 1.84421 750.48 9.03977 716.729 23.02C682.977 37.0003 652.31 57.4915 626.478 83.3236C574.308 135.494 545 206.252 545 280.031" stroke="#2E8B57" stroke-width="2.92424"/>
<path d="M757.749 280.031C752.378 280.031 747.06 281.089 742.098 283.144C737.136 285.2 732.627 288.212 728.829 292.01C721.16 299.68 716.851 310.083 716.851 320.929" stroke="#2E8B57" stroke-width="2.92424"/>
<path d="M716.851 320.929C716.851 327.438 719.436 333.679 724.038 338.281C728.64 342.883 734.881 345.468 741.39 345.468" stroke="#2E8B57" stroke-width="2.92424"/>
<path d="M741.39 345.468C745.728 345.469 749.889 343.745 752.957 340.677C754.477 339.158 755.682 337.355 756.504 335.37C757.326 333.385 757.749 331.258 757.749 329.109" stroke="#2E8B57" stroke-width="2.92424"/>
<path d="M757.749 329.109C757.749 326.94 756.887 324.86 755.353 323.326C754.594 322.566 753.692 321.964 752.7 321.552C751.707 321.141 750.644 320.93 749.569 320.929" stroke="#2E8B57" stroke-width="2.92424"/>
<path d="M749.569 320.929C748.495 320.93 747.431 321.141 746.439 321.552C745.447 321.964 744.545 322.566 743.785 323.326C742.252 324.86 741.39 326.94 741.39 329.109" stroke="#2E8B57" stroke-width="2.92424"/>
<path d="M279.804 312.336C279.804 329.691 272.91 346.335 260.638 358.606C254.562 364.683 247.348 369.503 239.409 372.792C231.469 376.081 222.96 377.773 214.366 377.773" stroke="#2E8B57" stroke-width="2.92424"/>
<path d="M173.468 206C201.67 206 228.717 217.203 248.659 237.144C258.533 247.018 266.366 258.741 271.71 271.642C277.054 284.544 279.804 298.371 279.804 312.336" stroke="#2E8B57" stroke-width="2.92424"/>
<path d="M1.69561 377.773C1.69561 332.216 19.793 288.525 52.0066 256.312C84.2201 224.098 127.911 206 173.468 206" stroke="#2E8B57" stroke-width="2.92424"/>
<path d="M279.804 655.96C243.272 655.96 207.098 648.765 173.347 634.784C139.595 620.804 108.928 600.313 83.0961 574.481C30.9263 522.31 1.61778 451.553 1.6179 377.773" stroke="#2E8B57" stroke-width="2.92424"/>
<path d="M214.367 377.773C208.996 377.773 203.678 376.715 198.716 374.66C193.754 372.605 189.245 369.592 185.447 365.794C177.777 358.124 173.469 347.722 173.468 336.875" stroke="#2E8B57" stroke-width="2.92424"/>
<path d="M173.468 336.875C173.468 330.367 176.054 324.125 180.656 319.523C185.258 314.921 191.499 312.336 198.008 312.336" stroke="#2E8B57" stroke-width="2.92424"/>
<path d="M198.008 312.336C202.346 312.336 206.507 314.059 209.575 317.127C211.094 318.646 212.299 320.45 213.122 322.435C213.944 324.419 214.367 326.547 214.367 328.695" stroke="#2E8B57" stroke-width="2.92424"/>
<path d="M214.367 328.695C214.367 330.864 213.505 332.944 211.971 334.478C211.212 335.238 210.31 335.841 209.317 336.252C208.325 336.663 207.261 336.875 206.187 336.875" stroke="#2E8B57" stroke-width="2.92424"/>
<path d="M206.187 336.875C205.113 336.875 204.049 336.663 203.057 336.252C202.064 335.841 201.163 335.238 200.403 334.478C198.87 332.944 198.008 330.864 198.008 328.695" stroke="#2E8B57" stroke-width="2.92424"/>
<path d="M823.186 312.336C823.186 329.691 816.292 346.335 804.02 358.606C797.944 364.683 790.73 369.503 782.791 372.792C774.851 376.081 766.342 377.773 757.749 377.773" stroke="#2E8B57" stroke-width="2.92424"/>
<path d="M716.85 206C745.052 206 772.099 217.203 792.041 237.144C801.916 247.018 809.748 258.741 815.092 271.642C820.436 284.544 823.187 298.371 823.186 312.336" stroke="#2E8B57" stroke-width="2.92424"/>
<path d="M545.078 377.773C545.078 332.216 563.175 288.525 595.389 256.312C627.602 224.098 671.293 206 716.85 206" stroke="#2E8B57" stroke-width="2.92424"/>
<path d="M823.186 655.96C786.654 655.96 750.48 648.765 716.729 634.784C682.977 620.804 652.31 600.313 626.478 574.481C574.308 522.31 545 451.553 545 377.773" stroke="#2E8B57" stroke-width="2.92424"/>
<path d="M757.749 377.773C752.378 377.773 747.06 376.715 742.098 374.66C737.136 372.605 732.627 369.592 728.829 365.794C721.16 358.124 716.851 347.722 716.851 336.875" stroke="#2E8B57" stroke-width="2.92424"/>
<path d="M716.851 336.875C716.851 330.367 719.436 324.125 724.038 319.523C728.64 314.921 734.881 312.336 741.39 312.336" stroke="#2E8B57" stroke-width="2.92424"/>
<path d="M741.39 312.336C745.728 312.336 749.889 314.059 752.957 317.127C754.477 318.646 755.682 320.45 756.504 322.435C757.326 324.419 757.749 326.547 757.749 328.695" stroke="#2E8B57" stroke-width="2.92424"/>
<path d="M757.749 328.695C757.749 330.864 756.887 332.944 755.353 334.478C754.594 335.238 753.692 335.841 752.7 336.252C751.707 336.663 750.644 336.875 749.569 336.875" stroke="#2E8B57" stroke-width="2.92424"/>
<path d="M749.569 336.875C748.495 336.875 747.431 336.663 746.439 336.252C745.447 335.841 744.545 335.238 743.785 334.478C742.252 332.944 741.39 330.864 741.39 328.695" stroke="#2E8B57" stroke-width="2.92424"/>
</svg>
