<svg width="1646" height="1746" viewBox="0 0 1646 1746" fill="none" xmlns="http://www.w3.org/2000/svg">
<path d="M805.492 328.538C822.846 328.538 839.49 335.432 851.762 347.704C857.839 353.78 862.659 360.994 865.948 368.934C869.236 376.873 870.929 385.382 870.929 393.976" stroke="#2E8B57" stroke-width="2.92424"/>
<path d="M699.156 434.874C699.155 406.672 710.358 379.625 730.3 359.683C740.174 349.809 751.897 341.976 764.798 336.632C777.7 331.288 791.527 328.538 805.492 328.538" stroke="#2E8B57" stroke-width="2.92424"/>
<path d="M870.929 606.647C825.372 606.647 781.681 588.549 749.467 556.336C717.254 524.122 699.156 480.431 699.156 434.874" stroke="#2E8B57" stroke-width="2.92424"/>
<path d="M1149.12 328.538C1149.12 365.07 1141.92 401.244 1127.94 434.996C1113.96 468.747 1093.47 499.414 1067.64 525.246C1015.47 577.416 944.708 606.724 870.929 606.724" stroke="#2E8B57" stroke-width="2.92424"/>
<path d="M870.929 393.975C870.929 399.346 869.871 404.664 867.816 409.627C865.76 414.589 862.748 419.097 858.95 422.895C851.28 430.565 840.877 434.874 830.031 434.874" stroke="#2E8B57" stroke-width="2.92424"/>
<path d="M830.03 434.874C823.522 434.874 817.281 432.288 812.679 427.686C808.077 423.084 805.491 416.843 805.491 410.335" stroke="#2E8B57" stroke-width="2.92424"/>
<path d="M805.491 410.335C805.491 405.996 807.215 401.835 810.283 398.767C811.802 397.248 813.605 396.043 815.59 395.221C817.575 394.398 819.702 393.975 821.851 393.975" stroke="#2E8B57" stroke-width="2.92424"/>
<path d="M821.851 393.975C824.02 393.976 826.1 394.837 827.634 396.371C828.394 397.131 828.996 398.032 829.407 399.025C829.819 400.017 830.03 401.081 830.031 402.155" stroke="#2E8B57" stroke-width="2.92424"/>
<path d="M830.031 402.155C830.03 403.229 829.819 404.293 829.407 405.285C828.996 406.278 828.394 407.179 827.634 407.939C826.1 409.473 824.02 410.334 821.851 410.335" stroke="#2E8B57" stroke-width="2.92424"/>
<path d="M805.492 870.92C822.846 870.92 839.49 877.814 851.762 890.086C857.839 896.163 862.659 903.376 865.948 911.316C869.236 919.255 870.929 927.764 870.929 936.358" stroke="#2E8B57" stroke-width="2.92424"/>
<path d="M699.156 977.256C699.155 949.054 710.358 922.007 730.3 902.065C740.174 892.191 751.897 884.358 764.798 879.014C777.7 873.67 791.527 870.92 805.492 870.92" stroke="#2E8B57" stroke-width="2.92424"/>
<path d="M870.929 1149.03C825.372 1149.03 781.681 1130.93 749.467 1098.72C717.254 1066.5 699.156 1022.81 699.156 977.256" stroke="#2E8B57" stroke-width="2.92424"/>
<path d="M1149.12 870.92C1149.12 907.452 1141.92 943.627 1127.94 977.378C1113.96 1011.13 1093.47 1041.8 1067.64 1067.63C1015.47 1119.8 944.708 1149.11 870.929 1149.11" stroke="#2E8B57" stroke-width="2.92424"/>
<path d="M870.929 936.357C870.929 941.728 869.871 947.047 867.816 952.009C865.76 956.971 862.748 961.479 858.95 965.277C851.28 972.947 840.877 977.256 830.031 977.256" stroke="#2E8B57" stroke-width="2.92424"/>
<path d="M830.03 977.256C823.522 977.256 817.281 974.67 812.679 970.068C808.077 965.466 805.491 959.225 805.491 952.717" stroke="#2E8B57" stroke-width="2.92424"/>
<path d="M805.491 952.717C805.491 948.378 807.215 944.217 810.283 941.149C811.802 939.63 813.605 938.425 815.59 937.603C817.575 936.78 819.702 936.357 821.851 936.357" stroke="#2E8B57" stroke-width="2.92424"/>
<path d="M821.851 936.357C824.02 936.358 826.1 937.219 827.634 938.753C828.394 939.513 828.996 940.414 829.407 941.407C829.819 942.399 830.03 943.463 830.031 944.537" stroke="#2E8B57" stroke-width="2.92424"/>
<path d="M830.031 944.537C830.03 945.611 829.819 946.675 829.407 947.667C828.996 948.66 828.394 949.561 827.634 950.321C826.1 951.855 824.02 952.716 821.851 952.717" stroke="#2E8B57" stroke-width="2.92424"/>
<path d="M805.492 1414.92C822.846 1414.92 839.49 1421.81 851.762 1434.09C857.839 1440.16 862.659 1447.38 865.948 1455.32C869.236 1463.25 870.929 1471.76 870.929 1480.36" stroke="#2E8B57" stroke-width="2.92424"/>
<path d="M699.156 1521.26C699.155 1493.05 710.358 1466.01 730.3 1446.07C740.174 1436.19 751.897 1428.36 764.798 1423.01C777.7 1417.67 791.527 1414.92 805.492 1414.92" stroke="#2E8B57" stroke-width="2.92424"/>
<path d="M870.929 1693.03C825.372 1693.03 781.681 1674.93 749.467 1642.72C717.254 1610.5 699.156 1566.81 699.156 1521.26" stroke="#2E8B57" stroke-width="2.92424"/>
<path d="M1149.12 1414.92C1149.12 1451.45 1141.92 1487.63 1127.94 1521.38C1113.96 1555.13 1093.47 1585.8 1067.64 1611.63C1015.47 1663.8 944.708 1693.11 870.929 1693.11" stroke="#2E8B57" stroke-width="2.92424"/>
<path d="M870.929 1480.36C870.929 1485.73 869.871 1491.05 867.816 1496.01C865.76 1500.97 862.748 1505.48 858.95 1509.28C851.28 1516.95 840.877 1521.26 830.031 1521.26" stroke="#2E8B57" stroke-width="2.92424"/>
<path d="M830.03 1521.26C823.522 1521.26 817.281 1518.67 812.679 1514.07C808.077 1509.47 805.491 1503.22 805.491 1496.72" stroke="#2E8B57" stroke-width="2.92424"/>
<path d="M805.491 1496.72C805.491 1492.38 807.215 1488.22 810.283 1485.15C811.802 1483.63 813.605 1482.42 815.59 1481.6C817.575 1480.78 819.702 1480.36 821.851 1480.36" stroke="#2E8B57" stroke-width="2.92424"/>
<path d="M821.851 1480.36C824.02 1480.36 826.1 1481.22 827.634 1482.75C828.394 1483.51 828.996 1484.41 829.407 1485.41C829.819 1486.4 830.03 1487.46 830.031 1488.54" stroke="#2E8B57" stroke-width="2.92424"/>
<path d="M830.031 1488.54C830.03 1489.61 829.819 1490.67 829.407 1491.67C828.996 1492.66 828.394 1493.56 827.634 1494.32C826.1 1495.85 824.02 1496.72 821.851 1496.72" stroke="#2E8B57" stroke-width="2.92424"/>
<path d="M838.624 328.538C821.269 328.538 804.625 335.432 792.354 347.704C786.277 353.78 781.457 360.994 778.168 368.934C774.879 376.873 773.187 385.382 773.187 393.976" stroke="#2E8B57" stroke-width="2.92424"/>
<path d="M944.96 434.874C944.96 406.672 933.757 379.625 913.816 359.683C903.942 349.809 892.219 341.976 879.318 336.632C866.416 331.288 852.589 328.538 838.624 328.538" stroke="#2E8B57" stroke-width="2.92424"/>
<path d="M773.187 606.647C818.744 606.647 862.435 588.549 894.648 556.336C926.862 524.122 944.96 480.431 944.96 434.874" stroke="#2E8B57" stroke-width="2.92424"/>
<path d="M495 328.538C495 365.07 502.196 401.244 516.176 434.996C530.156 468.747 550.647 499.414 576.479 525.246C628.65 577.416 699.407 606.724 773.187 606.724" stroke="#2E8B57" stroke-width="2.92424"/>
<path d="M773.187 393.975C773.187 399.346 774.245 404.664 776.3 409.627C778.356 414.589 781.368 419.097 785.166 422.895C792.836 430.565 803.238 434.874 814.085 434.874" stroke="#2E8B57" stroke-width="2.92424"/>
<path d="M814.085 434.874C820.593 434.874 826.835 432.288 831.437 427.686C836.039 423.084 838.624 416.843 838.624 410.335" stroke="#2E8B57" stroke-width="2.92424"/>
<path d="M838.624 410.335C838.624 405.996 836.901 401.835 833.833 398.767C832.314 397.248 830.51 396.043 828.526 395.221C826.541 394.398 824.413 393.975 822.265 393.975" stroke="#2E8B57" stroke-width="2.92424"/>
<path d="M822.265 393.975C820.096 393.976 818.016 394.837 816.482 396.371C815.722 397.131 815.119 398.032 814.708 399.025C814.297 400.017 814.085 401.081 814.085 402.155" stroke="#2E8B57" stroke-width="2.92424"/>
<path d="M814.085 402.155C814.085 403.229 814.297 404.293 814.708 405.285C815.119 406.278 815.722 407.179 816.482 407.939C818.016 409.473 820.096 410.334 822.265 410.335" stroke="#2E8B57" stroke-width="2.92424"/>
<path d="M838.624 870.92C821.269 870.92 804.625 877.814 792.354 890.086C786.277 896.163 781.457 903.376 778.168 911.316C774.879 919.255 773.187 927.764 773.187 936.358" stroke="#2E8B57" stroke-width="2.92424"/>
<path d="M944.96 977.256C944.96 949.054 933.757 922.007 913.816 902.065C903.942 892.191 892.219 884.358 879.318 879.014C866.416 873.67 852.589 870.92 838.624 870.92" stroke="#2E8B57" stroke-width="2.92424"/>
<path d="M773.187 1149.03C818.744 1149.03 862.435 1130.93 894.648 1098.72C926.862 1066.5 944.96 1022.81 944.96 977.256" stroke="#2E8B57" stroke-width="2.92424"/>
<path d="M495 870.92C495 907.452 502.196 943.626 516.176 977.378C530.156 1011.13 550.647 1041.8 576.479 1067.63C628.65 1119.8 699.407 1149.11 773.187 1149.11" stroke="#2E8B57" stroke-width="2.92424"/>
<path d="M773.187 936.357C773.187 941.728 774.245 947.047 776.3 952.009C778.356 956.971 781.368 961.479 785.166 965.277C792.836 972.947 803.238 977.256 814.085 977.256" stroke="#2E8B57" stroke-width="2.92424"/>
<path d="M814.085 977.256C820.593 977.256 826.835 974.67 831.437 970.068C836.039 965.466 838.624 959.225 838.624 952.717" stroke="#2E8B57" stroke-width="2.92424"/>
<path d="M838.624 952.717C838.624 948.378 836.901 944.217 833.833 941.149C832.314 939.63 830.51 938.425 828.526 937.603C826.541 936.78 824.413 936.357 822.265 936.357" stroke="#2E8B57" stroke-width="2.92424"/>
<path d="M822.265 936.357C820.096 936.358 818.016 937.219 816.482 938.753C815.722 939.513 815.119 940.414 814.708 941.407C814.297 942.399 814.085 943.463 814.085 944.537" stroke="#2E8B57" stroke-width="2.92424"/>
<path d="M814.085 944.537C814.085 945.611 814.297 946.675 814.708 947.667C815.119 948.66 815.722 949.561 816.482 950.321C818.016 951.855 820.096 952.716 822.265 952.717" stroke="#2E8B57" stroke-width="2.92424"/>
<path d="M838.624 1414.92C821.269 1414.92 804.625 1421.81 792.354 1434.09C786.277 1440.16 781.457 1447.38 778.168 1455.32C774.879 1463.25 773.187 1471.76 773.187 1480.36" stroke="#2E8B57" stroke-width="2.92424"/>
<path d="M944.96 1521.26C944.96 1493.05 933.757 1466.01 913.816 1446.07C903.942 1436.19 892.219 1428.36 879.318 1423.01C866.416 1417.67 852.589 1414.92 838.624 1414.92" stroke="#2E8B57" stroke-width="2.92424"/>
<path d="M773.187 1693.03C818.744 1693.03 862.435 1674.93 894.648 1642.72C926.862 1610.5 944.96 1566.81 944.96 1521.26" stroke="#2E8B57" stroke-width="2.92424"/>
<path d="M495 1414.92C495 1451.45 502.196 1487.63 516.176 1521.38C530.156 1555.13 550.647 1585.8 576.479 1611.63C628.65 1663.8 699.407 1693.11 773.187 1693.11" stroke="#2E8B57" stroke-width="2.92424"/>
<path d="M773.187 1480.36C773.187 1485.73 774.245 1491.05 776.3 1496.01C778.356 1500.97 781.368 1505.48 785.166 1509.28C792.836 1516.95 803.238 1521.26 814.085 1521.26" stroke="#2E8B57" stroke-width="2.92424"/>
<path d="M814.085 1521.26C820.593 1521.26 826.835 1518.67 831.437 1514.07C836.039 1509.47 838.624 1503.22 838.624 1496.72" stroke="#2E8B57" stroke-width="2.92424"/>
<path d="M838.624 1496.72C838.624 1492.38 836.901 1488.22 833.833 1485.15C832.314 1483.63 830.51 1482.42 828.526 1481.6C826.541 1480.78 824.413 1480.36 822.265 1480.36" stroke="#2E8B57" stroke-width="2.92424"/>
<path d="M822.265 1480.36C820.096 1480.36 818.016 1481.22 816.482 1482.75C815.722 1483.51 815.119 1484.41 814.708 1485.41C814.297 1486.4 814.085 1487.46 814.085 1488.54" stroke="#2E8B57" stroke-width="2.92424"/>
<path d="M814.085 1488.54C814.085 1489.61 814.297 1490.67 814.708 1491.67C815.119 1492.66 815.722 1493.56 816.482 1494.32C818.016 1495.85 820.096 1496.72 822.265 1496.72" stroke="#2E8B57" stroke-width="2.92424"/>
<path d="M805.492 329.186C822.846 329.186 839.49 322.292 851.762 310.02C857.839 303.944 862.659 296.73 865.948 288.791C869.236 280.851 870.929 272.342 870.929 263.749" stroke="#2E8B57" stroke-width="2.92424"/>
<path d="M699.156 222.85C699.155 251.052 710.358 278.099 730.3 298.041C740.174 307.916 751.897 315.748 764.798 321.092C777.7 326.436 791.527 329.187 805.492 329.186" stroke="#2E8B57" stroke-width="2.92424"/>
<path d="M870.929 51.0777C825.372 51.0777 781.681 69.1751 749.467 101.389C717.254 133.602 699.156 177.293 699.156 222.85" stroke="#2E8B57" stroke-width="2.92424"/>
<path d="M1149.12 329.186C1149.12 292.654 1141.92 256.48 1127.94 222.729C1113.96 188.977 1093.47 158.31 1067.64 132.478C1015.47 80.3085 944.708 50.9999 870.929 51" stroke="#2E8B57" stroke-width="2.92424"/>
<path d="M870.929 263.749C870.929 258.378 869.871 253.06 867.816 248.098C865.76 243.136 862.748 238.627 858.95 234.829C851.28 227.159 840.878 222.851 830.031 222.851" stroke="#2E8B57" stroke-width="2.92424"/>
<path d="M830.031 222.851C823.523 222.851 817.281 225.436 812.679 230.038C808.077 234.64 805.492 240.881 805.492 247.39" stroke="#2E8B57" stroke-width="2.92424"/>
<path d="M805.492 247.39C805.492 251.728 807.215 255.889 810.283 258.957C811.802 260.476 813.606 261.682 815.59 262.504C817.575 263.326 819.703 263.749 821.851 263.749" stroke="#2E8B57" stroke-width="2.92424"/>
<path d="M821.851 263.749C824.02 263.749 826.1 262.887 827.634 261.353C828.394 260.594 828.996 259.692 829.408 258.7C829.819 257.707 830.031 256.644 830.031 255.569" stroke="#2E8B57" stroke-width="2.92424"/>
<path d="M830.031 255.569C830.031 254.495 829.819 253.431 829.408 252.439C828.996 251.447 828.394 250.545 827.634 249.785C826.1 248.252 824.02 247.39 821.851 247.39" stroke="#2E8B57" stroke-width="2.92424"/>
<path d="M805.492 871.568C822.846 871.568 839.49 864.674 851.762 852.402C857.839 846.326 862.659 839.112 865.948 831.173C869.236 823.233 870.929 814.724 870.929 806.131" stroke="#2E8B57" stroke-width="2.92424"/>
<path d="M699.156 765.232C699.155 793.434 710.358 820.481 730.3 840.423C740.174 850.298 751.897 858.13 764.798 863.474C777.7 868.818 791.527 871.569 805.492 871.568" stroke="#2E8B57" stroke-width="2.92424"/>
<path d="M870.929 593.46C825.372 593.46 781.681 611.557 749.467 643.771C717.254 675.984 699.156 719.675 699.156 765.232" stroke="#2E8B57" stroke-width="2.92424"/>
<path d="M1149.12 871.568C1149.12 835.036 1141.92 798.862 1127.94 765.111C1113.96 731.359 1093.47 700.692 1067.64 674.86C1015.47 622.691 944.708 593.382 870.929 593.382" stroke="#2E8B57" stroke-width="2.92424"/>
<path d="M870.929 806.131C870.929 800.76 869.871 795.442 867.816 790.48C865.76 785.518 862.748 781.009 858.95 777.211C851.28 769.542 840.878 765.233 830.031 765.233" stroke="#2E8B57" stroke-width="2.92424"/>
<path d="M830.031 765.233C823.523 765.233 817.281 767.818 812.679 772.42C808.077 777.022 805.492 783.264 805.492 789.772" stroke="#2E8B57" stroke-width="2.92424"/>
<path d="M805.492 789.772C805.492 794.11 807.215 798.271 810.283 801.339C811.802 802.859 813.606 804.064 815.59 804.886C817.575 805.708 819.703 806.131 821.851 806.131" stroke="#2E8B57" stroke-width="2.92424"/>
<path d="M821.851 806.131C824.02 806.131 826.1 805.269 827.634 803.735C828.394 802.976 828.996 802.074 829.408 801.082C829.819 800.089 830.031 799.026 830.031 797.951" stroke="#2E8B57" stroke-width="2.92424"/>
<path d="M830.031 797.951C830.031 796.877 829.819 795.813 829.408 794.821C828.996 793.829 828.394 792.927 827.634 792.168C826.1 790.634 824.02 789.772 821.851 789.772" stroke="#2E8B57" stroke-width="2.92424"/>
<path d="M805.492 1415.57C822.846 1415.57 839.49 1408.67 851.762 1396.4C857.839 1390.33 862.659 1383.11 865.948 1375.17C869.236 1367.23 870.929 1358.72 870.929 1350.13" stroke="#2E8B57" stroke-width="2.92424"/>
<path d="M699.156 1309.23C699.155 1337.43 710.358 1364.48 730.3 1384.42C740.174 1394.3 751.897 1402.13 764.798 1407.47C777.7 1412.82 791.527 1415.57 805.492 1415.57" stroke="#2E8B57" stroke-width="2.92424"/>
<path d="M870.929 1137.46C825.372 1137.46 781.681 1155.56 749.467 1187.77C717.254 1219.98 699.156 1263.68 699.156 1309.23" stroke="#2E8B57" stroke-width="2.92424"/>
<path d="M1149.12 1415.57C1149.12 1379.04 1141.92 1342.86 1127.94 1309.11C1113.96 1275.36 1093.47 1244.69 1067.64 1218.86C1015.47 1166.69 944.708 1137.38 870.929 1137.38" stroke="#2E8B57" stroke-width="2.92424"/>
<path d="M870.929 1350.13C870.929 1344.76 869.871 1339.44 867.816 1334.48C865.76 1329.52 862.748 1325.01 858.95 1321.21C851.28 1313.54 840.878 1309.23 830.031 1309.23" stroke="#2E8B57" stroke-width="2.92424"/>
<path d="M830.031 1309.23C823.523 1309.23 817.281 1311.82 812.679 1316.42C808.077 1321.02 805.492 1327.26 805.492 1333.77" stroke="#2E8B57" stroke-width="2.92424"/>
<path d="M805.492 1333.77C805.492 1338.11 807.215 1342.27 810.283 1345.34C811.802 1346.86 813.606 1348.06 815.59 1348.89C817.575 1349.71 819.703 1350.13 821.851 1350.13" stroke="#2E8B57" stroke-width="2.92424"/>
<path d="M821.851 1350.13C824.02 1350.13 826.1 1349.27 827.634 1347.74C828.394 1346.98 828.996 1346.07 829.408 1345.08C829.819 1344.09 830.031 1343.03 830.031 1341.95" stroke="#2E8B57" stroke-width="2.92424"/>
<path d="M830.031 1341.95C830.031 1340.88 829.819 1339.81 829.408 1338.82C828.996 1337.83 828.394 1336.93 827.634 1336.17C826.1 1334.63 824.02 1333.77 821.851 1333.77" stroke="#2E8B57" stroke-width="2.92424"/>
<path d="M838.624 329.186C821.269 329.186 804.625 322.292 792.354 310.02C786.277 303.944 781.457 296.73 778.168 288.791C774.879 280.851 773.187 272.342 773.187 263.749" stroke="#2E8B57" stroke-width="2.92424"/>
<path d="M944.96 222.85C944.96 251.052 933.757 278.099 913.816 298.041C903.942 307.916 892.219 315.748 879.318 321.092C866.416 326.436 852.589 329.186 838.624 329.186" stroke="#2E8B57" stroke-width="2.92424"/>
<path d="M773.187 51.0777C818.744 51.0777 862.435 69.1751 894.648 101.389C926.862 133.602 944.96 177.293 944.96 222.85" stroke="#2E8B57" stroke-width="2.92424"/>
<path d="M495 329.186C495 292.654 502.196 256.48 516.176 222.729C530.156 188.977 550.647 158.31 576.479 132.478C628.65 80.3084 699.407 50.9999 773.187 51" stroke="#2E8B57" stroke-width="2.92424"/>
<path d="M773.187 263.749C773.187 258.378 774.245 253.06 776.3 248.098C778.356 243.136 781.368 238.627 785.166 234.829C792.836 227.159 803.238 222.851 814.085 222.851" stroke="#2E8B57" stroke-width="2.92424"/>
<path d="M814.085 222.851C820.593 222.851 826.835 225.436 831.437 230.038C836.039 234.64 838.624 240.881 838.624 247.39" stroke="#2E8B57" stroke-width="2.92424"/>
<path d="M838.624 247.39C838.624 251.728 836.901 255.889 833.833 258.957C832.314 260.476 830.51 261.682 828.526 262.504C826.541 263.326 824.413 263.749 822.265 263.749" stroke="#2E8B57" stroke-width="2.92424"/>
<path d="M822.265 263.749C820.096 263.749 818.016 262.887 816.482 261.353C815.722 260.594 815.119 259.692 814.708 258.7C814.297 257.707 814.085 256.644 814.085 255.569" stroke="#2E8B57" stroke-width="2.92424"/>
<path d="M814.085 255.569C814.085 254.495 814.297 253.431 814.708 252.439C815.119 251.447 815.722 250.545 816.482 249.785C818.016 248.252 820.096 247.39 822.265 247.39" stroke="#2E8B57" stroke-width="2.92424"/>
<path d="M838.624 1415.57C821.269 1415.57 804.625 1408.67 792.354 1396.4C786.277 1390.33 781.457 1383.11 778.168 1375.17C774.879 1367.23 773.187 1358.72 773.187 1350.13" stroke="#2E8B57" stroke-width="2.92424"/>
<path d="M944.96 1309.23C944.96 1337.43 933.757 1364.48 913.816 1384.42C903.942 1394.3 892.219 1402.13 879.318 1407.47C866.416 1412.82 852.589 1415.57 838.624 1415.57" stroke="#2E8B57" stroke-width="2.92424"/>
<path d="M773.187 1137.46C818.744 1137.46 862.435 1155.56 894.648 1187.77C926.862 1219.98 944.96 1263.68 944.96 1309.23" stroke="#2E8B57" stroke-width="2.92424"/>
<path d="M495 1415.57C495 1379.04 502.196 1342.86 516.176 1309.11C530.156 1275.36 550.647 1244.69 576.479 1218.86C628.65 1166.69 699.407 1137.38 773.187 1137.38" stroke="#2E8B57" stroke-width="2.92424"/>
<path d="M773.187 1350.13C773.187 1344.76 774.245 1339.44 776.3 1334.48C778.356 1329.52 781.368 1325.01 785.166 1321.21C792.836 1313.54 803.238 1309.23 814.085 1309.23" stroke="#2E8B57" stroke-width="2.92424"/>
<path d="M814.085 1309.23C820.593 1309.23 826.835 1311.82 831.437 1316.42C836.039 1321.02 838.624 1327.26 838.624 1333.77" stroke="#2E8B57" stroke-width="2.92424"/>
<path d="M838.624 1333.77C838.624 1338.11 836.901 1342.27 833.833 1345.34C832.314 1346.86 830.51 1348.06 828.526 1348.89C826.541 1349.71 824.413 1350.13 822.265 1350.13" stroke="#2E8B57" stroke-width="2.92424"/>
<path d="M822.265 1350.13C820.096 1350.13 818.016 1349.27 816.482 1347.74C815.722 1346.98 815.119 1346.07 814.708 1345.08C814.297 1344.09 814.085 1343.03 814.085 1341.95" stroke="#2E8B57" stroke-width="2.92424"/>
<path d="M814.085 1341.95C814.085 1340.88 814.297 1339.81 814.708 1338.82C815.119 1337.83 815.722 1336.93 816.482 1336.17C818.016 1334.63 820.096 1333.77 822.265 1333.77" stroke="#2E8B57" stroke-width="2.92424"/>
<path d="M838.624 871.568C821.269 871.568 804.625 864.674 792.354 852.402C786.277 846.326 781.457 839.112 778.168 831.173C774.879 823.233 773.187 814.724 773.187 806.131" stroke="#2E8B57" stroke-width="2.92424"/>
<path d="M944.96 765.232C944.96 793.434 933.757 820.481 913.816 840.423C903.942 850.298 892.219 858.13 879.318 863.474C866.416 868.818 852.589 871.569 838.624 871.568" stroke="#2E8B57" stroke-width="2.92424"/>
<path d="M773.187 593.46C818.744 593.46 862.435 611.557 894.648 643.771C926.862 675.984 944.96 719.675 944.96 765.232" stroke="#2E8B57" stroke-width="2.92424"/>
<path d="M495 871.568C495 835.036 502.196 798.862 516.176 765.111C530.156 731.359 550.647 700.692 576.479 674.86C628.65 622.691 699.407 593.382 773.187 593.382" stroke="#2E8B57" stroke-width="2.92424"/>
<path d="M773.187 806.131C773.187 800.76 774.245 795.442 776.3 790.48C778.356 785.518 781.368 781.009 785.166 777.211C792.836 769.542 803.238 765.233 814.085 765.233" stroke="#2E8B57" stroke-width="2.92424"/>
<path d="M814.085 765.233C820.593 765.233 826.835 767.818 831.437 772.42C836.039 777.022 838.624 783.264 838.624 789.772" stroke="#2E8B57" stroke-width="2.92424"/>
<path d="M838.624 789.772C838.624 794.11 836.901 798.271 833.833 801.339C832.314 802.859 830.51 804.064 828.526 804.886C826.541 805.708 824.413 806.131 822.265 806.131" stroke="#2E8B57" stroke-width="2.92424"/>
<path d="M822.265 806.131C820.096 806.131 818.016 805.269 816.482 803.735C815.722 802.976 815.119 802.074 814.708 801.082C814.297 800.089 814.085 799.026 814.085 797.951" stroke="#2E8B57" stroke-width="2.92424"/>
<path d="M814.085 797.951C814.085 796.877 814.297 795.813 814.708 794.821C815.119 793.829 815.722 792.927 816.482 792.168C818.016 790.634 820.096 789.772 822.265 789.772" stroke="#2E8B57" stroke-width="2.92424"/>
<path d="M279.538 888.509C279.538 871.154 286.432 854.51 298.704 842.238C304.78 836.161 311.994 831.341 319.934 828.053C327.873 824.764 336.382 823.071 344.976 823.071" stroke="#2E8B57" stroke-width="2.92424"/>
<path d="M385.874 994.844C357.672 994.845 330.625 983.642 310.683 963.7C300.809 953.826 292.976 942.103 287.632 929.202C282.288 916.301 279.538 902.473 279.538 888.509" stroke="#2E8B57" stroke-width="2.92424"/>
<path d="M557.647 823.071C557.646 868.628 539.549 912.319 507.336 944.533C475.122 976.747 431.431 994.844 385.874 994.844" stroke="#2E8B57" stroke-width="2.92424"/>
<path d="M279.538 544.884C316.07 544.884 352.244 552.08 385.996 566.06C419.747 580.04 450.414 600.532 476.246 626.364C528.416 678.534 557.724 749.292 557.724 823.071" stroke="#2E8B57" stroke-width="2.92424"/>
<path d="M344.975 823.071C350.346 823.071 355.665 824.129 360.627 826.184C365.589 828.24 370.097 831.252 373.895 835.05C381.565 842.72 385.874 853.123 385.874 863.969" stroke="#2E8B57" stroke-width="2.92424"/>
<path d="M385.874 863.97C385.874 870.478 383.288 876.719 378.686 881.321C374.084 885.923 367.843 888.509 361.335 888.509" stroke="#2E8B57" stroke-width="2.92424"/>
<path d="M361.335 888.509C356.996 888.509 352.835 886.785 349.767 883.717C348.248 882.198 347.043 880.395 346.22 878.41C345.398 876.425 344.975 874.298 344.975 872.149" stroke="#2E8B57" stroke-width="2.92424"/>
<path d="M344.975 872.149C344.976 869.98 345.837 867.9 347.371 866.366C348.131 865.606 349.032 865.004 350.025 864.593C351.017 864.181 352.081 863.97 353.155 863.969" stroke="#2E8B57" stroke-width="2.92424"/>
<path d="M353.155 863.969C354.229 863.97 355.293 864.181 356.285 864.593C357.278 865.004 358.179 865.606 358.939 866.366C360.473 867.9 361.334 869.98 361.335 872.149" stroke="#2E8B57" stroke-width="2.92424"/>
<path d="M821.92 888.509C821.92 871.154 828.814 854.51 841.086 842.238C847.163 836.161 854.376 831.341 862.316 828.053C870.255 824.764 878.764 823.071 887.358 823.071" stroke="#2E8B57" stroke-width="2.92424"/>
<path d="M928.256 994.844C900.054 994.845 873.007 983.642 853.065 963.7C843.191 953.826 835.358 942.103 830.014 929.202C824.67 916.301 821.92 902.473 821.92 888.508" stroke="#2E8B57" stroke-width="2.92424"/>
<path d="M1100.03 823.071C1100.03 868.628 1081.93 912.319 1049.72 944.533C1017.5 976.747 973.813 994.844 928.256 994.844" stroke="#2E8B57" stroke-width="2.92424"/>
<path d="M821.92 544.884C858.452 544.884 894.626 552.08 928.378 566.06C962.129 580.04 992.796 600.532 1018.63 626.364C1070.8 678.534 1100.11 749.292 1100.11 823.071" stroke="#2E8B57" stroke-width="2.92424"/>
<path d="M887.357 823.071C892.728 823.071 898.047 824.129 903.009 826.184C907.971 828.24 912.479 831.252 916.277 835.05C923.947 842.72 928.256 853.123 928.256 863.969" stroke="#2E8B57" stroke-width="2.92424"/>
<path d="M928.256 863.969C928.256 870.478 925.67 876.719 921.069 881.321C916.467 885.923 910.225 888.509 903.717 888.509" stroke="#2E8B57" stroke-width="2.92424"/>
<path d="M903.717 888.509C899.378 888.509 895.217 886.785 892.149 883.717C890.63 882.198 889.425 880.395 888.603 878.41C887.781 876.425 887.357 874.298 887.357 872.149" stroke="#2E8B57" stroke-width="2.92424"/>
<path d="M887.357 872.149C887.358 869.98 888.219 867.9 889.753 866.366C890.513 865.606 891.414 865.004 892.407 864.593C893.399 864.181 894.463 863.97 895.537 863.969" stroke="#2E8B57" stroke-width="2.92424"/>
<path d="M895.537 863.969C896.611 863.97 897.675 864.181 898.667 864.593C899.66 865.004 900.561 865.606 901.321 866.366C902.855 867.9 903.717 869.98 903.717 872.149" stroke="#2E8B57" stroke-width="2.92424"/>
<path d="M1365.92 888.508C1365.92 871.154 1372.81 854.51 1385.09 842.238C1391.16 836.161 1398.38 831.341 1406.32 828.052C1414.25 824.764 1422.76 823.071 1431.36 823.071" stroke="#2E8B57" stroke-width="2.92424"/>
<path d="M1472.26 994.844C1444.05 994.845 1417.01 983.642 1397.07 963.7C1387.19 953.826 1379.36 942.103 1374.01 929.202C1368.67 916.3 1365.92 902.473 1365.92 888.508" stroke="#2E8B57" stroke-width="2.92424"/>
<path d="M1644.03 823.071C1644.03 868.628 1625.93 912.319 1593.72 944.533C1561.5 976.747 1517.81 994.844 1472.26 994.844" stroke="#2E8B57" stroke-width="2.92424"/>
<path d="M1365.92 544.884C1402.45 544.884 1438.63 552.08 1472.38 566.06C1506.13 580.04 1536.8 600.532 1562.63 626.364C1614.8 678.534 1644.11 749.292 1644.11 823.071" stroke="#2E8B57" stroke-width="2.92424"/>
<path d="M1431.36 823.071C1436.73 823.071 1442.05 824.129 1447.01 826.184C1451.97 828.24 1456.48 831.252 1460.28 835.05C1467.95 842.72 1472.26 853.123 1472.26 863.969" stroke="#2E8B57" stroke-width="2.92424"/>
<path d="M1472.26 863.969C1472.26 870.478 1469.67 876.719 1465.07 881.321C1460.47 885.923 1454.22 888.508 1447.72 888.508" stroke="#2E8B57" stroke-width="2.92424"/>
<path d="M1447.72 888.508C1443.38 888.509 1439.22 886.785 1436.15 883.717C1434.63 882.198 1433.42 880.395 1432.6 878.41C1431.78 876.425 1431.36 874.298 1431.36 872.149" stroke="#2E8B57" stroke-width="2.92424"/>
<path d="M1431.36 872.149C1431.36 869.98 1432.22 867.9 1433.75 866.366C1434.51 865.606 1435.41 865.004 1436.41 864.593C1437.4 864.181 1438.46 863.97 1439.54 863.969" stroke="#2E8B57" stroke-width="2.92424"/>
<path d="M1439.54 863.969C1440.61 863.97 1441.68 864.181 1442.67 864.593C1443.66 865.004 1444.56 865.606 1445.32 866.366C1446.85 867.9 1447.72 869.98 1447.72 872.149" stroke="#2E8B57" stroke-width="2.92424"/>
<path d="M279.538 855.376C279.538 872.731 286.432 889.374 298.704 901.646C304.78 907.723 311.994 912.543 319.934 915.832C327.873 919.12 336.382 920.813 344.976 920.813" stroke="#2E8B57" stroke-width="2.92424"/>
<path d="M385.874 749.04C357.672 749.04 330.625 760.243 310.683 780.184C300.809 790.058 292.976 801.781 287.632 814.682C282.288 827.584 279.538 841.411 279.538 855.376" stroke="#2E8B57" stroke-width="2.92424"/>
<path d="M557.647 920.813C557.646 875.256 539.549 831.565 507.336 799.351C475.122 767.138 431.431 749.04 385.874 749.04" stroke="#2E8B57" stroke-width="2.92424"/>
<path d="M279.538 1199C316.07 1199 352.244 1191.8 385.996 1177.82C419.747 1163.84 450.414 1143.35 476.246 1117.52C528.416 1065.35 557.724 994.593 557.724 920.813" stroke="#2E8B57" stroke-width="2.92424"/>
<path d="M344.975 920.813C350.346 920.813 355.665 919.755 360.627 917.7C365.589 915.644 370.097 912.632 373.895 908.834C381.565 901.164 385.874 890.762 385.874 879.915" stroke="#2E8B57" stroke-width="2.92424"/>
<path d="M385.874 879.915C385.874 873.407 383.288 867.165 378.686 862.563C374.084 857.961 367.843 855.376 361.335 855.376" stroke="#2E8B57" stroke-width="2.92424"/>
<path d="M361.335 855.376C356.996 855.376 352.835 857.099 349.767 860.167C348.248 861.686 347.043 863.49 346.22 865.474C345.398 867.459 344.975 869.587 344.975 871.735" stroke="#2E8B57" stroke-width="2.92424"/>
<path d="M344.975 871.735C344.976 873.904 345.837 875.984 347.371 877.518C348.131 878.278 349.032 878.88 350.025 879.292C351.017 879.703 352.081 879.915 353.155 879.915" stroke="#2E8B57" stroke-width="2.92424"/>
<path d="M353.155 879.915C354.229 879.915 355.293 879.703 356.285 879.292C357.278 878.88 358.179 878.278 358.939 877.518C360.473 875.984 361.334 873.904 361.335 871.735" stroke="#2E8B57" stroke-width="2.92424"/>
<path d="M821.92 855.376C821.92 872.731 828.814 889.374 841.086 901.646C847.163 907.723 854.376 912.543 862.316 915.832C870.255 919.12 878.764 920.813 887.358 920.813" stroke="#2E8B57" stroke-width="2.92424"/>
<path d="M928.256 749.04C900.054 749.04 873.007 760.242 853.065 780.184C843.191 790.058 835.358 801.781 830.014 814.682C824.67 827.584 821.92 841.411 821.92 855.376" stroke="#2E8B57" stroke-width="2.92424"/>
<path d="M1100.03 920.813C1100.03 875.256 1081.93 831.565 1049.72 799.351C1017.5 767.138 973.813 749.04 928.256 749.04" stroke="#2E8B57" stroke-width="2.92424"/>
<path d="M821.92 1199C858.452 1199 894.626 1191.8 928.378 1177.82C962.129 1163.84 992.796 1143.35 1018.63 1117.52C1070.8 1065.35 1100.11 994.593 1100.11 920.813" stroke="#2E8B57" stroke-width="2.92424"/>
<path d="M887.357 920.813C892.728 920.813 898.047 919.755 903.009 917.7C907.971 915.644 912.479 912.632 916.277 908.834C923.947 901.164 928.256 890.762 928.256 879.915" stroke="#2E8B57" stroke-width="2.92424"/>
<path d="M928.256 879.915C928.256 873.407 925.67 867.165 921.069 862.563C916.467 857.961 910.225 855.376 903.717 855.376" stroke="#2E8B57" stroke-width="2.92424"/>
<path d="M903.717 855.376C899.378 855.376 895.217 857.099 892.149 860.167C890.63 861.686 889.425 863.49 888.603 865.474C887.781 867.459 887.357 869.587 887.357 871.735" stroke="#2E8B57" stroke-width="2.92424"/>
<path d="M887.357 871.735C887.358 873.904 888.219 875.984 889.753 877.518C890.513 878.278 891.414 878.88 892.407 879.292C893.399 879.703 894.463 879.915 895.537 879.915" stroke="#2E8B57" stroke-width="2.92424"/>
<path d="M895.537 879.915C896.611 879.915 897.675 879.703 898.667 879.292C899.66 878.88 900.561 878.278 901.321 877.518C902.855 875.984 903.717 873.904 903.717 871.735" stroke="#2E8B57" stroke-width="2.92424"/>
<path d="M1365.92 855.376C1365.92 872.73 1372.81 889.374 1385.09 901.646C1391.16 907.723 1398.38 912.543 1406.32 915.832C1414.25 919.12 1422.76 920.813 1431.36 920.813" stroke="#2E8B57" stroke-width="2.92424"/>
<path d="M1472.26 749.04C1444.05 749.04 1417.01 760.242 1397.07 780.184C1387.19 790.058 1379.36 801.781 1374.01 814.682C1368.67 827.584 1365.92 841.411 1365.92 855.376" stroke="#2E8B57" stroke-width="2.92424"/>
<path d="M1644.03 920.813C1644.03 875.256 1625.93 831.565 1593.72 799.351C1561.5 767.138 1517.81 749.04 1472.26 749.04" stroke="#2E8B57" stroke-width="2.92424"/>
<path d="M1365.92 1199C1402.45 1199 1438.63 1191.8 1472.38 1177.82C1506.13 1163.84 1536.8 1143.35 1562.63 1117.52C1614.8 1065.35 1644.11 994.593 1644.11 920.813" stroke="#2E8B57" stroke-width="2.92424"/>
<path d="M1431.36 920.813C1436.73 920.813 1442.05 919.755 1447.01 917.7C1451.97 915.644 1456.48 912.632 1460.28 908.834C1467.95 901.164 1472.26 890.762 1472.26 879.915" stroke="#2E8B57" stroke-width="2.92424"/>
<path d="M1472.26 879.915C1472.26 873.407 1469.67 867.165 1465.07 862.563C1460.47 857.961 1454.22 855.376 1447.72 855.376" stroke="#2E8B57" stroke-width="2.92424"/>
<path d="M1447.72 855.376C1443.38 855.376 1439.22 857.099 1436.15 860.167C1434.63 861.686 1433.42 863.49 1432.6 865.474C1431.78 867.459 1431.36 869.587 1431.36 871.735" stroke="#2E8B57" stroke-width="2.92424"/>
<path d="M1431.36 871.735C1431.36 873.904 1432.22 875.984 1433.75 877.518C1434.51 878.278 1435.41 878.88 1436.41 879.292C1437.4 879.703 1438.46 879.915 1439.54 879.915" stroke="#2E8B57" stroke-width="2.92424"/>
<path d="M1439.54 879.915C1440.61 879.915 1441.68 879.703 1442.67 879.292C1443.66 878.88 1444.56 878.278 1445.32 877.518C1446.85 875.984 1447.72 873.904 1447.72 871.735" stroke="#2E8B57" stroke-width="2.92424"/>
<path d="M280.186 888.509C280.186 871.154 273.292 854.51 261.02 842.238C254.944 836.161 247.73 831.341 239.791 828.053C231.851 824.764 223.342 823.071 214.749 823.071" stroke="#2E8B57" stroke-width="2.92424"/>
<path d="M173.85 994.844C202.052 994.845 229.099 983.642 249.041 963.7C258.916 953.826 266.748 942.103 272.092 929.202C277.436 916.301 280.187 902.473 280.186 888.509" stroke="#2E8B57" stroke-width="2.92424"/>
<path d="M2.07763 823.071C2.07763 868.628 20.175 912.319 52.3886 944.533C84.6021 976.747 128.293 994.844 173.85 994.844" stroke="#2E8B57" stroke-width="2.92424"/>
<path d="M280.186 544.884C243.654 544.884 207.48 552.08 173.729 566.06C139.977 580.04 109.31 600.532 83.4782 626.364C31.3085 678.534 1.99992 749.292 2.00004 823.071" stroke="#2E8B57" stroke-width="2.92424"/>
<path d="M214.749 823.071C209.378 823.071 204.06 824.129 199.098 826.184C194.136 828.24 189.627 831.252 185.829 835.05C178.16 842.72 173.851 853.123 173.851 863.969" stroke="#2E8B57" stroke-width="2.92424"/>
<path d="M173.851 863.969C173.851 870.478 176.436 876.719 181.038 881.321C185.64 885.923 191.881 888.509 198.39 888.509" stroke="#2E8B57" stroke-width="2.92424"/>
<path d="M198.39 888.509C202.728 888.509 206.889 886.785 209.957 883.717C211.477 882.198 212.682 880.395 213.504 878.41C214.326 876.425 214.749 874.298 214.749 872.149" stroke="#2E8B57" stroke-width="2.92424"/>
<path d="M214.749 872.149C214.749 869.98 213.887 867.9 212.353 866.366C211.594 865.606 210.692 865.004 209.7 864.593C208.707 864.181 207.644 863.97 206.569 863.969" stroke="#2E8B57" stroke-width="2.92424"/>
<path d="M206.569 863.969C205.495 863.97 204.431 864.181 203.439 864.593C202.447 865.004 201.545 865.606 200.785 866.366C199.252 867.9 198.39 869.98 198.39 872.149" stroke="#2E8B57" stroke-width="2.92424"/>
<path d="M822.568 888.509C822.568 871.154 815.674 854.51 803.402 842.238C797.326 836.161 790.112 831.341 782.173 828.053C774.233 824.764 765.724 823.071 757.131 823.071" stroke="#2E8B57" stroke-width="2.92424"/>
<path d="M716.232 994.844C744.434 994.845 771.481 983.642 791.423 963.7C801.298 953.826 809.13 942.103 814.474 929.202C819.818 916.301 822.568 902.473 822.568 888.508" stroke="#2E8B57" stroke-width="2.92424"/>
<path d="M544.46 823.071C544.46 868.628 562.557 912.319 594.771 944.533C626.984 976.747 670.675 994.844 716.232 994.844" stroke="#2E8B57" stroke-width="2.92424"/>
<path d="M822.568 544.884C786.036 544.884 749.862 552.08 716.111 566.06C682.359 580.04 651.692 600.532 625.86 626.364C573.69 678.534 544.382 749.292 544.382 823.071" stroke="#2E8B57" stroke-width="2.92424"/>
<path d="M757.131 823.071C751.76 823.071 746.442 824.129 741.48 826.184C736.518 828.24 732.009 831.252 728.211 835.05C720.541 842.72 716.232 853.123 716.232 863.969" stroke="#2E8B57" stroke-width="2.92424"/>
<path d="M716.232 863.969C716.232 870.478 718.818 876.719 723.42 881.321C728.022 885.923 734.263 888.509 740.771 888.509" stroke="#2E8B57" stroke-width="2.92424"/>
<path d="M740.771 888.509C745.11 888.509 749.271 886.785 752.339 883.717C753.858 882.198 755.063 880.395 755.886 878.41C756.708 876.425 757.131 874.298 757.131 872.149" stroke="#2E8B57" stroke-width="2.92424"/>
<path d="M757.131 872.149C757.131 869.98 756.269 867.9 754.735 866.366C753.976 865.606 753.074 865.004 752.081 864.593C751.089 864.181 750.025 863.97 748.951 863.969" stroke="#2E8B57" stroke-width="2.92424"/>
<path d="M748.951 863.969C747.877 863.97 746.813 864.181 745.821 864.593C744.828 865.004 743.927 865.606 743.167 866.366C741.634 867.9 740.772 869.98 740.771 872.149" stroke="#2E8B57" stroke-width="2.92424"/>
<path d="M1366.57 888.508C1366.57 871.154 1359.67 854.51 1347.4 842.238C1341.33 836.161 1334.11 831.341 1326.17 828.052C1318.23 824.764 1309.72 823.071 1301.13 823.071" stroke="#2E8B57" stroke-width="2.92424"/>
<path d="M1260.23 994.844C1288.43 994.845 1315.48 983.642 1335.42 963.7C1345.3 953.826 1353.13 942.103 1358.47 929.202C1363.82 916.3 1366.57 902.473 1366.57 888.508" stroke="#2E8B57" stroke-width="2.92424"/>
<path d="M1088.46 823.071C1088.46 868.628 1106.56 912.319 1138.77 944.533C1170.98 976.747 1214.68 994.844 1260.23 994.844" stroke="#2E8B57" stroke-width="2.92424"/>
<path d="M1366.57 544.884C1330.04 544.884 1293.86 552.08 1260.11 566.06C1226.36 580.04 1195.69 600.531 1169.86 626.364C1117.69 678.534 1088.38 749.292 1088.38 823.071" stroke="#2E8B57" stroke-width="2.92424"/>
<path d="M1301.13 823.071C1295.76 823.071 1290.44 824.129 1285.48 826.184C1280.52 828.24 1276.01 831.252 1272.21 835.05C1264.54 842.72 1260.23 853.123 1260.23 863.969" stroke="#2E8B57" stroke-width="2.92424"/>
<path d="M1260.23 863.969C1260.23 870.478 1262.82 876.719 1267.42 881.321C1272.02 885.923 1278.26 888.508 1284.77 888.508" stroke="#2E8B57" stroke-width="2.92424"/>
<path d="M1284.77 888.508C1289.11 888.509 1293.27 886.785 1296.34 883.717C1297.86 882.198 1299.06 880.395 1299.89 878.41C1300.71 876.425 1301.13 874.298 1301.13 872.149" stroke="#2E8B57" stroke-width="2.92424"/>
<path d="M1301.13 872.149C1301.13 869.98 1300.27 867.9 1298.74 866.366C1297.98 865.606 1297.07 865.004 1296.08 864.592C1295.09 864.181 1294.03 863.97 1292.95 863.969" stroke="#2E8B57" stroke-width="2.92424"/>
<path d="M1292.95 863.969C1291.88 863.97 1290.81 864.181 1289.82 864.592C1288.83 865.004 1287.93 865.606 1287.17 866.366C1285.63 867.9 1284.77 869.98 1284.77 872.149" stroke="#2E8B57" stroke-width="2.92424"/>
<path d="M280.186 855.376C280.186 872.731 273.292 889.374 261.02 901.646C254.944 907.723 247.73 912.543 239.791 915.832C231.851 919.12 223.342 920.813 214.749 920.813" stroke="#2E8B57" stroke-width="2.92424"/>
<path d="M173.85 749.04C202.052 749.04 229.099 760.243 249.041 780.184C258.916 790.058 266.748 801.781 272.092 814.682C277.436 827.584 280.187 841.411 280.186 855.376" stroke="#2E8B57" stroke-width="2.92424"/>
<path d="M2.07763 920.813C2.07763 875.256 20.175 831.565 52.3886 799.351C84.6021 767.138 128.293 749.04 173.85 749.04" stroke="#2E8B57" stroke-width="2.92424"/>
<path d="M280.186 1199C243.654 1199 207.48 1191.8 173.729 1177.82C139.977 1163.84 109.31 1143.35 83.4782 1117.52C31.3085 1065.35 1.99992 994.593 2.00004 920.813" stroke="#2E8B57" stroke-width="2.92424"/>
<path d="M214.749 920.813C209.378 920.813 204.06 919.755 199.098 917.7C194.136 915.644 189.627 912.632 185.829 908.834C178.16 901.164 173.851 890.762 173.851 879.915" stroke="#2E8B57" stroke-width="2.92424"/>
<path d="M173.851 879.915C173.851 873.407 176.436 867.165 181.038 862.563C185.64 857.961 191.881 855.376 198.39 855.376" stroke="#2E8B57" stroke-width="2.92424"/>
<path d="M198.39 855.376C202.728 855.376 206.889 857.099 209.957 860.167C211.477 861.686 212.682 863.49 213.504 865.474C214.326 867.459 214.749 869.587 214.749 871.735" stroke="#2E8B57" stroke-width="2.92424"/>
<path d="M214.749 871.735C214.749 873.904 213.887 875.984 212.353 877.518C211.594 878.278 210.692 878.88 209.7 879.292C208.707 879.703 207.644 879.915 206.569 879.915" stroke="#2E8B57" stroke-width="2.92424"/>
<path d="M206.569 879.915C205.495 879.915 204.431 879.703 203.439 879.292C202.447 878.88 201.545 878.278 200.785 877.518C199.252 875.984 198.39 873.904 198.39 871.735" stroke="#2E8B57" stroke-width="2.92424"/>
<path d="M1366.57 855.376C1366.57 872.73 1359.67 889.374 1347.4 901.646C1341.33 907.723 1334.11 912.543 1326.17 915.832C1318.23 919.12 1309.72 920.813 1301.13 920.813" stroke="#2E8B57" stroke-width="2.92424"/>
<path d="M1260.23 749.04C1288.43 749.04 1315.48 760.242 1335.42 780.184C1345.3 790.058 1353.13 801.781 1358.47 814.682C1363.82 827.584 1366.57 841.411 1366.57 855.376" stroke="#2E8B57" stroke-width="2.92424"/>
<path d="M1088.46 920.813C1088.46 875.256 1106.56 831.565 1138.77 799.351C1170.98 767.138 1214.68 749.04 1260.23 749.04" stroke="#2E8B57" stroke-width="2.92424"/>
<path d="M1366.57 1199C1330.04 1199 1293.86 1191.8 1260.11 1177.82C1226.36 1163.84 1195.69 1143.35 1169.86 1117.52C1117.69 1065.35 1088.38 994.593 1088.38 920.813" stroke="#2E8B57" stroke-width="2.92424"/>
<path d="M1301.13 920.813C1295.76 920.813 1290.44 919.755 1285.48 917.7C1280.52 915.644 1276.01 912.632 1272.21 908.834C1264.54 901.164 1260.23 890.762 1260.23 879.915" stroke="#2E8B57" stroke-width="2.92424"/>
<path d="M1260.23 879.915C1260.23 873.407 1262.82 867.165 1267.42 862.563C1272.02 857.961 1278.26 855.376 1284.77 855.376" stroke="#2E8B57" stroke-width="2.92424"/>
<path d="M1284.77 855.376C1289.11 855.376 1293.27 857.099 1296.34 860.167C1297.86 861.686 1299.06 863.49 1299.89 865.474C1300.71 867.459 1301.13 869.587 1301.13 871.735" stroke="#2E8B57" stroke-width="2.92424"/>
<path d="M1301.13 871.735C1301.13 873.904 1300.27 875.984 1298.74 877.518C1297.98 878.278 1297.07 878.88 1296.08 879.292C1295.09 879.703 1294.03 879.915 1292.95 879.915" stroke="#2E8B57" stroke-width="2.92424"/>
<path d="M1292.95 879.915C1291.88 879.915 1290.81 879.703 1289.82 879.292C1288.83 878.88 1287.93 878.278 1287.17 877.518C1285.63 875.984 1284.77 873.904 1284.77 871.735" stroke="#2E8B57" stroke-width="2.92424"/>
<path d="M822.568 855.376C822.568 872.731 815.674 889.374 803.402 901.646C797.326 907.723 790.112 912.543 782.173 915.832C774.233 919.12 765.724 920.813 757.131 920.813" stroke="#2E8B57" stroke-width="2.92424"/>
<path d="M716.232 749.04C744.434 749.04 771.481 760.242 791.423 780.184C801.298 790.058 809.13 801.781 814.474 814.682C819.818 827.584 822.568 841.411 822.568 855.376" stroke="#2E8B57" stroke-width="2.92424"/>
<path d="M544.46 920.813C544.46 875.256 562.557 831.565 594.771 799.351C626.984 767.138 670.675 749.04 716.232 749.04" stroke="#2E8B57" stroke-width="2.92424"/>
<path d="M822.568 1199C786.036 1199 749.862 1191.8 716.111 1177.82C682.359 1163.84 651.692 1143.35 625.86 1117.52C573.69 1065.35 544.382 994.593 544.382 920.813" stroke="#2E8B57" stroke-width="2.92424"/>
<path d="M757.131 920.813C751.76 920.813 746.442 919.755 741.48 917.7C736.518 915.644 732.009 912.632 728.211 908.834C720.541 901.164 716.232 890.762 716.232 879.915" stroke="#2E8B57" stroke-width="2.92424"/>
<path d="M716.232 879.915C716.232 873.407 718.818 867.165 723.42 862.563C728.022 857.961 734.263 855.376 740.771 855.376" stroke="#2E8B57" stroke-width="2.92424"/>
<path d="M740.771 855.376C745.11 855.376 749.271 857.099 752.339 860.167C753.858 861.686 755.063 863.49 755.886 865.474C756.708 867.459 757.131 869.587 757.131 871.735" stroke="#2E8B57" stroke-width="2.92424"/>
<path d="M757.131 871.735C757.131 873.904 756.269 875.984 754.735 877.518C753.976 878.278 753.074 878.88 752.081 879.292C751.089 879.703 750.025 879.915 748.951 879.915" stroke="#2E8B57" stroke-width="2.92424"/>
<path d="M748.951 879.915C747.877 879.915 746.813 879.703 745.821 879.292C744.828 878.88 743.927 878.278 743.167 877.518C741.634 875.984 740.772 873.904 740.771 871.735" stroke="#2E8B57" stroke-width="2.92424"/>
<path d="M279.538 345.624C279.538 328.27 286.432 311.626 298.704 299.354C304.78 293.277 311.994 288.457 319.934 285.168C327.873 281.88 336.382 280.187 344.976 280.187" stroke="#2E8B57" stroke-width="2.92424"/>
<path d="M385.874 451.96C357.672 451.96 330.625 440.758 310.683 420.816C300.809 410.942 292.976 399.219 287.632 386.318C282.288 373.416 279.538 359.589 279.538 345.624" stroke="#2E8B57" stroke-width="2.92424"/>
<path d="M557.647 280.187C557.646 325.744 539.549 369.435 507.336 401.649C475.122 433.862 431.431 451.96 385.874 451.96" stroke="#2E8B57" stroke-width="2.92424"/>
<path d="M279.538 2.00006C316.07 2.00006 352.244 9.19563 385.996 23.1759C419.747 37.1562 450.414 57.6474 476.246 83.4795C528.416 135.65 557.724 206.407 557.724 280.187" stroke="#2E8B57" stroke-width="2.92424"/>
<path d="M344.975 280.187C350.346 280.187 355.665 281.245 360.627 283.3C365.589 285.356 370.097 288.368 373.895 292.166C381.565 299.836 385.874 310.238 385.874 321.085" stroke="#2E8B57" stroke-width="2.92424"/>
<path d="M385.874 321.085C385.874 327.593 383.288 333.835 378.686 338.437C374.084 343.039 367.843 345.624 361.335 345.624" stroke="#2E8B57" stroke-width="2.92424"/>
<path d="M361.335 345.624C356.996 345.624 352.835 343.901 349.767 340.833C348.248 339.314 347.043 337.51 346.22 335.526C345.398 333.541 344.975 331.413 344.975 329.265" stroke="#2E8B57" stroke-width="2.92424"/>
<path d="M344.975 329.265C344.976 327.096 345.837 325.016 347.371 323.482C348.131 322.722 349.032 322.12 350.025 321.708C351.017 321.297 352.081 321.085 353.155 321.085" stroke="#2E8B57" stroke-width="2.92424"/>
<path d="M353.155 321.085C354.229 321.085 355.293 321.297 356.285 321.708C357.278 322.12 358.179 322.722 358.939 323.482C360.473 325.016 361.334 327.096 361.335 329.265" stroke="#2E8B57" stroke-width="2.92424"/>
<path d="M821.92 345.624C821.92 328.269 828.814 311.626 841.086 299.354C847.163 293.277 854.376 288.457 862.316 285.168C870.255 281.88 878.764 280.187 887.358 280.187" stroke="#2E8B57" stroke-width="2.92424"/>
<path d="M928.256 451.96C900.054 451.96 873.007 440.757 853.065 420.816C843.191 410.942 835.358 399.219 830.014 386.318C824.67 373.416 821.92 359.589 821.92 345.624" stroke="#2E8B57" stroke-width="2.92424"/>
<path d="M1100.03 280.187C1100.03 325.744 1081.93 369.435 1049.72 401.649C1017.5 433.862 973.813 451.96 928.256 451.96" stroke="#2E8B57" stroke-width="2.92424"/>
<path d="M821.92 2C858.452 2 894.626 9.19557 928.378 23.1758C962.129 37.1561 992.796 57.6473 1018.63 83.4795C1070.8 135.65 1100.11 206.407 1100.11 280.187" stroke="#2E8B57" stroke-width="2.92424"/>
<path d="M887.357 280.187C892.728 280.187 898.047 281.245 903.009 283.3C907.971 285.356 912.479 288.368 916.277 292.166C923.947 299.836 928.256 310.238 928.256 321.085" stroke="#2E8B57" stroke-width="2.92424"/>
<path d="M928.256 321.085C928.256 327.593 925.67 333.835 921.069 338.437C916.467 343.039 910.225 345.624 903.717 345.624" stroke="#2E8B57" stroke-width="2.92424"/>
<path d="M903.717 345.624C899.378 345.624 895.217 343.901 892.149 340.833C890.63 339.314 889.425 337.51 888.603 335.526C887.781 333.541 887.357 331.413 887.357 329.265" stroke="#2E8B57" stroke-width="2.92424"/>
<path d="M887.357 329.265C887.358 327.096 888.219 325.016 889.753 323.482C890.513 322.722 891.414 322.119 892.407 321.708C893.399 321.297 894.463 321.085 895.537 321.085" stroke="#2E8B57" stroke-width="2.92424"/>
<path d="M895.537 321.085C896.611 321.085 897.675 321.297 898.667 321.708C899.66 322.119 900.561 322.722 901.321 323.482C902.855 325.016 903.717 327.096 903.717 329.265" stroke="#2E8B57" stroke-width="2.92424"/>
<path d="M1365.92 345.624C1365.92 328.269 1372.81 311.626 1385.09 299.354C1391.16 293.277 1398.38 288.457 1406.32 285.168C1414.25 281.88 1422.76 280.187 1431.36 280.187" stroke="#2E8B57" stroke-width="2.92424"/>
<path d="M1472.26 451.96C1444.05 451.96 1417.01 440.757 1397.07 420.816C1387.19 410.942 1379.36 399.219 1374.01 386.318C1368.67 373.416 1365.92 359.589 1365.92 345.624" stroke="#2E8B57" stroke-width="2.92424"/>
<path d="M1644.03 280.187C1644.03 325.744 1625.93 369.435 1593.72 401.649C1561.5 433.862 1517.81 451.96 1472.26 451.96" stroke="#2E8B57" stroke-width="2.92424"/>
<path d="M1365.92 2C1402.45 2 1438.63 9.19557 1472.38 23.1758C1506.13 37.1561 1536.8 57.6473 1562.63 83.4795C1614.8 135.65 1644.11 206.407 1644.11 280.187" stroke="#2E8B57" stroke-width="2.92424"/>
<path d="M1431.36 280.187C1436.73 280.187 1442.05 281.245 1447.01 283.3C1451.97 285.356 1456.48 288.368 1460.28 292.166C1467.95 299.836 1472.26 310.238 1472.26 321.085" stroke="#2E8B57" stroke-width="2.92424"/>
<path d="M1472.26 321.085C1472.26 327.593 1469.67 333.835 1465.07 338.437C1460.47 343.039 1454.22 345.624 1447.72 345.624" stroke="#2E8B57" stroke-width="2.92424"/>
<path d="M1447.72 345.624C1443.38 345.624 1439.22 343.901 1436.15 340.833C1434.63 339.314 1433.42 337.51 1432.6 335.526C1431.78 333.541 1431.36 331.413 1431.36 329.265" stroke="#2E8B57" stroke-width="2.92424"/>
<path d="M1431.36 329.265C1431.36 327.096 1432.22 325.016 1433.75 323.482C1434.51 322.722 1435.41 322.119 1436.41 321.708C1437.4 321.297 1438.46 321.085 1439.54 321.085" stroke="#2E8B57" stroke-width="2.92424"/>
<path d="M1439.54 321.085C1440.61 321.085 1441.68 321.297 1442.67 321.708C1443.66 322.119 1444.56 322.722 1445.32 323.482C1446.85 325.016 1447.72 327.096 1447.72 329.265" stroke="#2E8B57" stroke-width="2.92424"/>
<path d="M279.538 312.492C279.538 329.846 286.432 346.49 298.704 358.762C304.78 364.839 311.994 369.659 319.934 372.948C327.873 376.236 336.382 377.929 344.976 377.929" stroke="#2E8B57" stroke-width="2.92424"/>
<path d="M385.874 206.156C357.672 206.155 330.625 217.358 310.683 237.3C300.809 247.174 292.976 258.897 287.632 271.798C282.288 284.7 279.538 298.527 279.538 312.492" stroke="#2E8B57" stroke-width="2.92424"/>
<path d="M557.647 377.929C557.646 332.372 539.549 288.681 507.336 256.467C475.122 224.253 431.431 206.156 385.874 206.156" stroke="#2E8B57" stroke-width="2.92424"/>
<path d="M279.538 656.116C316.07 656.116 352.244 648.92 385.996 634.94C419.747 620.96 450.414 600.468 476.246 574.636C528.416 522.466 557.724 451.708 557.724 377.929" stroke="#2E8B57" stroke-width="2.92424"/>
<path d="M344.975 377.929C350.346 377.929 355.665 376.871 360.627 374.816C365.589 372.76 370.097 369.748 373.895 365.95C381.565 358.28 385.874 347.877 385.874 337.031" stroke="#2E8B57" stroke-width="2.92424"/>
<path d="M385.874 337.031C385.874 330.522 383.288 324.281 378.686 319.679C374.084 315.077 367.843 312.492 361.335 312.492" stroke="#2E8B57" stroke-width="2.92424"/>
<path d="M361.335 312.492C356.996 312.491 352.835 314.215 349.767 317.283C348.248 318.802 347.043 320.605 346.22 322.59C345.398 324.575 344.975 326.702 344.975 328.851" stroke="#2E8B57" stroke-width="2.92424"/>
<path d="M344.975 328.851C344.976 331.02 345.837 333.1 347.371 334.634C348.131 335.394 349.032 335.996 350.025 336.408C351.017 336.819 352.081 337.03 353.155 337.031" stroke="#2E8B57" stroke-width="2.92424"/>
<path d="M353.155 337.031C354.229 337.03 355.293 336.819 356.285 336.408C357.278 335.996 358.179 335.394 358.939 334.634C360.473 333.1 361.334 331.02 361.335 328.851" stroke="#2E8B57" stroke-width="2.92424"/>
<path d="M821.92 312.491C821.92 329.846 828.814 346.49 841.086 358.762C847.163 364.838 854.376 369.659 862.316 372.947C870.255 376.236 878.764 377.929 887.358 377.929" stroke="#2E8B57" stroke-width="2.92424"/>
<path d="M928.256 206.156C900.054 206.155 873.007 217.358 853.065 237.3C843.191 247.174 835.358 258.897 830.014 271.798C824.67 284.699 821.92 298.527 821.92 312.491" stroke="#2E8B57" stroke-width="2.92424"/>
<path d="M1100.03 377.929C1100.03 332.372 1081.93 288.681 1049.72 256.467C1017.5 224.253 973.813 206.156 928.256 206.156" stroke="#2E8B57" stroke-width="2.92424"/>
<path d="M821.92 656.116C858.452 656.116 894.626 648.92 928.378 634.94C962.129 620.96 992.796 600.468 1018.63 574.636C1070.8 522.466 1100.11 451.708 1100.11 377.929" stroke="#2E8B57" stroke-width="2.92424"/>
<path d="M887.357 377.929C892.728 377.929 898.047 376.871 903.009 374.816C907.971 372.76 912.479 369.748 916.277 365.95C923.947 358.28 928.256 347.877 928.256 337.031" stroke="#2E8B57" stroke-width="2.92424"/>
<path d="M928.256 337.03C928.256 330.522 925.67 324.281 921.069 319.679C916.467 315.077 910.225 312.491 903.717 312.491" stroke="#2E8B57" stroke-width="2.92424"/>
<path d="M903.717 312.491C899.378 312.491 895.217 314.215 892.149 317.283C890.63 318.802 889.425 320.605 888.603 322.59C887.781 324.575 887.357 326.702 887.357 328.851" stroke="#2E8B57" stroke-width="2.92424"/>
<path d="M887.357 328.851C887.358 331.02 888.219 333.1 889.753 334.634C890.513 335.394 891.414 335.996 892.407 336.407C893.399 336.819 894.463 337.03 895.537 337.031" stroke="#2E8B57" stroke-width="2.92424"/>
<path d="M895.537 337.031C896.611 337.03 897.675 336.819 898.667 336.407C899.66 335.996 900.561 335.394 901.321 334.634C902.855 333.1 903.717 331.02 903.717 328.851" stroke="#2E8B57" stroke-width="2.92424"/>
<path d="M1365.92 312.491C1365.92 329.846 1372.81 346.49 1385.09 358.762C1391.16 364.838 1398.38 369.659 1406.32 372.947C1414.25 376.236 1422.76 377.929 1431.36 377.929" stroke="#2E8B57" stroke-width="2.92424"/>
<path d="M1472.26 206.156C1444.05 206.155 1417.01 217.358 1397.07 237.3C1387.19 247.174 1379.36 258.897 1374.01 271.798C1368.67 284.699 1365.92 298.527 1365.92 312.491" stroke="#2E8B57" stroke-width="2.92424"/>
<path d="M1644.03 377.929C1644.03 332.372 1625.93 288.681 1593.72 256.467C1561.5 224.253 1517.81 206.156 1472.26 206.156" stroke="#2E8B57" stroke-width="2.92424"/>
<path d="M1365.92 656.116C1402.45 656.116 1438.63 648.92 1472.38 634.94C1506.13 620.96 1536.8 600.468 1562.63 574.636C1614.8 522.466 1644.11 451.708 1644.11 377.929" stroke="#2E8B57" stroke-width="2.92424"/>
<path d="M1431.36 377.929C1436.73 377.929 1442.05 376.871 1447.01 374.816C1451.97 372.76 1456.48 369.748 1460.28 365.95C1467.95 358.28 1472.26 347.877 1472.26 337.031" stroke="#2E8B57" stroke-width="2.92424"/>
<path d="M1472.26 337.03C1472.26 330.522 1469.67 324.281 1465.07 319.679C1460.47 315.077 1454.22 312.491 1447.72 312.491" stroke="#2E8B57" stroke-width="2.92424"/>
<path d="M1447.72 312.491C1443.38 312.491 1439.22 314.215 1436.15 317.283C1434.63 318.802 1433.42 320.605 1432.6 322.59C1431.78 324.575 1431.36 326.702 1431.36 328.851" stroke="#2E8B57" stroke-width="2.92424"/>
<path d="M1431.36 328.851C1431.36 331.02 1432.22 333.1 1433.75 334.634C1434.51 335.394 1435.41 335.996 1436.41 336.407C1437.4 336.819 1438.46 337.03 1439.54 337.031" stroke="#2E8B57" stroke-width="2.92424"/>
<path d="M1439.54 337.031C1440.61 337.03 1441.68 336.819 1442.67 336.407C1443.66 335.996 1444.56 335.394 1445.32 334.634C1446.85 333.1 1447.72 331.02 1447.72 328.851" stroke="#2E8B57" stroke-width="2.92424"/>
<path d="M280.186 345.624C280.186 328.27 273.292 311.626 261.02 299.354C254.944 293.277 247.73 288.457 239.791 285.168C231.851 281.88 223.342 280.187 214.749 280.187" stroke="#2E8B57" stroke-width="2.92424"/>
<path d="M173.85 451.96C202.052 451.96 229.099 440.758 249.041 420.816C258.916 410.942 266.748 399.219 272.092 386.318C277.436 373.416 280.187 359.589 280.186 345.624" stroke="#2E8B57" stroke-width="2.92424"/>
<path d="M2.07763 280.187C2.07763 325.744 20.175 369.435 52.3886 401.649C84.6021 433.862 128.293 451.96 173.85 451.96" stroke="#2E8B57" stroke-width="2.92424"/>
<path d="M280.186 2.00006C243.654 2.00006 207.48 9.19563 173.729 23.1759C139.977 37.1562 109.31 57.6473 83.4782 83.4795C31.3085 135.65 1.99992 206.407 2.00004 280.187" stroke="#2E8B57" stroke-width="2.92424"/>
<path d="M214.749 280.187C209.378 280.187 204.06 281.245 199.098 283.3C194.136 285.356 189.627 288.368 185.829 292.166C178.16 299.836 173.851 310.238 173.851 321.085" stroke="#2E8B57" stroke-width="2.92424"/>
<path d="M173.851 321.085C173.851 327.593 176.436 333.835 181.038 338.437C185.64 343.039 191.881 345.624 198.39 345.624" stroke="#2E8B57" stroke-width="2.92424"/>
<path d="M198.39 345.624C202.728 345.624 206.889 343.901 209.957 340.833C211.477 339.314 212.682 337.51 213.504 335.526C214.326 333.541 214.749 331.413 214.749 329.265" stroke="#2E8B57" stroke-width="2.92424"/>
<path d="M214.749 329.265C214.749 327.096 213.887 325.016 212.353 323.482C211.594 322.722 210.692 322.12 209.7 321.708C208.707 321.297 207.644 321.085 206.569 321.085" stroke="#2E8B57" stroke-width="2.92424"/>
<path d="M206.569 321.085C205.495 321.085 204.431 321.297 203.439 321.708C202.447 322.12 201.545 322.722 200.785 323.482C199.252 325.016 198.39 327.096 198.39 329.265" stroke="#2E8B57" stroke-width="2.92424"/>
<path d="M822.568 345.624C822.568 328.269 815.674 311.626 803.402 299.354C797.326 293.277 790.112 288.457 782.173 285.168C774.233 281.88 765.724 280.187 757.131 280.187" stroke="#2E8B57" stroke-width="2.92424"/>
<path d="M716.232 451.96C744.434 451.96 771.481 440.757 791.423 420.816C801.298 410.942 809.13 399.219 814.474 386.318C819.818 373.416 822.568 359.589 822.568 345.624" stroke="#2E8B57" stroke-width="2.92424"/>
<path d="M544.46 280.187C544.46 325.744 562.557 369.435 594.771 401.649C626.984 433.862 670.675 451.96 716.232 451.96" stroke="#2E8B57" stroke-width="2.92424"/>
<path d="M822.568 2C786.036 2 749.862 9.19556 716.111 23.1758C682.359 37.1561 651.692 57.6473 625.86 83.4794C573.69 135.65 544.382 206.407 544.382 280.187" stroke="#2E8B57" stroke-width="2.92424"/>
<path d="M757.131 280.187C751.76 280.187 746.442 281.245 741.48 283.3C736.518 285.356 732.009 288.368 728.211 292.166C720.541 299.836 716.232 310.238 716.232 321.085" stroke="#2E8B57" stroke-width="2.92424"/>
<path d="M716.232 321.085C716.232 327.593 718.818 333.835 723.42 338.437C728.022 343.039 734.263 345.624 740.771 345.624" stroke="#2E8B57" stroke-width="2.92424"/>
<path d="M740.771 345.624C745.11 345.624 749.271 343.901 752.339 340.833C753.858 339.314 755.063 337.51 755.886 335.526C756.708 333.541 757.131 331.413 757.131 329.265" stroke="#2E8B57" stroke-width="2.92424"/>
<path d="M757.131 329.265C757.131 327.096 756.269 325.016 754.735 323.482C753.976 322.722 753.074 322.119 752.081 321.708C751.089 321.297 750.025 321.085 748.951 321.085" stroke="#2E8B57" stroke-width="2.92424"/>
<path d="M748.951 321.085C747.877 321.085 746.813 321.297 745.821 321.708C744.828 322.119 743.927 322.722 743.167 323.482C741.634 325.016 740.772 327.096 740.771 329.265" stroke="#2E8B57" stroke-width="2.92424"/>
<path d="M1366.57 345.624C1366.57 328.269 1359.67 311.626 1347.4 299.354C1341.33 293.277 1334.11 288.457 1326.17 285.168C1318.23 281.88 1309.72 280.187 1301.13 280.187" stroke="#2E8B57" stroke-width="2.92424"/>
<path d="M1260.23 451.96C1288.43 451.96 1315.48 440.757 1335.42 420.816C1345.3 410.942 1353.13 399.219 1358.47 386.318C1363.82 373.416 1366.57 359.589 1366.57 345.624" stroke="#2E8B57" stroke-width="2.92424"/>
<path d="M1088.46 280.187C1088.46 325.744 1106.56 369.435 1138.77 401.649C1170.98 433.862 1214.68 451.96 1260.23 451.96" stroke="#2E8B57" stroke-width="2.92424"/>
<path d="M1366.57 2C1330.04 2 1293.86 9.19556 1260.11 23.1758C1226.36 37.1561 1195.69 57.6473 1169.86 83.4794C1117.69 135.65 1088.38 206.407 1088.38 280.187" stroke="#2E8B57" stroke-width="2.92424"/>
<path d="M1301.13 280.187C1295.76 280.187 1290.44 281.245 1285.48 283.3C1280.52 285.356 1276.01 288.368 1272.21 292.166C1264.54 299.836 1260.23 310.238 1260.23 321.085" stroke="#2E8B57" stroke-width="2.92424"/>
<path d="M1260.23 321.085C1260.23 327.593 1262.82 333.835 1267.42 338.437C1272.02 343.039 1278.26 345.624 1284.77 345.624" stroke="#2E8B57" stroke-width="2.92424"/>
<path d="M1284.77 345.624C1289.11 345.624 1293.27 343.901 1296.34 340.833C1297.86 339.314 1299.06 337.51 1299.89 335.526C1300.71 333.541 1301.13 331.413 1301.13 329.265" stroke="#2E8B57" stroke-width="2.92424"/>
<path d="M1301.13 329.265C1301.13 327.096 1300.27 325.016 1298.74 323.482C1297.98 322.722 1297.07 322.119 1296.08 321.708C1295.09 321.297 1294.03 321.085 1292.95 321.085" stroke="#2E8B57" stroke-width="2.92424"/>
<path d="M1292.95 321.085C1291.88 321.085 1290.81 321.297 1289.82 321.708C1288.83 322.119 1287.93 322.722 1287.17 323.482C1285.63 325.016 1284.77 327.096 1284.77 329.265" stroke="#2E8B57" stroke-width="2.92424"/>
<path d="M280.186 312.492C280.186 329.846 273.292 346.49 261.02 358.762C254.944 364.839 247.73 369.659 239.791 372.948C231.851 376.236 223.342 377.929 214.749 377.929" stroke="#2E8B57" stroke-width="2.92424"/>
<path d="M173.85 206.156C202.052 206.155 229.099 217.358 249.041 237.3C258.916 247.174 266.748 258.897 272.092 271.798C277.436 284.7 280.187 298.527 280.186 312.492" stroke="#2E8B57" stroke-width="2.92424"/>
<path d="M2.07763 377.929C2.07763 332.372 20.175 288.681 52.3886 256.467C84.6021 224.254 128.293 206.156 173.85 206.156" stroke="#2E8B57" stroke-width="2.92424"/>
<path d="M280.186 656.116C243.654 656.116 207.48 648.92 173.729 634.94C139.977 620.96 109.31 600.469 83.4782 574.636C31.3085 522.466 1.99992 451.708 2.00004 377.929" stroke="#2E8B57" stroke-width="2.92424"/>
<path d="M214.749 377.929C209.378 377.929 204.06 376.871 199.098 374.816C194.136 372.76 189.627 369.748 185.829 365.95C178.16 358.28 173.851 347.877 173.851 337.031" stroke="#2E8B57" stroke-width="2.92424"/>
<path d="M173.851 337.031C173.851 330.522 176.436 324.281 181.038 319.679C185.64 315.077 191.881 312.492 198.39 312.492" stroke="#2E8B57" stroke-width="2.92424"/>
<path d="M198.39 312.492C202.728 312.491 206.889 314.215 209.957 317.283C211.477 318.802 212.682 320.605 213.504 322.59C214.326 324.575 214.749 326.702 214.749 328.851" stroke="#2E8B57" stroke-width="2.92424"/>
<path d="M214.749 328.851C214.749 331.02 213.887 333.1 212.353 334.634C211.594 335.394 210.692 335.996 209.7 336.408C208.707 336.819 207.644 337.03 206.569 337.031" stroke="#2E8B57" stroke-width="2.92424"/>
<path d="M206.569 337.031C205.495 337.03 204.431 336.819 203.439 336.408C202.447 335.996 201.545 335.394 200.785 334.634C199.252 333.1 198.39 331.02 198.39 328.851" stroke="#2E8B57" stroke-width="2.92424"/>
<path d="M1366.57 312.491C1366.57 329.846 1359.67 346.49 1347.4 358.762C1341.33 364.838 1334.11 369.659 1326.17 372.947C1318.23 376.236 1309.72 377.929 1301.13 377.929" stroke="#2E8B57" stroke-width="2.92424"/>
<path d="M1260.23 206.156C1288.43 206.155 1315.48 217.358 1335.42 237.3C1345.3 247.174 1353.13 258.897 1358.47 271.798C1363.82 284.699 1366.57 298.527 1366.57 312.491" stroke="#2E8B57" stroke-width="2.92424"/>
<path d="M1088.46 377.929C1088.46 332.372 1106.56 288.681 1138.77 256.467C1170.98 224.253 1214.68 206.156 1260.23 206.156" stroke="#2E8B57" stroke-width="2.92424"/>
<path d="M1366.57 656.116C1330.04 656.116 1293.86 648.92 1260.11 634.94C1226.36 620.96 1195.69 600.468 1169.86 574.636C1117.69 522.466 1088.38 451.708 1088.38 377.929" stroke="#2E8B57" stroke-width="2.92424"/>
<path d="M1301.13 377.929C1295.76 377.929 1290.44 376.871 1285.48 374.816C1280.52 372.76 1276.01 369.748 1272.21 365.95C1264.54 358.28 1260.23 347.877 1260.23 337.031" stroke="#2E8B57" stroke-width="2.92424"/>
<path d="M1260.23 337.03C1260.23 330.522 1262.82 324.281 1267.42 319.679C1272.02 315.077 1278.26 312.491 1284.77 312.491" stroke="#2E8B57" stroke-width="2.92424"/>
<path d="M1284.77 312.491C1289.11 312.491 1293.27 314.215 1296.34 317.283C1297.86 318.802 1299.06 320.605 1299.89 322.59C1300.71 324.575 1301.13 326.702 1301.13 328.851" stroke="#2E8B57" stroke-width="2.92424"/>
<path d="M1301.13 328.851C1301.13 331.02 1300.27 333.1 1298.74 334.634C1297.98 335.394 1297.07 335.996 1296.08 336.407C1295.09 336.819 1294.03 337.03 1292.95 337.031" stroke="#2E8B57" stroke-width="2.92424"/>
<path d="M1292.95 337.031C1291.88 337.03 1290.81 336.819 1289.82 336.407C1288.83 335.996 1287.93 335.394 1287.17 334.634C1285.63 333.1 1284.77 331.02 1284.77 328.851" stroke="#2E8B57" stroke-width="2.92424"/>
<path d="M822.568 312.491C822.568 329.846 815.674 346.49 803.402 358.762C797.326 364.838 790.112 369.659 782.173 372.947C774.233 376.236 765.724 377.929 757.131 377.929" stroke="#2E8B57" stroke-width="2.92424"/>
<path d="M716.232 206.156C744.434 206.155 771.481 217.358 791.423 237.3C801.298 247.174 809.13 258.897 814.474 271.798C819.818 284.699 822.568 298.527 822.568 312.491" stroke="#2E8B57" stroke-width="2.92424"/>
<path d="M544.46 377.929C544.46 332.372 562.557 288.681 594.771 256.467C626.984 224.253 670.675 206.156 716.232 206.156" stroke="#2E8B57" stroke-width="2.92424"/>
<path d="M822.568 656.116C786.036 656.116 749.862 648.92 716.111 634.94C682.359 620.96 651.692 600.468 625.86 574.636C573.69 522.466 544.382 451.708 544.382 377.929" stroke="#2E8B57" stroke-width="2.92424"/>
<path d="M757.131 377.929C751.76 377.929 746.442 376.871 741.48 374.816C736.518 372.76 732.009 369.748 728.211 365.95C720.541 358.28 716.232 347.877 716.232 337.031" stroke="#2E8B57" stroke-width="2.92424"/>
<path d="M716.232 337.03C716.232 330.522 718.818 324.281 723.42 319.679C728.022 315.077 734.263 312.491 740.771 312.491" stroke="#2E8B57" stroke-width="2.92424"/>
<path d="M740.771 312.491C745.11 312.491 749.271 314.215 752.339 317.283C753.858 318.802 755.063 320.605 755.886 322.59C756.708 324.575 757.131 326.702 757.131 328.851" stroke="#2E8B57" stroke-width="2.92424"/>
<path d="M757.131 328.851C757.131 331.02 756.269 333.1 754.735 334.634C753.976 335.394 753.074 335.996 752.081 336.407C751.089 336.819 750.025 337.03 748.951 337.031" stroke="#2E8B57" stroke-width="2.92424"/>
<path d="M748.951 337.031C747.877 337.03 746.813 336.819 745.821 336.407C744.828 335.996 743.927 335.394 743.167 334.634C741.634 333.1 740.772 331.02 740.771 328.851" stroke="#2E8B57" stroke-width="2.92424"/>
<path d="M279.538 1433.62C279.538 1416.27 286.432 1399.63 298.704 1387.35C304.78 1381.28 311.994 1376.46 319.934 1373.17C327.873 1369.88 336.382 1368.19 344.976 1368.19" stroke="#2E8B57" stroke-width="2.92424"/>
<path d="M385.874 1539.96C357.672 1539.96 330.625 1528.76 310.683 1508.82C300.809 1498.94 292.976 1487.22 287.632 1474.32C282.288 1461.42 279.538 1447.59 279.538 1433.62" stroke="#2E8B57" stroke-width="2.92424"/>
<path d="M557.647 1368.19C557.646 1413.74 539.549 1457.43 507.336 1489.65C475.122 1521.86 431.431 1539.96 385.874 1539.96" stroke="#2E8B57" stroke-width="2.92424"/>
<path d="M279.538 1090C316.07 1090 352.244 1097.2 385.996 1111.18C419.747 1125.16 450.414 1145.65 476.246 1171.48C528.416 1223.65 557.724 1294.41 557.724 1368.19" stroke="#2E8B57" stroke-width="2.92424"/>
<path d="M344.975 1368.19C350.346 1368.19 355.665 1369.24 360.627 1371.3C365.589 1373.36 370.097 1376.37 373.895 1380.17C381.565 1387.84 385.874 1398.24 385.874 1409.09" stroke="#2E8B57" stroke-width="2.92424"/>
<path d="M385.874 1409.09C385.874 1415.59 383.288 1421.84 378.686 1426.44C374.084 1431.04 367.843 1433.62 361.335 1433.62" stroke="#2E8B57" stroke-width="2.92424"/>
<path d="M361.335 1433.62C356.996 1433.62 352.835 1431.9 349.767 1428.83C348.248 1427.31 347.043 1425.51 346.22 1423.53C345.398 1421.54 344.975 1419.41 344.975 1417.27" stroke="#2E8B57" stroke-width="2.92424"/>
<path d="M344.975 1417.27C344.976 1415.1 345.837 1413.02 347.371 1411.48C348.131 1410.72 349.032 1410.12 350.025 1409.71C351.017 1409.3 352.081 1409.09 353.155 1409.09" stroke="#2E8B57" stroke-width="2.92424"/>
<path d="M353.155 1409.09C354.229 1409.09 355.293 1409.3 356.285 1409.71C357.278 1410.12 358.179 1410.72 358.939 1411.48C360.473 1413.02 361.334 1415.1 361.335 1417.27" stroke="#2E8B57" stroke-width="2.92424"/>
<path d="M821.92 1433.62C821.92 1416.27 828.814 1399.63 841.086 1387.35C847.163 1381.28 854.376 1376.46 862.316 1373.17C870.255 1369.88 878.764 1368.19 887.358 1368.19" stroke="#2E8B57" stroke-width="2.92424"/>
<path d="M928.256 1539.96C900.054 1539.96 873.007 1528.76 853.065 1508.82C843.191 1498.94 835.358 1487.22 830.014 1474.32C824.67 1461.42 821.92 1447.59 821.92 1433.62" stroke="#2E8B57" stroke-width="2.92424"/>
<path d="M1100.03 1368.19C1100.03 1413.74 1081.93 1457.43 1049.72 1489.65C1017.5 1521.86 973.813 1539.96 928.256 1539.96" stroke="#2E8B57" stroke-width="2.92424"/>
<path d="M821.92 1090C858.452 1090 894.626 1097.2 928.378 1111.18C962.129 1125.16 992.796 1145.65 1018.63 1171.48C1070.8 1223.65 1100.11 1294.41 1100.11 1368.19" stroke="#2E8B57" stroke-width="2.92424"/>
<path d="M887.357 1368.19C892.728 1368.19 898.047 1369.24 903.009 1371.3C907.971 1373.36 912.479 1376.37 916.277 1380.17C923.947 1387.84 928.256 1398.24 928.256 1409.09" stroke="#2E8B57" stroke-width="2.92424"/>
<path d="M928.256 1409.09C928.256 1415.59 925.67 1421.84 921.069 1426.44C916.467 1431.04 910.225 1433.62 903.717 1433.62" stroke="#2E8B57" stroke-width="2.92424"/>
<path d="M903.717 1433.62C899.378 1433.62 895.217 1431.9 892.149 1428.83C890.63 1427.31 889.425 1425.51 888.603 1423.53C887.781 1421.54 887.357 1419.41 887.357 1417.26" stroke="#2E8B57" stroke-width="2.92424"/>
<path d="M887.357 1417.26C887.358 1415.1 888.219 1413.02 889.753 1411.48C890.513 1410.72 891.414 1410.12 892.407 1409.71C893.399 1409.3 894.463 1409.09 895.537 1409.09" stroke="#2E8B57" stroke-width="2.92424"/>
<path d="M895.537 1409.09C896.611 1409.09 897.675 1409.3 898.667 1409.71C899.66 1410.12 900.561 1410.72 901.321 1411.48C902.855 1413.02 903.717 1415.1 903.717 1417.26" stroke="#2E8B57" stroke-width="2.92424"/>
<path d="M1365.92 1433.62C1365.92 1416.27 1372.81 1399.63 1385.09 1387.35C1391.16 1381.28 1398.38 1376.46 1406.32 1373.17C1414.25 1369.88 1422.76 1368.19 1431.36 1368.19" stroke="#2E8B57" stroke-width="2.92424"/>
<path d="M1472.26 1539.96C1444.05 1539.96 1417.01 1528.76 1397.07 1508.82C1387.19 1498.94 1379.36 1487.22 1374.01 1474.32C1368.67 1461.42 1365.92 1447.59 1365.92 1433.62" stroke="#2E8B57" stroke-width="2.92424"/>
<path d="M1644.03 1368.19C1644.03 1413.74 1625.93 1457.43 1593.72 1489.65C1561.5 1521.86 1517.81 1539.96 1472.26 1539.96" stroke="#2E8B57" stroke-width="2.92424"/>
<path d="M1365.92 1090C1402.45 1090 1438.63 1097.2 1472.38 1111.18C1506.13 1125.16 1536.8 1145.65 1562.63 1171.48C1614.8 1223.65 1644.11 1294.41 1644.11 1368.19" stroke="#2E8B57" stroke-width="2.92424"/>
<path d="M1431.36 1368.19C1436.73 1368.19 1442.05 1369.24 1447.01 1371.3C1451.97 1373.36 1456.48 1376.37 1460.28 1380.17C1467.95 1387.84 1472.26 1398.24 1472.26 1409.09" stroke="#2E8B57" stroke-width="2.92424"/>
<path d="M1472.26 1409.09C1472.26 1415.59 1469.67 1421.84 1465.07 1426.44C1460.47 1431.04 1454.22 1433.62 1447.72 1433.62" stroke="#2E8B57" stroke-width="2.92424"/>
<path d="M1447.72 1433.62C1443.38 1433.62 1439.22 1431.9 1436.15 1428.83C1434.63 1427.31 1433.42 1425.51 1432.6 1423.53C1431.78 1421.54 1431.36 1419.41 1431.36 1417.26" stroke="#2E8B57" stroke-width="2.92424"/>
<path d="M1431.36 1417.26C1431.36 1415.1 1432.22 1413.02 1433.75 1411.48C1434.51 1410.72 1435.41 1410.12 1436.41 1409.71C1437.4 1409.3 1438.46 1409.09 1439.54 1409.09" stroke="#2E8B57" stroke-width="2.92424"/>
<path d="M1439.54 1409.09C1440.61 1409.09 1441.68 1409.3 1442.67 1409.71C1443.66 1410.12 1444.56 1410.72 1445.32 1411.48C1446.85 1413.02 1447.72 1415.1 1447.72 1417.26" stroke="#2E8B57" stroke-width="2.92424"/>
<path d="M279.538 1400.49C279.538 1417.85 286.432 1434.49 298.704 1446.76C304.78 1452.84 311.994 1457.66 319.934 1460.95C327.873 1464.24 336.382 1465.93 344.976 1465.93" stroke="#2E8B57" stroke-width="2.92424"/>
<path d="M385.874 1294.16C357.672 1294.16 330.625 1305.36 310.683 1325.3C300.809 1335.17 292.976 1346.9 287.632 1359.8C282.288 1372.7 279.538 1386.53 279.538 1400.49" stroke="#2E8B57" stroke-width="2.92424"/>
<path d="M557.647 1465.93C557.646 1420.37 539.549 1376.68 507.336 1344.47C475.122 1312.25 431.431 1294.16 385.874 1294.16" stroke="#2E8B57" stroke-width="2.92424"/>
<path d="M279.538 1744.12C316.07 1744.12 352.244 1736.92 385.996 1722.94C419.747 1708.96 450.414 1688.47 476.246 1662.64C528.416 1610.47 557.724 1539.71 557.724 1465.93" stroke="#2E8B57" stroke-width="2.92424"/>
<path d="M344.975 1465.93C350.346 1465.93 355.665 1464.87 360.627 1462.82C365.589 1460.76 370.097 1457.75 373.895 1453.95C381.565 1446.28 385.874 1435.88 385.874 1425.03" stroke="#2E8B57" stroke-width="2.92424"/>
<path d="M385.874 1425.03C385.874 1418.52 383.288 1412.28 378.686 1407.68C374.084 1403.08 367.843 1400.49 361.335 1400.49" stroke="#2E8B57" stroke-width="2.92424"/>
<path d="M361.335 1400.49C356.996 1400.49 352.835 1402.21 349.767 1405.28C348.248 1406.8 347.043 1408.61 346.22 1410.59C345.398 1412.58 344.975 1414.7 344.975 1416.85" stroke="#2E8B57" stroke-width="2.92424"/>
<path d="M344.975 1416.85C344.976 1419.02 345.837 1421.1 347.371 1422.63C348.131 1423.39 349.032 1424 350.025 1424.41C351.017 1424.82 352.081 1425.03 353.155 1425.03" stroke="#2E8B57" stroke-width="2.92424"/>
<path d="M353.155 1425.03C354.229 1425.03 355.293 1424.82 356.285 1424.41C357.278 1424 358.179 1423.39 358.939 1422.63C360.473 1421.1 361.334 1419.02 361.335 1416.85" stroke="#2E8B57" stroke-width="2.92424"/>
<path d="M821.92 1400.49C821.92 1417.85 828.814 1434.49 841.086 1446.76C847.163 1452.84 854.376 1457.66 862.316 1460.95C870.255 1464.24 878.764 1465.93 887.358 1465.93" stroke="#2E8B57" stroke-width="2.92424"/>
<path d="M928.256 1294.16C900.054 1294.16 873.007 1305.36 853.065 1325.3C843.191 1335.17 835.358 1346.9 830.014 1359.8C824.67 1372.7 821.92 1386.53 821.92 1400.49" stroke="#2E8B57" stroke-width="2.92424"/>
<path d="M1100.03 1465.93C1100.03 1420.37 1081.93 1376.68 1049.72 1344.47C1017.5 1312.25 973.813 1294.16 928.256 1294.16" stroke="#2E8B57" stroke-width="2.92424"/>
<path d="M821.92 1744.12C858.452 1744.12 894.626 1736.92 928.378 1722.94C962.129 1708.96 992.796 1688.47 1018.63 1662.64C1070.8 1610.47 1100.11 1539.71 1100.11 1465.93" stroke="#2E8B57" stroke-width="2.92424"/>
<path d="M887.357 1465.93C892.728 1465.93 898.047 1464.87 903.009 1462.82C907.971 1460.76 912.479 1457.75 916.277 1453.95C923.947 1446.28 928.256 1435.88 928.256 1425.03" stroke="#2E8B57" stroke-width="2.92424"/>
<path d="M928.256 1425.03C928.256 1418.52 925.67 1412.28 921.069 1407.68C916.467 1403.08 910.225 1400.49 903.717 1400.49" stroke="#2E8B57" stroke-width="2.92424"/>
<path d="M903.717 1400.49C899.378 1400.49 895.217 1402.21 892.149 1405.28C890.63 1406.8 889.425 1408.61 888.603 1410.59C887.781 1412.58 887.357 1414.7 887.357 1416.85" stroke="#2E8B57" stroke-width="2.92424"/>
<path d="M887.357 1416.85C887.358 1419.02 888.219 1421.1 889.753 1422.63C890.513 1423.39 891.414 1424 892.407 1424.41C893.399 1424.82 894.463 1425.03 895.537 1425.03" stroke="#2E8B57" stroke-width="2.92424"/>
<path d="M895.537 1425.03C896.611 1425.03 897.675 1424.82 898.667 1424.41C899.66 1424 900.561 1423.39 901.321 1422.63C902.855 1421.1 903.717 1419.02 903.717 1416.85" stroke="#2E8B57" stroke-width="2.92424"/>
<path d="M1365.92 1400.49C1365.92 1417.85 1372.81 1434.49 1385.09 1446.76C1391.16 1452.84 1398.38 1457.66 1406.32 1460.95C1414.25 1464.24 1422.76 1465.93 1431.36 1465.93" stroke="#2E8B57" stroke-width="2.92424"/>
<path d="M1472.26 1294.16C1444.05 1294.16 1417.01 1305.36 1397.07 1325.3C1387.19 1335.17 1379.36 1346.9 1374.01 1359.8C1368.67 1372.7 1365.92 1386.53 1365.92 1400.49" stroke="#2E8B57" stroke-width="2.92424"/>
<path d="M1644.03 1465.93C1644.03 1420.37 1625.93 1376.68 1593.72 1344.47C1561.5 1312.25 1517.81 1294.16 1472.26 1294.16" stroke="#2E8B57" stroke-width="2.92424"/>
<path d="M1365.92 1744.12C1402.45 1744.12 1438.63 1736.92 1472.38 1722.94C1506.13 1708.96 1536.8 1688.47 1562.63 1662.64C1614.8 1610.47 1644.11 1539.71 1644.11 1465.93" stroke="#2E8B57" stroke-width="2.92424"/>
<path d="M1431.36 1465.93C1436.73 1465.93 1442.05 1464.87 1447.01 1462.82C1451.97 1460.76 1456.48 1457.75 1460.28 1453.95C1467.95 1446.28 1472.26 1435.88 1472.26 1425.03" stroke="#2E8B57" stroke-width="2.92424"/>
<path d="M1472.26 1425.03C1472.26 1418.52 1469.67 1412.28 1465.07 1407.68C1460.47 1403.08 1454.22 1400.49 1447.72 1400.49" stroke="#2E8B57" stroke-width="2.92424"/>
<path d="M1447.72 1400.49C1443.38 1400.49 1439.22 1402.21 1436.15 1405.28C1434.63 1406.8 1433.42 1408.61 1432.6 1410.59C1431.78 1412.58 1431.36 1414.7 1431.36 1416.85" stroke="#2E8B57" stroke-width="2.92424"/>
<path d="M1431.36 1416.85C1431.36 1419.02 1432.22 1421.1 1433.75 1422.63C1434.51 1423.39 1435.41 1424 1436.41 1424.41C1437.4 1424.82 1438.46 1425.03 1439.54 1425.03" stroke="#2E8B57" stroke-width="2.92424"/>
<path d="M1439.54 1425.03C1440.61 1425.03 1441.68 1424.82 1442.67 1424.41C1443.66 1424 1444.56 1423.39 1445.32 1422.63C1446.85 1421.1 1447.72 1419.02 1447.72 1416.85" stroke="#2E8B57" stroke-width="2.92424"/>
<path d="M280.186 1433.62C280.186 1416.27 273.292 1399.63 261.02 1387.35C254.944 1381.28 247.73 1376.46 239.791 1373.17C231.851 1369.88 223.342 1368.19 214.749 1368.19" stroke="#2E8B57" stroke-width="2.92424"/>
<path d="M173.85 1539.96C202.052 1539.96 229.099 1528.76 249.041 1508.82C258.916 1498.94 266.748 1487.22 272.092 1474.32C277.436 1461.42 280.187 1447.59 280.186 1433.62" stroke="#2E8B57" stroke-width="2.92424"/>
<path d="M2.07763 1368.19C2.07763 1413.74 20.175 1457.43 52.3886 1489.65C84.6021 1521.86 128.293 1539.96 173.85 1539.96" stroke="#2E8B57" stroke-width="2.92424"/>
<path d="M280.186 1090C243.654 1090 207.48 1097.2 173.729 1111.18C139.977 1125.16 109.31 1145.65 83.4782 1171.48C31.3085 1223.65 1.99992 1294.41 2.00004 1368.19" stroke="#2E8B57" stroke-width="2.92424"/>
<path d="M214.749 1368.19C209.378 1368.19 204.06 1369.24 199.098 1371.3C194.136 1373.36 189.627 1376.37 185.829 1380.17C178.16 1387.84 173.851 1398.24 173.851 1409.09" stroke="#2E8B57" stroke-width="2.92424"/>
<path d="M173.851 1409.09C173.851 1415.59 176.436 1421.84 181.038 1426.44C185.64 1431.04 191.881 1433.62 198.39 1433.62" stroke="#2E8B57" stroke-width="2.92424"/>
<path d="M198.39 1433.62C202.728 1433.62 206.889 1431.9 209.957 1428.83C211.477 1427.31 212.682 1425.51 213.504 1423.53C214.326 1421.54 214.749 1419.41 214.749 1417.27" stroke="#2E8B57" stroke-width="2.92424"/>
<path d="M214.749 1417.27C214.749 1415.1 213.887 1413.02 212.353 1411.48C211.594 1410.72 210.692 1410.12 209.7 1409.71C208.707 1409.3 207.644 1409.09 206.569 1409.09" stroke="#2E8B57" stroke-width="2.92424"/>
<path d="M206.569 1409.09C205.495 1409.09 204.431 1409.3 203.439 1409.71C202.447 1410.12 201.545 1410.72 200.785 1411.48C199.252 1413.02 198.39 1415.1 198.39 1417.27" stroke="#2E8B57" stroke-width="2.92424"/>
<path d="M822.568 1433.62C822.568 1416.27 815.674 1399.63 803.402 1387.35C797.326 1381.28 790.112 1376.46 782.173 1373.17C774.233 1369.88 765.724 1368.19 757.131 1368.19" stroke="#2E8B57" stroke-width="2.92424"/>
<path d="M716.232 1539.96C744.434 1539.96 771.481 1528.76 791.423 1508.82C801.298 1498.94 809.13 1487.22 814.474 1474.32C819.818 1461.42 822.568 1447.59 822.568 1433.62" stroke="#2E8B57" stroke-width="2.92424"/>
<path d="M544.46 1368.19C544.46 1413.74 562.557 1457.43 594.771 1489.65C626.984 1521.86 670.675 1539.96 716.232 1539.96" stroke="#2E8B57" stroke-width="2.92424"/>
<path d="M822.568 1090C786.036 1090 749.862 1097.2 716.111 1111.18C682.359 1125.16 651.692 1145.65 625.86 1171.48C573.69 1223.65 544.382 1294.41 544.382 1368.19" stroke="#2E8B57" stroke-width="2.92424"/>
<path d="M757.131 1368.19C751.76 1368.19 746.442 1369.24 741.48 1371.3C736.518 1373.36 732.009 1376.37 728.211 1380.17C720.541 1387.84 716.232 1398.24 716.232 1409.09" stroke="#2E8B57" stroke-width="2.92424"/>
<path d="M716.232 1409.09C716.232 1415.59 718.818 1421.84 723.42 1426.44C728.022 1431.04 734.263 1433.62 740.771 1433.62" stroke="#2E8B57" stroke-width="2.92424"/>
<path d="M740.771 1433.62C745.11 1433.62 749.271 1431.9 752.339 1428.83C753.858 1427.31 755.063 1425.51 755.886 1423.53C756.708 1421.54 757.131 1419.41 757.131 1417.26" stroke="#2E8B57" stroke-width="2.92424"/>
<path d="M757.131 1417.26C757.131 1415.1 756.269 1413.02 754.735 1411.48C753.976 1410.72 753.074 1410.12 752.081 1409.71C751.089 1409.3 750.025 1409.09 748.951 1409.09" stroke="#2E8B57" stroke-width="2.92424"/>
<path d="M748.951 1409.09C747.877 1409.09 746.813 1409.3 745.821 1409.71C744.828 1410.12 743.927 1410.72 743.167 1411.48C741.634 1413.02 740.772 1415.1 740.771 1417.26" stroke="#2E8B57" stroke-width="2.92424"/>
<path d="M1366.57 1433.62C1366.57 1416.27 1359.67 1399.63 1347.4 1387.35C1341.33 1381.28 1334.11 1376.46 1326.17 1373.17C1318.23 1369.88 1309.72 1368.19 1301.13 1368.19" stroke="#2E8B57" stroke-width="2.92424"/>
<path d="M1260.23 1539.96C1288.43 1539.96 1315.48 1528.76 1335.42 1508.82C1345.3 1498.94 1353.13 1487.22 1358.47 1474.32C1363.82 1461.42 1366.57 1447.59 1366.57 1433.62" stroke="#2E8B57" stroke-width="2.92424"/>
<path d="M1088.46 1368.19C1088.46 1413.74 1106.56 1457.43 1138.77 1489.65C1170.98 1521.86 1214.68 1539.96 1260.23 1539.96" stroke="#2E8B57" stroke-width="2.92424"/>
<path d="M1366.57 1090C1330.04 1090 1293.86 1097.2 1260.11 1111.18C1226.36 1125.16 1195.69 1145.65 1169.86 1171.48C1117.69 1223.65 1088.38 1294.41 1088.38 1368.19" stroke="#2E8B57" stroke-width="2.92424"/>
<path d="M1301.13 1368.19C1295.76 1368.19 1290.44 1369.24 1285.48 1371.3C1280.52 1373.36 1276.01 1376.37 1272.21 1380.17C1264.54 1387.84 1260.23 1398.24 1260.23 1409.09" stroke="#2E8B57" stroke-width="2.92424"/>
<path d="M1260.23 1409.09C1260.23 1415.59 1262.82 1421.84 1267.42 1426.44C1272.02 1431.04 1278.26 1433.62 1284.77 1433.62" stroke="#2E8B57" stroke-width="2.92424"/>
<path d="M1284.77 1433.62C1289.11 1433.62 1293.27 1431.9 1296.34 1428.83C1297.86 1427.31 1299.06 1425.51 1299.89 1423.53C1300.71 1421.54 1301.13 1419.41 1301.13 1417.26" stroke="#2E8B57" stroke-width="2.92424"/>
<path d="M1301.13 1417.26C1301.13 1415.1 1300.27 1413.02 1298.74 1411.48C1297.98 1410.72 1297.07 1410.12 1296.08 1409.71C1295.09 1409.3 1294.03 1409.09 1292.95 1409.09" stroke="#2E8B57" stroke-width="2.92424"/>
<path d="M1292.95 1409.09C1291.88 1409.09 1290.81 1409.3 1289.82 1409.71C1288.83 1410.12 1287.93 1410.72 1287.17 1411.48C1285.63 1413.02 1284.77 1415.1 1284.77 1417.26" stroke="#2E8B57" stroke-width="2.92424"/>
<path d="M280.186 1400.49C280.186 1417.85 273.292 1434.49 261.02 1446.76C254.944 1452.84 247.73 1457.66 239.791 1460.95C231.851 1464.24 223.342 1465.93 214.749 1465.93" stroke="#2E8B57" stroke-width="2.92424"/>
<path d="M173.85 1294.16C202.052 1294.16 229.099 1305.36 249.041 1325.3C258.916 1335.17 266.748 1346.9 272.092 1359.8C277.436 1372.7 280.187 1386.53 280.186 1400.49" stroke="#2E8B57" stroke-width="2.92424"/>
<path d="M2.07763 1465.93C2.07763 1420.37 20.175 1376.68 52.3886 1344.47C84.6021 1312.25 128.293 1294.16 173.85 1294.16" stroke="#2E8B57" stroke-width="2.92424"/>
<path d="M280.186 1744.12C243.654 1744.12 207.48 1736.92 173.729 1722.94C139.977 1708.96 109.31 1688.47 83.4782 1662.64C31.3085 1610.47 1.99992 1539.71 2.00004 1465.93" stroke="#2E8B57" stroke-width="2.92424"/>
<path d="M214.749 1465.93C209.378 1465.93 204.06 1464.87 199.098 1462.82C194.136 1460.76 189.627 1457.75 185.829 1453.95C178.16 1446.28 173.851 1435.88 173.851 1425.03" stroke="#2E8B57" stroke-width="2.92424"/>
<path d="M173.851 1425.03C173.851 1418.52 176.436 1412.28 181.038 1407.68C185.64 1403.08 191.881 1400.49 198.39 1400.49" stroke="#2E8B57" stroke-width="2.92424"/>
<path d="M198.39 1400.49C202.728 1400.49 206.889 1402.21 209.957 1405.28C211.477 1406.8 212.682 1408.61 213.504 1410.59C214.326 1412.58 214.749 1414.7 214.749 1416.85" stroke="#2E8B57" stroke-width="2.92424"/>
<path d="M214.749 1416.85C214.749 1419.02 213.887 1421.1 212.353 1422.63C211.594 1423.39 210.692 1424 209.7 1424.41C208.707 1424.82 207.644 1425.03 206.569 1425.03" stroke="#2E8B57" stroke-width="2.92424"/>
<path d="M206.569 1425.03C205.495 1425.03 204.431 1424.82 203.439 1424.41C202.447 1424 201.545 1423.39 200.785 1422.63C199.252 1421.1 198.39 1419.02 198.39 1416.85" stroke="#2E8B57" stroke-width="2.92424"/>
<path d="M1366.57 1400.49C1366.57 1417.85 1359.67 1434.49 1347.4 1446.76C1341.33 1452.84 1334.11 1457.66 1326.17 1460.95C1318.23 1464.24 1309.72 1465.93 1301.13 1465.93" stroke="#2E8B57" stroke-width="2.92424"/>
<path d="M1260.23 1294.16C1288.43 1294.16 1315.48 1305.36 1335.42 1325.3C1345.3 1335.17 1353.13 1346.9 1358.47 1359.8C1363.82 1372.7 1366.57 1386.53 1366.57 1400.49" stroke="#2E8B57" stroke-width="2.92424"/>
<path d="M1088.46 1465.93C1088.46 1420.37 1106.56 1376.68 1138.77 1344.47C1170.98 1312.25 1214.68 1294.16 1260.23 1294.16" stroke="#2E8B57" stroke-width="2.92424"/>
<path d="M1366.57 1744.12C1330.04 1744.12 1293.86 1736.92 1260.11 1722.94C1226.36 1708.96 1195.69 1688.47 1169.86 1662.64C1117.69 1610.47 1088.38 1539.71 1088.38 1465.93" stroke="#2E8B57" stroke-width="2.92424"/>
<path d="M1301.13 1465.93C1295.76 1465.93 1290.44 1464.87 1285.48 1462.82C1280.52 1460.76 1276.01 1457.75 1272.21 1453.95C1264.54 1446.28 1260.23 1435.88 1260.23 1425.03" stroke="#2E8B57" stroke-width="2.92424"/>
<path d="M1260.23 1425.03C1260.23 1418.52 1262.82 1412.28 1267.42 1407.68C1272.02 1403.08 1278.26 1400.49 1284.77 1400.49" stroke="#2E8B57" stroke-width="2.92424"/>
<path d="M1284.77 1400.49C1289.11 1400.49 1293.27 1402.21 1296.34 1405.28C1297.86 1406.8 1299.06 1408.61 1299.89 1410.59C1300.71 1412.58 1301.13 1414.7 1301.13 1416.85" stroke="#2E8B57" stroke-width="2.92424"/>
<path d="M1301.13 1416.85C1301.13 1419.02 1300.27 1421.1 1298.74 1422.63C1297.98 1423.39 1297.07 1424 1296.08 1424.41C1295.09 1424.82 1294.03 1425.03 1292.95 1425.03" stroke="#2E8B57" stroke-width="2.92424"/>
<path d="M1292.95 1425.03C1291.88 1425.03 1290.81 1424.82 1289.82 1424.41C1288.83 1424 1287.93 1423.39 1287.17 1422.63C1285.63 1421.1 1284.77 1419.02 1284.77 1416.85" stroke="#2E8B57" stroke-width="2.92424"/>
<path d="M822.568 1400.49C822.568 1417.85 815.674 1434.49 803.402 1446.76C797.326 1452.84 790.112 1457.66 782.173 1460.95C774.233 1464.24 765.724 1465.93 757.131 1465.93" stroke="#2E8B57" stroke-width="2.92424"/>
<path d="M716.232 1294.16C744.434 1294.16 771.481 1305.36 791.423 1325.3C801.298 1335.17 809.13 1346.9 814.474 1359.8C819.818 1372.7 822.568 1386.53 822.568 1400.49" stroke="#2E8B57" stroke-width="2.92424"/>
<path d="M544.46 1465.93C544.46 1420.37 562.557 1376.68 594.771 1344.47C626.984 1312.25 670.675 1294.16 716.232 1294.16" stroke="#2E8B57" stroke-width="2.92424"/>
<path d="M822.568 1744.12C786.036 1744.12 749.862 1736.92 716.111 1722.94C682.359 1708.96 651.692 1688.47 625.86 1662.64C573.69 1610.47 544.382 1539.71 544.382 1465.93" stroke="#2E8B57" stroke-width="2.92424"/>
<path d="M757.131 1465.93C751.76 1465.93 746.442 1464.87 741.48 1462.82C736.518 1460.76 732.009 1457.75 728.211 1453.95C720.541 1446.28 716.232 1435.88 716.232 1425.03" stroke="#2E8B57" stroke-width="2.92424"/>
<path d="M716.232 1425.03C716.232 1418.52 718.818 1412.28 723.42 1407.68C728.022 1403.08 734.263 1400.49 740.771 1400.49" stroke="#2E8B57" stroke-width="2.92424"/>
<path d="M740.771 1400.49C745.11 1400.49 749.271 1402.21 752.339 1405.28C753.858 1406.8 755.063 1408.61 755.886 1410.59C756.708 1412.58 757.131 1414.7 757.131 1416.85" stroke="#2E8B57" stroke-width="2.92424"/>
<path d="M757.131 1416.85C757.131 1419.02 756.269 1421.1 754.735 1422.63C753.976 1423.39 753.074 1424 752.081 1424.41C751.089 1424.82 750.025 1425.03 748.951 1425.03" stroke="#2E8B57" stroke-width="2.92424"/>
<path d="M748.951 1425.03C747.877 1425.03 746.813 1424.82 745.821 1424.41C744.828 1424 743.927 1423.39 743.167 1422.63C741.634 1421.1 740.772 1419.02 740.771 1416.85" stroke="#2E8B57" stroke-width="2.92424"/>
</svg>
