<svg width="1649" height="658" viewBox="0 0 1649 658" fill="none" xmlns="http://www.w3.org/2000/svg">
<path d="M280.538 345.624C280.538 328.269 287.432 311.626 299.704 299.354C305.78 293.277 312.994 288.457 320.934 285.168C328.873 281.88 337.382 280.187 345.976 280.187" stroke="#2E8B57" stroke-width="2.92424"/>
<path d="M386.874 451.96C358.672 451.96 331.625 440.757 311.683 420.816C301.809 410.942 293.976 399.219 288.632 386.318C283.288 373.416 280.538 359.589 280.538 345.624" stroke="#2E8B57" stroke-width="2.92424"/>
<path d="M558.647 280.187C558.646 325.744 540.549 369.435 508.336 401.649C476.122 433.862 432.431 451.96 386.874 451.96" stroke="#2E8B57" stroke-width="2.92424"/>
<path d="M280.538 2C317.07 2 353.244 9.19557 386.996 23.1758C420.747 37.1561 451.414 57.6473 477.246 83.4795C529.416 135.65 558.724 206.407 558.724 280.187" stroke="#2E8B57" stroke-width="2.92424"/>
<path d="M345.975 280.187C351.346 280.187 356.665 281.245 361.627 283.3C366.589 285.356 371.097 288.368 374.895 292.166C382.565 299.836 386.874 310.238 386.874 321.085" stroke="#2E8B57" stroke-width="2.92424"/>
<path d="M386.874 321.085C386.874 327.593 384.288 333.835 379.686 338.437C375.084 343.039 368.843 345.624 362.335 345.624" stroke="#2E8B57" stroke-width="2.92424"/>
<path d="M362.335 345.624C357.996 345.624 353.835 343.901 350.767 340.833C349.248 339.314 348.043 337.51 347.22 335.526C346.398 333.541 345.975 331.413 345.975 329.265" stroke="#2E8B57" stroke-width="2.92424"/>
<path d="M345.975 329.265C345.976 327.096 346.837 325.016 348.371 323.482C349.131 322.722 350.032 322.12 351.025 321.708C352.017 321.297 353.081 321.085 354.155 321.085" stroke="#2E8B57" stroke-width="2.92424"/>
<path d="M354.155 321.085C355.229 321.085 356.293 321.297 357.285 321.708C358.278 322.12 359.179 322.722 359.939 323.482C361.473 325.016 362.334 327.096 362.335 329.265" stroke="#2E8B57" stroke-width="2.92424"/>
<path d="M823.92 345.624C823.92 328.269 830.814 311.626 843.086 299.354C849.163 293.277 856.376 288.457 864.316 285.168C872.255 281.88 880.764 280.187 889.358 280.187" stroke="#2E8B57" stroke-width="2.92424"/>
<path d="M930.256 451.96C902.054 451.96 875.007 440.757 855.065 420.816C845.191 410.942 837.358 399.219 832.014 386.318C826.67 373.416 823.92 359.589 823.92 345.624" stroke="#2E8B57" stroke-width="2.92424"/>
<path d="M1102.03 280.187C1102.03 325.744 1083.93 369.435 1051.72 401.649C1019.5 433.862 975.813 451.96 930.256 451.96" stroke="#2E8B57" stroke-width="2.92424"/>
<path d="M823.92 2C860.452 2 896.626 9.19557 930.378 23.1758C964.129 37.1561 994.796 57.6473 1020.63 83.4795C1072.8 135.65 1102.11 206.407 1102.11 280.187" stroke="#2E8B57" stroke-width="2.92424"/>
<path d="M889.357 280.187C894.728 280.187 900.047 281.245 905.009 283.3C909.971 285.356 914.479 288.368 918.277 292.166C925.947 299.836 930.256 310.238 930.256 321.085" stroke="#2E8B57" stroke-width="2.92424"/>
<path d="M930.256 321.085C930.256 327.593 927.67 333.835 923.069 338.437C918.467 343.039 912.225 345.624 905.717 345.624" stroke="#2E8B57" stroke-width="2.92424"/>
<path d="M905.717 345.624C901.378 345.624 897.217 343.901 894.149 340.833C892.63 339.314 891.425 337.51 890.603 335.526C889.781 333.541 889.357 331.413 889.357 329.265" stroke="#2E8B57" stroke-width="2.92424"/>
<path d="M889.357 329.265C889.358 327.096 890.219 325.016 891.753 323.482C892.513 322.722 893.414 322.12 894.407 321.708C895.399 321.297 896.463 321.085 897.537 321.085" stroke="#2E8B57" stroke-width="2.92424"/>
<path d="M897.537 321.085C898.611 321.085 899.675 321.297 900.667 321.708C901.66 322.12 902.561 322.722 903.321 323.482C904.855 325.016 905.717 327.096 905.717 329.265" stroke="#2E8B57" stroke-width="2.92424"/>
<path d="M1368.92 345.624C1368.92 328.269 1375.81 311.626 1388.09 299.354C1394.16 293.277 1401.38 288.457 1409.32 285.168C1417.25 281.88 1425.76 280.187 1434.36 280.187" stroke="#2E8B57" stroke-width="2.92424"/>
<path d="M1475.26 451.96C1447.05 451.96 1420.01 440.757 1400.07 420.816C1390.19 410.942 1382.36 399.219 1377.01 386.318C1371.67 373.416 1368.92 359.589 1368.92 345.624" stroke="#2E8B57" stroke-width="2.92424"/>
<path d="M1647.03 280.187C1647.03 325.744 1628.93 369.435 1596.72 401.649C1564.5 433.862 1520.81 451.96 1475.26 451.96" stroke="#2E8B57" stroke-width="2.92424"/>
<path d="M1368.92 2C1405.45 2 1441.63 9.19557 1475.38 23.1758C1509.13 37.1561 1539.8 57.6473 1565.63 83.4795C1617.8 135.65 1647.11 206.407 1647.11 280.187" stroke="#2E8B57" stroke-width="2.92424"/>
<path d="M1434.36 280.187C1439.73 280.187 1445.05 281.245 1450.01 283.3C1454.97 285.356 1459.48 288.368 1463.28 292.166C1470.95 299.836 1475.26 310.238 1475.26 321.085" stroke="#2E8B57" stroke-width="2.92424"/>
<path d="M1475.26 321.085C1475.26 327.593 1472.67 333.835 1468.07 338.437C1463.47 343.039 1457.22 345.624 1450.72 345.624" stroke="#2E8B57" stroke-width="2.92424"/>
<path d="M1450.72 345.624C1446.38 345.624 1442.22 343.901 1439.15 340.833C1437.63 339.314 1436.42 337.51 1435.6 335.526C1434.78 333.541 1434.36 331.413 1434.36 329.265" stroke="#2E8B57" stroke-width="2.92424"/>
<path d="M1434.36 329.265C1434.36 327.096 1435.22 325.016 1436.75 323.482C1437.51 322.722 1438.41 322.12 1439.41 321.708C1440.4 321.297 1441.46 321.085 1442.54 321.085" stroke="#2E8B57" stroke-width="2.92424"/>
<path d="M1442.54 321.085C1443.61 321.085 1444.68 321.297 1445.67 321.708C1446.66 322.12 1447.56 322.722 1448.32 323.482C1449.85 325.016 1450.72 327.096 1450.72 329.265" stroke="#2E8B57" stroke-width="2.92424"/>
<path d="M280.538 312.492C280.538 329.846 287.432 346.49 299.704 358.762C305.78 364.839 312.994 369.659 320.934 372.948C328.873 376.236 337.382 377.929 345.976 377.929" stroke="#2E8B57" stroke-width="2.92424"/>
<path d="M386.874 206.156C358.672 206.156 331.625 217.358 311.683 237.3C301.809 247.174 293.976 258.897 288.632 271.798C283.288 284.7 280.538 298.527 280.538 312.492" stroke="#2E8B57" stroke-width="2.92424"/>
<path d="M558.647 377.929C558.646 332.372 540.549 288.681 508.336 256.467C476.122 224.254 432.431 206.156 386.874 206.156" stroke="#2E8B57" stroke-width="2.92424"/>
<path d="M280.538 656.116C317.07 656.116 353.244 648.92 386.996 634.94C420.747 620.96 451.414 600.469 477.246 574.636C529.416 522.466 558.724 451.709 558.724 377.929" stroke="#2E8B57" stroke-width="2.92424"/>
<path d="M345.975 377.929C351.346 377.929 356.665 376.871 361.627 374.816C366.589 372.76 371.097 369.748 374.895 365.95C382.565 358.28 386.874 347.878 386.874 337.031" stroke="#2E8B57" stroke-width="2.92424"/>
<path d="M386.874 337.031C386.874 330.523 384.288 324.281 379.686 319.679C375.084 315.077 368.843 312.492 362.335 312.492" stroke="#2E8B57" stroke-width="2.92424"/>
<path d="M362.335 312.492C357.996 312.492 353.835 314.215 350.767 317.283C349.248 318.802 348.043 320.605 347.22 322.59C346.398 324.575 345.975 326.703 345.975 328.851" stroke="#2E8B57" stroke-width="2.92424"/>
<path d="M345.975 328.851C345.976 331.02 346.837 333.1 348.371 334.634C349.131 335.394 350.032 335.996 351.025 336.408C352.017 336.819 353.081 337.031 354.155 337.031" stroke="#2E8B57" stroke-width="2.92424"/>
<path d="M354.155 337.031C355.229 337.031 356.293 336.819 357.285 336.408C358.278 335.996 359.179 335.394 359.939 334.634C361.473 333.1 362.334 331.02 362.335 328.851" stroke="#2E8B57" stroke-width="2.92424"/>
<path d="M823.92 312.492C823.92 329.846 830.814 346.49 843.086 358.762C849.163 364.839 856.376 369.659 864.316 372.948C872.255 376.236 880.764 377.929 889.358 377.929" stroke="#2E8B57" stroke-width="2.92424"/>
<path d="M930.256 206.156C902.054 206.156 875.007 217.358 855.065 237.3C845.191 247.174 837.358 258.897 832.014 271.798C826.67 284.7 823.92 298.527 823.92 312.492" stroke="#2E8B57" stroke-width="2.92424"/>
<path d="M1102.03 377.929C1102.03 332.372 1083.93 288.681 1051.72 256.467C1019.5 224.254 975.813 206.156 930.256 206.156" stroke="#2E8B57" stroke-width="2.92424"/>
<path d="M823.92 656.116C860.452 656.116 896.626 648.92 930.378 634.94C964.129 620.96 994.796 600.469 1020.63 574.636C1072.8 522.466 1102.11 451.709 1102.11 377.929" stroke="#2E8B57" stroke-width="2.92424"/>
<path d="M889.357 377.929C894.728 377.929 900.047 376.871 905.009 374.816C909.971 372.76 914.479 369.748 918.277 365.95C925.947 358.28 930.256 347.878 930.256 337.031" stroke="#2E8B57" stroke-width="2.92424"/>
<path d="M930.256 337.031C930.256 330.523 927.67 324.281 923.069 319.679C918.467 315.077 912.225 312.492 905.717 312.492" stroke="#2E8B57" stroke-width="2.92424"/>
<path d="M905.717 312.492C901.378 312.492 897.217 314.215 894.149 317.283C892.63 318.802 891.425 320.605 890.603 322.59C889.781 324.575 889.357 326.703 889.357 328.851" stroke="#2E8B57" stroke-width="2.92424"/>
<path d="M889.357 328.851C889.358 331.02 890.219 333.1 891.753 334.634C892.513 335.394 893.414 335.996 894.407 336.408C895.399 336.819 896.463 337.031 897.537 337.031" stroke="#2E8B57" stroke-width="2.92424"/>
<path d="M897.537 337.031C898.611 337.031 899.675 336.819 900.667 336.408C901.66 335.996 902.561 335.394 903.321 334.634C904.855 333.1 905.717 331.02 905.717 328.851" stroke="#2E8B57" stroke-width="2.92424"/>
<path d="M1368.92 312.492C1368.92 329.846 1375.81 346.49 1388.09 358.762C1394.16 364.839 1401.38 369.659 1409.32 372.948C1417.25 376.236 1425.76 377.929 1434.36 377.929" stroke="#2E8B57" stroke-width="2.92424"/>
<path d="M1475.26 206.156C1447.05 206.156 1420.01 217.358 1400.07 237.3C1390.19 247.174 1382.36 258.897 1377.01 271.798C1371.67 284.7 1368.92 298.527 1368.92 312.492" stroke="#2E8B57" stroke-width="2.92424"/>
<path d="M1647.03 377.929C1647.03 332.372 1628.93 288.681 1596.72 256.467C1564.5 224.254 1520.81 206.156 1475.26 206.156" stroke="#2E8B57" stroke-width="2.92424"/>
<path d="M1368.92 656.116C1405.45 656.116 1441.63 648.92 1475.38 634.94C1509.13 620.96 1539.8 600.469 1565.63 574.636C1617.8 522.466 1647.11 451.709 1647.11 377.929" stroke="#2E8B57" stroke-width="2.92424"/>
<path d="M1434.36 377.929C1439.73 377.929 1445.05 376.871 1450.01 374.816C1454.97 372.76 1459.48 369.748 1463.28 365.95C1470.95 358.28 1475.26 347.878 1475.26 337.031" stroke="#2E8B57" stroke-width="2.92424"/>
<path d="M1475.26 337.031C1475.26 330.523 1472.67 324.281 1468.07 319.679C1463.47 315.077 1457.22 312.492 1450.72 312.492" stroke="#2E8B57" stroke-width="2.92424"/>
<path d="M1450.72 312.492C1446.38 312.492 1442.22 314.215 1439.15 317.283C1437.63 318.802 1436.42 320.605 1435.6 322.59C1434.78 324.575 1434.36 326.703 1434.36 328.851" stroke="#2E8B57" stroke-width="2.92424"/>
<path d="M1434.36 328.851C1434.36 331.02 1435.22 333.1 1436.75 334.634C1437.51 335.394 1438.41 335.996 1439.41 336.408C1440.4 336.819 1441.46 337.031 1442.54 337.031" stroke="#2E8B57" stroke-width="2.92424"/>
<path d="M1442.54 337.031C1443.61 337.031 1444.68 336.819 1445.67 336.408C1446.66 335.996 1447.56 335.394 1448.32 334.634C1449.85 333.1 1450.72 331.02 1450.72 328.851" stroke="#2E8B57" stroke-width="2.92424"/>
<path d="M280.186 345.624C280.186 328.269 273.292 311.626 261.02 299.354C254.944 293.277 247.73 288.457 239.791 285.168C231.851 281.88 223.342 280.187 214.749 280.187" stroke="#2E8B57" stroke-width="2.92424"/>
<path d="M173.85 451.96C202.052 451.96 229.099 440.757 249.041 420.816C258.916 410.942 266.748 399.219 272.092 386.318C277.436 373.416 280.187 359.589 280.186 345.624" stroke="#2E8B57" stroke-width="2.92424"/>
<path d="M2.07763 280.187C2.07763 325.744 20.175 369.435 52.3886 401.649C84.6021 433.862 128.293 451.96 173.85 451.96" stroke="#2E8B57" stroke-width="2.92424"/>
<path d="M280.186 2C243.654 2 207.48 9.19556 173.729 23.1758C139.977 37.1561 109.31 57.6473 83.4782 83.4794C31.3085 135.65 1.99992 206.407 2.00004 280.187" stroke="#2E8B57" stroke-width="2.92424"/>
<path d="M214.749 280.187C209.378 280.187 204.06 281.245 199.098 283.3C194.136 285.356 189.627 288.368 185.829 292.166C178.16 299.836 173.851 310.238 173.851 321.085" stroke="#2E8B57" stroke-width="2.92424"/>
<path d="M173.851 321.085C173.851 327.593 176.436 333.835 181.038 338.437C185.64 343.039 191.881 345.624 198.39 345.624" stroke="#2E8B57" stroke-width="2.92424"/>
<path d="M198.39 345.624C202.728 345.624 206.889 343.901 209.957 340.833C211.477 339.314 212.682 337.51 213.504 335.526C214.326 333.541 214.749 331.413 214.749 329.265" stroke="#2E8B57" stroke-width="2.92424"/>
<path d="M214.749 329.265C214.749 327.096 213.887 325.016 212.353 323.482C211.594 322.722 210.692 322.119 209.7 321.708C208.707 321.297 207.644 321.085 206.569 321.085" stroke="#2E8B57" stroke-width="2.92424"/>
<path d="M206.569 321.085C205.495 321.085 204.431 321.297 203.439 321.708C202.447 322.119 201.545 322.722 200.785 323.482C199.252 325.016 198.39 327.096 198.39 329.265" stroke="#2E8B57" stroke-width="2.92424"/>
<path d="M823.568 345.624C823.568 328.269 816.674 311.626 804.402 299.354C798.326 293.277 791.112 288.457 783.173 285.168C775.233 281.88 766.724 280.187 758.131 280.187" stroke="#2E8B57" stroke-width="2.92424"/>
<path d="M717.232 451.96C745.434 451.96 772.481 440.757 792.423 420.816C802.298 410.942 810.13 399.219 815.474 386.318C820.818 373.416 823.568 359.589 823.568 345.624" stroke="#2E8B57" stroke-width="2.92424"/>
<path d="M545.46 280.187C545.46 325.744 563.557 369.435 595.771 401.649C627.984 433.862 671.675 451.96 717.232 451.96" stroke="#2E8B57" stroke-width="2.92424"/>
<path d="M823.568 2C787.036 2 750.862 9.19556 717.111 23.1758C683.359 37.1561 652.692 57.6473 626.86 83.4794C574.69 135.65 545.382 206.407 545.382 280.187" stroke="#2E8B57" stroke-width="2.92424"/>
<path d="M758.131 280.187C752.76 280.187 747.442 281.245 742.48 283.3C737.518 285.356 733.009 288.368 729.211 292.166C721.541 299.836 717.232 310.238 717.232 321.085" stroke="#2E8B57" stroke-width="2.92424"/>
<path d="M717.232 321.085C717.232 327.593 719.818 333.835 724.42 338.437C729.022 343.039 735.263 345.624 741.771 345.624" stroke="#2E8B57" stroke-width="2.92424"/>
<path d="M741.771 345.624C746.11 345.624 750.271 343.901 753.339 340.833C754.858 339.314 756.063 337.51 756.886 335.526C757.708 333.541 758.131 331.413 758.131 329.265" stroke="#2E8B57" stroke-width="2.92424"/>
<path d="M758.131 329.265C758.131 327.096 757.269 325.016 755.735 323.482C754.976 322.722 754.074 322.119 753.081 321.708C752.089 321.297 751.025 321.085 749.951 321.085" stroke="#2E8B57" stroke-width="2.92424"/>
<path d="M749.951 321.085C748.877 321.085 747.813 321.297 746.821 321.708C745.828 322.119 744.927 322.722 744.167 323.482C742.634 325.016 741.772 327.096 741.771 329.265" stroke="#2E8B57" stroke-width="2.92424"/>
<path d="M1368.57 345.624C1368.57 328.269 1361.67 311.626 1349.4 299.354C1343.33 293.277 1336.11 288.457 1328.17 285.168C1320.23 281.88 1311.72 280.187 1303.13 280.187" stroke="#2E8B57" stroke-width="2.92424"/>
<path d="M1262.23 451.96C1290.43 451.96 1317.48 440.757 1337.42 420.816C1347.3 410.942 1355.13 399.219 1360.47 386.318C1365.82 373.416 1368.57 359.589 1368.57 345.624" stroke="#2E8B57" stroke-width="2.92424"/>
<path d="M1090.46 280.187C1090.46 325.744 1108.56 369.435 1140.77 401.649C1172.98 433.862 1216.68 451.96 1262.23 451.96" stroke="#2E8B57" stroke-width="2.92424"/>
<path d="M1368.57 2C1332.04 2 1295.86 9.19556 1262.11 23.1758C1228.36 37.1561 1197.69 57.6473 1171.86 83.4794C1119.69 135.65 1090.38 206.407 1090.38 280.187" stroke="#2E8B57" stroke-width="2.92424"/>
<path d="M1303.13 280.187C1297.76 280.187 1292.44 281.245 1287.48 283.3C1282.52 285.356 1278.01 288.368 1274.21 292.166C1266.54 299.836 1262.23 310.238 1262.23 321.085" stroke="#2E8B57" stroke-width="2.92424"/>
<path d="M1262.23 321.085C1262.23 327.593 1264.82 333.835 1269.42 338.437C1274.02 343.039 1280.26 345.624 1286.77 345.624" stroke="#2E8B57" stroke-width="2.92424"/>
<path d="M1286.77 345.624C1291.11 345.624 1295.27 343.901 1298.34 340.833C1299.86 339.314 1301.06 337.51 1301.89 335.526C1302.71 333.541 1303.13 331.413 1303.13 329.265" stroke="#2E8B57" stroke-width="2.92424"/>
<path d="M1303.13 329.265C1303.13 327.096 1302.27 325.016 1300.74 323.482C1299.98 322.722 1299.07 322.119 1298.08 321.708C1297.09 321.297 1296.03 321.085 1294.95 321.085" stroke="#2E8B57" stroke-width="2.92424"/>
<path d="M1294.95 321.085C1293.88 321.085 1292.81 321.297 1291.82 321.708C1290.83 322.119 1289.93 322.722 1289.17 323.482C1287.63 325.016 1286.77 327.096 1286.77 329.265" stroke="#2E8B57" stroke-width="2.92424"/>
<path d="M280.186 312.492C280.186 329.846 273.292 346.49 261.02 358.762C254.944 364.839 247.73 369.659 239.791 372.948C231.851 376.236 223.342 377.929 214.749 377.929" stroke="#2E8B57" stroke-width="2.92424"/>
<path d="M173.85 206.156C202.052 206.156 229.099 217.358 249.041 237.3C258.916 247.174 266.748 258.897 272.092 271.798C277.436 284.7 280.187 298.527 280.186 312.492" stroke="#2E8B57" stroke-width="2.92424"/>
<path d="M2.07763 377.929C2.07763 332.372 20.175 288.681 52.3886 256.467C84.6021 224.254 128.293 206.156 173.85 206.156" stroke="#2E8B57" stroke-width="2.92424"/>
<path d="M280.186 656.116C243.654 656.116 207.48 648.92 173.729 634.94C139.977 620.96 109.31 600.469 83.4782 574.636C31.3085 522.466 1.99992 451.709 2.00004 377.929" stroke="#2E8B57" stroke-width="2.92424"/>
<path d="M214.749 377.929C209.378 377.929 204.06 376.871 199.098 374.816C194.136 372.76 189.627 369.748 185.829 365.95C178.16 358.28 173.851 347.878 173.851 337.031" stroke="#2E8B57" stroke-width="2.92424"/>
<path d="M173.851 337.031C173.851 330.523 176.436 324.281 181.038 319.679C185.64 315.077 191.881 312.492 198.39 312.492" stroke="#2E8B57" stroke-width="2.92424"/>
<path d="M198.39 312.492C202.728 312.492 206.889 314.215 209.957 317.283C211.477 318.802 212.682 320.606 213.504 322.59C214.326 324.575 214.749 326.703 214.749 328.851" stroke="#2E8B57" stroke-width="2.92424"/>
<path d="M214.749 328.851C214.749 331.02 213.887 333.1 212.353 334.634C211.594 335.394 210.692 335.996 209.7 336.408C208.707 336.819 207.644 337.031 206.569 337.031" stroke="#2E8B57" stroke-width="2.92424"/>
<path d="M206.569 337.031C205.495 337.031 204.431 336.819 203.439 336.408C202.447 335.996 201.545 335.394 200.785 334.634C199.252 333.1 198.39 331.02 198.39 328.851" stroke="#2E8B57" stroke-width="2.92424"/>
<path d="M1368.57 312.492C1368.57 329.846 1361.67 346.49 1349.4 358.762C1343.33 364.839 1336.11 369.659 1328.17 372.948C1320.23 376.236 1311.72 377.929 1303.13 377.929" stroke="#2E8B57" stroke-width="2.92424"/>
<path d="M1262.23 206.156C1290.43 206.156 1317.48 217.358 1337.42 237.3C1347.3 247.174 1355.13 258.897 1360.47 271.798C1365.82 284.7 1368.57 298.527 1368.57 312.492" stroke="#2E8B57" stroke-width="2.92424"/>
<path d="M1090.46 377.929C1090.46 332.372 1108.56 288.681 1140.77 256.467C1172.98 224.254 1216.68 206.156 1262.23 206.156" stroke="#2E8B57" stroke-width="2.92424"/>
<path d="M1368.57 656.116C1332.04 656.116 1295.86 648.92 1262.11 634.94C1228.36 620.96 1197.69 600.469 1171.86 574.636C1119.69 522.466 1090.38 451.709 1090.38 377.929" stroke="#2E8B57" stroke-width="2.92424"/>
<path d="M1303.13 377.929C1297.76 377.929 1292.44 376.871 1287.48 374.816C1282.52 372.76 1278.01 369.748 1274.21 365.95C1266.54 358.28 1262.23 347.878 1262.23 337.031" stroke="#2E8B57" stroke-width="2.92424"/>
<path d="M1262.23 337.031C1262.23 330.523 1264.82 324.281 1269.42 319.679C1274.02 315.077 1280.26 312.492 1286.77 312.492" stroke="#2E8B57" stroke-width="2.92424"/>
<path d="M1286.77 312.492C1291.11 312.492 1295.27 314.215 1298.34 317.283C1299.86 318.802 1301.06 320.606 1301.89 322.59C1302.71 324.575 1303.13 326.703 1303.13 328.851" stroke="#2E8B57" stroke-width="2.92424"/>
<path d="M1303.13 328.851C1303.13 331.02 1302.27 333.1 1300.74 334.634C1299.98 335.394 1299.07 335.996 1298.08 336.408C1297.09 336.819 1296.03 337.031 1294.95 337.031" stroke="#2E8B57" stroke-width="2.92424"/>
<path d="M1294.95 337.031C1293.88 337.031 1292.81 336.819 1291.82 336.408C1290.83 335.996 1289.93 335.394 1289.17 334.634C1287.63 333.1 1286.77 331.02 1286.77 328.851" stroke="#2E8B57" stroke-width="2.92424"/>
<path d="M823.568 312.492C823.568 329.846 816.674 346.49 804.402 358.762C798.326 364.839 791.112 369.659 783.173 372.948C775.233 376.236 766.724 377.929 758.131 377.929" stroke="#2E8B57" stroke-width="2.92424"/>
<path d="M717.232 206.156C745.434 206.156 772.481 217.358 792.423 237.3C802.298 247.174 810.13 258.897 815.474 271.798C820.818 284.7 823.568 298.527 823.568 312.492" stroke="#2E8B57" stroke-width="2.92424"/>
<path d="M545.46 377.929C545.46 332.372 563.557 288.681 595.771 256.467C627.984 224.254 671.675 206.156 717.232 206.156" stroke="#2E8B57" stroke-width="2.92424"/>
<path d="M823.568 656.116C787.036 656.116 750.862 648.92 717.111 634.94C683.359 620.96 652.692 600.469 626.86 574.636C574.69 522.466 545.382 451.709 545.382 377.929" stroke="#2E8B57" stroke-width="2.92424"/>
<path d="M758.131 377.929C752.76 377.929 747.442 376.871 742.48 374.816C737.518 372.76 733.009 369.748 729.211 365.95C721.541 358.28 717.232 347.878 717.232 337.031" stroke="#2E8B57" stroke-width="2.92424"/>
<path d="M717.232 337.031C717.232 330.523 719.818 324.281 724.42 319.679C729.022 315.077 735.263 312.492 741.771 312.492" stroke="#2E8B57" stroke-width="2.92424"/>
<path d="M741.771 312.492C746.11 312.492 750.271 314.215 753.339 317.283C754.858 318.802 756.063 320.606 756.886 322.59C757.708 324.575 758.131 326.703 758.131 328.851" stroke="#2E8B57" stroke-width="2.92424"/>
<path d="M758.131 328.851C758.131 331.02 757.269 333.1 755.735 334.634C754.976 335.394 754.074 335.996 753.081 336.408C752.089 336.819 751.025 337.031 749.951 337.031" stroke="#2E8B57" stroke-width="2.92424"/>
<path d="M749.951 337.031C748.877 337.031 747.813 336.819 746.821 336.408C745.828 335.996 744.927 335.394 744.167 334.634C742.634 333.1 741.772 331.02 741.771 328.851" stroke="#2E8B57" stroke-width="2.92424"/>
</svg>
