<svg width="919" height="465" viewBox="0 0 919 465" fill="none" xmlns="http://www.w3.org/2000/svg">
<g clip-path="url(#clip0)">
<rect width="465" height="919" transform="translate(919) rotate(90)" fill="white"/>
<path d="M352.465 123H349.535V108.781H352.465V123ZM357.602 112.434L357.689 113.654C358.445 112.71 359.457 112.238 360.727 112.238C361.846 112.238 362.68 112.567 363.227 113.225C363.773 113.882 364.053 114.865 364.066 116.174V123H361.244V116.242C361.244 115.643 361.114 115.21 360.853 114.943C360.593 114.67 360.16 114.533 359.555 114.533C358.76 114.533 358.165 114.872 357.768 115.549V123H354.945V112.434H357.602ZM366.898 123V114.504H365.326V112.434H366.898V111.945C366.911 110.617 367.318 109.595 368.119 108.879C368.926 108.156 370.062 107.795 371.527 107.795C372.406 107.795 373.474 107.987 374.73 108.371L374.32 110.705C373.682 110.516 373.187 110.396 372.836 110.344C372.484 110.285 372.107 110.256 371.703 110.256C370.388 110.256 369.73 110.839 369.73 112.004V112.434H371.811V114.504H369.73V123H366.898ZM376.049 123H373.217V112.434H376.049V123ZM380.98 112.434L381.068 113.654C381.824 112.71 382.836 112.238 384.105 112.238C385.225 112.238 386.059 112.567 386.605 113.225C387.152 113.882 387.432 114.865 387.445 116.174V123H384.623V116.242C384.623 115.643 384.493 115.21 384.232 114.943C383.972 114.67 383.539 114.533 382.934 114.533C382.139 114.533 381.544 114.872 381.146 115.549V123H378.324V112.434H380.98ZM392.572 123H389.74V112.434H392.572V123ZM389.574 109.699C389.574 109.276 389.714 108.928 389.994 108.654C390.281 108.381 390.668 108.244 391.156 108.244C391.638 108.244 392.022 108.381 392.309 108.654C392.595 108.928 392.738 109.276 392.738 109.699C392.738 110.129 392.592 110.48 392.299 110.754C392.012 111.027 391.631 111.164 391.156 111.164C390.681 111.164 390.297 111.027 390.004 110.754C389.717 110.48 389.574 110.129 389.574 109.699ZM398.285 109.836V112.434H400.092V114.504H398.285V119.777C398.285 120.168 398.36 120.448 398.51 120.617C398.659 120.786 398.946 120.871 399.369 120.871C399.682 120.871 399.958 120.848 400.199 120.803V122.941C399.646 123.111 399.076 123.195 398.49 123.195C396.511 123.195 395.502 122.196 395.463 120.197V114.504H393.92V112.434H395.463V109.836H398.285ZM405.609 119.006L407.562 112.434H410.59L406.342 124.641L406.107 125.197C405.476 126.577 404.434 127.268 402.982 127.268C402.572 127.268 402.156 127.206 401.732 127.082V124.943L402.162 124.953C402.696 124.953 403.093 124.872 403.353 124.709C403.62 124.546 403.829 124.276 403.978 123.898L404.311 123.029L400.609 112.434H403.646L405.609 119.006ZM428.031 118.264C427.921 119.794 427.354 120.998 426.332 121.877C425.316 122.756 423.975 123.195 422.309 123.195C420.486 123.195 419.05 122.583 418.002 121.359C416.96 120.129 416.439 118.443 416.439 116.301V115.432C416.439 114.064 416.68 112.86 417.162 111.818C417.644 110.777 418.331 109.979 419.223 109.426C420.121 108.866 421.163 108.586 422.348 108.586C423.988 108.586 425.31 109.025 426.312 109.904C427.315 110.783 427.895 112.017 428.051 113.605H425.121C425.049 112.687 424.792 112.023 424.35 111.613C423.913 111.197 423.246 110.988 422.348 110.988C421.371 110.988 420.639 111.34 420.15 112.043C419.669 112.74 419.421 113.824 419.408 115.295V116.369C419.408 117.906 419.639 119.029 420.102 119.738C420.57 120.448 421.306 120.803 422.309 120.803C423.214 120.803 423.887 120.598 424.33 120.187C424.779 119.771 425.036 119.13 425.102 118.264H428.031ZM433.715 119.006L435.668 112.434H438.695L434.447 124.641L434.213 125.197C433.581 126.577 432.54 127.268 431.088 127.268C430.678 127.268 430.261 127.206 429.838 127.082V124.943L430.268 124.953C430.801 124.953 431.199 124.872 431.459 124.709C431.726 124.546 431.934 124.276 432.084 123.898L432.416 123.029L428.715 112.434H431.752L433.715 119.006ZM444.066 120.92C444.587 120.92 445.01 120.777 445.336 120.49C445.661 120.204 445.831 119.823 445.844 119.348H448.49C448.484 120.064 448.288 120.721 447.904 121.32C447.52 121.913 446.993 122.375 446.322 122.707C445.658 123.033 444.922 123.195 444.115 123.195C442.605 123.195 441.413 122.717 440.541 121.76C439.669 120.796 439.232 119.468 439.232 117.775V117.59C439.232 115.962 439.665 114.663 440.531 113.693C441.397 112.723 442.585 112.238 444.096 112.238C445.417 112.238 446.475 112.616 447.27 113.371C448.07 114.12 448.477 115.119 448.49 116.369H445.844C445.831 115.822 445.661 115.38 445.336 115.041C445.01 114.696 444.581 114.523 444.047 114.523C443.389 114.523 442.891 114.764 442.553 115.246C442.221 115.721 442.055 116.496 442.055 117.57V117.863C442.055 118.951 442.221 119.732 442.553 120.207C442.885 120.682 443.389 120.92 444.066 120.92ZM453.08 123H450.248V108H453.08V123ZM460.277 123.195C458.728 123.195 457.465 122.72 456.488 121.77C455.518 120.819 455.033 119.553 455.033 117.971V117.697C455.033 116.636 455.238 115.689 455.648 114.855C456.059 114.016 456.638 113.371 457.387 112.922C458.142 112.466 459.001 112.238 459.965 112.238C461.41 112.238 462.546 112.694 463.373 113.605C464.206 114.517 464.623 115.809 464.623 117.482V118.635H457.895C457.986 119.325 458.259 119.878 458.715 120.295C459.177 120.712 459.76 120.92 460.463 120.92C461.55 120.92 462.4 120.526 463.012 119.738L464.398 121.291C463.975 121.89 463.402 122.359 462.68 122.697C461.957 123.029 461.156 123.195 460.277 123.195ZM459.955 114.523C459.395 114.523 458.939 114.712 458.588 115.09C458.243 115.467 458.021 116.008 457.924 116.711H461.85V116.486C461.837 115.861 461.667 115.38 461.342 115.041C461.016 114.696 460.554 114.523 459.955 114.523ZM483.08 116.213C483.08 117.613 482.833 118.84 482.338 119.895C481.843 120.949 481.133 121.763 480.209 122.336C479.291 122.909 478.236 123.195 477.045 123.195C475.867 123.195 474.815 122.912 473.891 122.346C472.966 121.779 472.25 120.972 471.742 119.924C471.234 118.869 470.977 117.658 470.971 116.291V115.588C470.971 114.188 471.221 112.958 471.723 111.896C472.23 110.829 472.943 110.012 473.861 109.445C474.786 108.872 475.84 108.586 477.025 108.586C478.21 108.586 479.262 108.872 480.18 109.445C481.104 110.012 481.817 110.829 482.318 111.896C482.826 112.958 483.08 114.185 483.08 115.578V116.213ZM480.111 115.568C480.111 114.077 479.844 112.945 479.311 112.17C478.777 111.395 478.015 111.008 477.025 111.008C476.042 111.008 475.284 111.392 474.75 112.16C474.216 112.922 473.946 114.042 473.939 115.52V116.213C473.939 117.665 474.206 118.791 474.74 119.592C475.274 120.393 476.042 120.793 477.045 120.793C478.028 120.793 478.783 120.409 479.311 119.641C479.838 118.866 480.105 117.74 480.111 116.262V115.568ZM485.795 123V114.504H484.223V112.434H485.795V111.535C485.795 110.35 486.133 109.432 486.811 108.781C487.494 108.124 488.448 107.795 489.672 107.795C490.062 107.795 490.541 107.86 491.107 107.99L491.078 110.178C490.844 110.119 490.557 110.09 490.219 110.09C489.158 110.09 488.627 110.588 488.627 111.584V112.434H490.727V114.504H488.627V123H485.795ZM504.73 119.27C504.73 118.716 504.535 118.293 504.145 118C503.754 117.701 503.051 117.388 502.035 117.062C501.02 116.73 500.215 116.405 499.623 116.086C498.008 115.214 497.201 114.038 497.201 112.561C497.201 111.792 497.416 111.109 497.846 110.51C498.282 109.904 498.904 109.432 499.711 109.094C500.525 108.755 501.436 108.586 502.445 108.586C503.461 108.586 504.366 108.771 505.16 109.143C505.954 109.507 506.57 110.025 507.006 110.695C507.449 111.366 507.67 112.128 507.67 112.98H504.74C504.74 112.329 504.535 111.825 504.125 111.467C503.715 111.102 503.139 110.92 502.396 110.92C501.68 110.92 501.124 111.073 500.727 111.379C500.329 111.678 500.131 112.076 500.131 112.57C500.131 113.033 500.362 113.42 500.824 113.732C501.293 114.045 501.98 114.338 502.885 114.611C504.551 115.113 505.766 115.734 506.527 116.477C507.289 117.219 507.67 118.143 507.67 119.25C507.67 120.48 507.204 121.447 506.273 122.15C505.342 122.847 504.089 123.195 502.514 123.195C501.42 123.195 500.424 122.997 499.525 122.6C498.627 122.196 497.94 121.646 497.465 120.949C496.996 120.253 496.762 119.445 496.762 118.527H499.701C499.701 120.096 500.639 120.881 502.514 120.881C503.21 120.881 503.754 120.741 504.145 120.461C504.535 120.174 504.73 119.777 504.73 119.27ZM513.871 120.92C514.392 120.92 514.815 120.777 515.141 120.49C515.466 120.204 515.635 119.823 515.648 119.348H518.295C518.288 120.064 518.093 120.721 517.709 121.32C517.325 121.913 516.797 122.375 516.127 122.707C515.463 123.033 514.727 123.195 513.92 123.195C512.409 123.195 511.218 122.717 510.346 121.76C509.473 120.796 509.037 119.468 509.037 117.775V117.59C509.037 115.962 509.47 114.663 510.336 113.693C511.202 112.723 512.39 112.238 513.9 112.238C515.222 112.238 516.28 112.616 517.074 113.371C517.875 114.12 518.282 115.119 518.295 116.369H515.648C515.635 115.822 515.466 115.38 515.141 115.041C514.815 114.696 514.385 114.523 513.852 114.523C513.194 114.523 512.696 114.764 512.357 115.246C512.025 115.721 511.859 116.496 511.859 117.57V117.863C511.859 118.951 512.025 119.732 512.357 120.207C512.689 120.682 513.194 120.92 513.871 120.92ZM524.77 123.195C523.22 123.195 521.957 122.72 520.98 121.77C520.01 120.819 519.525 119.553 519.525 117.971V117.697C519.525 116.636 519.73 115.689 520.141 114.855C520.551 114.016 521.13 113.371 521.879 112.922C522.634 112.466 523.493 112.238 524.457 112.238C525.902 112.238 527.038 112.694 527.865 113.605C528.699 114.517 529.115 115.809 529.115 117.482V118.635H522.387C522.478 119.325 522.751 119.878 523.207 120.295C523.669 120.712 524.252 120.92 524.955 120.92C526.042 120.92 526.892 120.526 527.504 119.738L528.891 121.291C528.467 121.89 527.895 122.359 527.172 122.697C526.449 123.029 525.648 123.195 524.77 123.195ZM524.447 114.523C523.887 114.523 523.432 114.712 523.08 115.09C522.735 115.467 522.514 116.008 522.416 116.711H526.342V116.486C526.329 115.861 526.159 115.38 525.834 115.041C525.508 114.696 525.046 114.523 524.447 114.523ZM533.324 112.434L533.412 113.654C534.167 112.71 535.18 112.238 536.449 112.238C537.569 112.238 538.402 112.567 538.949 113.225C539.496 113.882 539.776 114.865 539.789 116.174V123H536.967V116.242C536.967 115.643 536.837 115.21 536.576 114.943C536.316 114.67 535.883 114.533 535.277 114.533C534.483 114.533 533.887 114.872 533.49 115.549V123H530.668V112.434H533.324ZM545.316 109.836V112.434H547.123V114.504H545.316V119.777C545.316 120.168 545.391 120.448 545.541 120.617C545.691 120.786 545.977 120.871 546.4 120.871C546.713 120.871 546.99 120.848 547.23 120.803V122.941C546.677 123.111 546.107 123.195 545.521 123.195C543.542 123.195 542.533 122.196 542.494 120.197V114.504H540.951V112.434H542.494V109.836H545.316ZM547.963 117.619C547.963 116.571 548.165 115.637 548.568 114.816C548.972 113.996 549.551 113.361 550.307 112.912C551.068 112.463 551.95 112.238 552.953 112.238C554.379 112.238 555.541 112.674 556.439 113.547C557.344 114.419 557.849 115.604 557.953 117.102L557.973 117.824C557.973 119.445 557.52 120.747 556.615 121.73C555.71 122.707 554.496 123.195 552.973 123.195C551.449 123.195 550.232 122.707 549.32 121.73C548.415 120.754 547.963 119.426 547.963 117.746V117.619ZM550.785 117.824C550.785 118.827 550.974 119.595 551.352 120.129C551.729 120.656 552.27 120.92 552.973 120.92C553.656 120.92 554.19 120.659 554.574 120.139C554.958 119.611 555.15 118.771 555.15 117.619C555.15 116.636 554.958 115.874 554.574 115.334C554.19 114.794 553.65 114.523 552.953 114.523C552.263 114.523 551.729 114.794 551.352 115.334C550.974 115.868 550.785 116.698 550.785 117.824ZM565.434 120.08C565.434 119.735 565.261 119.465 564.916 119.27C564.577 119.068 564.031 118.889 563.275 118.732C560.762 118.205 559.506 117.137 559.506 115.529C559.506 114.592 559.893 113.811 560.668 113.186C561.449 112.554 562.468 112.238 563.725 112.238C565.066 112.238 566.137 112.554 566.937 113.186C567.745 113.817 568.148 114.637 568.148 115.646H565.326C565.326 115.243 565.196 114.911 564.936 114.65C564.675 114.383 564.268 114.25 563.715 114.25C563.24 114.25 562.872 114.357 562.611 114.572C562.351 114.787 562.221 115.061 562.221 115.393C562.221 115.705 562.367 115.959 562.66 116.154C562.96 116.343 563.461 116.509 564.164 116.652C564.867 116.789 565.46 116.945 565.941 117.121C567.432 117.668 568.178 118.615 568.178 119.963C568.178 120.926 567.764 121.708 566.937 122.307C566.111 122.899 565.043 123.195 563.734 123.195C562.849 123.195 562.061 123.039 561.371 122.727C560.687 122.408 560.15 121.975 559.76 121.428C559.369 120.874 559.174 120.279 559.174 119.641H561.85C561.876 120.142 562.061 120.526 562.406 120.793C562.751 121.06 563.214 121.193 563.793 121.193C564.333 121.193 564.74 121.092 565.014 120.891C565.294 120.682 565.434 120.412 565.434 120.08Z" fill="#333333"/>
<path d="M98 165.001L98 360.001" stroke="#DADADA"/>
<path d="M820 165.001L820 360.001" stroke="#DADADA"/>
<path d="M339 165.001L339 252.001" stroke="#DADADA"/>
<path d="M137 165.001L137 252.001" stroke="#DADADA"/>
<path d="M208 165.001L208 252.001" stroke="#DADADA"/>
<path d="M286 165.001L286 252.001" stroke="#DADADA"/>
<path d="M579 165.001L579 252.001" stroke="#DADADA"/>
<path d="M119 235.9L119 236.463L114.734 236.463L114.734 235.9L119 235.9ZM119 231.591L119 232.156L115.713 234.304L119 234.304L119 234.869L114.734 234.869L114.734 234.304L118.036 232.15L114.734 232.15L114.734 231.591L119 231.591ZM119 227.313L119 227.879L115.713 230.026L119 230.026L119 230.592L114.734 230.592L114.734 230.026L118.036 227.873L114.734 227.873L114.734 227.313L119 227.313ZM117.005 223.033C117.423 223.033 117.788 223.104 118.101 223.244C118.411 223.385 118.648 223.584 118.812 223.842C118.976 224.1 119.059 224.4 119.059 224.744C119.059 225.08 118.976 225.378 118.812 225.638C118.646 225.897 118.411 226.1 118.106 226.244C117.8 226.387 117.445 226.46 117.043 226.464L116.735 226.464C116.325 226.464 115.963 226.393 115.648 226.25C115.334 226.107 115.094 225.906 114.928 225.646C114.76 225.385 114.676 225.086 114.676 224.75C114.676 224.408 114.759 224.107 114.925 223.848C115.089 223.586 115.328 223.385 115.643 223.244C115.955 223.104 116.319 223.033 116.735 223.033L117.005 223.033ZM116.729 223.593C116.224 223.593 115.836 223.694 115.566 223.897C115.295 224.101 115.159 224.385 115.159 224.75C115.159 225.105 115.295 225.386 115.566 225.591C115.836 225.794 116.211 225.898 116.691 225.904L117.005 225.904C117.495 225.904 117.881 225.802 118.162 225.597C118.441 225.39 118.581 225.105 118.581 224.744C118.581 224.381 118.449 224.1 118.185 223.9C117.92 223.701 117.54 223.599 117.046 223.593L116.729 223.593ZM118.253 220.842L114.734 219.623L114.734 219.008L119 220.59L119 221.088L114.734 222.667L114.734 222.055L118.253 220.842ZM117.887 216.301L117.887 218.088L119 218.489L119 219.069L114.734 217.44L114.734 216.948L119 215.316L119 215.894L117.887 216.301ZM117.424 217.918L117.424 216.468L115.429 217.194L117.424 217.918ZM115.197 212.176L115.197 213.547L119 213.547L119 214.106L115.197 214.106L115.197 215.475L114.734 215.475L114.734 212.176L115.197 212.176ZM119 210.939L119 211.502L114.734 211.502L114.734 210.939L119 210.939ZM117.005 206.627C117.423 206.627 117.788 206.697 118.101 206.838C118.411 206.979 118.648 207.178 118.812 207.436C118.976 207.693 119.059 207.994 119.059 208.338C119.059 208.674 118.976 208.972 118.812 209.231C118.646 209.491 118.411 209.693 118.106 209.838C117.8 209.98 117.445 210.054 117.043 210.058L116.735 210.058C116.325 210.058 115.963 209.986 115.648 209.844C115.334 209.701 115.094 209.5 114.928 209.24C114.76 208.979 114.676 208.68 114.676 208.344C114.676 208.002 114.759 207.701 114.925 207.441C115.089 207.18 115.328 206.979 115.643 206.838C115.955 206.697 116.319 206.627 116.735 206.627L117.005 206.627ZM116.729 207.187C116.224 207.187 115.836 207.288 115.566 207.491C115.295 207.694 115.159 207.979 115.159 208.344C115.159 208.699 115.295 208.979 115.566 209.185C115.836 209.388 116.211 209.492 116.691 209.498L117.005 209.498C117.495 209.498 117.881 209.396 118.162 209.19C118.441 208.983 118.581 208.699 118.581 208.338C118.581 207.975 118.449 207.693 118.185 207.494C117.92 207.295 117.54 207.192 117.046 207.187L116.729 207.187ZM119 202.505L119 203.07L115.713 205.218L119 205.218L119 205.783L114.734 205.783L114.734 205.218L118.036 203.064L114.734 203.064L114.734 202.505L119 202.505Z" fill="black"/>
<path d="M176.028 233.971L176.028 235.819L177.54 235.819L177.54 233.672L178 233.672L178 236.382L173.734 236.382L173.734 233.701L174.197 233.701L174.197 235.819L175.568 235.819L175.568 233.971L176.028 233.971ZM176.887 230.616L176.887 232.403L178 232.805L178 233.385L173.734 231.756L173.734 231.264L178 229.632L178 230.209L176.887 230.616ZM176.424 232.233L176.424 230.783L174.429 231.51L176.424 232.233ZM176.274 227.493L176.274 228.495L178 228.495L178 229.061L173.734 229.061L173.734 227.648C173.734 227.168 173.844 226.799 174.062 226.541C174.281 226.281 174.6 226.151 175.018 226.151C175.283 226.151 175.515 226.224 175.712 226.368C175.909 226.511 176.057 226.71 176.154 226.966L177.965 225.964L178 225.964L178 226.567L176.274 227.493ZM175.814 228.495L175.814 227.631C175.814 227.352 175.742 227.13 175.598 226.966C175.453 226.8 175.26 226.717 175.018 226.717C174.754 226.717 174.552 226.796 174.411 226.954C174.271 227.11 174.199 227.337 174.197 227.634L174.197 228.495L175.814 228.495ZM177.54 224.795L177.54 222.773L178 222.773L178 225.36L173.734 225.36L173.734 224.795L177.54 224.795ZM175.876 221.534L173.734 220.421L173.734 219.782L176.409 221.253L178 221.253L178 221.815L176.409 221.815L173.734 223.286L173.734 222.642L175.876 221.534ZM173.734 217.017L177.215 215.622L173.734 214.228L173.734 213.498L178 213.498L178 214.061L176.339 214.061L174.546 214.008L178 215.408L178 215.839L174.555 217.236L176.339 217.181L178 217.181L178 217.743L173.734 217.743L173.734 217.017ZM176.887 210.097L176.887 211.884L178 212.285L178 212.865L173.734 211.236L173.734 210.744L178 209.112L178 209.689L176.887 210.097ZM176.424 211.714L176.424 210.264L174.429 210.99L176.424 211.714ZM173.734 206.751L173.734 206.186L176.755 206.186C177.163 206.186 177.482 206.309 177.713 206.555C177.943 206.799 178.059 207.125 178.059 207.533C178.059 207.957 177.95 208.287 177.733 208.523C177.517 208.76 177.213 208.878 176.822 208.878L176.822 208.315C177.066 208.315 177.257 208.249 177.394 208.116C177.53 207.981 177.599 207.787 177.599 207.533C177.599 207.301 177.525 207.113 177.379 206.971C177.232 206.826 177.027 206.753 176.764 206.751L173.734 206.751ZM176.005 201.946C176.423 201.946 176.788 202.017 177.101 202.157C177.411 202.298 177.648 202.497 177.812 202.755C177.977 203.013 178.059 203.314 178.059 203.657C178.059 203.993 177.977 204.291 177.812 204.551C177.646 204.811 177.411 205.013 177.106 205.157C176.8 205.3 176.445 205.373 176.043 205.377L175.735 205.377C175.325 205.377 174.963 205.306 174.648 205.163C174.334 205.021 174.094 204.819 173.928 204.56C173.76 204.298 173.676 203.999 173.676 203.663C173.676 203.321 173.759 203.021 173.925 202.761C174.089 202.499 174.328 202.298 174.643 202.157C174.955 202.017 175.319 201.946 175.735 201.946L176.005 201.946ZM175.729 202.506C175.224 202.506 174.836 202.607 174.566 202.811C174.295 203.014 174.159 203.298 174.159 203.663C174.159 204.019 174.295 204.299 174.566 204.504C174.836 204.707 175.211 204.812 175.691 204.817L176.005 204.817C176.495 204.817 176.881 204.715 177.162 204.51C177.441 204.303 177.581 204.019 177.581 203.657C177.581 203.294 177.449 203.013 177.186 202.814C176.92 202.614 176.54 202.512 176.046 202.506L175.729 202.506ZM176.274 199.538L176.274 200.54L178 200.54L178 201.105L173.734 201.105L173.734 199.693C173.734 199.213 173.844 198.844 174.062 198.586C174.281 198.326 174.6 198.196 175.018 198.196C175.283 198.196 175.515 198.269 175.712 198.413C175.909 198.556 176.057 198.755 176.154 199.011L177.965 198.009L178 198.009L178 198.612L176.274 199.538ZM175.814 200.54L175.814 199.676C175.814 199.397 175.742 199.175 175.598 199.011C175.453 198.845 175.26 198.762 175.018 198.762C174.754 198.762 174.552 198.841 174.411 198.999C174.271 199.155 174.199 199.382 174.197 199.679L174.197 200.54L175.814 200.54ZM178 196.802L178 197.364L173.734 197.364L173.734 196.802L178 196.802ZM174.197 192.911L174.197 194.282L178 194.282L178 194.842L174.197 194.842L174.197 196.21L173.734 196.21L173.734 192.911L174.197 192.911ZM175.876 190.931L173.734 189.817L173.734 189.179L176.409 190.649L178 190.649L178 191.212L176.409 191.212L173.734 192.683L173.734 192.038L175.876 190.931Z" fill="black"/>
<path d="M246.54 235.891L246.54 233.869L247 233.869L247 236.456L242.734 236.456L242.734 235.891L246.54 235.891ZM245.887 230.813L245.887 232.601L247 233.002L247 233.582L242.734 231.953L242.734 231.461L247 229.829L247 230.406L245.887 230.813ZM245.424 232.431L245.424 230.98L243.429 231.707L245.424 232.431ZM243.197 226.688L243.197 228.06L247 228.06L247 228.619L243.197 228.619L243.197 229.987L242.734 229.987L242.734 226.688L243.197 226.688ZM245.028 223.645L245.028 225.493L246.54 225.493L246.54 223.346L247 223.346L247 226.056L242.734 226.056L242.734 223.375L243.197 223.375L243.197 225.493L244.568 225.493L244.568 223.645L245.028 223.645ZM242.734 218.942L246.215 217.548L242.734 216.153L242.734 215.424L247 215.424L247 215.986L245.339 215.986L243.546 215.934L247 217.334L247 217.765L243.555 219.162L245.339 219.106L247 219.106L247 219.669L242.734 219.669L242.734 218.942ZM245.887 212.022L245.887 213.81L247 214.211L247 214.791L242.734 213.162L242.734 212.67L247 211.038L247 211.615L245.887 212.022ZM245.424 213.64L245.424 212.189L243.429 212.916L245.424 213.64ZM242.734 208.677L242.734 208.111L245.755 208.111C246.163 208.111 246.482 208.234 246.713 208.48C246.943 208.725 247.059 209.051 247.059 209.459C247.059 209.883 246.95 210.213 246.733 210.449C246.517 210.686 246.213 210.804 245.822 210.804L245.822 210.241C246.066 210.241 246.257 210.175 246.394 210.042C246.53 209.907 246.599 209.713 246.599 209.459C246.599 209.227 246.525 209.039 246.379 208.896C246.232 208.752 246.027 208.679 245.764 208.677L242.734 208.677ZM245.005 203.872C245.423 203.872 245.788 203.942 246.101 204.083C246.411 204.224 246.648 204.423 246.812 204.681C246.977 204.938 247.059 205.239 247.059 205.583C247.059 205.919 246.977 206.217 246.812 206.477C246.646 206.736 246.411 206.938 246.106 207.083C245.8 207.226 245.445 207.299 245.043 207.303L244.735 207.303C244.325 207.303 243.963 207.231 243.648 207.089C243.334 206.946 243.094 206.745 242.928 206.485C242.76 206.224 242.676 205.925 242.676 205.589C242.676 205.247 242.759 204.946 242.925 204.687C243.089 204.425 243.328 204.224 243.643 204.083C243.955 203.942 244.319 203.872 244.735 203.872L245.005 203.872ZM244.729 204.432C244.224 204.432 243.836 204.533 243.566 204.736C243.295 204.939 243.159 205.224 243.159 205.589C243.159 205.944 243.295 206.225 243.566 206.43C243.836 206.633 244.211 206.737 244.691 206.743L245.005 206.743C245.495 206.743 245.881 206.641 246.162 206.436C246.441 206.229 246.581 205.944 246.581 205.583C246.581 205.22 246.449 204.938 246.186 204.739C245.92 204.54 245.54 204.437 245.046 204.432L244.729 204.432ZM245.274 201.464L245.274 202.466L247 202.466L247 203.031L242.734 203.031L242.734 201.619C242.734 201.139 242.844 200.77 243.062 200.512C243.281 200.252 243.6 200.122 244.018 200.122C244.283 200.122 244.515 200.194 244.712 200.339C244.909 200.481 245.057 200.681 245.154 200.937L246.965 199.935L247 199.935L247 200.538L245.274 201.464ZM244.814 202.466L244.814 201.602C244.814 201.322 244.742 201.101 244.598 200.937C244.453 200.771 244.26 200.687 244.018 200.687C243.754 200.687 243.552 200.767 243.411 200.925C243.271 201.081 243.199 201.308 243.197 201.604L243.197 202.466L244.814 202.466ZM247 198.728L247 199.29L242.734 199.29L242.734 198.728L247 198.728ZM243.197 194.837L243.197 196.208L247 196.208L247 196.768L243.197 196.768L243.197 198.136L242.734 198.136L242.734 194.837L243.197 194.837ZM244.876 192.856L242.734 191.743L242.734 191.104L245.409 192.575L247 192.575L247 193.138L245.409 193.138L242.734 194.608L242.734 193.964L244.876 192.856Z" fill="black"/>
<path d="M314.54 235.447L314.54 233.426L315 233.426L315 236.013L310.734 236.013L310.734 235.447L314.54 235.447ZM313.887 230.37L313.887 232.157L315 232.559L315 233.139L310.734 231.51L310.734 231.018L315 229.386L315 229.963L313.887 230.37ZM313.424 231.987L313.424 230.537L311.429 231.264L313.424 231.987ZM314.44 225.697C314.647 225.842 314.803 226.044 314.906 226.304C315.008 226.562 315.059 226.862 315.059 227.206C315.059 227.554 314.978 227.862 314.815 228.132C314.651 228.401 314.419 228.61 314.118 228.759C313.817 228.905 313.469 228.98 313.072 228.984L312.7 228.984C312.058 228.984 311.56 228.835 311.206 228.536C310.853 228.235 310.676 227.813 310.676 227.271C310.676 226.825 310.79 226.467 311.019 226.195C311.245 225.924 311.567 225.758 311.985 225.697L311.985 226.26C311.421 226.365 311.139 226.701 311.139 227.268C311.139 227.645 311.271 227.931 311.537 228.126C311.801 228.319 312.184 228.417 312.686 228.419L313.034 228.419C313.513 228.419 313.894 228.31 314.177 228.091C314.458 227.872 314.599 227.576 314.599 227.203C314.599 226.992 314.575 226.808 314.528 226.649C314.481 226.491 314.402 226.36 314.291 226.257L313.333 226.257L313.333 227.244L312.876 227.244L312.876 225.697L314.44 225.697ZM314.44 221.607C314.647 221.752 314.803 221.954 314.906 222.214C315.008 222.472 315.059 222.772 315.059 223.116C315.059 223.464 314.978 223.772 314.815 224.042C314.651 224.312 314.419 224.521 314.118 224.669C313.817 224.815 313.469 224.891 313.072 224.895L312.7 224.895C312.058 224.895 311.56 224.745 311.206 224.446C310.853 224.146 310.676 223.724 310.676 223.181C310.676 222.735 310.79 222.377 311.019 222.105C311.245 221.834 311.567 221.668 311.985 221.607L311.985 222.17C311.421 222.275 311.139 222.611 311.139 223.178C311.139 223.555 311.271 223.841 311.537 224.036C311.801 224.229 312.184 224.327 312.686 224.329L313.034 224.329C313.513 224.329 313.894 224.22 314.177 224.001C314.458 223.782 314.599 223.486 314.599 223.113C314.599 222.902 314.575 222.718 314.528 222.56C314.481 222.401 314.402 222.271 314.291 222.167L313.333 222.167L313.333 223.154L312.876 223.154L312.876 221.607L314.44 221.607ZM313.028 218.256L313.028 220.104L314.54 220.104L314.54 217.957L315 217.957L315 220.667L310.734 220.667L310.734 217.986L311.197 217.986L311.197 220.104L312.568 220.104L312.568 218.256L313.028 218.256ZM313.274 215.692L313.274 216.694L315 216.694L315 217.26L310.734 217.26L310.734 215.848C310.734 215.367 310.844 214.998 311.062 214.74C311.281 214.48 311.6 214.351 312.018 214.351C312.283 214.351 312.515 214.423 312.712 214.567C312.909 214.71 313.057 214.909 313.154 215.165L314.965 214.163L315 214.163L315 214.767L313.274 215.692ZM312.814 216.694L312.814 215.83C312.814 215.551 312.742 215.329 312.598 215.165C312.453 214.999 312.26 214.916 312.018 214.916C311.754 214.916 311.552 214.995 311.411 215.153C311.271 215.31 311.199 215.536 311.197 215.833L311.197 216.694L312.814 216.694ZM313.099 212.303C312.96 212.785 312.79 213.137 312.589 213.357C312.386 213.576 312.136 213.686 311.839 213.686C311.503 213.686 311.226 213.552 311.007 213.284C310.786 213.015 310.676 212.665 310.676 212.235C310.676 211.942 310.732 211.682 310.846 211.453C310.959 211.223 311.115 211.045 311.314 210.92C311.514 210.793 311.731 210.729 311.968 210.729L311.968 211.295C311.71 211.295 311.508 211.377 311.361 211.541C311.213 211.705 311.139 211.937 311.139 212.235C311.139 212.513 311.2 212.729 311.323 212.886C311.444 213.04 311.613 213.117 311.83 213.117C312.004 213.117 312.151 213.044 312.272 212.897C312.392 212.749 312.501 212.498 312.601 212.145C312.7 211.789 312.811 211.512 312.932 211.312C313.051 211.111 313.19 210.963 313.351 210.867C313.511 210.77 313.699 210.721 313.916 210.721C314.262 210.721 314.539 210.855 314.748 211.125C314.955 211.395 315.059 211.755 315.059 212.206C315.059 212.499 315.003 212.772 314.892 213.026C314.778 213.28 314.624 213.477 314.429 213.615C314.233 213.752 314.012 213.82 313.764 213.82L313.764 213.255C314.021 213.255 314.226 213.16 314.376 212.971C314.524 212.779 314.599 212.524 314.599 212.206C314.599 211.909 314.538 211.682 314.417 211.523C314.296 211.365 314.131 211.286 313.922 211.286C313.713 211.286 313.552 211.359 313.438 211.506C313.323 211.652 313.21 211.918 313.099 212.303Z" fill="black"/>
<path d="M444.016 232.93C444.016 233.339 443.93 233.708 443.758 234.039C443.589 234.367 443.35 234.622 443.043 234.805C442.738 234.987 442.392 235.078 442.004 235.078C441.251 235.078 440.651 234.672 440.203 233.859C439.755 234.672 439.155 235.078 438.402 235.078C437.806 235.078 437.322 234.876 436.949 234.473C436.579 234.066 436.395 233.54 436.395 232.895V232.852C436.395 232.451 436.478 232.085 436.645 231.754C436.811 231.421 437.047 231.162 437.352 230.977C437.659 230.789 438.006 230.695 438.395 230.695C438.762 230.695 439.099 230.794 439.406 230.992C439.716 231.188 439.982 231.483 440.203 231.879C440.427 231.478 440.691 231.181 440.996 230.988C441.303 230.793 441.642 230.695 442.012 230.695C442.598 230.695 443.078 230.897 443.453 231.301C443.828 231.705 444.016 232.247 444.016 232.93ZM442.914 232.852C442.914 232.487 442.825 232.194 442.648 231.973C442.471 231.749 442.24 231.637 441.953 231.637C441.591 231.637 441.284 231.831 441.031 232.219C440.901 232.422 440.814 232.617 440.77 232.805V232.918C440.783 233.004 440.828 233.133 440.906 233.305C440.984 233.474 441.077 233.621 441.184 233.746C441.293 233.871 441.41 233.969 441.535 234.039C441.663 234.107 441.799 234.141 441.945 234.141C442.242 234.141 442.478 234.029 442.652 233.805C442.827 233.581 442.914 233.263 442.914 232.852ZM437.492 232.93C437.492 233.292 437.578 233.585 437.75 233.809C437.924 234.03 438.161 234.141 438.461 234.141C438.841 234.141 439.163 233.908 439.426 233.441C439.543 233.231 439.612 233.056 439.633 232.918V232.805C439.586 232.607 439.5 232.412 439.375 232.219C439.253 232.026 439.112 231.882 438.953 231.785C438.797 231.686 438.63 231.637 438.453 231.637C438.167 231.637 437.935 231.747 437.758 231.969C437.581 232.19 437.492 232.511 437.492 232.93ZM451.574 232.285C451.574 232.845 451.475 233.336 451.277 233.758C451.079 234.18 450.796 234.505 450.426 234.734C450.059 234.964 449.637 235.078 449.16 235.078C448.689 235.078 448.268 234.965 447.898 234.738C447.529 234.512 447.242 234.189 447.039 233.77C446.836 233.348 446.733 232.863 446.73 232.316V232.035C446.73 231.475 446.831 230.983 447.031 230.559C447.234 230.132 447.52 229.805 447.887 229.578C448.256 229.349 448.678 229.234 449.152 229.234C449.626 229.234 450.047 229.349 450.414 229.578C450.784 229.805 451.069 230.132 451.27 230.559C451.473 230.983 451.574 231.474 451.574 232.031V232.285ZM450.387 232.027C450.387 231.431 450.28 230.978 450.066 230.668C449.853 230.358 449.548 230.203 449.152 230.203C448.759 230.203 448.456 230.357 448.242 230.664C448.029 230.969 447.921 231.417 447.918 232.008V232.285C447.918 232.866 448.025 233.316 448.238 233.637C448.452 233.957 448.759 234.117 449.16 234.117C449.553 234.117 449.855 233.964 450.066 233.656C450.277 233.346 450.384 232.896 450.387 232.305V232.027ZM455.375 233.508C455.375 233.287 455.297 233.117 455.141 233C454.984 232.88 454.703 232.755 454.297 232.625C453.891 232.492 453.569 232.362 453.332 232.234C452.686 231.886 452.363 231.415 452.363 230.824C452.363 230.517 452.449 230.244 452.621 230.004C452.796 229.762 453.044 229.573 453.367 229.438C453.693 229.302 454.057 229.234 454.461 229.234C454.867 229.234 455.229 229.309 455.547 229.457C455.865 229.603 456.111 229.81 456.285 230.078C456.462 230.346 456.551 230.651 456.551 230.992H455.379C455.379 230.732 455.297 230.53 455.133 230.387C454.969 230.241 454.738 230.168 454.441 230.168C454.155 230.168 453.932 230.229 453.773 230.352C453.615 230.471 453.535 230.63 453.535 230.828C453.535 231.013 453.628 231.168 453.812 231.293C454 231.418 454.275 231.535 454.637 231.645C455.303 231.845 455.789 232.094 456.094 232.391C456.398 232.688 456.551 233.057 456.551 233.5C456.551 233.992 456.365 234.379 455.992 234.66C455.62 234.939 455.118 235.078 454.488 235.078C454.051 235.078 453.652 234.999 453.293 234.84C452.934 234.678 452.659 234.458 452.469 234.18C452.281 233.901 452.187 233.578 452.187 233.211H453.363C453.363 233.839 453.738 234.152 454.488 234.152C454.767 234.152 454.984 234.096 455.141 233.984C455.297 233.87 455.375 233.711 455.375 233.508ZM463.805 233.106C463.76 233.718 463.534 234.199 463.125 234.551C462.719 234.902 462.182 235.078 461.516 235.078C460.786 235.078 460.212 234.833 459.793 234.344C459.376 233.852 459.168 233.177 459.168 232.32V231.973C459.168 231.426 459.264 230.944 459.457 230.527C459.65 230.111 459.924 229.792 460.281 229.57C460.641 229.346 461.057 229.234 461.531 229.234C462.187 229.234 462.716 229.41 463.117 229.762C463.518 230.113 463.75 230.607 463.812 231.242H462.641C462.612 230.875 462.509 230.609 462.332 230.445C462.158 230.279 461.891 230.195 461.531 230.195C461.141 230.195 460.848 230.336 460.652 230.617C460.46 230.896 460.361 231.33 460.355 231.918V232.348C460.355 232.962 460.448 233.412 460.633 233.695C460.82 233.979 461.115 234.121 461.516 234.121C461.878 234.121 462.147 234.039 462.324 233.875C462.504 233.708 462.607 233.452 462.633 233.106H463.805ZM466.535 231.875L467.719 229.313H469L467.133 232.938V235H465.941V232.938L464.074 229.313H465.359L466.535 231.875ZM473.867 233.106C473.823 233.718 473.596 234.199 473.187 234.551C472.781 234.902 472.245 235.078 471.578 235.078C470.849 235.078 470.275 234.833 469.855 234.344C469.439 233.852 469.23 233.177 469.23 232.32V231.973C469.23 231.426 469.327 230.944 469.52 230.527C469.712 230.111 469.987 229.792 470.344 229.57C470.703 229.346 471.12 229.234 471.594 229.234C472.25 229.234 472.779 229.41 473.18 229.762C473.581 230.113 473.812 230.607 473.875 231.242H472.703C472.674 230.875 472.572 230.609 472.395 230.445C472.22 230.279 471.953 230.195 471.594 230.195C471.203 230.195 470.91 230.336 470.715 230.617C470.522 230.896 470.423 231.33 470.418 231.918V232.348C470.418 232.962 470.51 233.412 470.695 233.695C470.883 233.979 471.177 234.121 471.578 234.121C471.94 234.121 472.21 234.039 472.387 233.875C472.566 233.708 472.669 233.452 472.695 233.106H473.867ZM475.809 234.059H478.297V235H474.637V229.313H475.809V234.059ZM482.395 232.535H480.145V234.059H482.785V235H478.973V229.313H482.777V230.262H480.145V231.617H482.395V232.535Z" fill="#515151"/>
<path d="M676.719 233.828H674.664L674.273 235H673.027L675.144 229.313H676.23L678.359 235H677.113L676.719 233.828ZM674.98 232.879H676.402L675.687 230.75L674.98 232.879ZM683.269 233.106C683.225 233.718 682.999 234.199 682.59 234.551C682.184 234.902 681.647 235.078 680.98 235.078C680.251 235.078 679.677 234.833 679.258 234.344C678.841 233.852 678.633 233.177 678.633 232.32V231.973C678.633 231.426 678.729 230.944 678.922 230.527C679.115 230.111 679.389 229.792 679.746 229.57C680.105 229.346 680.522 229.234 680.996 229.234C681.652 229.234 682.181 229.41 682.582 229.762C682.983 230.113 683.215 230.607 683.277 231.242H682.105C682.077 230.875 681.974 230.609 681.797 230.445C681.622 230.279 681.355 230.195 680.996 230.195C680.605 230.195 680.312 230.336 680.117 230.617C679.924 230.896 679.825 231.329 679.82 231.918V232.348C679.82 232.962 679.913 233.412 680.098 233.695C680.285 233.979 680.579 234.121 680.98 234.121C681.342 234.121 681.612 234.039 681.789 233.875C681.969 233.708 682.072 233.452 682.098 233.106H683.269ZM688.203 230.262H686.461V235H685.289V230.262H683.57V229.313H688.203V230.262ZM690.121 235H688.949V229.313H690.121V235ZM695.883 232.285C695.883 232.845 695.784 233.336 695.586 233.758C695.388 234.18 695.104 234.505 694.734 234.734C694.367 234.964 693.945 235.078 693.469 235.078C692.997 235.078 692.577 234.965 692.207 234.738C691.837 234.512 691.551 234.189 691.348 233.77C691.144 233.348 691.042 232.863 691.039 232.316V232.035C691.039 231.475 691.139 230.983 691.34 230.559C691.543 230.132 691.828 229.805 692.195 229.578C692.565 229.349 692.987 229.234 693.461 229.234C693.935 229.234 694.355 229.349 694.723 229.578C695.092 229.805 695.378 230.132 695.578 230.559C695.781 230.983 695.883 231.474 695.883 232.031V232.285ZM694.695 232.027C694.695 231.431 694.588 230.978 694.375 230.668C694.161 230.358 693.857 230.203 693.461 230.203C693.068 230.203 692.764 230.357 692.551 230.664C692.337 230.969 692.229 231.417 692.227 232.008V232.285C692.227 232.866 692.333 233.316 692.547 233.637C692.76 233.957 693.068 234.117 693.469 234.117C693.862 234.117 694.164 233.964 694.375 233.656C694.586 233.346 694.693 232.896 694.695 232.305V232.027ZM701.359 235H700.187L697.906 231.258V235H696.734V229.313H697.906L700.191 233.063V229.313H701.359V235ZM708.84 233.106C708.796 233.718 708.569 234.199 708.16 234.551C707.754 234.902 707.217 235.078 706.551 235.078C705.822 235.078 705.247 234.833 704.828 234.344C704.411 233.852 704.203 233.177 704.203 232.32V231.973C704.203 231.426 704.299 230.944 704.492 230.527C704.685 230.111 704.96 229.792 705.316 229.57C705.676 229.346 706.092 229.234 706.566 229.234C707.223 229.234 707.751 229.41 708.152 229.762C708.553 230.113 708.785 230.607 708.848 231.242H707.676C707.647 230.875 707.544 230.609 707.367 230.445C707.193 230.279 706.926 230.195 706.566 230.195C706.176 230.195 705.883 230.336 705.687 230.617C705.495 230.896 705.396 231.329 705.391 231.918V232.348C705.391 232.962 705.483 233.412 705.668 233.695C705.855 233.979 706.15 234.121 706.551 234.121C706.913 234.121 707.182 234.039 707.359 233.875C707.539 233.708 707.642 233.452 707.668 233.106H708.84ZM711.57 231.875L712.754 229.313H714.035L712.168 232.938V235H710.977V232.938L709.109 229.313H710.394L711.57 231.875ZM718.902 233.106C718.858 233.718 718.631 234.199 718.223 234.551C717.816 234.902 717.28 235.078 716.613 235.078C715.884 235.078 715.31 234.833 714.891 234.344C714.474 233.852 714.266 233.177 714.266 232.32V231.973C714.266 231.426 714.362 230.944 714.555 230.527C714.747 230.111 715.022 229.792 715.379 229.57C715.738 229.346 716.155 229.234 716.629 229.234C717.285 229.234 717.814 229.41 718.215 229.762C718.616 230.113 718.848 230.607 718.91 231.242H717.738C717.71 230.875 717.607 230.609 717.43 230.445C717.255 230.279 716.988 230.195 716.629 230.195C716.238 230.195 715.945 230.336 715.75 230.617C715.557 230.896 715.458 231.329 715.453 231.918V232.348C715.453 232.962 715.546 233.412 715.73 233.695C715.918 233.979 716.212 234.121 716.613 234.121C716.975 234.121 717.245 234.039 717.422 233.875C717.602 233.708 717.704 233.452 717.73 233.106H718.902ZM720.844 234.059H723.332V235H719.672V229.313H720.844V234.059ZM727.43 232.535H725.18V234.059H727.82V235H724.008V229.313H727.812V230.262H725.18V231.617H727.43V232.535Z" fill="#515151"/>
<path d="M433.008 313.996V316H431.836V310.312H434.055C434.482 310.312 434.857 310.391 435.18 310.547C435.505 310.703 435.755 310.926 435.93 311.215C436.104 311.501 436.191 311.828 436.191 312.195C436.191 312.753 436 313.193 435.617 313.516C435.237 313.836 434.71 313.996 434.035 313.996H433.008ZM433.008 313.047H434.055C434.365 313.047 434.6 312.974 434.762 312.828C434.926 312.682 435.008 312.474 435.008 312.203C435.008 311.924 434.926 311.699 434.762 311.527C434.598 311.355 434.371 311.267 434.082 311.262H433.008V313.047ZM441.672 313.285C441.672 313.845 441.573 314.336 441.375 314.758C441.177 315.18 440.893 315.505 440.523 315.734C440.156 315.964 439.734 316.078 439.258 316.078C438.786 316.078 438.366 315.965 437.996 315.738C437.626 315.512 437.34 315.189 437.137 314.77C436.934 314.348 436.831 313.863 436.828 313.316V313.035C436.828 312.475 436.928 311.983 437.129 311.559C437.332 311.132 437.617 310.805 437.984 310.578C438.354 310.349 438.776 310.234 439.25 310.234C439.724 310.234 440.145 310.349 440.512 310.578C440.882 310.805 441.167 311.132 441.367 311.559C441.57 311.983 441.672 312.474 441.672 313.031V313.285ZM440.484 313.027C440.484 312.431 440.378 311.978 440.164 311.668C439.951 311.358 439.646 311.203 439.25 311.203C438.857 311.203 438.553 311.357 438.34 311.664C438.126 311.969 438.018 312.417 438.016 313.008V313.285C438.016 313.866 438.122 314.316 438.336 314.637C438.549 314.957 438.857 315.117 439.258 315.117C439.651 315.117 439.953 314.964 440.164 314.656C440.375 314.346 440.482 313.896 440.484 313.305V313.027ZM445.473 314.508C445.473 314.286 445.395 314.117 445.238 314C445.082 313.88 444.801 313.755 444.395 313.625C443.988 313.492 443.667 313.362 443.43 313.234C442.784 312.885 442.461 312.415 442.461 311.824C442.461 311.517 442.547 311.243 442.719 311.004C442.893 310.762 443.142 310.573 443.465 310.438C443.79 310.302 444.155 310.234 444.559 310.234C444.965 310.234 445.327 310.309 445.645 310.457C445.962 310.603 446.208 310.81 446.383 311.078C446.56 311.346 446.648 311.651 446.648 311.992H445.477C445.477 311.732 445.395 311.53 445.23 311.387C445.066 311.241 444.836 311.168 444.539 311.168C444.253 311.168 444.03 311.229 443.871 311.352C443.712 311.471 443.633 311.63 443.633 311.828C443.633 312.013 443.725 312.168 443.91 312.293C444.098 312.418 444.372 312.535 444.734 312.645C445.401 312.845 445.887 313.094 446.191 313.391C446.496 313.688 446.648 314.057 446.648 314.5C446.648 314.992 446.462 315.379 446.09 315.66C445.717 315.939 445.216 316.078 444.586 316.078C444.148 316.078 443.75 315.999 443.391 315.84C443.031 315.678 442.757 315.458 442.566 315.18C442.379 314.901 442.285 314.578 442.285 314.211H443.461C443.461 314.839 443.836 315.152 444.586 315.152C444.865 315.152 445.082 315.096 445.238 314.984C445.395 314.87 445.473 314.711 445.473 314.508ZM450.395 314.508C450.395 314.286 450.316 314.117 450.16 314C450.004 313.88 449.723 313.755 449.316 313.625C448.91 313.492 448.589 313.362 448.352 313.234C447.706 312.885 447.383 312.415 447.383 311.824C447.383 311.517 447.469 311.243 447.641 311.004C447.815 310.762 448.064 310.573 448.387 310.438C448.712 310.302 449.077 310.234 449.48 310.234C449.887 310.234 450.249 310.309 450.566 310.457C450.884 310.603 451.13 310.81 451.305 311.078C451.482 311.346 451.57 311.651 451.57 311.992H450.398C450.398 311.732 450.316 311.53 450.152 311.387C449.988 311.241 449.758 311.168 449.461 311.168C449.174 311.168 448.952 311.229 448.793 311.352C448.634 311.471 448.555 311.63 448.555 311.828C448.555 312.013 448.647 312.168 448.832 312.293C449.02 312.418 449.294 312.535 449.656 312.645C450.323 312.845 450.809 313.094 451.113 313.391C451.418 313.688 451.57 314.057 451.57 314.5C451.57 314.992 451.384 315.379 451.012 315.66C450.639 315.939 450.138 316.078 449.508 316.078C449.07 316.078 448.672 315.999 448.312 315.84C447.953 315.678 447.678 315.458 447.488 315.18C447.301 314.901 447.207 314.578 447.207 314.211H448.383C448.383 314.839 448.758 315.152 449.508 315.152C449.786 315.152 450.004 315.096 450.16 314.984C450.316 314.87 450.395 314.711 450.395 314.508ZM453.613 316H452.441V310.312H453.613V316ZM454.703 316V310.312H456.695C457.385 310.312 457.909 310.445 458.266 310.711C458.622 310.974 458.801 311.361 458.801 311.871C458.801 312.15 458.729 312.396 458.586 312.609C458.443 312.82 458.243 312.975 457.988 313.074C458.28 313.147 458.509 313.294 458.676 313.516C458.845 313.737 458.93 314.008 458.93 314.328C458.93 314.875 458.755 315.289 458.406 315.57C458.057 315.852 457.56 315.995 456.914 316H454.703ZM455.875 313.523V315.059H456.879C457.155 315.059 457.37 314.993 457.523 314.863C457.68 314.73 457.758 314.548 457.758 314.316C457.758 313.796 457.488 313.531 456.949 313.523H455.875ZM455.875 312.695H456.742C457.333 312.685 457.629 312.449 457.629 311.988C457.629 311.73 457.553 311.546 457.402 311.434C457.254 311.319 457.018 311.262 456.695 311.262H455.875V312.695ZM461.059 316H459.887V310.312H461.059V316ZM463.32 315.059H465.809V316H462.148V310.312H463.32V315.059ZM467.73 316H466.559V310.312H467.73V316ZM472.984 311.262H471.242V316H470.07V311.262H468.352V310.312H472.984V311.262ZM475.68 312.875L476.863 310.312H478.145L476.277 313.938V316H475.086V313.938L473.219 310.312H474.504L475.68 312.875ZM485.32 313.285C485.32 313.816 485.234 314.279 485.062 314.672C484.891 315.062 484.652 315.376 484.348 315.613L485.293 316.355L484.547 317.016L483.336 316.043C483.198 316.066 483.055 316.078 482.906 316.078C482.435 316.078 482.014 315.965 481.645 315.738C481.275 315.512 480.988 315.189 480.785 314.77C480.582 314.348 480.479 313.863 480.477 313.316V313.035C480.477 312.475 480.577 311.983 480.777 311.559C480.98 311.132 481.266 310.805 481.633 310.578C482.003 310.349 482.424 310.234 482.898 310.234C483.372 310.234 483.793 310.349 484.16 310.578C484.53 310.805 484.815 311.132 485.016 311.559C485.219 311.983 485.32 312.474 485.32 313.031V313.285ZM484.133 313.027C484.133 312.431 484.026 311.978 483.812 311.668C483.599 311.358 483.294 311.203 482.898 311.203C482.505 311.203 482.202 311.357 481.988 311.664C481.775 311.969 481.667 312.417 481.664 313.008V313.285C481.664 313.866 481.771 314.316 481.984 314.637C482.198 314.957 482.505 315.117 482.906 315.117C483.299 315.117 483.602 314.964 483.812 314.656C484.023 314.346 484.13 313.896 484.133 313.305V313.027Z" fill="#515151"/>
<path d="M207.937 311.262H206.195V316H205.023V311.262H203.305V310.312H207.937V311.262ZM210.715 313.918H209.781V316H208.609V310.312H210.723C211.395 310.312 211.913 310.462 212.277 310.762C212.642 311.061 212.824 311.484 212.824 312.031C212.824 312.419 212.74 312.743 212.57 313.004C212.404 313.262 212.15 313.467 211.809 313.621L213.039 315.945V316H211.781L210.715 313.918ZM209.781 312.969H210.727C211.021 312.969 211.249 312.895 211.41 312.746C211.572 312.595 211.652 312.388 211.652 312.125C211.652 311.857 211.576 311.646 211.422 311.492C211.271 311.339 211.038 311.262 210.723 311.262H209.781V312.969ZM214.965 316H213.793V310.312H214.965V316ZM219.336 314.828H217.281L216.891 316H215.645L217.762 310.312H218.848L220.977 316H219.73L219.336 314.828ZM217.598 313.879H219.02L218.305 311.75L217.598 313.879ZM222.68 315.059H225.168V316H221.508V310.312H222.68V315.059ZM232.5 313.285C232.5 313.816 232.414 314.279 232.242 314.672C232.07 315.062 231.832 315.376 231.527 315.613L232.473 316.355L231.727 317.016L230.516 316.043C230.378 316.066 230.234 316.078 230.086 316.078C229.615 316.078 229.194 315.965 228.824 315.738C228.454 315.512 228.168 315.189 227.965 314.77C227.762 314.348 227.659 313.863 227.656 313.316V313.035C227.656 312.475 227.756 311.983 227.957 311.559C228.16 311.132 228.445 310.805 228.812 310.578C229.182 310.349 229.604 310.234 230.078 310.234C230.552 310.234 230.973 310.349 231.34 310.578C231.71 310.805 231.995 311.132 232.195 311.559C232.398 311.983 232.5 312.474 232.5 313.031V313.285ZM231.312 313.027C231.312 312.431 231.206 311.978 230.992 311.668C230.779 311.358 230.474 311.203 230.078 311.203C229.685 311.203 229.381 311.357 229.168 311.664C228.954 311.969 228.846 312.417 228.844 313.008V313.285C228.844 313.866 228.951 314.316 229.164 314.637C229.378 314.957 229.685 315.117 230.086 315.117C230.479 315.117 230.781 314.964 230.992 314.656C231.203 314.346 231.31 313.896 231.312 313.305V313.027Z" fill="#515151"/>
<rect x="97" y="323" width="242" height="37" fill="#EAEAEA"/>
<rect width="242" height="37" transform="matrix(-1 0 0 1 821 323)" fill="#EAEAEA"/>
<rect x="339" y="323" width="240" height="37" fill="#EAEAEA"/>
<path d="M512 323C513.321 323 515.964 323.705 515.964 326.524C515.964 330.048 512.991 341.5 519.929 341.5" stroke="black" stroke-opacity="0.2"/>
<path d="M519.929 341.5C518.607 341.5 515.964 342.205 515.964 345.024C515.964 348.548 518.937 360 512 360" stroke="black" stroke-opacity="0.2"/>
<path d="M405.929 323C404.607 323 401.964 323.705 401.964 326.524C401.964 330.048 404.937 341.5 398 341.5" stroke="black" stroke-opacity="0.2"/>
<path d="M398 341.5C399.321 341.5 401.964 342.205 401.964 345.024C401.964 348.548 398.991 360 405.929 360" stroke="black" stroke-opacity="0.2"/>
<path d="M213.195 339.262H211.453V344H210.281V339.262H208.562V338.313H213.195V339.262ZM215.973 341.918H215.039V344H213.867V338.313H215.98C216.652 338.313 217.171 338.462 217.535 338.762C217.9 339.061 218.082 339.484 218.082 340.031C218.082 340.419 217.997 340.744 217.828 341.004C217.661 341.262 217.408 341.468 217.066 341.621L218.297 343.945V344H217.039L215.973 341.918ZM215.039 340.969H215.984C216.279 340.969 216.506 340.895 216.668 340.746C216.829 340.595 216.91 340.388 216.91 340.125C216.91 339.857 216.833 339.646 216.68 339.492C216.529 339.339 216.296 339.262 215.98 339.262H215.039V340.969ZM220.223 344H219.051V338.313H220.223V344ZM224.594 342.828H222.539L222.148 344H220.902L223.02 338.313H224.105L226.234 344H224.988L224.594 342.828ZM222.855 341.879H224.277L223.562 339.75L222.855 341.879ZM227.937 343.059H230.426V344H226.766V338.313H227.937V343.059Z" fill="#515151"/>
<path d="M689.781 342.828H687.727L687.336 344H686.09L688.207 338.312H689.293L691.422 344H690.176L689.781 342.828ZM688.043 341.879H689.465L688.75 339.75L688.043 341.879ZM696.332 342.105C696.288 342.717 696.061 343.199 695.652 343.551C695.246 343.902 694.71 344.078 694.043 344.078C693.314 344.078 692.74 343.833 692.32 343.344C691.904 342.852 691.695 342.177 691.695 341.32V340.973C691.695 340.426 691.792 339.944 691.984 339.527C692.177 339.111 692.452 338.792 692.809 338.57C693.168 338.346 693.585 338.234 694.059 338.234C694.715 338.234 695.243 338.41 695.645 338.762C696.046 339.113 696.277 339.607 696.34 340.242H695.168C695.139 339.875 695.036 339.609 694.859 339.445C694.685 339.279 694.418 339.195 694.059 339.195C693.668 339.195 693.375 339.336 693.18 339.617C692.987 339.896 692.888 340.329 692.883 340.918V341.348C692.883 341.962 692.975 342.411 693.16 342.695C693.348 342.979 693.642 343.121 694.043 343.121C694.405 343.121 694.674 343.039 694.852 342.875C695.031 342.708 695.134 342.452 695.16 342.105H696.332ZM701.266 339.262H699.523V344H698.352V339.262H696.633V338.312H701.266V339.262ZM703.184 344H702.012V338.312H703.184V344ZM708.945 341.285C708.945 341.845 708.846 342.336 708.648 342.758C708.451 343.18 708.167 343.505 707.797 343.734C707.43 343.964 707.008 344.078 706.531 344.078C706.06 344.078 705.639 343.965 705.27 343.738C704.9 343.512 704.613 343.189 704.41 342.77C704.207 342.348 704.104 341.863 704.102 341.316V341.035C704.102 340.475 704.202 339.983 704.402 339.559C704.605 339.131 704.891 338.805 705.258 338.578C705.628 338.349 706.049 338.234 706.523 338.234C706.997 338.234 707.418 338.349 707.785 338.578C708.155 338.805 708.44 339.131 708.641 339.559C708.844 339.983 708.945 340.474 708.945 341.031V341.285ZM707.758 341.027C707.758 340.431 707.651 339.978 707.438 339.668C707.224 339.358 706.919 339.203 706.523 339.203C706.13 339.203 705.827 339.357 705.613 339.664C705.4 339.969 705.292 340.417 705.289 341.008V341.285C705.289 341.866 705.396 342.316 705.609 342.637C705.823 342.957 706.13 343.117 706.531 343.117C706.924 343.117 707.227 342.964 707.438 342.656C707.648 342.346 707.755 341.896 707.758 341.305V341.027ZM714.422 344H713.25L710.969 340.258V344H709.797V338.312H710.969L713.254 342.062V338.312H714.422V344Z" fill="#515151"/>
<path d="M331.896 341.223H331.243V343H330.803V341.223H330.159V340.867H331.896V341.223ZM332.937 342.219H332.587V343H332.148V340.867H332.94C333.192 340.867 333.387 340.923 333.523 341.036C333.66 341.148 333.728 341.307 333.728 341.512C333.728 341.657 333.697 341.779 333.633 341.876C333.571 341.973 333.476 342.05 333.348 342.108L333.809 342.979V343H333.337L332.937 342.219ZM332.587 341.863H332.942C333.052 341.863 333.138 341.835 333.198 341.78C333.259 341.723 333.289 341.646 333.289 341.547C333.289 341.446 333.26 341.367 333.203 341.31C333.146 341.252 333.059 341.223 332.94 341.223H332.587V341.863ZM334.531 343H334.092V340.867H334.531V343ZM336.17 342.561H335.4L335.253 343H334.786L335.58 340.867H335.987L336.786 343H336.318L336.17 342.561ZM335.519 342.205H336.052L335.784 341.406L335.519 342.205ZM337.424 342.647H338.357V343H336.985V340.867H337.424V342.647ZM341.11 341.982C341.11 342.192 341.073 342.376 340.999 342.534C340.924 342.692 340.818 342.814 340.679 342.9C340.541 342.986 340.383 343.029 340.205 343.029C340.028 343.029 339.87 342.987 339.731 342.902C339.593 342.817 339.485 342.696 339.409 342.539C339.333 342.38 339.294 342.199 339.293 341.994V341.888C339.293 341.678 339.331 341.494 339.406 341.334C339.482 341.174 339.589 341.052 339.727 340.967C339.866 340.881 340.024 340.838 340.202 340.838C340.379 340.838 340.537 340.881 340.675 340.967C340.813 341.052 340.92 341.174 340.996 341.334C341.072 341.494 341.11 341.678 341.11 341.887V341.982ZM340.665 341.885C340.665 341.662 340.624 341.492 340.544 341.375C340.464 341.259 340.35 341.201 340.202 341.201C340.054 341.201 339.94 341.259 339.86 341.374C339.78 341.488 339.74 341.656 339.739 341.878V341.982C339.739 342.2 339.779 342.369 339.859 342.489C339.939 342.609 340.054 342.669 340.205 342.669C340.352 342.669 340.465 342.611 340.544 342.496C340.624 342.38 340.664 342.211 340.665 341.989V341.885ZM342.185 342.471L342.668 340.867H343.158L342.415 343H341.957L341.217 340.867H341.705L342.185 342.471ZM344.643 342.076H343.799V342.647H344.79V343H343.36V340.867H344.787V341.223H343.799V341.731H344.643V342.076ZM345.837 342.219H345.487V343H345.047V340.867H345.84C346.092 340.867 346.286 340.923 346.423 341.036C346.56 341.148 346.628 341.307 346.628 341.512C346.628 341.657 346.596 341.779 346.533 341.876C346.47 341.973 346.375 342.05 346.247 342.108L346.708 342.979V343H346.237L345.837 342.219ZM345.487 341.863H345.841C345.952 341.863 346.037 341.835 346.098 341.78C346.158 341.723 346.188 341.646 346.188 341.547C346.188 341.446 346.16 341.367 346.102 341.31C346.045 341.252 345.958 341.223 345.84 341.223H345.487V341.863ZM348.15 342.249V343H347.71V340.867H348.542C348.703 340.867 348.843 340.896 348.964 340.955C349.086 341.014 349.18 341.097 349.246 341.206C349.311 341.313 349.344 341.436 349.344 341.573C349.344 341.782 349.272 341.947 349.128 342.068C348.986 342.188 348.788 342.249 348.535 342.249H348.15ZM348.15 341.893H348.542C348.659 341.893 348.747 341.865 348.808 341.811C348.869 341.756 348.9 341.678 348.9 341.576C348.9 341.472 348.869 341.387 348.808 341.323C348.746 341.258 348.661 341.225 348.553 341.223H348.15V341.893ZM350.086 342.647H351.02V343H349.647V340.867H350.086V342.647ZM352.556 342.076H351.712V342.647H352.703V343H351.273V340.867H352.7V341.223H351.712V341.731H352.556V342.076ZM354.165 342.561H353.394L353.248 343H352.78L353.574 340.867H353.981L354.78 343H354.312L354.165 342.561ZM353.513 342.205H354.046L353.778 341.406L353.513 342.205ZM356.085 342.44C356.085 342.357 356.056 342.294 355.997 342.25C355.938 342.205 355.833 342.158 355.681 342.109C355.528 342.06 355.408 342.011 355.319 341.963C355.077 341.832 354.956 341.656 354.956 341.434C354.956 341.319 354.988 341.216 355.052 341.126C355.118 341.036 355.211 340.965 355.332 340.914C355.454 340.863 355.591 340.838 355.742 340.838C355.895 340.838 356.03 340.866 356.149 340.921C356.269 340.976 356.361 341.054 356.426 341.154C356.493 341.255 356.526 341.369 356.526 341.497H356.086C356.086 341.399 356.056 341.324 355.994 341.27C355.933 341.215 355.846 341.188 355.735 341.188C355.627 341.188 355.544 341.211 355.484 341.257C355.425 341.302 355.395 341.361 355.395 341.436C355.395 341.505 355.43 341.563 355.499 341.61C355.569 341.657 355.672 341.701 355.808 341.742C356.058 341.817 356.24 341.91 356.354 342.021C356.469 342.133 356.526 342.271 356.526 342.438C356.526 342.622 356.456 342.767 356.316 342.873C356.177 342.977 355.989 343.029 355.752 343.029C355.588 343.029 355.439 343 355.304 342.94C355.169 342.879 355.066 342.797 354.995 342.692C354.925 342.588 354.89 342.467 354.89 342.329H355.331C355.331 342.564 355.471 342.682 355.752 342.682C355.857 342.682 355.938 342.661 355.997 342.619C356.056 342.576 356.085 342.517 356.085 342.44ZM358.108 342.076H357.264V342.647H358.254V343H356.825V340.867H358.251V341.223H357.264V341.731H358.108V342.076ZM360.049 342.219H359.699V343H359.259V340.867H360.052C360.304 340.867 360.498 340.923 360.635 341.036C360.771 341.148 360.84 341.307 360.84 341.512C360.84 341.657 360.808 341.779 360.745 341.876C360.682 341.973 360.587 342.05 360.459 342.108L360.92 342.979V343H360.449L360.049 342.219ZM359.699 341.863H360.053C360.164 341.863 360.249 341.835 360.31 341.78C360.37 341.723 360.4 341.646 360.4 341.547C360.4 341.446 360.372 341.367 360.314 341.31C360.257 341.252 360.17 341.223 360.052 341.223H359.699V341.863ZM362.458 342.076H361.615V342.647H362.605V343H361.175V340.867H362.602V341.223H361.615V341.731H362.458V342.076ZM364.55 342.73C364.471 342.825 364.359 342.899 364.215 342.952C364.07 343.003 363.91 343.029 363.734 343.029C363.55 343.029 363.388 342.989 363.248 342.909C363.109 342.828 363.002 342.711 362.926 342.558C362.851 342.404 362.812 342.224 362.81 342.017V341.872C362.81 341.659 362.846 341.475 362.917 341.32C362.989 341.164 363.093 341.044 363.228 340.962C363.363 340.879 363.522 340.838 363.704 340.838C363.957 340.838 364.154 340.898 364.297 341.02C364.439 341.14 364.524 341.315 364.55 341.545H364.123C364.103 341.423 364.06 341.334 363.992 341.277C363.926 341.221 363.834 341.192 363.717 341.192C363.567 341.192 363.454 341.249 363.375 341.361C363.297 341.473 363.258 341.64 363.257 341.862V341.998C363.257 342.222 363.299 342.391 363.384 342.505C363.469 342.619 363.594 342.676 363.758 342.676C363.923 342.676 364.04 342.641 364.111 342.571V342.203H363.711V341.879H364.55V342.73ZM365.375 343H364.936V340.867H365.375V343ZM366.89 342.44C366.89 342.357 366.86 342.294 366.802 342.25C366.743 342.205 366.638 342.158 366.485 342.109C366.333 342.06 366.212 342.011 366.124 341.963C365.881 341.832 365.76 341.656 365.76 341.434C365.76 341.319 365.792 341.216 365.857 341.126C365.922 341.036 366.016 340.965 366.137 340.914C366.259 340.863 366.395 340.838 366.547 340.838C366.699 340.838 366.835 340.866 366.954 340.921C367.073 340.976 367.165 341.054 367.231 341.154C367.297 341.255 367.331 341.369 367.331 341.497H366.891C366.891 341.399 366.86 341.324 366.799 341.27C366.737 341.215 366.651 341.188 366.54 341.188C366.432 341.188 366.349 341.211 366.289 341.257C366.229 341.302 366.2 341.361 366.2 341.436C366.2 341.505 366.234 341.563 366.304 341.61C366.374 341.657 366.477 341.701 366.613 341.742C366.863 341.817 367.045 341.91 367.159 342.021C367.273 342.133 367.331 342.271 367.331 342.438C367.331 342.622 367.261 342.767 367.121 342.873C366.981 342.977 366.793 343.029 366.557 343.029C366.393 343.029 366.244 343 366.109 342.94C365.974 342.879 365.871 342.797 365.8 342.692C365.729 342.588 365.694 342.467 365.694 342.329H366.135C366.135 342.564 366.276 342.682 366.557 342.682C366.662 342.682 366.743 342.661 366.802 342.619C366.86 342.576 366.89 342.517 366.89 342.44ZM369.235 341.223H368.582V343H368.142V341.223H367.498V340.867H369.235V341.223ZM370.77 342.076H369.926V342.647H370.916V343H369.487V340.867H370.914V341.223H369.926V341.731H370.77V342.076ZM371.964 342.219H371.614V343H371.174V340.867H371.967C372.219 340.867 372.413 340.923 372.55 341.036C372.686 341.148 372.755 341.307 372.755 341.512C372.755 341.657 372.723 341.779 372.66 341.876C372.597 341.973 372.502 342.05 372.374 342.108L372.835 342.979V343H372.364L371.964 342.219ZM371.614 341.863H371.968C372.079 341.863 372.164 341.835 372.225 341.78C372.285 341.723 372.315 341.646 372.315 341.547C372.315 341.446 372.287 341.367 372.229 341.31C372.172 341.252 372.085 341.223 371.967 341.223H371.614V341.863Z" fill="#515151"/>
<path d="M448.789 342.881C448.789 342.715 448.73 342.588 448.613 342.5C448.496 342.41 448.285 342.316 447.98 342.219C447.676 342.119 447.435 342.021 447.257 341.926C446.772 341.664 446.53 341.312 446.53 340.868C446.53 340.638 446.595 340.433 446.724 340.253C446.854 340.071 447.041 339.93 447.283 339.828C447.527 339.727 447.801 339.676 448.103 339.676C448.408 339.676 448.68 339.731 448.918 339.843C449.156 339.952 449.341 340.107 449.472 340.309C449.604 340.51 449.671 340.738 449.671 340.994H448.792C448.792 340.799 448.73 340.647 448.607 340.54C448.484 340.431 448.311 340.376 448.089 340.376C447.874 340.376 447.707 340.422 447.588 340.514C447.469 340.604 447.409 340.723 447.409 340.871C447.409 341.01 447.478 341.126 447.617 341.22C447.758 341.313 447.964 341.401 448.235 341.483C448.735 341.634 449.1 341.82 449.328 342.043C449.557 342.266 449.671 342.543 449.671 342.875C449.671 343.244 449.531 343.534 449.252 343.745C448.973 343.954 448.597 344.059 448.124 344.059C447.796 344.059 447.497 343.999 447.228 343.88C446.958 343.759 446.752 343.594 446.609 343.385C446.469 343.176 446.398 342.934 446.398 342.658H447.28C447.28 343.129 447.561 343.364 448.124 343.364C448.333 343.364 448.496 343.322 448.613 343.238C448.73 343.152 448.789 343.033 448.789 342.881ZM453.617 342.579C453.584 343.038 453.414 343.399 453.107 343.663C452.803 343.927 452.4 344.059 451.9 344.059C451.353 344.059 450.923 343.875 450.608 343.508C450.296 343.139 450.14 342.633 450.14 341.99V341.729C450.14 341.319 450.212 340.958 450.356 340.646C450.501 340.333 450.707 340.094 450.975 339.928C451.244 339.76 451.557 339.676 451.912 339.676C452.404 339.676 452.801 339.808 453.102 340.071C453.402 340.335 453.576 340.705 453.623 341.182H452.744C452.723 340.906 452.645 340.707 452.513 340.584C452.382 340.459 452.182 340.396 451.912 340.396C451.619 340.396 451.399 340.502 451.253 340.713C451.108 340.922 451.034 341.247 451.03 341.688V342.011C451.03 342.472 451.1 342.809 451.238 343.021C451.379 343.234 451.6 343.341 451.9 343.341C452.172 343.341 452.374 343.279 452.507 343.156C452.642 343.031 452.719 342.839 452.738 342.579H453.617ZM456.761 342.151H455.073V343.294H457.054V344H454.194V339.734H457.048V340.446H455.073V341.463H456.761V342.151ZM461.038 344H460.159L458.448 341.193V344H457.569V339.734H458.448L460.162 342.547V339.734H461.038V344ZM464.929 340.446H463.622V344H462.743V340.446H461.454V339.734H464.929V340.446ZM468.854 341.964C468.854 342.384 468.78 342.752 468.632 343.068C468.483 343.385 468.27 343.629 467.993 343.801C467.718 343.973 467.401 344.059 467.044 344.059C466.69 344.059 466.375 343.974 466.098 343.804C465.82 343.634 465.605 343.392 465.453 343.077C465.301 342.761 465.224 342.397 465.222 341.987V341.776C465.222 341.356 465.297 340.987 465.447 340.669C465.6 340.349 465.813 340.104 466.089 339.934C466.366 339.762 466.683 339.676 467.038 339.676C467.394 339.676 467.709 339.762 467.984 339.934C468.262 340.104 468.476 340.349 468.626 340.669C468.778 340.987 468.854 341.355 468.854 341.773V341.964ZM467.964 341.771C467.964 341.323 467.884 340.983 467.724 340.751C467.563 340.519 467.335 340.402 467.038 340.402C466.743 340.402 466.516 340.518 466.355 340.748C466.195 340.977 466.114 341.312 466.112 341.756V341.964C466.112 342.399 466.192 342.737 466.353 342.978C466.513 343.218 466.743 343.338 467.044 343.338C467.339 343.338 467.565 343.223 467.724 342.992C467.882 342.76 467.962 342.422 467.964 341.979V341.771ZM471.705 342.881C471.705 342.715 471.646 342.588 471.529 342.5C471.412 342.41 471.201 342.316 470.896 342.219C470.592 342.119 470.351 342.021 470.173 341.926C469.688 341.664 469.446 341.312 469.446 340.868C469.446 340.638 469.511 340.433 469.64 340.253C469.77 340.071 469.957 339.93 470.199 339.828C470.443 339.727 470.717 339.676 471.02 339.676C471.324 339.676 471.596 339.731 471.834 339.843C472.072 339.952 472.257 340.107 472.388 340.309C472.52 340.51 472.587 340.738 472.587 340.994H471.708C471.708 340.799 471.646 340.647 471.523 340.54C471.4 340.431 471.228 340.376 471.005 340.376C470.79 340.376 470.623 340.422 470.504 340.514C470.385 340.604 470.325 340.723 470.325 340.871C470.325 341.01 470.395 341.126 470.533 341.22C470.674 341.313 470.88 341.401 471.151 341.483C471.651 341.634 472.016 341.82 472.244 342.043C472.473 342.266 472.587 342.543 472.587 342.875C472.587 343.244 472.447 343.534 472.168 343.745C471.889 343.954 471.513 344.059 471.04 344.059C470.712 344.059 470.413 343.999 470.144 343.88C469.874 343.759 469.668 343.594 469.525 343.385C469.385 343.176 469.314 342.934 469.314 342.658H470.196C470.196 343.129 470.478 343.364 471.04 343.364C471.249 343.364 471.412 343.322 471.529 343.238C471.646 343.152 471.705 343.033 471.705 342.881Z" fill="#515151"/>
<path d="M339 323L339 339" stroke="#A3A3A3"/>
<path d="M339 345L339 360" stroke="#A3A3A3"/>
<path d="M459 320V327M459 327L461 325M459 327L457 325" stroke="#515151"/>
<path d="M700 320V327M700 327L702 325M700 327L698 325" stroke="#515151"/>
<path d="M218 320V327M218 327L220 325M218 327L216 325" stroke="#515151"/>
<path d="M97.9999 252L820 252" stroke="#DADADA"/>
<path d="M97.9999 165.001L820 165.001" stroke="#DADADA"/>
</g>
<defs>
<clipPath id="clip0">
<rect width="465" height="919" fill="white" transform="translate(919) rotate(90)"/>
</clipPath>
</defs>
</svg>
