<svg width="350" height="350" viewBox="0 0 350 350" fill="none" xmlns="http://www.w3.org/2000/svg">
<rect width="350" height="350" fill="white"/>
<path d="M133 148C133 146.895 133.895 146 135 146H231C232.105 146 233 146.895 233 148V244C233 245.105 232.105 246 231 246H135C133.895 246 133 245.105 133 244V148Z" fill="#C4C4C4"/>
<path d="M133 149C133 121.386 155.386 99 183 99V99C210.614 99 233 121.386 233 149V149H133V149Z" fill="#D1D1D1"/>
<rect x="180" y="149" width="7" height="76" fill="#272727"/>
<path d="M180 229H187V230.5C187 232.433 185.433 234 183.5 234V234C181.567 234 180 232.433 180 230.5V229Z" fill="#272727"/>
<path d="M145 246H152V244.5C152 242.567 150.433 241 148.5 241V241C146.567 241 145 242.567 145 244.5V246Z" fill="#B8B8B8"/>
<path d="M159 246H166V244.5C166 242.567 164.433 241 162.5 241V241C160.567 241 159 242.567 159 244.5V246Z" fill="#B8B8B8"/>
<path d="M173 246H180V244.5C180 242.567 178.433 241 176.5 241V241C174.567 241 173 242.567 173 244.5V246Z" fill="#B8B8B8"/>
<path d="M187 246H194V244.5C194 242.567 192.433 241 190.5 241V241C188.567 241 187 242.567 187 244.5V246Z" fill="#B8B8B8"/>
<path d="M201 246H208V244.5C208 242.567 206.433 241 204.5 241V241C202.567 241 201 242.567 201 244.5V246Z" fill="#B8B8B8"/>
<path d="M215 246H222V244.5C222 242.567 220.433 241 218.5 241V241C216.567 241 215 242.567 215 244.5V246Z" fill="#B8B8B8"/>
<path d="M151.108 121.816C151.08 122.198 150.939 122.5 150.683 122.719C150.429 122.939 150.094 123.049 149.677 123.049C149.222 123.049 148.863 122.896 148.601 122.59C148.34 122.282 148.21 121.861 148.21 121.325V121.108C148.21 120.766 148.27 120.465 148.391 120.205C148.511 119.944 148.683 119.745 148.906 119.606C149.13 119.466 149.391 119.396 149.687 119.396C150.097 119.396 150.428 119.506 150.678 119.726C150.929 119.946 151.074 120.254 151.113 120.651H150.38C150.362 120.422 150.298 120.256 150.188 120.153C150.078 120.049 149.912 119.997 149.687 119.997C149.443 119.997 149.26 120.085 149.138 120.261C149.017 120.435 148.955 120.706 148.952 121.074V121.342C148.952 121.726 149.01 122.007 149.125 122.185C149.243 122.362 149.427 122.451 149.677 122.451C149.903 122.451 150.072 122.399 150.183 122.297C150.295 122.193 150.359 122.032 150.375 121.816H151.108ZM154.509 121.303C154.509 121.653 154.447 121.96 154.323 122.224C154.2 122.487 154.022 122.691 153.791 122.834C153.562 122.977 153.298 123.049 153 123.049C152.705 123.049 152.443 122.978 152.211 122.836C151.98 122.695 151.801 122.493 151.674 122.231C151.547 121.967 151.483 121.665 151.481 121.323V121.147C151.481 120.797 151.544 120.489 151.669 120.224C151.796 119.957 151.975 119.753 152.204 119.611C152.435 119.468 152.699 119.396 152.995 119.396C153.291 119.396 153.554 119.468 153.784 119.611C154.015 119.753 154.193 119.957 154.318 120.224C154.445 120.489 154.509 120.796 154.509 121.145V121.303ZM153.767 121.142C153.767 120.769 153.7 120.486 153.566 120.292C153.433 120.099 153.243 120.002 152.995 120.002C152.749 120.002 152.56 120.098 152.426 120.29C152.293 120.48 152.225 120.76 152.224 121.13V121.303C152.224 121.666 152.29 121.948 152.424 122.148C152.557 122.348 152.749 122.448 153 122.448C153.246 122.448 153.435 122.352 153.566 122.16C153.698 121.966 153.765 121.685 153.767 121.315V121.142ZM157.932 123H157.199L155.773 120.661V123H155.041V119.445H155.773L157.202 121.789V119.445H157.932V123ZM161.174 120.039H160.085V123H159.353V120.039H158.278V119.445H161.174V120.039ZM162.373 123H161.64V119.445H162.373V123ZM165.944 123H165.212L163.786 120.661V123H163.054V119.445H163.786L165.214 121.789V119.445H165.944V123ZM169.504 121.303C169.504 121.653 169.442 121.96 169.318 122.224C169.195 122.487 169.017 122.691 168.786 122.834C168.557 122.977 168.293 123.049 167.995 123.049C167.701 123.049 167.438 122.978 167.207 122.836C166.975 122.695 166.796 122.493 166.669 122.231C166.542 121.967 166.478 121.665 166.477 121.323V121.147C166.477 120.797 166.539 120.489 166.665 120.224C166.792 119.957 166.97 119.753 167.199 119.611C167.43 119.468 167.694 119.396 167.99 119.396C168.286 119.396 168.549 119.468 168.779 119.611C169.01 119.753 169.188 119.957 169.313 120.224C169.44 120.489 169.504 120.796 169.504 121.145V121.303ZM168.762 121.142C168.762 120.769 168.695 120.486 168.562 120.292C168.428 120.099 168.238 120.002 167.99 120.002C167.744 120.002 167.555 120.098 167.421 120.29C167.288 120.48 167.22 120.76 167.219 121.13V121.303C167.219 121.666 167.285 121.948 167.419 122.148C167.552 122.348 167.744 122.448 167.995 122.448C168.241 122.448 168.43 122.352 168.562 122.16C168.693 121.966 168.76 121.685 168.762 121.315V121.142ZM172.727 119.445V121.787C172.727 122.176 172.604 122.483 172.36 122.709C172.118 122.936 171.786 123.049 171.364 123.049C170.949 123.049 170.62 122.939 170.375 122.719C170.131 122.5 170.007 122.198 170.002 121.813V119.445H170.734V121.792C170.734 122.024 170.79 122.194 170.9 122.302C171.013 122.408 171.167 122.46 171.364 122.46C171.776 122.46 171.985 122.244 171.992 121.811V119.445H172.727ZM175.17 122.067C175.17 121.929 175.122 121.823 175.024 121.75C174.926 121.675 174.75 121.597 174.497 121.516C174.243 121.433 174.042 121.351 173.894 121.271C173.49 121.053 173.288 120.76 173.288 120.39C173.288 120.198 173.342 120.027 173.449 119.877C173.558 119.726 173.714 119.608 173.916 119.523C174.119 119.439 174.347 119.396 174.599 119.396C174.853 119.396 175.079 119.443 175.278 119.536C175.476 119.627 175.63 119.756 175.739 119.924C175.85 120.091 175.905 120.282 175.905 120.495H175.173C175.173 120.332 175.122 120.206 175.019 120.117C174.917 120.026 174.772 119.98 174.587 119.98C174.408 119.98 174.269 120.018 174.169 120.095C174.07 120.17 174.021 120.269 174.021 120.393C174.021 120.508 174.078 120.605 174.194 120.683C174.311 120.761 174.483 120.834 174.709 120.903C175.126 121.028 175.429 121.184 175.62 121.369C175.81 121.555 175.905 121.786 175.905 122.062C175.905 122.37 175.789 122.612 175.556 122.788C175.323 122.962 175.01 123.049 174.616 123.049C174.343 123.049 174.094 122.999 173.869 122.9C173.645 122.799 173.473 122.661 173.354 122.487C173.237 122.313 173.178 122.111 173.178 121.882H173.913C173.913 122.274 174.147 122.47 174.616 122.47C174.79 122.47 174.926 122.435 175.024 122.365C175.122 122.294 175.17 122.194 175.17 122.067ZM178.964 121.699H178.381V123H177.648V119.445H178.969C179.389 119.445 179.713 119.539 179.941 119.726C180.169 119.913 180.283 120.178 180.283 120.52C180.283 120.762 180.23 120.965 180.124 121.127C180.02 121.289 179.861 121.417 179.648 121.513L180.417 122.966V123H179.631L178.964 121.699ZM178.381 121.105H178.972C179.156 121.105 179.298 121.059 179.399 120.966C179.5 120.872 179.55 120.743 179.55 120.578C179.55 120.41 179.502 120.279 179.406 120.183C179.312 120.087 179.166 120.039 178.969 120.039H178.381V121.105ZM183.532 119.445V121.787C183.532 122.176 183.41 122.483 183.166 122.709C182.924 122.936 182.591 123.049 182.17 123.049C181.755 123.049 181.425 122.939 181.181 122.719C180.937 122.5 180.812 122.198 180.808 121.813V119.445H181.54V121.792C181.54 122.024 181.595 122.194 181.706 122.302C181.818 122.408 181.973 122.46 182.17 122.46C182.582 122.46 182.791 122.244 182.797 121.811V119.445H183.532ZM187.023 123H186.291L184.865 120.661V123H184.133V119.445H184.865L186.293 121.789V119.445H187.023V123ZM190.554 123H189.821L188.396 120.661V123H187.663V119.445H188.396L189.824 121.789V119.445H190.554V123ZM191.972 123H191.24V119.445H191.972V123ZM195.544 123H194.812L193.386 120.661V123H192.653V119.445H193.386L194.814 121.789V119.445H195.544V123ZM198.996 122.551C198.864 122.709 198.678 122.832 198.437 122.919C198.196 123.006 197.929 123.049 197.636 123.049C197.329 123.049 197.058 122.982 196.826 122.849C196.595 122.714 196.416 122.518 196.289 122.263C196.163 122.007 196.099 121.707 196.096 121.362V121.12C196.096 120.765 196.155 120.458 196.274 120.2C196.394 119.939 196.567 119.741 196.792 119.604C197.018 119.466 197.282 119.396 197.585 119.396C198.007 119.396 198.336 119.497 198.574 119.699C198.811 119.899 198.952 120.192 198.996 120.576H198.283C198.251 120.372 198.178 120.223 198.066 120.129C197.955 120.035 197.802 119.987 197.607 119.987C197.358 119.987 197.168 120.081 197.038 120.268C196.908 120.455 196.842 120.734 196.84 121.103V121.33C196.84 121.703 196.911 121.984 197.053 122.175C197.194 122.365 197.402 122.46 197.675 122.46C197.95 122.46 198.146 122.402 198.264 122.285V121.672H197.597V121.132H198.996V122.551ZM201.794 119.445L202.707 122.023L203.615 119.445H204.577V123H203.842V122.028L203.916 120.351L202.956 123H202.453L201.496 120.354L201.569 122.028V123H200.837V119.445H201.794ZM208.137 121.303C208.137 121.653 208.075 121.96 207.951 122.224C207.827 122.487 207.65 122.691 207.419 122.834C207.189 122.977 206.926 123.049 206.628 123.049C206.333 123.049 206.07 122.978 205.839 122.836C205.608 122.695 205.429 122.493 205.302 122.231C205.175 121.967 205.111 121.665 205.109 121.323V121.147C205.109 120.797 205.172 120.489 205.297 120.224C205.424 119.957 205.603 119.753 205.832 119.611C206.063 119.468 206.327 119.396 206.623 119.396C206.919 119.396 207.182 119.468 207.412 119.611C207.643 119.753 207.821 119.957 207.946 120.224C208.073 120.489 208.137 120.796 208.137 121.145V121.303ZM207.395 121.142C207.395 120.769 207.328 120.486 207.194 120.292C207.061 120.099 206.87 120.002 206.623 120.002C206.377 120.002 206.188 120.098 206.054 120.29C205.921 120.48 205.853 120.76 205.852 121.13V121.303C205.852 121.666 205.918 121.948 206.052 122.148C206.185 122.348 206.377 122.448 206.628 122.448C206.874 122.448 207.062 122.352 207.194 122.16C207.326 121.966 207.393 121.685 207.395 121.315V121.142ZM211.135 120.039H210.046V123H209.313V120.039H208.239V119.445H211.135V120.039ZM214.406 121.303C214.406 121.653 214.344 121.96 214.221 122.224C214.097 122.487 213.92 122.691 213.688 122.834C213.459 122.977 213.195 123.049 212.897 123.049C212.603 123.049 212.34 122.978 212.109 122.836C211.878 122.695 211.699 122.493 211.572 122.231C211.445 121.967 211.381 121.665 211.379 121.323V121.147C211.379 120.797 211.442 120.489 211.567 120.224C211.694 119.957 211.872 119.753 212.102 119.611C212.333 119.468 212.596 119.396 212.893 119.396C213.189 119.396 213.452 119.468 213.681 119.611C213.912 119.753 214.09 119.957 214.216 120.224C214.343 120.489 214.406 120.796 214.406 121.145V121.303ZM213.664 121.142C213.664 120.769 213.597 120.486 213.464 120.292C213.33 120.099 213.14 120.002 212.893 120.002C212.647 120.002 212.457 120.098 212.324 120.29C212.19 120.48 212.123 120.76 212.121 121.13V121.303C212.121 121.666 212.188 121.948 212.321 122.148C212.455 122.348 212.647 122.448 212.897 122.448C213.143 122.448 213.332 122.352 213.464 122.16C213.596 121.966 213.662 121.685 213.664 121.315V121.142ZM216.254 121.699H215.671V123H214.938V119.445H216.259C216.679 119.445 217.003 119.539 217.231 119.726C217.459 119.913 217.573 120.178 217.573 120.52C217.573 120.762 217.52 120.965 217.414 121.127C217.31 121.289 217.151 121.417 216.938 121.513L217.707 122.966V123H216.921L216.254 121.699ZM215.671 121.105H216.262C216.446 121.105 216.588 121.059 216.689 120.966C216.79 120.872 216.84 120.743 216.84 120.578C216.84 120.41 216.792 120.279 216.696 120.183C216.602 120.087 216.456 120.039 216.259 120.039H215.671V121.105Z" fill="#F8F8F8"/>
<path d="M177.729 141.254C177.729 141.143 177.689 141.059 177.611 141C177.533 140.94 177.393 140.878 177.189 140.812C176.986 140.746 176.826 140.681 176.707 140.617C176.384 140.443 176.223 140.208 176.223 139.912C176.223 139.758 176.266 139.622 176.352 139.502C176.439 139.381 176.563 139.286 176.725 139.219C176.887 139.151 177.07 139.117 177.271 139.117C177.475 139.117 177.656 139.154 177.814 139.229C177.973 139.301 178.096 139.405 178.184 139.539C178.272 139.673 178.316 139.826 178.316 139.996H177.73C177.73 139.866 177.689 139.765 177.607 139.693C177.525 139.62 177.41 139.584 177.262 139.584C177.118 139.584 177.007 139.615 176.928 139.676C176.848 139.736 176.809 139.815 176.809 139.914C176.809 140.007 176.855 140.084 176.947 140.146C177.041 140.209 177.178 140.268 177.359 140.322C177.693 140.423 177.936 140.547 178.088 140.695C178.24 140.844 178.316 141.029 178.316 141.25C178.316 141.496 178.223 141.689 178.037 141.83C177.851 141.969 177.6 142.039 177.285 142.039C177.066 142.039 176.867 141.999 176.688 141.92C176.508 141.839 176.37 141.729 176.275 141.59C176.182 141.451 176.135 141.289 176.135 141.105H176.723C176.723 141.419 176.91 141.576 177.285 141.576C177.424 141.576 177.533 141.548 177.611 141.492C177.689 141.435 177.729 141.355 177.729 141.254ZM180.93 141.18L181.312 139.156H181.896L181.266 142H180.676L180.213 140.098L179.75 142H179.16L178.529 139.156H179.113L179.498 141.176L179.967 139.156H180.463L180.93 141.18ZM182.838 142H182.252V139.156H182.838V142ZM185.465 139.631H184.594V142H184.008V139.631H183.148V139.156H185.465V139.631ZM187.979 141.053C187.956 141.359 187.843 141.6 187.639 141.775C187.436 141.951 187.167 142.039 186.834 142.039C186.469 142.039 186.182 141.917 185.973 141.672C185.764 141.426 185.66 141.089 185.66 140.66V140.486C185.66 140.213 185.708 139.972 185.805 139.764C185.901 139.555 186.038 139.396 186.217 139.285C186.396 139.173 186.605 139.117 186.842 139.117C187.17 139.117 187.434 139.205 187.635 139.381C187.835 139.557 187.951 139.803 187.982 140.121H187.396C187.382 139.938 187.331 139.805 187.242 139.723C187.155 139.639 187.021 139.598 186.842 139.598C186.646 139.598 186.5 139.668 186.402 139.809C186.306 139.948 186.257 140.165 186.254 140.459V140.674C186.254 140.981 186.3 141.206 186.393 141.348C186.486 141.49 186.633 141.561 186.834 141.561C187.015 141.561 187.15 141.52 187.238 141.438C187.328 141.354 187.38 141.226 187.393 141.053H187.979ZM190.678 142H190.092V140.781H188.949V142H188.363V139.156H188.949V140.309H190.092V139.156H190.678V142Z" fill="#F8F8F8"/>
<path d="M179.729 111.254C179.729 111.143 179.689 111.059 179.611 111C179.533 110.94 179.393 110.878 179.189 110.812C178.986 110.746 178.826 110.681 178.707 110.617C178.384 110.443 178.223 110.208 178.223 109.912C178.223 109.758 178.266 109.622 178.352 109.502C178.439 109.381 178.563 109.286 178.725 109.219C178.887 109.151 179.07 109.117 179.271 109.117C179.475 109.117 179.656 109.154 179.814 109.229C179.973 109.301 180.096 109.405 180.184 109.539C180.272 109.673 180.316 109.826 180.316 109.996H179.73C179.73 109.866 179.689 109.765 179.607 109.693C179.525 109.62 179.41 109.584 179.262 109.584C179.118 109.584 179.007 109.615 178.928 109.676C178.848 109.736 178.809 109.815 178.809 109.914C178.809 110.007 178.855 110.084 178.947 110.146C179.041 110.209 179.178 110.268 179.359 110.322C179.693 110.423 179.936 110.547 180.088 110.695C180.24 110.844 180.316 111.029 180.316 111.25C180.316 111.496 180.223 111.689 180.037 111.83C179.851 111.969 179.6 112.039 179.285 112.039C179.066 112.039 178.867 111.999 178.688 111.92C178.508 111.839 178.37 111.729 178.275 111.59C178.182 111.451 178.135 111.289 178.135 111.105H178.723C178.723 111.419 178.91 111.576 179.285 111.576C179.424 111.576 179.533 111.548 179.611 111.492C179.689 111.435 179.729 111.355 179.729 111.254ZM181.301 111.529H182.545V112H180.715V109.156H181.301V111.529ZM185.094 110.643C185.094 110.923 185.044 111.168 184.945 111.379C184.846 111.59 184.704 111.753 184.52 111.867C184.336 111.982 184.125 112.039 183.887 112.039C183.651 112.039 183.441 111.982 183.256 111.869C183.071 111.756 182.928 111.594 182.826 111.385C182.725 111.174 182.673 110.932 182.672 110.658V110.518C182.672 110.238 182.722 109.992 182.822 109.779C182.924 109.566 183.066 109.402 183.25 109.289C183.435 109.174 183.646 109.117 183.883 109.117C184.12 109.117 184.33 109.174 184.514 109.289C184.699 109.402 184.841 109.566 184.941 109.779C185.043 109.992 185.094 110.237 185.094 110.516V110.643ZM184.5 110.514C184.5 110.215 184.447 109.989 184.34 109.834C184.233 109.679 184.081 109.602 183.883 109.602C183.686 109.602 183.535 109.678 183.428 109.832C183.321 109.984 183.267 110.208 183.266 110.504V110.643C183.266 110.933 183.319 111.158 183.426 111.318C183.533 111.479 183.686 111.559 183.887 111.559C184.083 111.559 184.234 111.482 184.34 111.328C184.445 111.173 184.499 110.948 184.5 110.652V110.514ZM187.734 111.18L188.117 109.156H188.701L188.07 112H187.48L187.018 110.098L186.555 112H185.965L185.334 109.156H185.918L186.303 111.176L186.771 109.156H187.268L187.734 111.18Z" fill="#F8F8F8"/>
<circle cx="173" cy="131" r="3" fill="#C4C4C4"/>
<circle cx="183" cy="131" r="3" fill="#C4C4C4"/>
<circle cx="193" cy="131" r="3" fill="#C4C4C4"/>
<path d="M173.982 237.384H173.42V237.765H174.08V238H173.127V236.578H174.078V236.815H173.42V237.154H173.982V237.384ZM175.055 237.707H174.541L174.443 238H174.132L174.661 236.578H174.933L175.465 238H175.153L175.055 237.707ZM174.62 237.47H174.976L174.797 236.938L174.62 237.47ZM176.335 237.627C176.335 237.572 176.315 237.529 176.276 237.5C176.237 237.47 176.167 237.439 176.065 237.406C175.964 237.373 175.883 237.34 175.824 237.309C175.663 237.221 175.582 237.104 175.582 236.956C175.582 236.879 175.604 236.811 175.646 236.751C175.69 236.69 175.752 236.643 175.833 236.609C175.914 236.576 176.006 236.559 176.106 236.559C176.208 236.559 176.299 236.577 176.378 236.614C176.457 236.651 176.519 236.702 176.562 236.77C176.607 236.837 176.629 236.913 176.629 236.998H176.336C176.336 236.933 176.315 236.882 176.274 236.847C176.233 236.81 176.176 236.792 176.102 236.792C176.03 236.792 175.974 236.807 175.935 236.838C175.895 236.868 175.875 236.908 175.875 236.957C175.875 237.003 175.898 237.042 175.944 237.073C175.991 237.104 176.06 237.134 176.15 237.161C176.317 237.211 176.438 237.273 176.515 237.348C176.591 237.422 176.629 237.514 176.629 237.625C176.629 237.748 176.582 237.845 176.489 237.915C176.396 237.985 176.271 238.02 176.113 238.02C176.004 238.02 175.904 238 175.814 237.96C175.725 237.92 175.656 237.865 175.608 237.795C175.562 237.725 175.538 237.645 175.538 237.553H175.832C175.832 237.71 175.926 237.788 176.113 237.788C176.183 237.788 176.237 237.774 176.276 237.746C176.315 237.717 176.335 237.678 176.335 237.627ZM177.318 237.219L177.614 236.578H177.935L177.468 237.484V238H177.17V237.484L176.703 236.578H177.024L177.318 237.219ZM179.679 237.526C179.668 237.679 179.611 237.8 179.509 237.888C179.407 237.976 179.273 238.02 179.106 238.02C178.924 238.02 178.781 237.958 178.676 237.836C178.572 237.713 178.52 237.544 178.52 237.33V237.243C178.52 237.106 178.544 236.986 178.592 236.882C178.64 236.778 178.709 236.698 178.798 236.643C178.888 236.587 178.992 236.559 179.11 236.559C179.274 236.559 179.407 236.603 179.507 236.69C179.607 236.778 179.665 236.902 179.681 237.061H179.388C179.381 236.969 179.355 236.902 179.311 236.861C179.267 236.82 179.2 236.799 179.11 236.799C179.013 236.799 178.939 236.834 178.891 236.904C178.842 236.974 178.818 237.082 178.816 237.229V237.337C178.816 237.491 178.84 237.603 178.886 237.674C178.933 237.745 179.006 237.78 179.106 237.78C179.197 237.78 179.264 237.76 179.309 237.719C179.354 237.677 179.379 237.613 179.386 237.526H179.679ZM180.164 237.765H180.786V238H179.871V236.578H180.164V237.765ZM181.811 237.384H181.248V237.765H181.908V238H180.955V236.578H181.906V236.815H181.248V237.154H181.811V237.384ZM182.883 237.707H182.369L182.271 238H181.96L182.489 236.578H182.761L183.293 238H182.981L182.883 237.707ZM182.448 237.47H182.804L182.625 236.938L182.448 237.47ZM184.582 238H184.289L183.719 237.064V238H183.426V236.578H183.719L184.29 237.516V236.578H184.582V238ZM185.719 236.578L186.084 237.609L186.447 236.578H186.832V238H186.538V237.611L186.567 236.94L186.184 238H185.982L185.6 236.941L185.629 237.611V238H185.336V236.578H185.719ZM187.399 238H187.106V236.578H187.399V238ZM188.198 237.068L188.465 236.578H188.802L188.388 237.283L188.812 238H188.472L188.198 237.502L187.925 238H187.584L188.009 237.283L187.595 236.578H187.932L188.198 237.068ZM190.566 237.59L190.758 236.578H191.05L190.734 238H190.439L190.208 237.049L189.977 238H189.682L189.366 236.578H189.658L189.851 237.588L190.085 236.578H190.333L190.566 237.59ZM192.064 237.384H191.502V237.765H192.162V238H191.209V236.578H192.16V236.815H191.502V237.154H192.064V237.384ZM192.334 238V236.578H192.832C193.005 236.578 193.135 236.611 193.225 236.678C193.314 236.743 193.358 236.84 193.358 236.968C193.358 237.037 193.34 237.099 193.305 237.152C193.269 237.205 193.219 237.244 193.155 237.269C193.228 237.287 193.285 237.324 193.327 237.379C193.369 237.434 193.391 237.502 193.391 237.582C193.391 237.719 193.347 237.822 193.26 237.893C193.173 237.963 193.048 237.999 192.887 238H192.334ZM192.627 237.381V237.765H192.878C192.947 237.765 193.001 237.748 193.039 237.716C193.078 237.683 193.098 237.637 193.098 237.579C193.098 237.449 193.03 237.383 192.896 237.381H192.627ZM192.627 237.174H192.844C192.992 237.171 193.065 237.112 193.065 236.997C193.065 236.933 193.047 236.886 193.009 236.858C192.972 236.83 192.913 236.815 192.832 236.815H192.627V237.174ZM194.683 236.578H194.976V237.562C194.976 237.653 194.955 237.733 194.915 237.803C194.875 237.872 194.819 237.925 194.746 237.963C194.673 238.001 194.591 238.02 194.499 238.02C194.349 238.02 194.231 237.981 194.147 237.905C194.063 237.828 194.021 237.72 194.021 237.58H194.316C194.316 237.65 194.331 237.701 194.36 237.734C194.39 237.768 194.436 237.784 194.499 237.784C194.555 237.784 194.6 237.765 194.633 237.727C194.666 237.688 194.683 237.633 194.683 237.562V236.578ZM196.008 237.707H195.494L195.396 238H195.085L195.614 236.578H195.886L196.418 238H196.106L196.008 237.707ZM195.573 237.47H195.929L195.75 236.938L195.573 237.47ZM197.077 237.479H196.844V238H196.551V236.578H197.079C197.247 236.578 197.377 236.616 197.468 236.69C197.559 236.765 197.604 236.871 197.604 237.008C197.604 237.105 197.583 237.186 197.541 237.251C197.499 237.315 197.436 237.367 197.351 237.405L197.658 237.986V238H197.344L197.077 237.479ZM196.844 237.242H197.08C197.154 237.242 197.211 237.224 197.251 237.187C197.291 237.149 197.312 237.097 197.312 237.031C197.312 236.964 197.292 236.911 197.254 236.873C197.216 236.835 197.158 236.815 197.079 236.815H196.844V237.242Z" fill="black"/>
<path d="M157.51 249.578L157.875 250.609L158.238 249.578H158.623V251H158.329V250.611L158.358 249.94L157.975 251H157.773L157.391 249.941L157.42 250.611V251H157.127V249.578H157.51ZM159.19 251H158.897V249.578H159.19V251ZM159.989 250.068L160.256 249.578H160.593L160.179 250.283L160.604 251H160.263L159.989 250.502L159.716 251H159.375L159.8 250.283L159.386 249.578H159.723L159.989 250.068ZM161.063 251H160.771V249.578H161.063V251ZM162.492 251H162.199L161.629 250.064V251H161.336V249.578H161.629L162.2 250.516V249.578H162.492V251ZM163.873 250.82C163.82 250.883 163.746 250.933 163.649 250.968C163.553 251.002 163.446 251.02 163.329 251.02C163.206 251.02 163.098 250.993 163.005 250.939C162.912 250.885 162.841 250.807 162.79 250.705C162.74 250.603 162.714 250.483 162.713 250.345V250.248C162.713 250.106 162.737 249.983 162.784 249.88C162.832 249.776 162.901 249.696 162.991 249.642C163.082 249.586 163.188 249.559 163.309 249.559C163.477 249.559 163.609 249.599 163.704 249.68C163.799 249.76 163.855 249.877 163.873 250.03H163.588C163.575 249.949 163.546 249.889 163.501 249.852C163.457 249.814 163.396 249.795 163.317 249.795C163.218 249.795 163.142 249.832 163.09 249.907C163.038 249.982 163.011 250.093 163.011 250.241V250.332C163.011 250.481 163.039 250.594 163.096 250.67C163.152 250.746 163.235 250.784 163.345 250.784C163.455 250.784 163.533 250.761 163.58 250.714V250.469H163.313V250.253H163.873V250.82ZM164.609 251V249.578H165.107C165.28 249.578 165.411 249.611 165.5 249.678C165.589 249.743 165.634 249.84 165.634 249.968C165.634 250.037 165.616 250.099 165.58 250.152C165.544 250.205 165.494 250.244 165.431 250.269C165.504 250.287 165.561 250.324 165.603 250.379C165.645 250.434 165.666 250.502 165.666 250.582C165.666 250.719 165.622 250.822 165.535 250.893C165.448 250.963 165.324 250.999 165.162 251H164.609ZM164.902 250.381V250.765H165.153C165.222 250.765 165.276 250.748 165.314 250.716C165.354 250.683 165.373 250.637 165.373 250.579C165.373 250.449 165.306 250.383 165.171 250.381H164.902ZM164.902 250.174H165.119C165.267 250.171 165.341 250.112 165.341 249.997C165.341 249.933 165.322 249.886 165.284 249.858C165.247 249.83 165.188 249.815 165.107 249.815H164.902V250.174ZM166.963 249.578V250.515C166.963 250.67 166.914 250.793 166.816 250.884C166.719 250.974 166.587 251.02 166.418 251.02C166.252 251.02 166.12 250.976 166.022 250.888C165.925 250.8 165.875 250.679 165.873 250.525V249.578H166.166V250.517C166.166 250.61 166.188 250.678 166.232 250.721C166.277 250.763 166.339 250.784 166.418 250.784C166.583 250.784 166.666 250.698 166.669 250.524V249.578H166.963ZM168.273 249.815H167.838V251H167.545V249.815H167.115V249.578H168.273V249.815ZM169.527 249.815H169.092V251H168.799V249.815H168.369V249.578H169.527V249.815ZM170.836 250.321C170.836 250.461 170.811 250.584 170.762 250.689C170.712 250.795 170.641 250.876 170.549 250.934C170.457 250.991 170.352 251.02 170.232 251.02C170.115 251.02 170.009 250.991 169.917 250.935C169.825 250.878 169.753 250.797 169.702 250.692C169.651 250.587 169.626 250.466 169.625 250.329V250.259C169.625 250.119 169.65 249.996 169.7 249.89C169.751 249.783 169.822 249.701 169.914 249.645C170.007 249.587 170.112 249.559 170.23 249.559C170.349 249.559 170.454 249.587 170.546 249.645C170.638 249.701 170.71 249.783 170.76 249.89C170.811 249.996 170.836 250.118 170.836 250.258V250.321ZM170.539 250.257C170.539 250.108 170.512 249.994 170.459 249.917C170.406 249.84 170.329 249.801 170.23 249.801C170.132 249.801 170.056 249.839 170.003 249.916C169.95 249.992 169.923 250.104 169.922 250.252V250.321C169.922 250.466 169.949 250.579 170.002 250.659C170.055 250.739 170.132 250.779 170.232 250.779C170.331 250.779 170.406 250.741 170.459 250.664C170.512 250.587 170.538 250.474 170.539 250.326V250.257ZM172.205 251H171.912L171.342 250.064V251H171.049V249.578H171.342L171.913 250.516V249.578H172.205V251ZM173.198 250.627C173.198 250.572 173.179 250.529 173.14 250.5C173.101 250.47 173.03 250.439 172.929 250.406C172.827 250.373 172.747 250.34 172.688 250.309C172.526 250.221 172.445 250.104 172.445 249.956C172.445 249.879 172.467 249.811 172.51 249.751C172.553 249.69 172.616 249.643 172.696 249.609C172.778 249.576 172.869 249.559 172.97 249.559C173.071 249.559 173.162 249.577 173.241 249.614C173.321 249.651 173.382 249.702 173.426 249.77C173.47 249.837 173.492 249.913 173.492 249.998H173.199C173.199 249.933 173.179 249.882 173.138 249.847C173.097 249.81 173.039 249.792 172.965 249.792C172.893 249.792 172.838 249.807 172.798 249.838C172.758 249.868 172.738 249.908 172.738 249.957C172.738 250.003 172.761 250.042 172.808 250.073C172.854 250.104 172.923 250.134 173.014 250.161C173.18 250.211 173.302 250.273 173.378 250.348C173.454 250.422 173.492 250.514 173.492 250.625C173.492 250.748 173.446 250.845 173.353 250.915C173.259 250.985 173.134 251.02 172.977 251.02C172.867 251.02 172.768 251 172.678 250.96C172.588 250.92 172.519 250.865 172.472 250.795C172.425 250.725 172.401 250.645 172.401 250.553H172.695C172.695 250.71 172.789 250.788 172.977 250.788C173.046 250.788 173.101 250.774 173.14 250.746C173.179 250.717 173.198 250.678 173.198 250.627ZM175.045 250.419H174.482V251H174.189V249.578H175.115V249.815H174.482V250.183H175.045V250.419ZM176.453 250.321C176.453 250.461 176.428 250.584 176.379 250.689C176.329 250.795 176.258 250.876 176.166 250.934C176.074 250.991 175.969 251.02 175.85 251.02C175.732 251.02 175.627 250.991 175.534 250.935C175.442 250.878 175.37 250.797 175.319 250.692C175.269 250.587 175.243 250.466 175.242 250.329V250.259C175.242 250.119 175.267 249.996 175.317 249.89C175.368 249.783 175.439 249.701 175.531 249.645C175.624 249.587 175.729 249.559 175.848 249.559C175.966 249.559 176.071 249.587 176.163 249.645C176.256 249.701 176.327 249.783 176.377 249.89C176.428 249.996 176.453 250.118 176.453 250.258V250.321ZM176.156 250.257C176.156 250.108 176.13 249.994 176.076 249.917C176.023 249.84 175.947 249.801 175.848 249.801C175.749 249.801 175.674 249.839 175.62 249.916C175.567 249.992 175.54 250.104 175.539 250.252V250.321C175.539 250.466 175.566 250.579 175.619 250.659C175.673 250.739 175.749 250.779 175.85 250.779C175.948 250.779 176.023 250.741 176.076 250.664C176.129 250.587 176.156 250.474 176.156 250.326V250.257ZM177.192 250.479H176.959V251H176.666V249.578H177.194C177.362 249.578 177.492 249.616 177.583 249.69C177.674 249.765 177.72 249.871 177.72 250.008C177.72 250.105 177.699 250.186 177.656 250.251C177.615 250.315 177.551 250.367 177.466 250.405L177.773 250.986V251H177.459L177.192 250.479ZM176.959 250.242H177.195C177.269 250.242 177.326 250.224 177.366 250.187C177.407 250.149 177.427 250.097 177.427 250.031C177.427 249.964 177.408 249.911 177.369 249.873C177.331 249.835 177.273 249.815 177.194 249.815H176.959V250.242ZM179.558 250.526C179.547 250.679 179.49 250.8 179.388 250.888C179.286 250.976 179.152 251.02 178.985 251.02C178.803 251.02 178.66 250.958 178.555 250.836C178.451 250.713 178.398 250.544 178.398 250.33V250.243C178.398 250.106 178.423 249.986 178.471 249.882C178.519 249.778 178.588 249.698 178.677 249.643C178.767 249.587 178.871 249.559 178.989 249.559C179.153 249.559 179.285 249.603 179.386 249.69C179.486 249.778 179.544 249.902 179.56 250.061H179.267C179.259 249.969 179.234 249.902 179.189 249.861C179.146 249.82 179.079 249.799 178.989 249.799C178.892 249.799 178.818 249.834 178.77 249.904C178.721 249.974 178.697 250.082 178.695 250.229V250.337C178.695 250.491 178.718 250.603 178.765 250.674C178.812 250.745 178.885 250.78 178.985 250.78C179.076 250.78 179.143 250.76 179.188 250.719C179.232 250.677 179.258 250.613 179.265 250.526H179.558ZM180.918 250.321C180.918 250.461 180.893 250.584 180.844 250.689C180.794 250.795 180.723 250.876 180.631 250.934C180.539 250.991 180.434 251.02 180.314 251.02C180.197 251.02 180.091 250.991 179.999 250.935C179.907 250.878 179.835 250.797 179.784 250.692C179.733 250.587 179.708 250.466 179.707 250.329V250.259C179.707 250.119 179.732 249.996 179.782 249.89C179.833 249.783 179.904 249.701 179.996 249.645C180.089 249.587 180.194 249.559 180.312 249.559C180.431 249.559 180.536 249.587 180.628 249.645C180.72 249.701 180.792 249.783 180.842 249.89C180.893 249.996 180.918 250.118 180.918 250.258V250.321ZM180.621 250.257C180.621 250.108 180.594 249.994 180.541 249.917C180.488 249.84 180.411 249.801 180.312 249.801C180.214 249.801 180.138 249.839 180.085 249.916C180.032 249.992 180.005 250.104 180.004 250.252V250.321C180.004 250.466 180.031 250.579 180.084 250.659C180.137 250.739 180.214 250.779 180.314 250.779C180.413 250.779 180.488 250.741 180.541 250.664C180.594 250.587 180.62 250.474 180.621 250.326V250.257ZM182.287 251H181.994L181.424 250.064V251H181.131V249.578H181.424L181.995 250.516V249.578H182.287V251ZM183.398 250.419H182.836V251H182.543V249.578H183.469V249.815H182.836V250.183H183.398V250.419ZM184.807 250.321C184.807 250.461 184.782 250.584 184.732 250.689C184.683 250.795 184.612 250.876 184.52 250.934C184.428 250.991 184.322 251.02 184.203 251.02C184.085 251.02 183.98 250.991 183.888 250.935C183.795 250.878 183.724 250.797 183.673 250.692C183.622 250.587 183.596 250.466 183.596 250.329V250.259C183.596 250.119 183.621 249.996 183.671 249.89C183.722 249.783 183.793 249.701 183.885 249.645C183.977 249.587 184.083 249.559 184.201 249.559C184.32 249.559 184.425 249.587 184.517 249.645C184.609 249.701 184.68 249.783 184.73 249.89C184.781 249.996 184.807 250.118 184.807 250.258V250.321ZM184.51 250.257C184.51 250.108 184.483 249.994 184.43 249.917C184.376 249.84 184.3 249.801 184.201 249.801C184.103 249.801 184.027 249.839 183.974 249.916C183.92 249.992 183.893 250.104 183.893 250.252V250.321C183.893 250.466 183.919 250.579 183.973 250.659C184.026 250.739 184.103 250.779 184.203 250.779C184.301 250.779 184.377 250.741 184.43 250.664C184.482 250.587 184.509 250.474 184.51 250.326V250.257ZM185.546 250.479H185.312V251H185.02V249.578H185.548C185.716 249.578 185.845 249.616 185.937 249.69C186.028 249.765 186.073 249.871 186.073 250.008C186.073 250.105 186.052 250.186 186.01 250.251C185.968 250.315 185.905 250.367 185.819 250.405L186.127 250.986V251H185.812L185.546 250.479ZM185.312 250.242H185.549C185.622 250.242 185.679 250.224 185.72 250.187C185.76 250.149 185.78 250.097 185.78 250.031C185.78 249.964 185.761 249.911 185.723 249.873C185.685 249.835 185.627 249.815 185.548 249.815H185.312V250.242ZM187.318 249.815H186.883V251H186.59V249.815H186.16V249.578H187.318V249.815ZM188.172 250.707H187.658L187.561 251H187.249L187.778 249.578H188.05L188.582 251H188.271L188.172 250.707ZM187.737 250.47H188.093L187.914 249.938L187.737 250.47ZM188.715 251V249.578H189.213C189.385 249.578 189.516 249.611 189.605 249.678C189.695 249.743 189.739 249.84 189.739 249.968C189.739 250.037 189.721 250.099 189.686 250.152C189.65 250.205 189.6 250.244 189.536 250.269C189.609 250.287 189.666 250.324 189.708 250.379C189.75 250.434 189.771 250.502 189.771 250.582C189.771 250.719 189.728 250.822 189.641 250.893C189.553 250.963 189.429 250.999 189.268 251H188.715ZM189.008 250.381V250.765H189.259C189.328 250.765 189.382 250.748 189.42 250.716C189.459 250.683 189.479 250.637 189.479 250.579C189.479 250.449 189.411 250.383 189.276 250.381H189.008ZM189.008 250.174H189.225C189.372 250.171 189.446 250.112 189.446 249.997C189.446 249.933 189.427 249.886 189.39 249.858C189.353 249.83 189.294 249.815 189.213 249.815H189.008V250.174ZM190.285 250.765H190.907V251H189.992V249.578H190.285V250.765ZM191.932 250.384H191.369V250.765H192.029V251H191.076V249.578H192.027V249.815H191.369V250.154H191.932V250.384ZM193.555 250.419H192.992V251H192.699V249.578H193.625V249.815H192.992V250.183H193.555V250.419ZM194.088 250.765H194.71V251H193.795V249.578H194.088V250.765ZM195.932 249.578V250.515C195.932 250.67 195.883 250.793 195.785 250.884C195.688 250.974 195.555 251.02 195.387 251.02C195.221 251.02 195.089 250.976 194.991 250.888C194.894 250.8 194.844 250.679 194.842 250.525V249.578H195.135V250.517C195.135 250.61 195.157 250.678 195.201 250.721C195.246 250.763 195.308 250.784 195.387 250.784C195.551 250.784 195.635 250.698 195.638 250.524V249.578H195.932ZM196.483 251H196.19V249.578H196.483V251ZM196.756 251V249.578H197.193C197.318 249.578 197.43 249.606 197.528 249.663C197.627 249.719 197.704 249.799 197.76 249.903C197.815 250.007 197.843 250.125 197.843 250.257V250.322C197.843 250.454 197.815 250.572 197.761 250.675C197.707 250.778 197.63 250.857 197.531 250.914C197.432 250.971 197.321 250.999 197.196 251H196.756ZM197.049 249.815V250.765H197.19C197.305 250.765 197.393 250.727 197.453 250.652C197.514 250.577 197.545 250.47 197.546 250.331V250.256C197.546 250.111 197.516 250.002 197.456 249.928C197.396 249.853 197.309 249.815 197.193 249.815H197.049ZM198.938 249.578L199.303 250.609L199.666 249.578H200.051V251H199.757V250.611L199.786 249.94L199.402 251H199.201L198.818 249.941L198.848 250.611V251H198.555V249.578H198.938ZM201.475 250.321C201.475 250.461 201.45 250.584 201.4 250.689C201.351 250.795 201.28 250.876 201.188 250.934C201.096 250.991 200.99 251.02 200.871 251.02C200.753 251.02 200.648 250.991 200.556 250.935C200.463 250.878 200.392 250.797 200.341 250.692C200.29 250.587 200.264 250.466 200.264 250.329V250.259C200.264 250.119 200.289 249.996 200.339 249.89C200.39 249.783 200.461 249.701 200.553 249.645C200.645 249.587 200.751 249.559 200.869 249.559C200.988 249.559 201.093 249.587 201.185 249.645C201.277 249.701 201.348 249.783 201.398 249.89C201.449 249.996 201.475 250.118 201.475 250.258V250.321ZM201.178 250.257C201.178 250.108 201.151 249.994 201.098 249.917C201.044 249.84 200.968 249.801 200.869 249.801C200.771 249.801 200.695 249.839 200.642 249.916C200.588 249.992 200.561 250.104 200.561 250.252V250.321C200.561 250.466 200.587 250.579 200.641 250.659C200.694 250.739 200.771 250.779 200.871 250.779C200.969 250.779 201.045 250.741 201.098 250.664C201.15 250.587 201.177 250.474 201.178 250.326V250.257ZM202.191 250.647L202.514 249.578H202.84L202.345 251H202.039L201.546 249.578H201.871L202.191 250.647ZM203.83 250.384H203.268V250.765H203.928V251H202.975V249.578H203.926V249.815H203.268V250.154H203.83V250.384ZM204.482 249.578L204.848 250.609L205.211 249.578H205.596V251H205.302V250.611L205.331 249.94L204.947 251H204.746L204.363 249.941L204.393 250.611V251H204.1V249.578H204.482ZM206.707 250.384H206.145V250.765H206.805V251H205.852V249.578H206.803V249.815H206.145V250.154H206.707V250.384ZM208.133 251H207.84L207.27 250.064V251H206.977V249.578H207.27L207.841 250.516V249.578H208.133V251ZM209.43 249.815H208.994V251H208.701V249.815H208.271V249.578H209.43V249.815Z" fill="black"/>
<path d="M157.284 258H156.991V257.391H156.42V258H156.127V256.578H156.42V257.154H156.991V256.578H157.284V258ZM158.361 257.707H157.848L157.75 258H157.438L157.968 256.578H158.239L158.771 258H158.46L158.361 257.707ZM157.927 257.47H158.282L158.104 256.938L157.927 257.47ZM160.061 258H159.768L159.197 257.064V258H158.904V256.578H159.197L159.769 257.516V256.578H160.061V258ZM160.316 258V256.578H160.754C160.879 256.578 160.991 256.606 161.089 256.663C161.188 256.719 161.265 256.799 161.32 256.903C161.376 257.007 161.403 257.125 161.403 257.257V257.322C161.403 257.454 161.376 257.572 161.321 257.675C161.267 257.778 161.191 257.857 161.092 257.914C160.993 257.971 160.881 257.999 160.757 258H160.316ZM160.609 256.815V257.765H160.751C160.866 257.765 160.953 257.727 161.014 257.652C161.074 257.577 161.105 257.47 161.106 257.331V257.256C161.106 257.111 161.076 257.002 161.017 256.928C160.957 256.853 160.869 256.815 160.754 256.815H160.609ZM161.91 257.765H162.532V258H161.617V256.578H161.91V257.765ZM163.557 257.384H162.994V257.765H163.654V258H162.701V256.578H163.652V256.815H162.994V257.154H163.557V257.384ZM165.18 257.419H164.617V258H164.324V256.578H165.25V256.815H164.617V257.183H165.18V257.419ZM165.946 257.479H165.713V258H165.42V256.578H165.948C166.116 256.578 166.246 256.616 166.337 256.69C166.428 256.765 166.474 256.871 166.474 257.008C166.474 257.105 166.452 257.186 166.41 257.251C166.368 257.315 166.305 257.367 166.22 257.405L166.527 257.986V258H166.213L165.946 257.479ZM165.713 257.242H165.949C166.023 257.242 166.08 257.224 166.12 257.187C166.16 257.149 166.181 257.097 166.181 257.031C166.181 256.964 166.161 256.911 166.123 256.873C166.085 256.835 166.027 256.815 165.948 256.815H165.713V257.242ZM167.553 257.384H166.99V257.765H167.65V258H166.697V256.578H167.648V256.815H166.99V257.154H167.553V257.384ZM168.678 257.384H168.115V257.765H168.775V258H167.822V256.578H168.773V256.815H168.115V257.154H168.678V257.384ZM169.445 258V256.578H169.883C170.008 256.578 170.119 256.606 170.218 256.663C170.317 256.719 170.394 256.799 170.449 256.903C170.505 257.007 170.532 257.125 170.532 257.257V257.322C170.532 257.454 170.505 257.572 170.45 257.675C170.396 257.778 170.32 257.857 170.221 257.914C170.122 257.971 170.01 257.999 169.886 258H169.445ZM169.738 256.815V257.765H169.88C169.994 257.765 170.082 257.727 170.143 257.652C170.203 257.577 170.234 257.47 170.235 257.331V257.256C170.235 257.111 170.205 257.002 170.146 256.928C170.086 256.853 169.998 256.815 169.883 256.815H169.738ZM171.602 257.384H171.039V257.765H171.699V258H170.746V256.578H171.697V256.815H171.039V257.154H171.602V257.384ZM172.608 257.627C172.608 257.572 172.589 257.529 172.55 257.5C172.511 257.47 172.44 257.439 172.339 257.406C172.237 257.373 172.157 257.34 172.098 257.309C171.936 257.221 171.855 257.104 171.855 256.956C171.855 256.879 171.877 256.811 171.92 256.751C171.964 256.69 172.026 256.643 172.106 256.609C172.188 256.576 172.279 256.559 172.38 256.559C172.481 256.559 172.572 256.577 172.651 256.614C172.731 256.651 172.792 256.702 172.836 256.77C172.88 256.837 172.902 256.913 172.902 256.998H172.609C172.609 256.933 172.589 256.882 172.548 256.847C172.507 256.81 172.449 256.792 172.375 256.792C172.303 256.792 172.248 256.807 172.208 256.838C172.168 256.868 172.148 256.908 172.148 256.957C172.148 257.003 172.172 257.042 172.218 257.073C172.265 257.104 172.333 257.134 172.424 257.161C172.59 257.211 172.712 257.273 172.788 257.348C172.864 257.422 172.902 257.514 172.902 257.625C172.902 257.748 172.856 257.845 172.763 257.915C172.67 257.985 172.544 258.02 172.387 258.02C172.277 258.02 172.178 258 172.088 257.96C171.998 257.92 171.929 257.865 171.882 257.795C171.835 257.725 171.812 257.645 171.812 257.553H172.105C172.105 257.71 172.199 257.788 172.387 257.788C172.456 257.788 172.511 257.774 172.55 257.746C172.589 257.717 172.608 257.678 172.608 257.627ZM173.413 258H173.12V256.578H173.413V258ZM174.811 257.82C174.758 257.883 174.683 257.933 174.587 257.968C174.491 258.002 174.384 258.02 174.267 258.02C174.144 258.02 174.035 257.993 173.942 257.939C173.85 257.885 173.778 257.807 173.728 257.705C173.677 257.603 173.652 257.483 173.65 257.345V257.248C173.65 257.106 173.674 256.983 173.722 256.88C173.77 256.776 173.839 256.696 173.929 256.642C174.019 256.586 174.125 256.559 174.246 256.559C174.415 256.559 174.547 256.599 174.642 256.68C174.737 256.76 174.793 256.877 174.811 257.03H174.525C174.512 256.949 174.483 256.889 174.438 256.852C174.394 256.814 174.333 256.795 174.255 256.795C174.155 256.795 174.079 256.832 174.027 256.907C173.975 256.982 173.949 257.093 173.948 257.241V257.332C173.948 257.481 173.977 257.594 174.033 257.67C174.09 257.746 174.173 257.784 174.282 257.784C174.392 257.784 174.471 257.761 174.518 257.714V257.469H174.251V257.253H174.811V257.82ZM176.205 258H175.912L175.342 257.064V258H175.049V256.578H175.342L175.913 257.516V256.578H176.205V258ZM177.814 257.419H177.252V258H176.959V256.578H177.885V256.815H177.252V257.183H177.814V257.419ZM179.223 257.321C179.223 257.461 179.198 257.584 179.148 257.689C179.099 257.795 179.028 257.876 178.936 257.934C178.844 257.991 178.738 258.02 178.619 258.02C178.501 258.02 178.396 257.991 178.304 257.935C178.211 257.878 178.14 257.797 178.089 257.692C178.038 257.587 178.012 257.466 178.012 257.329V257.259C178.012 257.119 178.037 256.996 178.087 256.89C178.138 256.783 178.209 256.701 178.301 256.645C178.393 256.587 178.499 256.559 178.617 256.559C178.736 256.559 178.841 256.587 178.933 256.645C179.025 256.701 179.096 256.783 179.146 256.89C179.197 256.996 179.223 257.118 179.223 257.258V257.321ZM178.926 257.257C178.926 257.108 178.899 256.994 178.846 256.917C178.792 256.84 178.716 256.801 178.617 256.801C178.519 256.801 178.443 256.839 178.39 256.916C178.336 256.992 178.309 257.104 178.309 257.252V257.321C178.309 257.466 178.335 257.579 178.389 257.659C178.442 257.739 178.519 257.779 178.619 257.779C178.717 257.779 178.793 257.741 178.846 257.664C178.898 257.587 178.925 257.474 178.926 257.326V257.257ZM179.962 257.479H179.729V258H179.436V256.578H179.964C180.132 256.578 180.261 256.616 180.353 256.69C180.444 256.765 180.489 256.871 180.489 257.008C180.489 257.105 180.468 257.186 180.426 257.251C180.384 257.315 180.321 257.367 180.235 257.405L180.543 257.986V258H180.229L179.962 257.479ZM179.729 257.242H179.965C180.038 257.242 180.095 257.224 180.136 257.187C180.176 257.149 180.196 257.097 180.196 257.031C180.196 256.964 180.177 256.911 180.139 256.873C180.101 256.835 180.043 256.815 179.964 256.815H179.729V257.242ZM181.594 256.578L181.959 257.609L182.322 256.578H182.707V258H182.413V257.611L182.442 256.94L182.059 258H181.857L181.475 256.941L181.504 257.611V258H181.211V256.578H181.594ZM184.131 257.321C184.131 257.461 184.106 257.584 184.057 257.689C184.007 257.795 183.936 257.876 183.844 257.934C183.752 257.991 183.646 258.02 183.527 258.02C183.41 258.02 183.304 257.991 183.212 257.935C183.119 257.878 183.048 257.797 182.997 257.692C182.946 257.587 182.921 257.466 182.92 257.329V257.259C182.92 257.119 182.945 256.996 182.995 256.89C183.046 256.783 183.117 256.701 183.209 256.645C183.301 256.587 183.407 256.559 183.525 256.559C183.644 256.559 183.749 256.587 183.841 256.645C183.933 256.701 184.005 256.783 184.055 256.89C184.105 256.996 184.131 257.118 184.131 257.258V257.321ZM183.834 257.257C183.834 257.108 183.807 256.994 183.754 256.917C183.701 256.84 183.624 256.801 183.525 256.801C183.427 256.801 183.351 256.839 183.298 256.916C183.244 256.992 183.217 257.104 183.217 257.252V257.321C183.217 257.466 183.243 257.579 183.297 257.659C183.35 257.739 183.427 257.779 183.527 257.779C183.626 257.779 183.701 257.741 183.754 257.664C183.807 257.587 183.833 257.474 183.834 257.326V257.257ZM184.87 257.479H184.637V258H184.344V256.578H184.872C185.04 256.578 185.17 256.616 185.261 256.69C185.352 256.765 185.397 256.871 185.397 257.008C185.397 257.105 185.376 257.186 185.334 257.251C185.292 257.315 185.229 257.367 185.144 257.405L185.451 257.986V258H185.137L184.87 257.479ZM184.637 257.242H184.873C184.947 257.242 185.004 257.224 185.044 257.187C185.084 257.149 185.104 257.097 185.104 257.031C185.104 256.964 185.085 256.911 185.047 256.873C185.009 256.835 184.951 256.815 184.872 256.815H184.637V257.242ZM186.477 257.384H185.914V257.765H186.574V258H185.621V256.578H186.572V256.815H185.914V257.154H186.477V257.384ZM188.36 257.526C188.349 257.679 188.293 257.8 188.19 257.888C188.089 257.976 187.955 258.02 187.788 258.02C187.606 258.02 187.462 257.958 187.357 257.836C187.253 257.713 187.201 257.544 187.201 257.33V257.243C187.201 257.106 187.225 256.986 187.273 256.882C187.322 256.778 187.39 256.698 187.479 256.643C187.569 256.587 187.674 256.559 187.792 256.559C187.956 256.559 188.088 256.603 188.188 256.69C188.289 256.778 188.347 256.902 188.362 257.061H188.069C188.062 256.969 188.036 256.902 187.992 256.861C187.949 256.82 187.882 256.799 187.792 256.799C187.694 256.799 187.621 256.834 187.572 256.904C187.524 256.974 187.499 257.082 187.498 257.229V257.337C187.498 257.491 187.521 257.603 187.567 257.674C187.614 257.745 187.688 257.78 187.788 257.78C187.879 257.78 187.946 257.76 187.99 257.719C188.035 257.677 188.061 257.613 188.067 257.526H188.36ZM189.721 257.321C189.721 257.461 189.696 257.584 189.646 257.689C189.597 257.795 189.526 257.876 189.434 257.934C189.342 257.991 189.236 258.02 189.117 258.02C188.999 258.02 188.894 257.991 188.802 257.935C188.709 257.878 188.638 257.797 188.587 257.692C188.536 257.587 188.51 257.466 188.51 257.329V257.259C188.51 257.119 188.535 256.996 188.585 256.89C188.636 256.783 188.707 256.701 188.799 256.645C188.891 256.587 188.997 256.559 189.115 256.559C189.234 256.559 189.339 256.587 189.431 256.645C189.523 256.701 189.594 256.783 189.645 256.89C189.695 256.996 189.721 257.118 189.721 257.258V257.321ZM189.424 257.257C189.424 257.108 189.397 256.994 189.344 256.917C189.29 256.84 189.214 256.801 189.115 256.801C189.017 256.801 188.941 256.839 188.888 256.916C188.834 256.992 188.807 257.104 188.807 257.252V257.321C188.807 257.466 188.833 257.579 188.887 257.659C188.94 257.739 189.017 257.779 189.117 257.779C189.215 257.779 189.291 257.741 189.344 257.664C189.396 257.587 189.423 257.474 189.424 257.326V257.257ZM191.09 258H190.797L190.227 257.064V258H189.934V256.578H190.227L190.798 257.516V256.578H191.09V258ZM192.201 257.419H191.639V258H191.346V256.578H192.271V256.815H191.639V257.183H192.201V257.419ZM193.609 257.321C193.609 257.461 193.585 257.584 193.535 257.689C193.486 257.795 193.415 257.876 193.322 257.934C193.23 257.991 193.125 258.02 193.006 258.02C192.888 258.02 192.783 257.991 192.69 257.935C192.598 257.878 192.526 257.797 192.476 257.692C192.425 257.587 192.399 257.466 192.398 257.329V257.259C192.398 257.119 192.424 256.996 192.474 256.89C192.524 256.783 192.596 256.701 192.688 256.645C192.78 256.587 192.885 256.559 193.004 256.559C193.122 256.559 193.228 256.587 193.319 256.645C193.412 256.701 193.483 256.783 193.533 256.89C193.584 256.996 193.609 257.118 193.609 257.258V257.321ZM193.312 257.257C193.312 257.108 193.286 256.994 193.232 256.917C193.179 256.84 193.103 256.801 193.004 256.801C192.906 256.801 192.83 256.839 192.776 256.916C192.723 256.992 192.696 257.104 192.695 257.252V257.321C192.695 257.466 192.722 257.579 192.775 257.659C192.829 257.739 192.906 257.779 193.006 257.779C193.104 257.779 193.18 257.741 193.232 257.664C193.285 257.587 193.312 257.474 193.312 257.326V257.257ZM194.349 257.479H194.115V258H193.822V256.578H194.351C194.519 256.578 194.648 256.616 194.739 256.69C194.83 256.765 194.876 256.871 194.876 257.008C194.876 257.105 194.855 257.186 194.812 257.251C194.771 257.315 194.707 257.367 194.622 257.405L194.93 257.986V258H194.615L194.349 257.479ZM194.115 257.242H194.352C194.425 257.242 194.482 257.224 194.522 257.187C194.563 257.149 194.583 257.097 194.583 257.031C194.583 256.964 194.564 256.911 194.525 256.873C194.488 256.835 194.429 256.815 194.351 256.815H194.115V257.242ZM196.121 256.815H195.686V258H195.393V256.815H194.963V256.578H196.121V256.815ZM196.975 257.707H196.461L196.363 258H196.052L196.581 256.578H196.853L197.385 258H197.073L196.975 257.707ZM196.54 257.47H196.896L196.717 256.938L196.54 257.47ZM197.518 258V256.578H198.016C198.188 256.578 198.319 256.611 198.408 256.678C198.497 256.743 198.542 256.84 198.542 256.968C198.542 257.037 198.524 257.099 198.488 257.152C198.452 257.205 198.403 257.244 198.339 257.269C198.412 257.287 198.469 257.324 198.511 257.379C198.553 257.434 198.574 257.502 198.574 257.582C198.574 257.719 198.531 257.822 198.443 257.893C198.356 257.963 198.232 257.999 198.07 258H197.518ZM197.811 257.381V257.765H198.062C198.131 257.765 198.184 257.748 198.223 257.716C198.262 257.683 198.281 257.637 198.281 257.579C198.281 257.449 198.214 257.383 198.079 257.381H197.811ZM197.811 257.174H198.027C198.175 257.171 198.249 257.112 198.249 256.997C198.249 256.933 198.23 256.886 198.192 256.858C198.155 256.83 198.096 256.815 198.016 256.815H197.811V257.174ZM199.088 257.765H199.71V258H198.795V256.578H199.088V257.765ZM200.734 257.384H200.172V257.765H200.832V258H199.879V256.578H200.83V256.815H200.172V257.154H200.734V257.384ZM202.618 257.526C202.607 257.679 202.55 257.8 202.448 257.888C202.347 257.976 202.213 258.02 202.046 258.02C201.864 258.02 201.72 257.958 201.615 257.836C201.511 257.713 201.459 257.544 201.459 257.33V257.243C201.459 257.106 201.483 256.986 201.531 256.882C201.579 256.778 201.648 256.698 201.737 256.643C201.827 256.587 201.931 256.559 202.05 256.559C202.214 256.559 202.346 256.603 202.446 256.69C202.547 256.778 202.604 256.902 202.62 257.061H202.327C202.32 256.969 202.294 256.902 202.25 256.861C202.206 256.82 202.14 256.799 202.05 256.799C201.952 256.799 201.879 256.834 201.83 256.904C201.782 256.974 201.757 257.082 201.756 257.229V257.337C201.756 257.491 201.779 257.603 201.825 257.674C201.872 257.745 201.946 257.78 202.046 257.78C202.136 257.78 202.204 257.76 202.248 257.719C202.293 257.677 202.319 257.613 202.325 257.526H202.618ZM203.104 257.765H203.726V258H202.811V256.578H203.104V257.765ZM204.75 257.384H204.188V257.765H204.848V258H203.895V256.578H204.846V256.815H204.188V257.154H204.75V257.384ZM205.822 257.707H205.309L205.211 258H204.899L205.429 256.578H205.7L206.232 258H205.921L205.822 257.707ZM205.388 257.47H205.743L205.564 256.938L205.388 257.47ZM207.521 258H207.229L206.658 257.064V258H206.365V256.578H206.658L207.229 257.516V256.578H207.521V258ZM208.934 258H208.641L208.07 257.064V258H207.777V256.578H208.07L208.642 257.516V256.578H208.934V258ZM210.314 257.82C210.262 257.883 210.187 257.933 210.091 257.968C209.994 258.002 209.888 258.02 209.771 258.02C209.647 258.02 209.539 257.993 209.446 257.939C209.354 257.885 209.282 257.807 209.231 257.705C209.181 257.603 209.156 257.483 209.154 257.345V257.248C209.154 257.106 209.178 256.983 209.226 256.88C209.274 256.776 209.343 256.696 209.433 256.642C209.523 256.586 209.629 256.559 209.75 256.559C209.919 256.559 210.05 256.599 210.146 256.68C210.241 256.76 210.297 256.877 210.314 257.03H210.029C210.016 256.949 209.987 256.889 209.942 256.852C209.898 256.814 209.837 256.795 209.759 256.795C209.659 256.795 209.583 256.832 209.531 256.907C209.479 256.982 209.453 257.093 209.452 257.241V257.332C209.452 257.481 209.48 257.594 209.537 257.67C209.594 257.746 209.677 257.784 209.786 257.784C209.896 257.784 209.975 257.761 210.021 257.714V257.469H209.755V257.253H210.314V257.82Z" fill="#A4A4A4"/>
<path d="M152.234 93.5898L152.426 92.5781H152.718L152.402 94H152.107L151.876 93.0488L151.645 94H151.35L151.034 92.5781H151.326L151.519 93.5879L151.753 92.5781H152.001L152.234 93.5898ZM153.732 93.3838H153.17V93.7646H153.83V94H152.877V92.5781H153.828V92.8154H153.17V93.1543H153.732V93.3838ZM154.313 94H154.021V92.5781H154.313V94ZM155.711 93.8203C155.658 93.8835 155.584 93.9326 155.487 93.9678C155.391 94.0023 155.284 94.0195 155.167 94.0195C155.044 94.0195 154.936 93.9928 154.843 93.9395C154.75 93.8854 154.679 93.8073 154.628 93.7051C154.578 93.6029 154.552 93.4827 154.551 93.3447V93.248C154.551 93.1061 154.575 92.9834 154.622 92.8799C154.67 92.7757 154.739 92.6963 154.829 92.6416C154.92 92.5863 155.025 92.5586 155.146 92.5586C155.315 92.5586 155.447 92.599 155.542 92.6797C155.637 92.7598 155.693 92.8766 155.711 93.0303H155.426C155.413 92.9489 155.384 92.8893 155.339 92.8516C155.295 92.8138 155.233 92.7949 155.155 92.7949C155.056 92.7949 154.98 92.8324 154.928 92.9072C154.876 92.9821 154.849 93.0934 154.849 93.2412V93.332C154.849 93.4811 154.877 93.5938 154.934 93.6699C154.99 93.7461 155.073 93.7842 155.183 93.7842C155.293 93.7842 155.371 93.7607 155.418 93.7139V93.4688H155.151V93.2529H155.711V93.8203ZM157.106 94H156.813V93.3906H156.242V94H155.949V92.5781H156.242V93.1543H156.813V92.5781H157.106V94ZM158.404 92.8154H157.969V94H157.676V92.8154H157.246V92.5781H158.404V92.8154ZM160.18 93.3213C160.18 93.4613 160.155 93.584 160.105 93.6895C160.056 93.7949 159.985 93.8763 159.893 93.9336C159.801 93.9909 159.695 94.0195 159.576 94.0195C159.458 94.0195 159.353 93.9912 159.261 93.9346C159.168 93.8779 159.097 93.7972 159.046 93.6924C158.995 93.5869 158.969 93.4658 158.969 93.3291V93.2588C158.969 93.1188 158.994 92.9958 159.044 92.8896C159.095 92.7829 159.166 92.7012 159.258 92.6445C159.35 92.5872 159.456 92.5586 159.574 92.5586C159.693 92.5586 159.798 92.5872 159.89 92.6445C159.982 92.7012 160.053 92.7829 160.104 92.8896C160.154 92.9958 160.18 93.1185 160.18 93.2578V93.3213ZM159.883 93.2568C159.883 93.1077 159.856 92.9945 159.803 92.917C159.749 92.8395 159.673 92.8008 159.574 92.8008C159.476 92.8008 159.4 92.8392 159.347 92.916C159.293 92.9922 159.266 93.1042 159.266 93.252V93.3213C159.266 93.4665 159.292 93.5791 159.346 93.6592C159.399 93.7393 159.476 93.7793 159.576 93.7793C159.674 93.7793 159.75 93.7409 159.803 93.6641C159.855 93.5866 159.882 93.474 159.883 93.3262V93.2568ZM161.248 93.4189H160.686V94H160.393V92.5781H161.318V92.8154H160.686V93.1826H161.248V93.4189ZM162.369 92.5781L162.734 93.6094L163.098 92.5781H163.482V94H163.188V93.6113L163.218 92.9404L162.834 94H162.633L162.25 92.9414L162.279 93.6113V94H161.986V92.5781H162.369ZM164.906 93.3213C164.906 93.4613 164.882 93.584 164.832 93.6895C164.783 93.7949 164.712 93.8763 164.619 93.9336C164.527 93.9909 164.422 94.0195 164.303 94.0195C164.185 94.0195 164.08 93.9912 163.987 93.9346C163.895 93.8779 163.823 93.7972 163.772 93.6924C163.722 93.5869 163.696 93.4658 163.695 93.3291V93.2588C163.695 93.1188 163.72 92.9958 163.771 92.8896C163.821 92.7829 163.893 92.7012 163.984 92.6445C164.077 92.5872 164.182 92.5586 164.301 92.5586C164.419 92.5586 164.524 92.5872 164.616 92.6445C164.709 92.7012 164.78 92.7829 164.83 92.8896C164.881 92.9958 164.906 93.1185 164.906 93.2578V93.3213ZM164.609 93.2568C164.609 93.1077 164.583 92.9945 164.529 92.917C164.476 92.8395 164.4 92.8008 164.301 92.8008C164.202 92.8008 164.127 92.8392 164.073 92.916C164.02 92.9922 163.993 93.1042 163.992 93.252V93.3213C163.992 93.4665 164.019 93.5791 164.072 93.6592C164.126 93.7393 164.202 93.7793 164.303 93.7793C164.401 93.7793 164.477 93.7409 164.529 93.6641C164.582 93.5866 164.609 93.474 164.609 93.3262V93.2568ZM166.105 92.8154H165.67V94H165.377V92.8154H164.947V92.5781H166.105V92.8154ZM167.414 93.3213C167.414 93.4613 167.389 93.584 167.34 93.6895C167.29 93.7949 167.219 93.8763 167.127 93.9336C167.035 93.9909 166.93 94.0195 166.811 94.0195C166.693 94.0195 166.588 93.9912 166.495 93.9346C166.403 93.8779 166.331 93.7972 166.28 93.6924C166.229 93.5869 166.204 93.4658 166.203 93.3291V93.2588C166.203 93.1188 166.228 92.9958 166.278 92.8896C166.329 92.7829 166.4 92.7012 166.492 92.6445C166.585 92.5872 166.69 92.5586 166.809 92.5586C166.927 92.5586 167.032 92.5872 167.124 92.6445C167.216 92.7012 167.288 92.7829 167.338 92.8896C167.389 92.9958 167.414 93.1185 167.414 93.2578V93.3213ZM167.117 93.2568C167.117 93.1077 167.09 92.9945 167.037 92.917C166.984 92.8395 166.908 92.8008 166.809 92.8008C166.71 92.8008 166.634 92.8392 166.581 92.916C166.528 92.9922 166.501 93.1042 166.5 93.252V93.3213C166.5 93.4665 166.527 93.5791 166.58 93.6592C166.633 93.7393 166.71 93.7793 166.811 93.7793C166.909 93.7793 166.984 93.7409 167.037 93.6641C167.09 93.5866 167.117 93.474 167.117 93.3262V93.2568ZM168.153 93.4795H167.92V94H167.627V92.5781H168.155C168.323 92.5781 168.453 92.6156 168.544 92.6904C168.635 92.7653 168.681 92.8711 168.681 93.0078C168.681 93.1048 168.66 93.1859 168.617 93.251C168.576 93.3154 168.512 93.3669 168.427 93.4053L168.734 93.9863V94H168.42L168.153 93.4795ZM167.92 93.2422H168.156C168.23 93.2422 168.287 93.2236 168.327 93.1865C168.368 93.1488 168.388 93.097 168.388 93.0312C168.388 92.9642 168.368 92.9115 168.33 92.873C168.292 92.8346 168.234 92.8154 168.155 92.8154H167.92V93.2422ZM170.414 92.8154H169.979V94H169.686V92.8154H169.256V92.5781H170.414V92.8154ZM171.739 94H171.446V93.3906H170.875V94H170.582V92.5781H170.875V93.1543H171.446V92.5781H171.739V94ZM172.852 93.3838H172.289V93.7646H172.949V94H171.996V92.5781H172.947V92.8154H172.289V93.1543H172.852V93.3838ZM174.631 92.8154H174.195V94H173.902V92.8154H173.473V92.5781H174.631V92.8154ZM175.939 93.3213C175.939 93.4613 175.915 93.584 175.865 93.6895C175.816 93.7949 175.745 93.8763 175.652 93.9336C175.561 93.9909 175.455 94.0195 175.336 94.0195C175.218 94.0195 175.113 93.9912 175.021 93.9346C174.928 93.8779 174.856 93.7972 174.806 93.6924C174.755 93.5869 174.729 93.4658 174.729 93.3291V93.2588C174.729 93.1188 174.754 92.9958 174.804 92.8896C174.854 92.7829 174.926 92.7012 175.018 92.6445C175.11 92.5872 175.215 92.5586 175.334 92.5586C175.452 92.5586 175.558 92.5872 175.649 92.6445C175.742 92.7012 175.813 92.7829 175.863 92.8896C175.914 92.9958 175.939 93.1185 175.939 93.2578V93.3213ZM175.643 93.2568C175.643 93.1077 175.616 92.9945 175.562 92.917C175.509 92.8395 175.433 92.8008 175.334 92.8008C175.236 92.8008 175.16 92.8392 175.106 92.916C175.053 92.9922 175.026 93.1042 175.025 93.252V93.3213C175.025 93.4665 175.052 93.5791 175.105 93.6592C175.159 93.7393 175.236 93.7793 175.336 93.7793C175.434 93.7793 175.51 93.7409 175.562 93.6641C175.615 93.5866 175.642 93.474 175.643 93.3262V93.2568ZM176.445 93.499V94H176.152V92.5781H176.707C176.814 92.5781 176.908 92.5977 176.988 92.6367C177.07 92.6758 177.132 92.7314 177.176 92.8037C177.219 92.8753 177.241 92.957 177.241 93.0488C177.241 93.1882 177.193 93.2982 177.098 93.3789C177.003 93.459 176.871 93.499 176.702 93.499H176.445ZM176.445 93.2617H176.707C176.785 93.2617 176.843 93.2435 176.884 93.207C176.925 93.1706 176.945 93.1185 176.945 93.0508C176.945 92.9811 176.925 92.9248 176.884 92.8818C176.843 92.8389 176.786 92.8167 176.714 92.8154H176.445V93.2617ZM179.109 93.3213C179.109 93.4613 179.085 93.584 179.035 93.6895C178.986 93.7949 178.915 93.8763 178.822 93.9336C178.73 93.9909 178.625 94.0195 178.506 94.0195C178.388 94.0195 178.283 93.9912 178.19 93.9346C178.098 93.8779 178.026 93.7972 177.976 93.6924C177.925 93.5869 177.899 93.4658 177.898 93.3291V93.2588C177.898 93.1188 177.924 92.9958 177.974 92.8896C178.024 92.7829 178.096 92.7012 178.188 92.6445C178.28 92.5872 178.385 92.5586 178.504 92.5586C178.622 92.5586 178.728 92.5872 178.819 92.6445C178.912 92.7012 178.983 92.7829 179.033 92.8896C179.084 92.9958 179.109 93.1185 179.109 93.2578V93.3213ZM178.812 93.2568C178.812 93.1077 178.786 92.9945 178.732 92.917C178.679 92.8395 178.603 92.8008 178.504 92.8008C178.406 92.8008 178.33 92.8392 178.276 92.916C178.223 92.9922 178.196 93.1042 178.195 93.252V93.3213C178.195 93.4665 178.222 93.5791 178.275 93.6592C178.329 93.7393 178.406 93.7793 178.506 93.7793C178.604 93.7793 178.68 93.7409 178.732 93.6641C178.785 93.5866 178.812 93.474 178.812 93.3262V93.2568ZM180.178 93.4189H179.615V94H179.322V92.5781H180.248V92.8154H179.615V93.1826H180.178V93.4189ZM181.928 92.8154H181.492V94H181.199V92.8154H180.77V92.5781H181.928V92.8154ZM183.253 94H182.96V93.3906H182.389V94H182.096V92.5781H182.389V93.1543H182.96V92.5781H183.253V94ZM184.365 93.3838H183.803V93.7646H184.463V94H183.51V92.5781H184.461V92.8154H183.803V93.1543H184.365V93.3838ZM185.516 92.5781L185.881 93.6094L186.244 92.5781H186.629V94H186.335V93.6113L186.364 92.9404L185.98 94H185.779L185.396 92.9414L185.426 93.6113V94H185.133V92.5781H185.516ZM188.053 93.3213C188.053 93.4613 188.028 93.584 187.979 93.6895C187.929 93.7949 187.858 93.8763 187.766 93.9336C187.674 93.9909 187.568 94.0195 187.449 94.0195C187.331 94.0195 187.226 93.9912 187.134 93.9346C187.041 93.8779 186.97 93.7972 186.919 93.6924C186.868 93.5869 186.842 93.4658 186.842 93.3291V93.2588C186.842 93.1188 186.867 92.9958 186.917 92.8896C186.968 92.7829 187.039 92.7012 187.131 92.6445C187.223 92.5872 187.329 92.5586 187.447 92.5586C187.566 92.5586 187.671 92.5872 187.763 92.6445C187.855 92.7012 187.926 92.7829 187.977 92.8896C188.027 92.9958 188.053 93.1185 188.053 93.2578V93.3213ZM187.756 93.2568C187.756 93.1077 187.729 92.9945 187.676 92.917C187.622 92.8395 187.546 92.8008 187.447 92.8008C187.349 92.8008 187.273 92.8392 187.22 92.916C187.166 92.9922 187.139 93.1042 187.139 93.252V93.3213C187.139 93.4665 187.165 93.5791 187.219 93.6592C187.272 93.7393 187.349 93.7793 187.449 93.7793C187.548 93.7793 187.623 93.7409 187.676 93.6641C187.729 93.5866 187.755 93.474 187.756 93.3262V93.2568ZM189.252 92.8154H188.816V94H188.523V92.8154H188.094V92.5781H189.252V92.8154ZM190.561 93.3213C190.561 93.4613 190.536 93.584 190.486 93.6895C190.437 93.7949 190.366 93.8763 190.273 93.9336C190.182 93.9909 190.076 94.0195 189.957 94.0195C189.839 94.0195 189.734 93.9912 189.642 93.9346C189.549 93.8779 189.478 93.7972 189.427 93.6924C189.376 93.5869 189.35 93.4658 189.35 93.3291V93.2588C189.35 93.1188 189.375 92.9958 189.425 92.8896C189.476 92.7829 189.547 92.7012 189.639 92.6445C189.731 92.5872 189.837 92.5586 189.955 92.5586C190.074 92.5586 190.179 92.5872 190.271 92.6445C190.363 92.7012 190.434 92.7829 190.484 92.8896C190.535 92.9958 190.561 93.1185 190.561 93.2578V93.3213ZM190.264 93.2568C190.264 93.1077 190.237 92.9945 190.184 92.917C190.13 92.8395 190.054 92.8008 189.955 92.8008C189.857 92.8008 189.781 92.8392 189.728 92.916C189.674 92.9922 189.647 93.1042 189.646 93.252V93.3213C189.646 93.4665 189.673 93.5791 189.727 93.6592C189.78 93.7393 189.857 93.7793 189.957 93.7793C190.055 93.7793 190.131 93.7409 190.184 93.6641C190.236 93.5866 190.263 93.474 190.264 93.3262V93.2568ZM191.3 93.4795H191.066V94H190.773V92.5781H191.302C191.47 92.5781 191.599 92.6156 191.69 92.6904C191.782 92.7653 191.827 92.8711 191.827 93.0078C191.827 93.1048 191.806 93.1859 191.764 93.251C191.722 93.3154 191.659 93.3669 191.573 93.4053L191.881 93.9863V94H191.566L191.3 93.4795ZM191.066 93.2422H191.303C191.376 93.2422 191.433 93.2236 191.474 93.1865C191.514 93.1488 191.534 93.097 191.534 93.0312C191.534 92.9642 191.515 92.9115 191.477 92.873C191.439 92.8346 191.381 92.8154 191.302 92.8154H191.066V93.2422ZM192.932 92.5781L193.297 93.6094L193.66 92.5781H194.045V94H193.751V93.6113L193.78 92.9404L193.396 94H193.195L192.812 92.9414L192.842 93.6113V94H192.549V92.5781H192.932ZM195.121 93.707H194.607L194.51 94H194.198L194.728 92.5781H194.999L195.531 94H195.22L195.121 93.707ZM194.687 93.4697H195.042L194.863 92.9375L194.687 93.4697ZM196.109 93.4297L195.957 93.5938V94H195.664V92.5781H195.957V93.2227L196.086 93.0459L196.448 92.5781H196.809L196.304 93.21L196.823 94H196.475L196.109 93.4297ZM197.789 93.3838H197.227V93.7646H197.887V94H196.934V92.5781H197.885V92.8154H197.227V93.1543H197.789V93.3838ZM198.796 93.627C198.796 93.5716 198.776 93.5293 198.737 93.5C198.698 93.4701 198.628 93.4388 198.526 93.4062C198.425 93.373 198.344 93.3405 198.285 93.3086C198.124 93.2214 198.043 93.1038 198.043 92.9561C198.043 92.8792 198.064 92.8109 198.107 92.751C198.151 92.6904 198.213 92.6432 198.294 92.6094C198.375 92.5755 198.466 92.5586 198.567 92.5586C198.669 92.5586 198.759 92.5771 198.839 92.6143C198.918 92.6507 198.98 92.7025 199.023 92.7695C199.068 92.8366 199.09 92.9128 199.09 92.998H198.797C198.797 92.9329 198.776 92.8825 198.735 92.8467C198.694 92.8102 198.637 92.792 198.562 92.792C198.491 92.792 198.435 92.8073 198.396 92.8379C198.356 92.8678 198.336 92.9076 198.336 92.957C198.336 93.0033 198.359 93.042 198.405 93.0732C198.452 93.1045 198.521 93.1338 198.611 93.1611C198.778 93.2113 198.899 93.2734 198.976 93.3477C199.052 93.4219 199.09 93.5143 199.09 93.625C199.09 93.748 199.043 93.8447 198.95 93.915C198.857 93.9847 198.732 94.0195 198.574 94.0195C198.465 94.0195 198.365 93.9997 198.275 93.96C198.186 93.9196 198.117 93.8646 198.069 93.7949C198.022 93.7253 197.999 93.6445 197.999 93.5527H198.293C198.293 93.7096 198.387 93.7881 198.574 93.7881C198.644 93.7881 198.698 93.7741 198.737 93.7461C198.776 93.7174 198.796 93.6777 198.796 93.627ZM200.099 94H199.806V92.5781H200.099V94ZM201.412 92.8154H200.977V94H200.684V92.8154H200.254V92.5781H201.412V92.8154ZM202.402 92.5781L202.768 93.6094L203.131 92.5781H203.516V94H203.222V93.6113L203.251 92.9404L202.867 94H202.666L202.283 92.9414L202.312 93.6113V94H202.02V92.5781H202.402ZM204.939 93.3213C204.939 93.4613 204.915 93.584 204.865 93.6895C204.816 93.7949 204.745 93.8763 204.652 93.9336C204.561 93.9909 204.455 94.0195 204.336 94.0195C204.218 94.0195 204.113 93.9912 204.021 93.9346C203.928 93.8779 203.856 93.7972 203.806 93.6924C203.755 93.5869 203.729 93.4658 203.729 93.3291V93.2588C203.729 93.1188 203.754 92.9958 203.804 92.8896C203.854 92.7829 203.926 92.7012 204.018 92.6445C204.11 92.5872 204.215 92.5586 204.334 92.5586C204.452 92.5586 204.558 92.5872 204.649 92.6445C204.742 92.7012 204.813 92.7829 204.863 92.8896C204.914 92.9958 204.939 93.1185 204.939 93.2578V93.3213ZM204.643 93.2568C204.643 93.1077 204.616 92.9945 204.562 92.917C204.509 92.8395 204.433 92.8008 204.334 92.8008C204.236 92.8008 204.16 92.8392 204.106 92.916C204.053 92.9922 204.026 93.1042 204.025 93.252V93.3213C204.025 93.4665 204.052 93.5791 204.105 93.6592C204.159 93.7393 204.236 93.7793 204.336 93.7793C204.434 93.7793 204.51 93.7409 204.562 93.6641C204.615 93.5866 204.642 93.474 204.643 93.3262V93.2568ZM205.679 93.4795H205.445V94H205.152V92.5781H205.681C205.849 92.5781 205.978 92.6156 206.069 92.6904C206.16 92.7653 206.206 92.8711 206.206 93.0078C206.206 93.1048 206.185 93.1859 206.143 93.251C206.101 93.3154 206.037 93.3669 205.952 93.4053L206.26 93.9863V94H205.945L205.679 93.4795ZM205.445 93.2422H205.682C205.755 93.2422 205.812 93.2236 205.853 93.1865C205.893 93.1488 205.913 93.097 205.913 93.0312C205.913 92.9642 205.894 92.9115 205.855 92.873C205.818 92.8346 205.759 92.8154 205.681 92.8154H205.445V93.2422ZM207.285 93.3838H206.723V93.7646H207.383V94H206.43V92.5781H207.381V92.8154H206.723V93.1543H207.285V93.3838ZM208.79 93.627C208.79 93.5716 208.771 93.5293 208.731 93.5C208.692 93.4701 208.622 93.4388 208.521 93.4062C208.419 93.373 208.339 93.3405 208.279 93.3086C208.118 93.2214 208.037 93.1038 208.037 92.9561C208.037 92.8792 208.059 92.8109 208.102 92.751C208.145 92.6904 208.207 92.6432 208.288 92.6094C208.369 92.5755 208.461 92.5586 208.562 92.5586C208.663 92.5586 208.754 92.5771 208.833 92.6143C208.912 92.6507 208.974 92.7025 209.018 92.7695C209.062 92.8366 209.084 92.9128 209.084 92.998H208.791C208.791 92.9329 208.771 92.8825 208.729 92.8467C208.688 92.8102 208.631 92.792 208.557 92.792C208.485 92.792 208.429 92.8073 208.39 92.8379C208.35 92.8678 208.33 92.9076 208.33 92.957C208.33 93.0033 208.353 93.042 208.399 93.0732C208.446 93.1045 208.515 93.1338 208.605 93.1611C208.772 93.2113 208.894 93.2734 208.97 93.3477C209.046 93.4219 209.084 93.5143 209.084 93.625C209.084 93.748 209.037 93.8447 208.944 93.915C208.851 93.9847 208.726 94.0195 208.568 94.0195C208.459 94.0195 208.359 93.9997 208.27 93.96C208.18 93.9196 208.111 93.8646 208.063 93.7949C208.017 93.7253 207.993 93.6445 207.993 93.5527H208.287C208.287 93.7096 208.381 93.7881 208.568 93.7881C208.638 93.7881 208.692 93.7741 208.731 93.7461C208.771 93.7174 208.79 93.6777 208.79 93.627ZM210.354 92.8154H209.918V94H209.625V92.8154H209.195V92.5781H210.354V92.8154ZM211.207 93.707H210.693L210.596 94H210.284L210.813 92.5781H211.085L211.617 94H211.306L211.207 93.707ZM210.772 93.4697H211.128L210.949 92.9375L210.772 93.4697ZM211.75 94V92.5781H212.248C212.421 92.5781 212.551 92.6113 212.641 92.6777C212.73 92.7435 212.774 92.8402 212.774 92.9678C212.774 93.0374 212.757 93.099 212.721 93.1523C212.685 93.2051 212.635 93.2438 212.571 93.2686C212.644 93.2868 212.701 93.3236 212.743 93.3789C212.785 93.4342 212.807 93.502 212.807 93.582C212.807 93.7188 212.763 93.8223 212.676 93.8926C212.589 93.9629 212.464 93.9987 212.303 94H211.75ZM212.043 93.3809V93.7646H212.294C212.363 93.7646 212.417 93.7484 212.455 93.7158C212.494 93.6826 212.514 93.637 212.514 93.5791C212.514 93.4489 212.446 93.3828 212.312 93.3809H212.043ZM212.043 93.1738H212.26C212.408 93.1712 212.481 93.1123 212.481 92.9971C212.481 92.9326 212.463 92.8864 212.425 92.8584C212.388 92.8298 212.329 92.8154 212.248 92.8154H212.043V93.1738ZM213.32 93.7646H213.942V94H213.027V92.5781H213.32V93.7646ZM214.967 93.3838H214.404V93.7646H215.064V94H214.111V92.5781H215.062V92.8154H214.404V93.1543H214.967V93.3838Z" fill="#A4A4A4"/>
<rect x="141" y="225" width="84" height="4" rx="2" fill="white"/>
<rect x="157.333" y="205" width="53.6667" height="4" rx="2" fill="white"/>
<rect x="150.333" y="215" width="67.6667" height="4" rx="2" fill="white"/>
<path d="M178.485 216.692H178.203V216.882H178.533V217H178.057V216.289H178.532V216.408H178.203V216.577H178.485V216.692ZM178.766 216.882H179.077V217H178.619V216.289H178.766V216.882ZM179.572 216.854H179.316L179.267 217H179.111L179.376 216.289H179.511L179.778 217H179.622L179.572 216.854ZM179.355 216.735H179.533L179.444 216.469L179.355 216.735ZM180.213 216.813C180.213 216.786 180.203 216.765 180.183 216.75C180.164 216.735 180.129 216.719 180.078 216.703C180.027 216.687 179.987 216.67 179.957 216.654C179.876 216.611 179.836 216.552 179.836 216.478C179.836 216.44 179.847 216.405 179.868 216.375C179.89 216.345 179.921 216.322 179.962 216.305C180.002 216.288 180.048 216.279 180.098 216.279C180.149 216.279 180.194 216.289 180.234 216.307C180.274 216.325 180.305 216.351 180.326 216.385C180.348 216.418 180.36 216.456 180.36 216.499H180.213C180.213 216.466 180.203 216.441 180.182 216.423C180.162 216.405 180.133 216.396 180.096 216.396C180.06 216.396 180.032 216.404 180.012 216.419C179.993 216.434 179.983 216.454 179.983 216.479C179.983 216.502 179.994 216.521 180.017 216.537C180.041 216.552 180.075 216.567 180.12 216.581C180.204 216.606 180.264 216.637 180.302 216.674C180.34 216.711 180.36 216.757 180.36 216.812C180.36 216.874 180.336 216.922 180.29 216.958C180.243 216.992 180.181 217.01 180.102 217.01C180.047 217.01 179.997 217 179.952 216.98C179.907 216.96 179.873 216.932 179.849 216.897C179.826 216.863 179.814 216.822 179.814 216.776H179.961C179.961 216.855 180.008 216.894 180.102 216.894C180.137 216.894 180.164 216.887 180.183 216.873C180.203 216.859 180.213 216.839 180.213 216.813ZM180.994 216.408H180.777V217H180.63V216.408H180.415V216.289H180.994V216.408ZM181.234 217H181.088V216.289H181.234V217ZM181.928 216.763C181.923 216.84 181.895 216.9 181.843 216.944C181.793 216.988 181.726 217.01 181.642 217.01C181.551 217.01 181.479 216.979 181.427 216.918C181.375 216.856 181.349 216.772 181.349 216.665V216.622C181.349 216.553 181.361 216.493 181.385 216.441C181.409 216.389 181.443 216.349 181.488 216.321C181.533 216.293 181.585 216.279 181.644 216.279C181.726 216.279 181.792 216.301 181.842 216.345C181.893 216.389 181.922 216.451 181.929 216.53H181.783C181.779 216.484 181.766 216.451 181.744 216.431C181.722 216.41 181.689 216.399 181.644 216.399C181.595 216.399 181.559 216.417 181.534 216.452C181.51 216.487 181.498 216.541 181.497 216.615V216.668C181.497 216.745 181.509 216.801 181.532 216.837C181.555 216.872 181.592 216.89 181.642 216.89C181.688 216.89 181.721 216.88 181.743 216.859C181.766 216.839 181.779 216.806 181.782 216.763H181.928ZM182.858 216.661C182.858 216.731 182.845 216.792 182.82 216.845C182.796 216.897 182.76 216.938 182.714 216.967C182.668 216.995 182.615 217.01 182.556 217.01C182.497 217.01 182.444 216.996 182.398 216.967C182.352 216.939 182.316 216.899 182.291 216.846C182.265 216.793 182.252 216.733 182.252 216.665V216.629C182.252 216.559 182.265 216.498 182.29 216.445C182.315 216.391 182.351 216.351 182.397 216.322C182.443 216.294 182.496 216.279 182.555 216.279C182.614 216.279 182.667 216.294 182.713 216.322C182.759 216.351 182.794 216.391 182.82 216.445C182.845 216.498 182.858 216.559 182.858 216.629V216.661ZM182.709 216.628C182.709 216.554 182.696 216.497 182.669 216.458C182.642 216.42 182.604 216.4 182.555 216.4C182.506 216.4 182.468 216.42 182.441 216.458C182.414 216.496 182.401 216.552 182.401 216.626V216.661C182.401 216.733 182.414 216.79 182.441 216.83C182.467 216.87 182.506 216.89 182.556 216.89C182.605 216.89 182.643 216.87 182.669 216.832C182.695 216.793 182.709 216.737 182.709 216.663V216.628ZM183.111 216.75V217H182.964V216.289H183.241C183.295 216.289 183.342 216.299 183.382 216.318C183.423 216.338 183.454 216.366 183.476 216.402C183.498 216.438 183.508 216.479 183.508 216.524C183.508 216.594 183.485 216.649 183.437 216.689C183.389 216.729 183.323 216.75 183.239 216.75H183.111ZM183.111 216.631H183.241C183.28 216.631 183.31 216.622 183.33 216.604C183.35 216.585 183.361 216.559 183.361 216.525C183.361 216.491 183.35 216.462 183.33 216.441C183.309 216.419 183.281 216.408 183.245 216.408H183.111V216.631ZM184.145 216.408H183.927V217H183.78V216.408H183.566V216.289H184.145V216.408ZM184.384 217H184.238V216.289H184.384V217ZM185.105 216.661C185.105 216.731 185.092 216.792 185.068 216.845C185.043 216.897 185.007 216.938 184.961 216.967C184.915 216.995 184.862 217.01 184.803 217.01C184.744 217.01 184.691 216.996 184.645 216.967C184.599 216.939 184.563 216.899 184.538 216.846C184.512 216.793 184.5 216.733 184.499 216.665V216.629C184.499 216.559 184.512 216.498 184.537 216.445C184.562 216.391 184.598 216.351 184.644 216.322C184.69 216.294 184.743 216.279 184.802 216.279C184.861 216.279 184.914 216.294 184.96 216.322C185.006 216.351 185.042 216.391 185.067 216.445C185.092 216.498 185.105 216.559 185.105 216.629V216.661ZM184.956 216.628C184.956 216.554 184.943 216.497 184.916 216.458C184.889 216.42 184.851 216.4 184.802 216.4C184.753 216.4 184.715 216.42 184.688 216.458C184.661 216.496 184.648 216.552 184.648 216.626V216.661C184.648 216.733 184.661 216.79 184.688 216.83C184.714 216.87 184.753 216.89 184.803 216.89C184.852 216.89 184.89 216.87 184.916 216.832C184.943 216.793 184.956 216.737 184.956 216.663V216.628ZM185.789 217H185.643L185.358 216.532V217H185.211V216.289H185.358L185.643 216.758V216.289H185.789V217ZM186.327 216.854H186.07L186.022 217H185.866L186.131 216.289H186.266L186.532 217H186.377L186.327 216.854ZM186.11 216.735H186.288L186.198 216.469L186.11 216.735ZM186.745 216.882H187.056V217H186.599V216.289H186.745V216.882ZM187.581 216.289L187.764 216.805L187.945 216.289H188.138V217H187.991V216.806L188.006 216.47L187.814 217H187.713L187.522 216.471L187.536 216.806V217H187.39V216.289H187.581ZM188.422 217H188.275V216.289H188.422V217ZM188.821 216.534L188.954 216.289H189.123L188.916 216.642L189.128 217H188.958L188.821 216.751L188.684 217H188.514L188.726 216.642L188.519 216.289H188.688L188.821 216.534ZM189.63 216.692H189.349V216.882H189.679V217H189.202V216.289H189.678V216.408H189.349V216.577H189.63V216.692ZM190.028 216.74H189.911V217H189.765V216.289H190.029C190.113 216.289 190.178 216.308 190.223 216.345C190.269 216.383 190.292 216.436 190.292 216.504C190.292 216.552 190.281 216.593 190.26 216.625C190.239 216.658 190.207 216.683 190.165 216.703L190.319 216.993V217H190.161L190.028 216.74ZM189.911 216.621H190.029C190.066 216.621 190.095 216.612 190.115 216.593C190.135 216.574 190.145 216.549 190.145 216.516C190.145 216.482 190.136 216.456 190.116 216.437C190.097 216.417 190.068 216.408 190.029 216.408H189.911V216.621Z" fill="black"/>
<path d="M180.346 226.289L180.528 226.805L180.71 226.289H180.902V227H180.755V226.806L180.77 226.47L180.578 227H180.478L180.286 226.471L180.301 226.806V227H180.154V226.289H180.346ZM181.44 226.854H181.184L181.135 227H180.979L181.244 226.289H181.379L181.646 227H181.49L181.44 226.854ZM181.223 226.735H181.401L181.312 226.469L181.223 226.735ZM181.868 227H181.721V226.289H181.868V227ZM182.582 227H182.436L182.15 226.532V227H182.004V226.289H182.15L182.436 226.758V226.289H182.582V227ZM183.15 226.289L183.333 226.805L183.515 226.289H183.707V227H183.56V226.806L183.575 226.47L183.383 227H183.282L183.091 226.471L183.105 226.806V227H182.959V226.289H183.15ZM183.991 227H183.844V226.289H183.991V227ZM184.39 226.534L184.523 226.289H184.692L184.485 226.642L184.697 227H184.527L184.39 226.751L184.253 227H184.083L184.295 226.642L184.088 226.289H184.257L184.39 226.534ZM185.199 226.692H184.918V226.882H185.248V227H184.771V226.289H185.247V226.408H184.918V226.577H185.199V226.692ZM185.597 226.74H185.48V227H185.334V226.289H185.598C185.682 226.289 185.747 226.308 185.792 226.345C185.838 226.383 185.861 226.436 185.861 226.504C185.861 226.552 185.85 226.593 185.829 226.625C185.808 226.658 185.777 226.683 185.734 226.703L185.888 226.993V227H185.73L185.597 226.74ZM185.48 226.621H185.599C185.635 226.621 185.664 226.612 185.684 226.593C185.704 226.574 185.714 226.549 185.714 226.516C185.714 226.482 185.705 226.456 185.686 226.437C185.667 226.417 185.638 226.408 185.598 226.408H185.48V226.621Z" fill="black"/>
<path d="M173.38 206.692H173.098V206.882H173.428V207H172.952V206.289H173.427V206.408H173.098V206.577H173.38V206.692ZM173.661 206.882H173.972V207H173.514V206.289H173.661V206.882ZM174.467 206.854H174.211L174.162 207H174.006L174.271 206.289H174.406L174.673 207H174.517L174.467 206.854ZM174.25 206.735H174.428L174.339 206.469L174.25 206.735ZM175.108 206.813C175.108 206.786 175.098 206.765 175.078 206.75C175.059 206.735 175.024 206.719 174.973 206.703C174.922 206.687 174.882 206.67 174.852 206.654C174.771 206.611 174.731 206.552 174.731 206.478C174.731 206.44 174.742 206.405 174.763 206.375C174.785 206.345 174.816 206.322 174.857 206.305C174.897 206.288 174.943 206.279 174.993 206.279C175.044 206.279 175.089 206.289 175.129 206.307C175.169 206.325 175.2 206.351 175.221 206.385C175.243 206.418 175.255 206.456 175.255 206.499H175.108C175.108 206.466 175.098 206.441 175.077 206.423C175.057 206.405 175.028 206.396 174.991 206.396C174.955 206.396 174.927 206.404 174.907 206.419C174.888 206.434 174.878 206.454 174.878 206.479C174.878 206.502 174.889 206.521 174.912 206.537C174.936 206.552 174.97 206.567 175.015 206.581C175.099 206.606 175.159 206.637 175.197 206.674C175.236 206.711 175.255 206.757 175.255 206.812C175.255 206.874 175.231 206.922 175.185 206.958C175.138 206.992 175.076 207.01 174.997 207.01C174.942 207.01 174.892 207 174.847 206.98C174.802 206.96 174.768 206.932 174.744 206.897C174.721 206.863 174.709 206.822 174.709 206.776H174.856C174.856 206.855 174.903 206.894 174.997 206.894C175.032 206.894 175.059 206.887 175.078 206.873C175.098 206.859 175.108 206.839 175.108 206.813ZM175.889 206.408H175.672V207H175.525V206.408H175.31V206.289H175.889V206.408ZM176.129 207H175.983V206.289H176.129V207ZM176.823 206.763C176.818 206.84 176.79 206.9 176.738 206.944C176.688 206.988 176.621 207.01 176.537 207.01C176.446 207.01 176.374 206.979 176.322 206.918C176.27 206.856 176.244 206.772 176.244 206.665V206.622C176.244 206.553 176.256 206.493 176.28 206.441C176.304 206.389 176.338 206.349 176.383 206.321C176.428 206.293 176.48 206.279 176.539 206.279C176.621 206.279 176.687 206.301 176.737 206.345C176.788 206.389 176.817 206.451 176.824 206.53H176.678C176.674 206.484 176.661 206.451 176.639 206.431C176.618 206.41 176.584 206.399 176.539 206.399C176.49 206.399 176.454 206.417 176.429 206.452C176.405 206.487 176.393 206.541 176.392 206.615V206.668C176.392 206.745 176.404 206.801 176.427 206.837C176.45 206.872 176.487 206.89 176.537 206.89C176.583 206.89 176.616 206.88 176.638 206.859C176.661 206.839 176.674 206.806 176.677 206.763H176.823ZM177.753 206.661C177.753 206.731 177.74 206.792 177.715 206.845C177.691 206.897 177.655 206.938 177.609 206.967C177.563 206.995 177.51 207.01 177.451 207.01C177.392 207.01 177.339 206.996 177.293 206.967C177.247 206.939 177.211 206.899 177.186 206.846C177.16 206.793 177.147 206.733 177.147 206.665V206.629C177.147 206.559 177.16 206.498 177.185 206.445C177.21 206.391 177.246 206.351 177.292 206.322C177.338 206.294 177.391 206.279 177.45 206.279C177.509 206.279 177.562 206.294 177.608 206.322C177.654 206.351 177.689 206.391 177.715 206.445C177.74 206.498 177.753 206.559 177.753 206.629V206.661ZM177.604 206.628C177.604 206.554 177.591 206.497 177.564 206.458C177.537 206.42 177.499 206.4 177.45 206.4C177.401 206.4 177.363 206.42 177.336 206.458C177.309 206.496 177.296 206.552 177.296 206.626V206.661C177.296 206.733 177.309 206.79 177.336 206.83C177.362 206.87 177.401 206.89 177.451 206.89C177.5 206.89 177.538 206.87 177.564 206.832C177.59 206.793 177.604 206.737 177.604 206.663V206.628ZM178.006 206.75V207H177.859V206.289H178.136C178.19 206.289 178.237 206.299 178.277 206.318C178.318 206.338 178.349 206.366 178.371 206.402C178.393 206.438 178.403 206.479 178.403 206.524C178.403 206.594 178.38 206.649 178.332 206.689C178.284 206.729 178.218 206.75 178.134 206.75H178.006ZM178.006 206.631H178.136C178.175 206.631 178.205 206.622 178.225 206.604C178.245 206.585 178.256 206.559 178.256 206.525C178.256 206.491 178.245 206.462 178.225 206.441C178.204 206.419 178.176 206.408 178.14 206.408H178.006V206.631ZM179.04 206.408H178.822V207H178.675V206.408H178.461V206.289H179.04V206.408ZM179.279 207H179.133V206.289H179.279V207ZM180 206.661C180 206.731 179.987 206.792 179.963 206.845C179.938 206.897 179.902 206.938 179.856 206.967C179.81 206.995 179.757 207.01 179.698 207.01C179.639 207.01 179.586 206.996 179.54 206.967C179.494 206.939 179.458 206.899 179.433 206.846C179.407 206.793 179.395 206.733 179.394 206.665V206.629C179.394 206.559 179.407 206.498 179.432 206.445C179.457 206.391 179.493 206.351 179.539 206.322C179.585 206.294 179.638 206.279 179.697 206.279C179.756 206.279 179.809 206.294 179.855 206.322C179.901 206.351 179.937 206.391 179.962 206.445C179.987 206.498 180 206.559 180 206.629V206.661ZM179.851 206.628C179.851 206.554 179.838 206.497 179.811 206.458C179.785 206.42 179.746 206.4 179.697 206.4C179.648 206.4 179.61 206.42 179.583 206.458C179.556 206.496 179.543 206.552 179.543 206.626V206.661C179.543 206.733 179.556 206.79 179.583 206.83C179.609 206.87 179.648 206.89 179.698 206.89C179.747 206.89 179.785 206.87 179.811 206.832C179.838 206.793 179.851 206.737 179.851 206.663V206.628ZM180.684 207H180.538L180.253 206.532V207H180.106V206.289H180.253L180.538 206.758V206.289H180.684V207ZM181.222 206.854H180.965L180.917 207H180.761L181.026 206.289H181.161L181.427 207H181.272L181.222 206.854ZM181.005 206.735H181.183L181.093 206.469L181.005 206.735ZM181.64 206.882H181.951V207H181.494V206.289H181.64V206.882ZM182.476 206.289L182.659 206.805L182.84 206.289H183.033V207H182.886V206.806L182.901 206.47L182.709 207H182.608L182.417 206.471L182.431 206.806V207H182.285V206.289H182.476ZM183.317 207H183.17V206.289H183.317V207ZM183.716 206.534L183.849 206.289H184.018L183.811 206.642L184.023 207H183.853L183.716 206.751L183.579 207H183.409L183.621 206.642L183.414 206.289H183.583L183.716 206.534ZM184.525 206.692H184.244V206.882H184.574V207H184.097V206.289H184.573V206.408H184.244V206.577H184.525V206.692ZM184.923 206.74H184.806V207H184.66V206.289H184.924C185.008 206.289 185.073 206.308 185.118 206.345C185.164 206.383 185.187 206.436 185.187 206.504C185.187 206.552 185.176 206.593 185.155 206.625C185.134 206.658 185.102 206.683 185.06 206.703L185.214 206.993V207H185.056L184.923 206.74ZM184.806 206.621H184.924C184.961 206.621 184.99 206.612 185.01 206.593C185.03 206.574 185.04 206.549 185.04 206.516C185.04 206.482 185.031 206.456 185.011 206.437C184.993 206.417 184.963 206.408 184.924 206.408H184.806V206.621ZM186.053 206.408H185.836V207H185.689V206.408H185.474V206.289H186.053V206.408ZM186.708 206.661C186.708 206.731 186.695 206.792 186.671 206.845C186.646 206.897 186.61 206.938 186.564 206.967C186.518 206.995 186.465 207.01 186.406 207.01C186.347 207.01 186.294 206.996 186.248 206.967C186.202 206.939 186.166 206.899 186.141 206.846C186.115 206.793 186.103 206.733 186.102 206.665V206.629C186.102 206.559 186.115 206.498 186.14 206.445C186.165 206.391 186.201 206.351 186.247 206.322C186.293 206.294 186.346 206.279 186.405 206.279C186.464 206.279 186.517 206.294 186.563 206.322C186.609 206.351 186.645 206.391 186.67 206.445C186.695 206.498 186.708 206.559 186.708 206.629V206.661ZM186.559 206.628C186.559 206.554 186.546 206.497 186.519 206.458C186.493 206.42 186.454 206.4 186.405 206.4C186.356 206.4 186.318 206.42 186.291 206.458C186.264 206.496 186.251 206.552 186.251 206.626V206.661C186.251 206.733 186.264 206.79 186.291 206.83C186.317 206.87 186.356 206.89 186.406 206.89C186.455 206.89 186.493 206.87 186.519 206.832C186.546 206.793 186.559 206.737 186.559 206.663V206.628ZM187.219 207H187.072V206.289H187.219V207ZM187.933 207H187.787L187.502 206.532V207H187.355V206.289H187.502L187.787 206.758V206.289H187.933V207ZM188.619 206.763C188.614 206.84 188.585 206.9 188.534 206.944C188.484 206.988 188.417 207.01 188.333 207.01C188.242 207.01 188.17 206.979 188.118 206.918C188.066 206.856 188.04 206.772 188.04 206.665V206.622C188.04 206.553 188.052 206.493 188.076 206.441C188.1 206.389 188.134 206.349 188.179 206.321C188.224 206.293 188.276 206.279 188.335 206.279C188.417 206.279 188.483 206.301 188.533 206.345C188.583 206.389 188.612 206.451 188.62 206.53H188.474C188.47 206.484 188.457 206.451 188.435 206.431C188.413 206.41 188.38 206.399 188.335 206.399C188.286 206.399 188.25 206.417 188.225 206.452C188.201 206.487 188.189 206.541 188.188 206.615V206.668C188.188 206.745 188.2 206.801 188.223 206.837C188.246 206.872 188.283 206.89 188.333 206.89C188.378 206.89 188.412 206.88 188.434 206.859C188.457 206.839 188.47 206.806 188.473 206.763H188.619ZM188.979 206.74H188.862V207H188.715V206.289H188.98C189.064 206.289 189.128 206.308 189.174 206.345C189.22 206.383 189.242 206.436 189.242 206.504C189.242 206.552 189.232 206.593 189.211 206.625C189.19 206.658 189.158 206.683 189.115 206.703L189.269 206.993V207H189.112L188.979 206.74ZM188.862 206.621H188.98C189.017 206.621 189.045 206.612 189.066 206.593C189.086 206.574 189.096 206.549 189.096 206.516C189.096 206.482 189.086 206.456 189.067 206.437C189.048 206.417 189.019 206.408 188.98 206.408H188.862V206.621ZM189.782 206.692H189.501V206.882H189.831V207H189.354V206.289H189.83V206.408H189.501V206.577H189.782V206.692ZM190.318 206.854H190.061L190.012 207H189.857L190.121 206.289H190.257L190.523 207H190.367L190.318 206.854ZM190.101 206.735H190.278L190.189 206.469L190.101 206.735ZM190.958 206.813C190.958 206.786 190.948 206.765 190.929 206.75C190.909 206.735 190.874 206.719 190.823 206.703C190.773 206.687 190.732 206.67 190.703 206.654C190.622 206.611 190.582 206.552 190.582 206.478C190.582 206.44 190.592 206.405 190.614 206.375C190.636 206.345 190.667 206.322 190.707 206.305C190.748 206.288 190.793 206.279 190.844 206.279C190.895 206.279 190.94 206.289 190.98 206.307C191.019 206.325 191.05 206.351 191.072 206.385C191.094 206.418 191.105 206.456 191.105 206.499H190.959C190.959 206.466 190.948 206.441 190.928 206.423C190.907 206.405 190.879 206.396 190.841 206.396C190.806 206.396 190.778 206.404 190.758 206.419C190.738 206.434 190.728 206.454 190.728 206.479C190.728 206.502 190.74 206.521 190.763 206.537C190.786 206.552 190.821 206.567 190.866 206.581C190.949 206.606 191.01 206.637 191.048 206.674C191.086 206.711 191.105 206.757 191.105 206.812C191.105 206.874 191.082 206.922 191.035 206.958C190.989 206.992 190.926 207.01 190.847 207.01C190.793 207.01 190.743 207 190.698 206.98C190.653 206.96 190.619 206.932 190.595 206.897C190.571 206.863 190.56 206.822 190.56 206.776H190.707C190.707 206.855 190.754 206.894 190.847 206.894C190.882 206.894 190.909 206.887 190.929 206.873C190.948 206.859 190.958 206.839 190.958 206.813ZM191.632 206.692H191.351V206.882H191.681V207H191.205V206.289H191.68V206.408H191.351V206.577H191.632V206.692ZM192.208 206.289L192.39 206.805L192.572 206.289H192.764V207H192.617V206.806L192.632 206.47L192.44 207H192.34L192.148 206.471L192.163 206.806V207H192.016V206.289H192.208ZM193.048 207H192.902V206.289H193.048V207ZM193.447 206.534L193.581 206.289H193.749L193.542 206.642L193.755 207H193.584L193.447 206.751L193.311 207H193.14L193.353 206.642L193.146 206.289H193.314L193.447 206.534ZM193.985 207H193.838V206.289H193.985V207ZM194.699 207H194.552L194.267 206.532V207H194.121V206.289H194.267L194.553 206.758V206.289H194.699V207ZM195.389 206.91C195.363 206.942 195.326 206.966 195.278 206.984C195.229 207.001 195.176 207.01 195.117 207.01C195.056 207.01 195.002 206.996 194.955 206.97C194.909 206.943 194.873 206.904 194.848 206.853C194.823 206.801 194.81 206.741 194.809 206.672V206.624C194.809 206.553 194.821 206.492 194.845 206.44C194.869 206.388 194.903 206.348 194.948 206.321C194.994 206.293 195.047 206.279 195.107 206.279C195.191 206.279 195.257 206.299 195.305 206.34C195.352 206.38 195.381 206.438 195.389 206.515H195.247C195.24 206.474 195.226 206.445 195.203 206.426C195.181 206.407 195.151 206.397 195.111 206.397C195.062 206.397 195.024 206.416 194.998 206.454C194.972 206.491 194.958 206.547 194.958 206.621V206.666C194.958 206.741 194.972 206.797 195.001 206.835C195.029 206.873 195.07 206.892 195.125 206.892C195.18 206.892 195.219 206.88 195.243 206.857V206.734H195.11V206.626H195.389V206.91Z" fill="black"/>
</svg>
