<svg width="1000" height="563" viewBox="0 0 1000 563" fill="none" xmlns="http://www.w3.org/2000/svg">
<rect width="1000" height="562.5" fill="black"/>
<path d="M20.952 30.144C20.68 30.144 20.424 30.104 20.184 30.024C19.944 29.952 19.732 29.848 19.548 29.712C19.372 29.568 19.232 29.396 19.128 29.196C19.024 28.988 18.972 28.752 18.972 28.488C18.972 28.16 19.048 27.876 19.2 27.636C19.36 27.388 19.608 27.176 19.944 27C20.288 26.824 20.728 26.68 21.264 26.568C21.8 26.456 22.444 26.368 23.196 26.304C23.188 26.104 23.156 25.916 23.1 25.74C23.044 25.564 22.956 25.412 22.836 25.284C22.716 25.148 22.556 25.04 22.356 24.96C22.164 24.88 21.928 24.84 21.648 24.84C21.264 24.84 20.896 24.916 20.544 25.068C20.192 25.212 19.88 25.368 19.608 25.536L19.224 24.864C19.368 24.768 19.536 24.672 19.728 24.576C19.928 24.472 20.136 24.38 20.352 24.3C20.576 24.22 20.812 24.156 21.06 24.108C21.308 24.052 21.56 24.024 21.816 24.024C22.616 24.024 23.208 24.244 23.592 24.684C23.984 25.116 24.18 25.696 24.18 26.424V30H23.376L23.292 29.208H23.256C22.928 29.464 22.564 29.684 22.164 29.868C21.772 30.052 21.368 30.144 20.952 30.144ZM21.216 29.352C21.552 29.352 21.88 29.28 22.2 29.136C22.528 28.984 22.86 28.768 23.196 28.488V26.952C22.572 27 22.048 27.068 21.624 27.156C21.208 27.244 20.872 27.352 20.616 27.48C20.368 27.6 20.192 27.74 20.088 27.9C19.984 28.052 19.932 28.224 19.932 28.416C19.932 28.584 19.968 28.728 20.04 28.848C20.112 28.96 20.204 29.056 20.316 29.136C20.436 29.208 20.572 29.264 20.724 29.304C20.884 29.336 21.048 29.352 21.216 29.352Z" fill="#46BCFF"/>
<path d="M26.3113 30V21.456H27.2953V23.784L27.2353 25.164H27.2713C27.5753 24.836 27.8993 24.564 28.2433 24.348C28.5953 24.132 28.9993 24.024 29.4553 24.024C30.1513 24.024 30.6593 24.224 30.9793 24.624C31.3073 25.016 31.4713 25.6 31.4713 26.376V30H30.4873V26.508C30.4873 25.956 30.3833 25.548 30.1753 25.284C29.9673 25.012 29.6233 24.876 29.1433 24.876C28.9673 24.876 28.8033 24.9 28.6513 24.948C28.5073 24.988 28.3633 25.052 28.2193 25.14C28.0753 25.228 27.9273 25.34 27.7753 25.476C27.6233 25.604 27.4633 25.756 27.2953 25.932V30H26.3113Z" fill="#46BCFF"/>
<path d="M35.3426 30.144C35.0706 30.144 34.8146 30.104 34.5746 30.024C34.3346 29.952 34.1226 29.848 33.9386 29.712C33.7626 29.568 33.6226 29.396 33.5186 29.196C33.4146 28.988 33.3626 28.752 33.3626 28.488C33.3626 28.16 33.4386 27.876 33.5906 27.636C33.7506 27.388 33.9986 27.176 34.3346 27C34.6786 26.824 35.1186 26.68 35.6546 26.568C36.1906 26.456 36.8346 26.368 37.5866 26.304C37.5786 26.104 37.5466 25.916 37.4906 25.74C37.4346 25.564 37.3466 25.412 37.2266 25.284C37.1066 25.148 36.9466 25.04 36.7466 24.96C36.5546 24.88 36.3186 24.84 36.0386 24.84C35.6546 24.84 35.2866 24.916 34.9346 25.068C34.5826 25.212 34.2706 25.368 33.9986 25.536L33.6146 24.864C33.7586 24.768 33.9266 24.672 34.1186 24.576C34.3186 24.472 34.5266 24.38 34.7426 24.3C34.9666 24.22 35.2026 24.156 35.4506 24.108C35.6986 24.052 35.9506 24.024 36.2066 24.024C37.0066 24.024 37.5986 24.244 37.9826 24.684C38.3746 25.116 38.5706 25.696 38.5706 26.424V30H37.7666L37.6826 29.208H37.6466C37.3186 29.464 36.9546 29.684 36.5546 29.868C36.1626 30.052 35.7586 30.144 35.3426 30.144ZM35.6066 29.352C35.9426 29.352 36.2706 29.28 36.5906 29.136C36.9186 28.984 37.2506 28.768 37.5866 28.488V26.952C36.9626 27 36.4386 27.068 36.0146 27.156C35.5986 27.244 35.2626 27.352 35.0066 27.48C34.7586 27.6 34.5826 27.74 34.4786 27.9C34.3746 28.052 34.3226 28.224 34.3226 28.416C34.3226 28.584 34.3586 28.728 34.4306 28.848C34.5026 28.96 34.5946 29.056 34.7066 29.136C34.8266 29.208 34.9626 29.264 35.1146 29.304C35.2746 29.336 35.4386 29.352 35.6066 29.352Z" fill="#46BCFF"/>
<path d="M40.2819 30V24.168H41.0739L41.1579 24.936H41.1819C41.3339 24.664 41.5099 24.444 41.7099 24.276C41.9099 24.108 42.1779 24.024 42.5139 24.024C43.0819 24.024 43.4499 24.36 43.6179 25.032C43.7859 24.72 43.9699 24.476 44.1699 24.3C44.3779 24.116 44.6499 24.024 44.9859 24.024C45.3939 24.024 45.7099 24.18 45.9339 24.492C46.1659 24.796 46.2819 25.24 46.2819 25.824V30H45.2979V25.896C45.2979 25.216 45.0899 24.876 44.6739 24.876C44.4659 24.876 44.2979 24.952 44.1699 25.104C44.0419 25.248 43.8979 25.472 43.7379 25.776V30H42.8259V25.896C42.8259 25.56 42.7779 25.308 42.6819 25.14C42.5939 24.964 42.4419 24.876 42.2259 24.876C42.0179 24.876 41.8419 24.952 41.6979 25.104C41.5539 25.248 41.4099 25.472 41.2659 25.776V30H40.2819Z" fill="#46BCFF"/>
<path d="M50.0333 30.144C49.6493 30.144 49.3013 30.076 48.9893 29.94C48.6853 29.804 48.4213 29.608 48.1973 29.352C47.9733 29.088 47.8012 28.768 47.6812 28.392C47.5612 28.016 47.5012 27.584 47.5012 27.096C47.5012 26.624 47.5733 26.2 47.7173 25.824C47.8693 25.44 48.0653 25.116 48.3053 24.852C48.5533 24.588 48.8372 24.384 49.1572 24.24C49.4772 24.096 49.8092 24.024 50.1532 24.024C50.5052 24.024 50.8172 24.092 51.0892 24.228C51.3692 24.356 51.6372 24.54 51.8932 24.78H51.9292L51.8812 23.7V21.456H52.8652V30H52.0493L51.9653 29.232H51.9292C51.6892 29.48 51.4013 29.696 51.0653 29.88C50.7373 30.056 50.3933 30.144 50.0333 30.144ZM50.2373 29.316C50.8133 29.316 51.3612 29.024 51.8812 28.44V25.536C51.6172 25.288 51.3572 25.112 51.1012 25.008C50.8532 24.904 50.6013 24.852 50.3453 24.852C50.0893 24.852 49.8492 24.908 49.6252 25.02C49.4092 25.124 49.2172 25.276 49.0492 25.476C48.8892 25.668 48.7613 25.9 48.6653 26.172C48.5693 26.444 48.5212 26.748 48.5212 27.084C48.5212 27.788 48.6693 28.336 48.9653 28.728C49.2693 29.12 49.6933 29.316 50.2373 29.316Z" fill="#46BCFF"/>
<path d="M57.9366 30.144C57.4966 30.144 57.0846 30.076 56.7006 29.94C56.3246 29.804 55.9926 29.604 55.7046 29.34C55.4246 29.076 55.2006 28.756 55.0326 28.38C54.8726 27.996 54.7926 27.56 54.7926 27.072C54.7926 26.6 54.8726 26.176 55.0326 25.8C55.2006 25.424 55.4206 25.104 55.6926 24.84C55.9726 24.576 56.2886 24.376 56.6406 24.24C57.0006 24.096 57.3766 24.024 57.7686 24.024C58.1846 24.024 58.5566 24.092 58.8846 24.228C59.2206 24.356 59.5006 24.54 59.7246 24.78C59.9566 25.02 60.1326 25.308 60.2526 25.644C60.3726 25.98 60.4326 26.352 60.4326 26.76C60.4326 26.872 60.4286 26.98 60.4206 27.084C60.4126 27.188 60.4006 27.28 60.3846 27.36H55.7886C55.8526 28.024 56.0926 28.524 56.5086 28.86C56.9326 29.188 57.4486 29.352 58.0566 29.352C58.4086 29.352 58.7246 29.304 59.0046 29.208C59.2926 29.104 59.5686 28.968 59.8326 28.8L60.1926 29.448C59.9046 29.64 59.5726 29.804 59.1966 29.94C58.8286 30.076 58.4086 30.144 57.9366 30.144ZM57.7926 24.804C57.5526 24.804 57.3206 24.844 57.0966 24.924C56.8806 25.004 56.6846 25.12 56.5086 25.272C56.3326 25.416 56.1846 25.6 56.0646 25.824C55.9446 26.048 55.8606 26.304 55.8126 26.592H59.5326C59.4926 25.992 59.3166 25.544 59.0046 25.248C58.7006 24.952 58.2966 24.804 57.7926 24.804Z" fill="#46BCFF"/>
<path d="M64.8919 30.144C64.3159 30.144 63.7839 30.056 63.2959 29.88C62.8079 29.696 62.3839 29.48 62.0239 29.232L62.4799 28.584C62.8159 28.824 63.1839 29.016 63.5839 29.16C63.9919 29.304 64.4679 29.376 65.0119 29.376C65.5079 29.376 65.8759 29.288 66.1159 29.112C66.3639 28.928 66.4879 28.712 66.4879 28.464C66.4879 28.352 66.4679 28.248 66.4279 28.152C66.3879 28.056 66.2999 27.964 66.1639 27.876C66.0359 27.788 65.8519 27.704 65.6119 27.624C65.3719 27.544 65.0559 27.464 64.6639 27.384C63.9039 27.224 63.3319 27.012 62.9479 26.748C62.5719 26.476 62.3839 26.12 62.3839 25.68C62.3839 25.448 62.4359 25.232 62.5399 25.032C62.6439 24.824 62.7959 24.648 62.9959 24.504C63.2039 24.352 63.4559 24.236 63.7519 24.156C64.0559 24.068 64.4079 24.024 64.8079 24.024C65.2559 24.024 65.6879 24.1 66.1039 24.252C66.5199 24.396 66.8719 24.568 67.1599 24.768L66.6799 25.404C66.4079 25.22 66.1079 25.072 65.7799 24.96C65.4519 24.848 65.0999 24.792 64.7239 24.792C64.2279 24.792 63.8799 24.876 63.6799 25.044C63.4799 25.212 63.3799 25.408 63.3799 25.632C63.3799 25.888 63.5119 26.084 63.7759 26.22C64.0399 26.348 64.4719 26.476 65.0719 26.604C65.5599 26.708 65.9599 26.82 66.2719 26.94C66.5839 27.052 66.8279 27.18 67.0039 27.324C67.1879 27.468 67.3119 27.628 67.3759 27.804C67.4479 27.98 67.4839 28.18 67.4839 28.404C67.4839 28.644 67.4279 28.868 67.3159 29.076C67.2039 29.284 67.0359 29.468 66.8119 29.628C66.5959 29.788 66.3239 29.912 65.9959 30C65.6759 30.096 65.3079 30.144 64.8919 30.144Z" fill="#46BCFF"/>
<path d="M72.1592 30V24.972H69.4472V24.168H73.1432V30H72.1592ZM72.5432 22.944C72.3192 22.944 72.1312 22.876 71.9792 22.74C71.8272 22.596 71.7512 22.408 71.7512 22.176C71.7512 21.944 71.8272 21.76 71.9792 21.624C72.1312 21.48 72.3192 21.408 72.5432 21.408C72.7672 21.408 72.9552 21.48 73.1072 21.624C73.2592 21.76 73.3352 21.944 73.3352 22.176C73.3352 22.408 73.2592 22.596 73.1072 22.74C72.9552 22.876 72.7672 22.944 72.5432 22.944Z" fill="#46BCFF"/>
<path d="M79.1145 32.688C78.2585 32.688 77.5945 32.548 77.1225 32.268C76.6585 31.988 76.4265 31.588 76.4265 31.068C76.4265 30.836 76.5065 30.608 76.6665 30.384C76.8345 30.16 77.0745 29.956 77.3865 29.772V29.724C77.2265 29.636 77.0865 29.516 76.9665 29.364C76.8465 29.212 76.7865 29.012 76.7865 28.764C76.7865 28.58 76.8465 28.392 76.9665 28.2C77.0865 28 77.2585 27.824 77.4825 27.672V27.624C77.2825 27.472 77.1105 27.272 76.9665 27.024C76.8305 26.768 76.7625 26.464 76.7625 26.112C76.7625 25.792 76.8225 25.504 76.9425 25.248C77.0705 24.992 77.2385 24.776 77.4465 24.6C77.6545 24.416 77.8945 24.276 78.1665 24.18C78.4465 24.076 78.7425 24.024 79.0545 24.024C79.3745 24.024 79.6625 24.072 79.9185 24.168H82.3305V24.972H80.8185C80.9545 25.108 81.0705 25.28 81.1665 25.488C81.2625 25.696 81.3105 25.916 81.3105 26.148C81.3105 26.46 81.2505 26.74 81.1305 26.988C81.0185 27.236 80.8585 27.448 80.6505 27.624C80.4505 27.792 80.2105 27.924 79.9305 28.02C79.6585 28.108 79.3665 28.152 79.0545 28.152C78.9025 28.152 78.7385 28.136 78.5625 28.104C78.3945 28.064 78.2305 28.008 78.0705 27.936C77.7665 28.128 77.6145 28.352 77.6145 28.608C77.6145 28.84 77.7185 29.012 77.9265 29.124C78.1425 29.228 78.4425 29.28 78.8265 29.28H80.1345C80.8865 29.28 81.4425 29.384 81.8025 29.592C82.1705 29.8 82.3545 30.152 82.3545 30.648C82.3545 30.92 82.2785 31.18 82.1265 31.428C81.9745 31.676 81.7585 31.892 81.4785 32.076C81.1985 32.26 80.8585 32.408 80.4585 32.52C80.0585 32.632 79.6105 32.688 79.1145 32.688ZM79.0545 27.492C79.4305 27.492 79.7465 27.368 80.0025 27.12C80.2665 26.872 80.3985 26.536 80.3985 26.112C80.3985 25.912 80.3625 25.728 80.2905 25.56C80.2185 25.392 80.1225 25.248 80.0025 25.128C79.8825 25.008 79.7385 24.916 79.5705 24.852C79.4105 24.78 79.2385 24.744 79.0545 24.744C78.8705 24.744 78.6945 24.78 78.5265 24.852C78.3665 24.916 78.2265 25.008 78.1065 25.128C77.9865 25.248 77.8905 25.392 77.8185 25.56C77.7465 25.728 77.7105 25.912 77.7105 26.112C77.7105 26.536 77.8425 26.872 78.1065 27.12C78.3705 27.368 78.6865 27.492 79.0545 27.492ZM79.1865 31.968C79.5225 31.968 79.8265 31.936 80.0985 31.872C80.3705 31.808 80.6025 31.72 80.7945 31.608C80.9865 31.504 81.1305 31.38 81.2265 31.236C81.3305 31.1 81.3825 30.956 81.3825 30.804C81.3825 30.524 81.2705 30.336 81.0465 30.24C80.8305 30.144 80.4985 30.096 80.0505 30.096H78.9105C78.7425 30.096 78.5825 30.088 78.4305 30.072C78.2865 30.064 78.1505 30.04 78.0225 30C77.7425 30.152 77.5465 30.308 77.4345 30.468C77.3305 30.636 77.2785 30.804 77.2785 30.972C77.2785 31.276 77.4385 31.516 77.7585 31.692C78.0865 31.876 78.5625 31.968 79.1865 31.968Z" fill="#46BCFF"/>
<path d="M83.8738 30V24.168H84.6898L84.7738 25.164H84.8218C85.1258 24.836 85.4538 24.564 85.8058 24.348C86.1578 24.132 86.5618 24.024 87.0178 24.024C87.7138 24.024 88.2218 24.224 88.5418 24.624C88.8698 25.016 89.0338 25.6 89.0338 26.376V30H88.0498V26.508C88.0498 25.956 87.9458 25.548 87.7378 25.284C87.5298 25.012 87.1858 24.876 86.7058 24.876C86.5298 24.876 86.3658 24.9 86.2138 24.948C86.0698 24.988 85.9258 25.052 85.7818 25.14C85.6378 25.228 85.4898 25.34 85.3378 25.476C85.1858 25.604 85.0258 25.756 84.8578 25.932V30H83.8738Z" fill="#46BCFF"/>
<path d="M93.9131 30.144C93.4731 30.144 93.0611 30.076 92.6771 29.94C92.3011 29.804 91.9691 29.604 91.6811 29.34C91.4011 29.076 91.1771 28.756 91.0091 28.38C90.8491 27.996 90.7691 27.56 90.7691 27.072C90.7691 26.6 90.8491 26.176 91.0091 25.8C91.1771 25.424 91.3971 25.104 91.6691 24.84C91.9491 24.576 92.2651 24.376 92.6171 24.24C92.9771 24.096 93.3531 24.024 93.7451 24.024C94.1611 24.024 94.5331 24.092 94.8611 24.228C95.1971 24.356 95.4771 24.54 95.7011 24.78C95.9331 25.02 96.1091 25.308 96.2291 25.644C96.3491 25.98 96.4091 26.352 96.4091 26.76C96.4091 26.872 96.4051 26.98 96.3971 27.084C96.3891 27.188 96.3771 27.28 96.3611 27.36H91.7651C91.8291 28.024 92.0691 28.524 92.4851 28.86C92.9091 29.188 93.4251 29.352 94.0331 29.352C94.3851 29.352 94.7011 29.304 94.9811 29.208C95.2691 29.104 95.5451 28.968 95.8091 28.8L96.1691 29.448C95.8811 29.64 95.5491 29.804 95.1731 29.94C94.8051 30.076 94.3851 30.144 93.9131 30.144ZM93.7691 24.804C93.5291 24.804 93.2971 24.844 93.0731 24.924C92.8571 25.004 92.6611 25.12 92.4851 25.272C92.3091 25.416 92.1611 25.6 92.0411 25.824C91.9211 26.048 91.8371 26.304 91.7891 26.592H95.5091C95.4691 25.992 95.2931 25.544 94.9811 25.248C94.6771 24.952 94.2731 24.804 93.7691 24.804Z" fill="#46BCFF"/>
<path d="M98.9004 30V24.168H99.7164L99.8004 25.548H99.8364C100.14 25.076 100.512 24.704 100.952 24.432C101.4 24.16 101.896 24.024 102.44 24.024C102.656 24.024 102.856 24.044 103.04 24.084C103.224 24.116 103.408 24.176 103.592 24.264L103.364 25.116C103.156 25.044 102.98 24.992 102.836 24.96C102.7 24.928 102.516 24.912 102.284 24.912C101.844 24.912 101.42 25.04 101.012 25.296C100.612 25.544 100.236 25.972 99.8844 26.58V30H98.9004Z" fill="#46BCFF"/>
<path d="M108.436 31.728C107.964 31.728 107.516 31.624 107.092 31.416C106.668 31.216 106.296 30.916 105.976 30.516C105.656 30.124 105.4 29.632 105.208 29.04C105.024 28.448 104.932 27.768 104.932 27C104.932 26.232 105.02 25.56 105.196 24.984C105.38 24.408 105.632 23.928 105.952 23.544C106.272 23.16 106.644 22.872 107.068 22.68C107.5 22.48 107.964 22.38 108.46 22.38C108.876 22.38 109.236 22.452 109.54 22.596C109.844 22.74 110.096 22.94 110.296 23.196C110.496 23.452 110.644 23.756 110.74 24.108C110.844 24.452 110.896 24.828 110.896 25.236V28.8H110.296L110.212 28.104H110.164C109.988 28.328 109.756 28.524 109.468 28.692C109.188 28.86 108.892 28.944 108.58 28.944C108.364 28.944 108.16 28.908 107.968 28.836C107.784 28.764 107.62 28.66 107.476 28.524C107.34 28.388 107.232 28.224 107.152 28.032C107.072 27.832 107.032 27.612 107.032 27.372C107.032 26.756 107.304 26.292 107.848 25.98C108.392 25.668 109.176 25.448 110.2 25.32V25.152C110.2 24.864 110.164 24.592 110.092 24.336C110.028 24.08 109.924 23.856 109.78 23.664C109.636 23.472 109.448 23.32 109.216 23.208C108.992 23.096 108.724 23.04 108.412 23.04C108.052 23.04 107.708 23.124 107.38 23.292C107.052 23.46 106.76 23.712 106.504 24.048C106.256 24.376 106.056 24.792 105.904 25.296C105.76 25.792 105.688 26.372 105.688 27.036C105.688 27.676 105.76 28.248 105.904 28.752C106.048 29.248 106.244 29.668 106.492 30.012C106.74 30.356 107.032 30.616 107.368 30.792C107.704 30.976 108.068 31.068 108.46 31.068C108.82 31.068 109.132 31.02 109.396 30.924C109.668 30.836 109.92 30.704 110.152 30.528L110.488 31.068C110.176 31.284 109.856 31.448 109.528 31.56C109.2 31.672 108.836 31.728 108.436 31.728ZM108.784 28.248C109.232 28.248 109.68 27.992 110.128 27.48V25.968C109.296 26.08 108.704 26.248 108.352 26.472C108 26.688 107.824 26.98 107.824 27.348C107.824 27.628 107.908 27.848 108.076 28.008C108.252 28.168 108.488 28.248 108.784 28.248Z" fill="#46BCFF"/>
<path d="M115.259 30.144C114.683 30.144 114.151 30.056 113.663 29.88C113.175 29.696 112.751 29.48 112.391 29.232L112.847 28.584C113.183 28.824 113.551 29.016 113.951 29.16C114.359 29.304 114.835 29.376 115.379 29.376C115.875 29.376 116.243 29.288 116.483 29.112C116.731 28.928 116.855 28.712 116.855 28.464C116.855 28.352 116.835 28.248 116.795 28.152C116.755 28.056 116.667 27.964 116.531 27.876C116.403 27.788 116.219 27.704 115.979 27.624C115.739 27.544 115.423 27.464 115.031 27.384C114.271 27.224 113.699 27.012 113.315 26.748C112.939 26.476 112.751 26.12 112.751 25.68C112.751 25.448 112.803 25.232 112.907 25.032C113.011 24.824 113.163 24.648 113.363 24.504C113.571 24.352 113.823 24.236 114.119 24.156C114.423 24.068 114.775 24.024 115.175 24.024C115.623 24.024 116.055 24.1 116.471 24.252C116.887 24.396 117.239 24.568 117.527 24.768L117.047 25.404C116.775 25.22 116.475 25.072 116.147 24.96C115.819 24.848 115.467 24.792 115.091 24.792C114.595 24.792 114.247 24.876 114.047 25.044C113.847 25.212 113.747 25.408 113.747 25.632C113.747 25.888 113.879 26.084 114.143 26.22C114.407 26.348 114.839 26.476 115.439 26.604C115.927 26.708 116.327 26.82 116.639 26.94C116.951 27.052 117.195 27.18 117.371 27.324C117.555 27.468 117.679 27.628 117.743 27.804C117.815 27.98 117.851 28.18 117.851 28.404C117.851 28.644 117.795 28.868 117.683 29.076C117.571 29.284 117.403 29.468 117.179 29.628C116.963 29.788 116.691 29.912 116.363 30C116.043 30.096 115.675 30.144 115.259 30.144Z" fill="#46BCFF"/>
<path d="M120.306 32.508C120.018 32.508 119.762 32.468 119.538 32.388L119.742 31.608C119.822 31.632 119.906 31.652 119.994 31.668C120.09 31.684 120.182 31.692 120.27 31.692C120.678 31.692 121.01 31.572 121.266 31.332C121.522 31.1 121.722 30.804 121.866 30.444L122.046 30.012L119.322 24.168H120.318L121.746 27.396C121.858 27.652 121.974 27.928 122.094 28.224C122.222 28.52 122.346 28.808 122.466 29.088H122.514C122.618 28.808 122.722 28.524 122.826 28.236C122.938 27.94 123.042 27.66 123.138 27.396L124.41 24.168H125.346L122.778 30.48C122.666 30.768 122.538 31.036 122.394 31.284C122.25 31.532 122.078 31.744 121.878 31.92C121.678 32.104 121.446 32.248 121.182 32.352C120.926 32.456 120.634 32.508 120.306 32.508Z" fill="#46BCFF"/>
<path d="M128.882 30.144C128.61 30.144 128.354 30.104 128.114 30.024C127.874 29.952 127.662 29.848 127.478 29.712C127.302 29.568 127.162 29.396 127.058 29.196C126.954 28.988 126.902 28.752 126.902 28.488C126.902 28.16 126.978 27.876 127.13 27.636C127.29 27.388 127.538 27.176 127.874 27C128.218 26.824 128.658 26.68 129.194 26.568C129.73 26.456 130.374 26.368 131.126 26.304C131.118 26.104 131.086 25.916 131.03 25.74C130.974 25.564 130.886 25.412 130.766 25.284C130.646 25.148 130.486 25.04 130.286 24.96C130.094 24.88 129.858 24.84 129.578 24.84C129.194 24.84 128.826 24.916 128.474 25.068C128.122 25.212 127.81 25.368 127.538 25.536L127.154 24.864C127.298 24.768 127.466 24.672 127.658 24.576C127.858 24.472 128.066 24.38 128.282 24.3C128.506 24.22 128.742 24.156 128.99 24.108C129.238 24.052 129.49 24.024 129.746 24.024C130.546 24.024 131.138 24.244 131.522 24.684C131.914 25.116 132.11 25.696 132.11 26.424V30H131.306L131.222 29.208H131.186C130.858 29.464 130.494 29.684 130.094 29.868C129.702 30.052 129.298 30.144 128.882 30.144ZM129.146 29.352C129.482 29.352 129.81 29.28 130.13 29.136C130.458 28.984 130.79 28.768 131.126 28.488V26.952C130.502 27 129.978 27.068 129.554 27.156C129.138 27.244 128.802 27.352 128.546 27.48C128.298 27.6 128.122 27.74 128.018 27.9C127.914 28.052 127.862 28.224 127.862 28.416C127.862 28.584 127.898 28.728 127.97 28.848C128.042 28.96 128.134 29.056 128.246 29.136C128.366 29.208 128.502 29.264 128.654 29.304C128.814 29.336 128.978 29.352 129.146 29.352Z" fill="#46BCFF"/>
<path d="M133.821 30V24.168H134.613L134.697 24.936H134.721C134.873 24.664 135.049 24.444 135.249 24.276C135.449 24.108 135.717 24.024 136.053 24.024C136.621 24.024 136.989 24.36 137.157 25.032C137.325 24.72 137.509 24.476 137.709 24.3C137.917 24.116 138.189 24.024 138.525 24.024C138.933 24.024 139.249 24.18 139.473 24.492C139.705 24.796 139.821 25.24 139.821 25.824V30H138.837V25.896C138.837 25.216 138.629 24.876 138.213 24.876C138.005 24.876 137.837 24.952 137.709 25.104C137.581 25.248 137.437 25.472 137.277 25.776V30H136.365V25.896C136.365 25.56 136.317 25.308 136.221 25.14C136.133 24.964 135.981 24.876 135.765 24.876C135.557 24.876 135.381 24.952 135.237 25.104C135.093 25.248 134.949 25.472 134.805 25.776V30H133.821Z" fill="#46BCFF"/>
<path d="M152.172 26.916C151.932 26.916 151.716 26.864 151.524 26.76C151.34 26.656 151.164 26.54 150.996 26.412C150.836 26.284 150.676 26.168 150.516 26.064C150.364 25.96 150.204 25.908 150.036 25.908C149.852 25.908 149.676 25.976 149.508 26.112C149.348 26.248 149.2 26.524 149.064 26.94L148.428 26.664C148.636 26.104 148.884 25.716 149.172 25.5C149.46 25.276 149.756 25.164 150.06 25.164C150.3 25.164 150.512 25.216 150.696 25.32C150.888 25.424 151.064 25.54 151.224 25.668C151.392 25.796 151.552 25.912 151.704 26.016C151.864 26.12 152.028 26.172 152.196 26.172C152.292 26.172 152.38 26.16 152.46 26.136C152.548 26.104 152.632 26.052 152.712 25.98C152.8 25.9 152.88 25.792 152.952 25.656C153.024 25.52 153.096 25.348 153.168 25.14L153.804 25.428C153.596 25.988 153.348 26.376 153.06 26.592C152.772 26.808 152.476 26.916 152.172 26.916Z" fill="#46BCFF"/>
<path d="M167.102 32.112C166.27 31.464 165.61 30.684 165.122 29.772C164.642 28.86 164.402 27.824 164.402 26.664C164.402 25.504 164.642 24.468 165.122 23.556C165.61 22.644 166.27 21.864 167.102 21.216L167.642 21.72C166.834 22.4 166.238 23.14 165.854 23.94C165.478 24.74 165.29 25.648 165.29 26.664C165.29 27.68 165.478 28.588 165.854 29.388C166.238 30.188 166.834 30.928 167.642 31.608L167.102 32.112Z" fill="#46BCFF"/>
<path d="M169.966 30V22.128H171.19L172.294 25.488L172.678 26.76H172.726L173.098 25.488L174.214 22.128H175.438V30H174.478V26.064C174.478 25.872 174.482 25.652 174.49 25.404C174.506 25.148 174.522 24.892 174.538 24.636C174.562 24.38 174.582 24.132 174.598 23.892C174.614 23.652 174.63 23.448 174.646 23.28H174.61L174.166 24.816L173.038 27.912H172.318L171.214 24.816L170.758 23.28H170.734C170.75 23.448 170.766 23.652 170.782 23.892C170.806 24.132 170.826 24.38 170.842 24.636C170.858 24.892 170.87 25.148 170.878 25.404C170.894 25.652 170.902 25.872 170.902 26.064V30H169.966Z" fill="#46BCFF"/>
<path d="M179.249 30.144C178.977 30.144 178.721 30.104 178.481 30.024C178.241 29.952 178.029 29.848 177.845 29.712C177.669 29.568 177.529 29.396 177.425 29.196C177.321 28.988 177.269 28.752 177.269 28.488C177.269 28.16 177.345 27.876 177.497 27.636C177.657 27.388 177.905 27.176 178.241 27C178.585 26.824 179.025 26.68 179.561 26.568C180.097 26.456 180.741 26.368 181.493 26.304C181.485 26.104 181.453 25.916 181.397 25.74C181.341 25.564 181.253 25.412 181.133 25.284C181.013 25.148 180.853 25.04 180.653 24.96C180.461 24.88 180.225 24.84 179.945 24.84C179.561 24.84 179.193 24.916 178.841 25.068C178.489 25.212 178.177 25.368 177.905 25.536L177.521 24.864C177.665 24.768 177.833 24.672 178.025 24.576C178.225 24.472 178.433 24.38 178.649 24.3C178.873 24.22 179.109 24.156 179.357 24.108C179.605 24.052 179.857 24.024 180.113 24.024C180.913 24.024 181.505 24.244 181.889 24.684C182.281 25.116 182.477 25.696 182.477 26.424V30H181.673L181.589 29.208H181.553C181.225 29.464 180.861 29.684 180.461 29.868C180.069 30.052 179.665 30.144 179.249 30.144ZM179.513 29.352C179.849 29.352 180.177 29.28 180.497 29.136C180.825 28.984 181.157 28.768 181.493 28.488V26.952C180.869 27 180.345 27.068 179.921 27.156C179.505 27.244 179.169 27.352 178.913 27.48C178.665 27.6 178.489 27.74 178.385 27.9C178.281 28.052 178.229 28.224 178.229 28.416C178.229 28.584 178.265 28.728 178.337 28.848C178.409 28.96 178.501 29.056 178.613 29.136C178.733 29.208 178.869 29.264 179.021 29.304C179.181 29.336 179.345 29.352 179.513 29.352Z" fill="#46BCFF"/>
<path d="M187.212 30.144C186.636 30.144 186.104 30.056 185.616 29.88C185.128 29.696 184.704 29.48 184.344 29.232L184.8 28.584C185.136 28.824 185.504 29.016 185.904 29.16C186.312 29.304 186.788 29.376 187.332 29.376C187.828 29.376 188.196 29.288 188.436 29.112C188.684 28.928 188.808 28.712 188.808 28.464C188.808 28.352 188.788 28.248 188.748 28.152C188.708 28.056 188.62 27.964 188.484 27.876C188.356 27.788 188.172 27.704 187.932 27.624C187.692 27.544 187.376 27.464 186.984 27.384C186.224 27.224 185.652 27.012 185.268 26.748C184.892 26.476 184.704 26.12 184.704 25.68C184.704 25.448 184.756 25.232 184.86 25.032C184.964 24.824 185.116 24.648 185.316 24.504C185.524 24.352 185.776 24.236 186.072 24.156C186.376 24.068 186.728 24.024 187.128 24.024C187.576 24.024 188.008 24.1 188.424 24.252C188.84 24.396 189.192 24.568 189.48 24.768L189 25.404C188.728 25.22 188.428 25.072 188.1 24.96C187.772 24.848 187.42 24.792 187.044 24.792C186.548 24.792 186.2 24.876 186 25.044C185.8 25.212 185.7 25.408 185.7 25.632C185.7 25.888 185.832 26.084 186.096 26.22C186.36 26.348 186.792 26.476 187.392 26.604C187.88 26.708 188.28 26.82 188.592 26.94C188.904 27.052 189.148 27.18 189.324 27.324C189.508 27.468 189.632 27.628 189.696 27.804C189.768 27.98 189.804 28.18 189.804 28.404C189.804 28.644 189.748 28.868 189.636 29.076C189.524 29.284 189.356 29.468 189.132 29.628C188.916 29.788 188.644 29.912 188.316 30C187.996 30.096 187.628 30.144 187.212 30.144Z" fill="#46BCFF"/>
<path d="M195.415 30.144C194.991 30.144 194.636 30.088 194.348 29.976C194.06 29.856 193.828 29.692 193.652 29.484C193.476 29.268 193.348 29.012 193.268 28.716C193.196 28.42 193.16 28.092 193.16 27.732V24.972H191.516V24.228L193.195 24.168L193.327 22.296H194.143V24.168H197.012V24.972H194.143V27.744C194.143 28.008 194.168 28.24 194.215 28.44C194.263 28.632 194.344 28.796 194.456 28.932C194.568 29.068 194.719 29.172 194.911 29.244C195.103 29.308 195.34 29.34 195.62 29.34C195.9 29.34 196.152 29.316 196.376 29.268C196.6 29.22 196.815 29.156 197.023 29.076L197.24 29.796C196.976 29.892 196.696 29.972 196.4 30.036C196.112 30.108 195.783 30.144 195.415 30.144Z" fill="#46BCFF"/>
<path d="M201.843 30.144C201.403 30.144 200.991 30.076 200.607 29.94C200.231 29.804 199.899 29.604 199.611 29.34C199.331 29.076 199.107 28.756 198.939 28.38C198.779 27.996 198.699 27.56 198.699 27.072C198.699 26.6 198.779 26.176 198.939 25.8C199.107 25.424 199.327 25.104 199.599 24.84C199.879 24.576 200.195 24.376 200.547 24.24C200.907 24.096 201.283 24.024 201.675 24.024C202.091 24.024 202.463 24.092 202.791 24.228C203.127 24.356 203.407 24.54 203.631 24.78C203.863 25.02 204.039 25.308 204.159 25.644C204.279 25.98 204.339 26.352 204.339 26.76C204.339 26.872 204.335 26.98 204.327 27.084C204.319 27.188 204.307 27.28 204.291 27.36H199.695C199.759 28.024 199.999 28.524 200.415 28.86C200.839 29.188 201.355 29.352 201.963 29.352C202.315 29.352 202.631 29.304 202.911 29.208C203.199 29.104 203.475 28.968 203.739 28.8L204.099 29.448C203.811 29.64 203.479 29.804 203.103 29.94C202.735 30.076 202.315 30.144 201.843 30.144ZM201.699 24.804C201.459 24.804 201.227 24.844 201.003 24.924C200.787 25.004 200.591 25.12 200.415 25.272C200.239 25.416 200.091 25.6 199.971 25.824C199.851 26.048 199.767 26.304 199.719 26.592H203.439C203.399 25.992 203.223 25.544 202.911 25.248C202.607 24.952 202.203 24.804 201.699 24.804Z" fill="#46BCFF"/>
<path d="M206.83 30V24.168H207.646L207.73 25.548H207.766C208.07 25.076 208.442 24.704 208.882 24.432C209.33 24.16 209.826 24.024 210.37 24.024C210.586 24.024 210.786 24.044 210.97 24.084C211.154 24.116 211.338 24.176 211.522 24.264L211.294 25.116C211.086 25.044 210.91 24.992 210.766 24.96C210.63 24.928 210.446 24.912 210.214 24.912C209.774 24.912 209.35 25.04 208.942 25.296C208.542 25.544 208.166 25.972 207.814 26.58V30H206.83Z" fill="#46BCFF"/>
<path d="M214.277 32.112L213.737 31.608C214.545 30.928 215.137 30.188 215.513 29.388C215.897 28.588 216.089 27.68 216.089 26.664C216.089 25.648 215.897 24.74 215.513 23.94C215.137 23.14 214.545 22.4 213.737 21.72L214.277 21.216C215.109 21.864 215.765 22.644 216.245 23.556C216.733 24.468 216.977 25.504 216.977 26.664C216.977 27.824 216.733 28.86 216.245 29.772C215.765 30.684 215.109 31.464 214.277 32.112Z" fill="#46BCFF"/>
<path d="M19.296 45.976V45.172H20.244C20.908 45.172 21.432 45.056 21.816 44.824C22.2 44.592 22.412 44.236 22.452 43.756H19.296V43.228L20.208 43.168H22.416C22.32 42.8 22.084 42.54 21.708 42.388C21.34 42.236 20.852 42.16 20.244 42.16H19.296V41.344H24.3V41.932H22.416C22.68 42.052 22.896 42.22 23.064 42.436C23.24 42.644 23.356 42.888 23.412 43.168H24.3V43.756H23.436C23.396 44.372 23.192 44.856 22.824 45.208C22.456 45.552 21.976 45.78 21.384 45.892L23.88 49H22.764L20.364 45.976H19.296Z" fill="#46BCFF"/>
<path d="M28.7953 44.848C28.5233 44.848 28.2913 44.756 28.0993 44.572C27.9153 44.388 27.8233 44.144 27.8233 43.84C27.8233 43.536 27.9153 43.292 28.0993 43.108C28.2913 42.916 28.5233 42.82 28.7953 42.82C29.0673 42.82 29.2953 42.916 29.4793 43.108C29.6713 43.292 29.7673 43.536 29.7673 43.84C29.7673 44.144 29.6713 44.388 29.4793 44.572C29.2953 44.756 29.0673 44.848 28.7953 44.848ZM28.7953 49.144C28.5233 49.144 28.2913 49.052 28.0993 48.868C27.9153 48.684 27.8233 48.44 27.8233 48.136C27.8233 47.832 27.9153 47.588 28.0993 47.404C28.2913 47.212 28.5233 47.116 28.7953 47.116C29.0673 47.116 29.2953 47.212 29.4793 47.404C29.6713 47.588 29.7673 47.832 29.7673 48.136C29.7673 48.44 29.6713 48.684 29.4793 48.868C29.2953 49.052 29.0673 49.144 28.7953 49.144Z" fill="#46BCFF"/>
</svg>
