<svg width="2408" height="2167" viewBox="0 0 2408 2167" fill="none" xmlns="http://www.w3.org/2000/svg">
<g filter="url(#filter0_d)">
<path d="M632 321.486C728.65 321.486 807 388.867 807 471.986C807 555.105 728.65 622.486 632 622.486C535.35 622.486 457 555.105 457 471.986C457 388.867 535.35 321.486 632 321.486Z" fill="url(#paint0_linear)"/>
<path d="M1774 321.486C1677.35 321.486 1599 388.867 1599 471.986C1599 555.105 1677.35 622.486 1774 622.486C1870.65 622.486 1949 555.105 1949 471.986C1949 388.867 1870.65 321.486 1774 321.486Z" fill="url(#paint1_linear)"/>
<path d="M419.761 289.563C424.982 284.869 431.824 282.448 438.845 282.448L856.838 282.448L468.139 282.448C461.117 282.448 454.275 284.869 449.054 289.564C396.128 337.148 363.617 401.668 363.617 472.72C363.617 538.313 391.325 598.339 437.222 644.613C443.418 650.86 439.181 662.122 430.382 662.122C428.16 662.122 426.002 661.34 424.319 659.889C368.708 611.952 334.324 545.789 334.324 472.72C334.324 401.668 366.835 337.147 419.761 289.563Z" fill="url(#paint2_linear)"/>
<path d="M1986.24 289.563C1981.02 284.869 1974.18 282.448 1967.15 282.448L1549.16 282.448L1937.86 282.448C1944.88 282.448 1951.72 284.869 1956.95 289.564C2009.87 337.148 2042.38 401.668 2042.38 472.72C2042.38 538.313 2014.68 598.339 1968.78 644.613C1962.58 650.86 1966.82 662.122 1975.62 662.122C1977.84 662.122 1980 661.34 1981.68 659.889C2037.29 611.952 2071.68 545.789 2071.68 472.72C2071.68 401.668 2039.17 337.147 1986.24 289.563Z" fill="url(#paint3_linear)"/>
<path d="M334.069 171.125C336.747 168.839 340.168 167.607 343.689 167.607C357.759 167.607 364.504 185.655 354.549 195.598C280.043 270.022 235.001 366.891 235.001 472.809C235.001 578.021 279.445 674.306 353.066 748.531C363.005 758.551 356.208 776.616 342.095 776.616C338.53 776.616 335.069 775.361 332.369 773.033C243.168 696.14 188.014 590.014 188.014 472.809C188.014 354.86 243.869 248.132 334.069 171.125Z" fill="url(#paint4_linear)"/>
<path d="M2071.93 171.125C2069.25 168.839 2065.83 167.607 2062.31 167.607C2048.24 167.607 2041.5 185.655 2051.45 195.598C2125.96 270.022 2171 366.891 2171 472.809C2171 578.021 2126.55 674.306 2052.93 748.531C2042.99 758.551 2049.79 776.616 2063.91 776.616C2067.47 776.616 2070.93 775.361 2073.63 773.033C2162.83 696.14 2217.99 590.014 2217.99 472.809C2217.99 354.86 2162.13 248.132 2071.93 171.125Z" fill="url(#paint5_linear)"/>
<path d="M244.921 938.486C266.53 938.486 276.938 910.825 261.72 895.483C148.995 781.834 80.9447 634.407 80.9447 473.31C80.9447 311.134 149.91 162.813 263.991 48.8586C279.233 33.6333 268.906 6.00002 247.362 6C241.97 6 236.733 7.88581 232.633 11.3869C94.5221 129.296 8.99999 292.713 9 473.31C9.00001 652.77 93.4484 815.265 230.03 933C234.164 936.564 239.463 938.486 244.921 938.486Z" fill="url(#paint6_linear)"/>
<path d="M2161.08 938.486C2139.47 938.486 2129.06 910.825 2144.28 895.483C2257 781.834 2325.06 634.407 2325.06 473.31C2325.06 311.134 2256.09 162.813 2142.01 48.8586C2126.77 33.6333 2137.09 6.00002 2158.64 6C2164.03 6 2169.27 7.88581 2173.37 11.3869C2311.48 129.296 2397 292.713 2397 473.31C2397 652.77 2312.55 815.265 2175.97 933C2171.84 936.564 2166.54 938.486 2161.08 938.486Z" fill="url(#paint7_linear)"/>
<path d="M966 719.486C938.386 719.486 916 697.1 916 669.486V275.486C916 247.872 938.386 225.486 966 225.486L1440 225.486C1467.61 225.486 1490 247.872 1490 275.486V669.486C1490 697.1 1467.61 719.486 1440 719.486H966Z" fill="url(#paint8_linear)"/>
</g>
<path d="M542.429 2149.17C537.668 2150.63 532.785 2151.37 527.78 2151.37C509.47 2151.37 500.314 2142.27 500.314 2124.08C500.314 2106.87 509.47 2098.27 527.78 2098.27C532.785 2098.27 537.668 2099 542.429 2100.46V2103.76C537.668 2102.29 533.029 2101.56 528.513 2101.56C512.277 2101.56 504.16 2109.07 504.16 2124.08C504.16 2140.07 512.277 2148.07 528.513 2148.07C533.029 2148.07 537.668 2147.34 542.429 2145.87V2149.17ZM556.015 2124.67C556.015 2140.27 563.376 2148.07 578.098 2148.07C592.551 2148.07 599.777 2140.27 599.777 2124.67C599.777 2109.26 592.551 2101.56 578.098 2101.56C563.376 2101.56 556.015 2109.26 556.015 2124.67ZM551.804 2124.89C551.804 2107.14 560.568 2098.27 578.098 2098.27C595.358 2098.27 603.989 2107.14 603.989 2124.89C603.989 2142.54 595.358 2151.37 578.098 2151.37C560.568 2151.37 551.804 2142.54 551.804 2124.89ZM632.224 2147.7C646.75 2147.7 654.013 2139.6 654.013 2123.39C654.013 2109.08 646.75 2101.93 632.224 2101.93H617.758V2147.7H632.224ZM613.913 2151V2098.63H632.59C649.68 2098.63 658.225 2106.88 658.225 2123.39C658.225 2141.8 649.558 2151 632.224 2151H613.913ZM702.133 2098.63V2101.93H671.591V2122.8H700.888V2126.1H671.591V2147.7H702.646V2151H667.746V2098.63H702.133ZM731.76 2147.7C746.286 2147.7 753.549 2139.6 753.549 2123.39C753.549 2109.08 746.286 2101.93 731.76 2101.93H717.294V2147.7H731.76ZM713.449 2151V2098.63H732.126C749.216 2098.63 757.761 2106.88 757.761 2123.39C757.761 2141.8 749.094 2151 731.76 2151H713.449ZM787.973 2124.67C787.973 2140.27 794.113 2148.07 806.394 2148.07C818.405 2148.07 824.411 2140.27 824.411 2124.67C824.411 2109.26 818.405 2101.56 806.394 2101.56C794.113 2101.56 787.973 2109.26 787.973 2124.67ZM783.762 2124.89C783.762 2107.14 791.306 2098.27 806.394 2098.27C821.213 2098.27 828.623 2107.14 828.623 2124.89C828.623 2142.54 821.213 2151.37 806.394 2151.37C792.087 2151.37 784.543 2142.54 783.762 2124.89ZM840.927 2124.67C840.927 2140.27 847.067 2148.07 859.348 2148.07C871.359 2148.07 877.365 2140.27 877.365 2124.67C877.365 2109.26 871.359 2101.56 859.348 2101.56C847.067 2101.56 840.927 2109.26 840.927 2124.67ZM836.716 2124.89C836.716 2107.14 844.26 2098.27 859.348 2098.27C874.167 2098.27 881.577 2107.14 881.577 2124.89C881.577 2142.54 874.167 2151.37 859.348 2151.37C845.041 2151.37 837.497 2142.54 836.716 2124.89ZM889.67 2130.86C889.67 2117.28 897.702 2106.02 913.767 2097.06L915.451 2099.88C904.733 2106.3 898.093 2112.88 895.529 2119.62C899.948 2118.08 904.294 2117.31 908.566 2117.31C921.359 2117.31 927.756 2122.8 927.756 2133.79C927.756 2145.51 921.494 2151.37 908.969 2151.37C896.103 2151.37 889.67 2144.53 889.67 2130.86ZM893.149 2130.64C893.149 2142.26 898.532 2148.07 909.299 2148.07C919.138 2148.07 924.057 2143.31 924.057 2133.79C924.057 2125 918.906 2120.6 908.603 2120.6C903.378 2120.6 898.691 2121.43 894.541 2123.09C893.613 2124.8 893.149 2127.32 893.149 2130.64ZM935.446 2130.86C935.446 2117.28 943.479 2106.02 959.543 2097.06L961.228 2099.88C950.51 2106.3 943.869 2112.88 941.306 2119.62C945.725 2118.08 950.07 2117.31 954.343 2117.31C967.136 2117.31 973.532 2122.8 973.532 2133.79C973.532 2145.51 967.27 2151.37 954.746 2151.37C941.879 2151.37 935.446 2144.53 935.446 2130.86ZM938.925 2130.64C938.925 2142.26 944.309 2148.07 955.075 2148.07C964.914 2148.07 969.833 2143.31 969.833 2133.79C969.833 2125 964.682 2120.6 954.379 2120.6C949.155 2120.6 944.467 2121.43 940.317 2123.09C939.389 2124.8 938.925 2127.32 938.925 2130.64ZM1017.44 2098.63V2101.93H986.899V2122.8H1016.2V2126.1H986.899V2151H983.054V2098.63H1017.44ZM1060.43 2098.63V2101.93H1029.89V2122.8H1059.19V2126.1H1029.89V2151H1026.05V2098.63H1060.43ZM1091.01 2151V2102.99H1085.52V2100.83L1094.86 2098.27V2151H1091.01ZM1107.71 2100.46C1112.59 2099 1117.48 2098.27 1122.36 2098.27C1134.93 2098.27 1141.22 2103.03 1141.22 2112.55C1141.22 2118.8 1138.31 2122.77 1132.5 2124.45C1138.31 2126.04 1141.22 2130 1141.22 2136.35C1141.22 2146.36 1134.93 2151.37 1122.36 2151.37C1117.48 2151.37 1112.59 2150.63 1107.71 2149.17V2145.51C1112.59 2147.22 1117.48 2148.07 1122.36 2148.07C1132.37 2148.07 1137.38 2144.16 1137.38 2136.35C1137.38 2129.52 1133.32 2126.1 1125.22 2126.1H1113.21V2122.8H1125.11C1133.29 2122.8 1137.38 2119.38 1137.38 2112.55C1137.38 2105.22 1132.37 2101.56 1122.36 2101.56C1117.48 2101.56 1112.59 2102.42 1107.71 2104.12V2100.46ZM1150.19 2098.63H1185.71V2101.93L1161.47 2151H1157.04L1181.65 2101.93H1150.19V2098.63ZM1197.29 2151V2102.99H1191.79V2100.83L1201.13 2098.27V2151H1197.29ZM1250.2 2098.63V2101.93H1219.66V2122.8H1248.96V2126.1H1219.66V2151H1215.82V2098.63H1250.2ZM1293.2 2098.63V2101.93H1262.66V2122.8H1291.95V2126.1H1262.66V2147.7H1293.71V2151H1258.81V2098.63H1293.2ZM1325.2 2124.67C1325.2 2140.27 1331.34 2148.07 1343.62 2148.07C1355.64 2148.07 1361.64 2140.27 1361.64 2124.67C1361.64 2109.26 1355.64 2101.56 1343.62 2101.56C1331.34 2101.56 1325.2 2109.26 1325.2 2124.67ZM1320.99 2124.89C1320.99 2107.14 1328.54 2098.27 1343.62 2098.27C1358.44 2098.27 1365.85 2107.14 1365.85 2124.89C1365.85 2142.54 1358.44 2151.37 1343.62 2151.37C1329.32 2151.37 1321.77 2142.54 1320.99 2124.89ZM1375.78 2151V2098.63H1398.12C1408.08 2098.63 1413.06 2102.7 1413.06 2110.83C1413.06 2116.78 1409.45 2121.04 1402.22 2123.61C1409.88 2124.9 1413.72 2128.99 1413.72 2135.88C1413.72 2145.96 1408.26 2151 1397.35 2151H1375.78ZM1396.95 2147.7C1405.39 2147.7 1409.62 2143.8 1409.62 2135.99C1409.62 2129.08 1404.33 2125.62 1393.76 2125.62H1390.83V2123.02C1403.04 2121.92 1409.14 2117.94 1409.14 2111.08C1409.14 2104.98 1405.38 2101.93 1397.86 2101.93H1379.62V2147.7H1396.95ZM1424.67 2098.63H1454.84V2101.93H1427.89L1426.65 2121.04C1431.21 2120.51 1435.07 2120.24 1438.22 2120.24C1450.67 2120.24 1456.89 2125.12 1456.89 2134.89C1456.89 2145.87 1450.42 2151.37 1437.48 2151.37C1432.6 2151.37 1427.72 2150.63 1422.84 2149.17V2145.51C1427.72 2147.22 1432.72 2148.07 1437.85 2148.07C1447.98 2148.07 1453.05 2143.68 1453.05 2134.89C1453.05 2127.32 1448.1 2123.53 1438.22 2123.53C1432.72 2123.53 1427.6 2124.14 1422.84 2125.37L1424.67 2098.63ZM1496.74 2151H1492.89V2138.55H1462.79V2135.25L1485.68 2098.63H1489.85L1466.93 2135.25H1492.89V2114.45H1496.74V2135.25L1502.52 2136.57V2138.55H1496.74V2151ZM1551.41 2149.17C1546.65 2150.63 1541.77 2151.37 1536.76 2151.37C1518.45 2151.37 1509.3 2142.27 1509.3 2124.08C1509.3 2106.87 1518.45 2098.27 1536.76 2098.27C1541.77 2098.27 1546.65 2099 1551.41 2100.46V2103.76C1546.65 2102.29 1542.01 2101.56 1537.5 2101.56C1521.26 2101.56 1513.14 2109.07 1513.14 2124.08C1513.14 2140.07 1521.26 2148.07 1537.5 2148.07C1542.01 2148.07 1546.65 2147.34 1551.41 2145.87V2149.17ZM1560.79 2100.46C1565.67 2099 1570.55 2098.27 1575.44 2098.27C1588.01 2098.27 1594.3 2103.03 1594.3 2112.55C1594.3 2118.8 1591.39 2122.77 1585.58 2124.45C1591.39 2126.04 1594.3 2130 1594.3 2136.35C1594.3 2146.36 1588.01 2151.37 1575.44 2151.37C1570.55 2151.37 1565.67 2150.63 1560.79 2149.17V2145.51C1565.67 2147.22 1570.55 2148.07 1575.44 2148.07C1585.45 2148.07 1590.45 2144.16 1590.45 2136.35C1590.45 2129.52 1586.4 2126.1 1578.29 2126.1H1566.28V2122.8H1578.18C1586.36 2122.8 1590.45 2119.38 1590.45 2112.55C1590.45 2105.22 1585.45 2101.56 1575.44 2101.56C1570.55 2101.56 1565.67 2102.42 1560.79 2104.12V2100.46ZM1625.79 2124.67C1625.79 2140.27 1631.93 2148.07 1644.21 2148.07C1656.22 2148.07 1662.23 2140.27 1662.23 2124.67C1662.23 2109.26 1656.22 2101.56 1644.21 2101.56C1631.93 2101.56 1625.79 2109.26 1625.79 2124.67ZM1621.58 2124.89C1621.58 2107.14 1629.12 2098.27 1644.21 2098.27C1659.03 2098.27 1666.44 2107.14 1666.44 2124.89C1666.44 2142.54 1659.03 2151.37 1644.21 2151.37C1629.9 2151.37 1622.36 2142.54 1621.58 2124.89ZM1678.74 2124.67C1678.74 2140.27 1684.88 2148.07 1697.17 2148.07C1709.18 2148.07 1715.18 2140.27 1715.18 2124.67C1715.18 2109.26 1709.18 2101.56 1697.17 2101.56C1684.88 2101.56 1678.74 2109.26 1678.74 2124.67ZM1674.53 2124.89C1674.53 2107.14 1682.08 2098.27 1697.17 2098.27C1711.98 2098.27 1719.39 2107.14 1719.39 2124.89C1719.39 2142.54 1711.98 2151.37 1697.17 2151.37C1682.86 2151.37 1675.31 2142.54 1674.53 2124.89ZM1727.49 2100.46C1732.37 2099 1737.25 2098.27 1742.14 2098.27C1754.71 2098.27 1761 2103.03 1761 2112.55C1761 2118.8 1758.09 2122.77 1752.28 2124.45C1758.09 2126.04 1761 2130 1761 2136.35C1761 2146.36 1754.71 2151.37 1742.14 2151.37C1737.25 2151.37 1732.37 2150.63 1727.49 2149.17V2145.51C1732.37 2147.22 1737.25 2148.07 1742.14 2148.07C1752.15 2148.07 1757.15 2144.16 1757.15 2136.35C1757.15 2129.52 1753.1 2126.1 1744.99 2126.1H1732.98V2122.8H1744.88C1753.06 2122.8 1757.15 2119.38 1757.15 2112.55C1757.15 2105.22 1752.15 2101.56 1742.14 2101.56C1737.25 2101.56 1732.37 2102.42 1727.49 2104.12V2100.46ZM1769.97 2135.47C1769.97 2129.54 1773.04 2125.62 1779.2 2123.72C1774.02 2121.64 1771.43 2117.58 1771.43 2111.52C1771.43 2102.59 1777.29 2098.12 1789.01 2098.12C1800.73 2098.12 1806.59 2102.59 1806.59 2111.52C1806.59 2117.58 1803.94 2121.64 1798.64 2123.72C1804.92 2125.62 1808.05 2129.54 1808.05 2135.47C1808.05 2146.07 1801.71 2151.37 1789.01 2151.37C1776.32 2151.37 1769.97 2146.07 1769.97 2135.47ZM1789.19 2122.07C1798.23 2122.07 1802.74 2118.8 1802.74 2112.25C1802.74 2105.13 1798.07 2101.56 1788.72 2101.56C1779.76 2101.56 1775.28 2105.13 1775.28 2112.25C1775.28 2118.8 1779.92 2122.07 1789.19 2122.07ZM1789.19 2148.07C1799.2 2148.07 1804.21 2143.94 1804.21 2135.69C1804.21 2128.81 1799.04 2125.37 1788.72 2125.37C1778.78 2125.37 1773.81 2128.81 1773.81 2135.69C1773.81 2143.94 1778.94 2148.07 1789.19 2148.07ZM1816.11 2135.47C1816.11 2129.54 1819.19 2125.62 1825.34 2123.72C1820.16 2121.64 1817.58 2117.58 1817.58 2111.52C1817.58 2102.59 1823.43 2098.12 1835.15 2098.12C1846.87 2098.12 1852.73 2102.59 1852.73 2111.52C1852.73 2117.58 1850.08 2121.64 1844.78 2123.72C1851.06 2125.62 1854.2 2129.54 1854.2 2135.47C1854.2 2146.07 1847.85 2151.37 1835.15 2151.37C1822.46 2151.37 1816.11 2146.07 1816.11 2135.47ZM1835.34 2122.07C1844.37 2122.07 1848.89 2118.8 1848.89 2112.25C1848.89 2105.13 1844.21 2101.56 1834.86 2101.56C1825.9 2101.56 1821.42 2105.13 1821.42 2112.25C1821.42 2118.8 1826.06 2122.07 1835.34 2122.07ZM1835.34 2148.07C1845.35 2148.07 1850.35 2143.94 1850.35 2135.69C1850.35 2128.81 1845.19 2125.37 1834.86 2125.37C1824.92 2125.37 1819.96 2128.81 1819.96 2135.69C1819.96 2143.94 1825.08 2148.07 1835.34 2148.07ZM1904.37 2149.17C1899.61 2150.63 1894.72 2151.37 1889.72 2151.37C1871.41 2151.37 1862.25 2142.27 1862.25 2124.08C1862.25 2106.87 1871.41 2098.27 1889.72 2098.27C1894.72 2098.27 1899.61 2099 1904.37 2100.46V2103.76C1899.61 2102.29 1894.97 2101.56 1890.45 2101.56C1874.22 2101.56 1866.1 2109.07 1866.1 2124.08C1866.1 2140.07 1874.22 2148.07 1890.45 2148.07C1894.97 2148.07 1899.61 2147.34 1904.37 2145.87V2149.17Z" fill="black"/>
<path d="M272.958 1574.9C257.089 1579.78 240.813 1582.22 224.13 1582.22C163.095 1582.22 132.577 1551.91 132.577 1491.28C132.577 1433.91 163.095 1405.22 224.13 1405.22C240.813 1405.22 257.089 1407.66 272.958 1412.54V1423.53C257.089 1418.65 241.627 1416.21 226.571 1416.21C172.453 1416.21 145.395 1441.23 145.395 1491.28C145.395 1544.58 172.453 1571.23 226.571 1571.23C241.627 1571.23 257.089 1568.79 272.958 1563.91V1574.9ZM318.246 1493.23C318.246 1545.23 342.782 1571.23 391.854 1571.23C440.032 1571.23 464.12 1545.23 464.12 1493.23C464.12 1441.88 440.032 1416.21 391.854 1416.21C342.782 1416.21 318.246 1441.88 318.246 1493.23ZM304.208 1493.96C304.208 1434.8 333.424 1405.22 391.854 1405.22C449.39 1405.22 478.158 1434.8 478.158 1493.96C478.158 1552.8 449.39 1582.22 391.854 1582.22C333.424 1582.22 304.208 1552.8 304.208 1493.96ZM511.239 1581V1406.44H524.057L602.792 1565.99L676.645 1406.44H688.241V1581H676.645V1430L607.309 1581H596.811L522.836 1428.78V1581H511.239ZM727.304 1581V1406.44H740.121L818.856 1565.99L892.709 1406.44H904.306V1581H892.709V1430L823.373 1581H812.875L738.9 1428.78V1581H727.304ZM943.368 1513.62V1406.44H956.186V1513.62C956.186 1552.03 975.31 1571.23 1013.56 1571.23C1051.81 1571.23 1070.93 1552.03 1070.93 1513.62V1406.44H1083.75V1513.62C1083.75 1559.35 1060.35 1582.22 1013.56 1582.22C966.765 1582.22 943.368 1559.35 943.368 1513.62ZM1122.81 1581V1406.44H1139.29L1255.87 1559.27V1406.44H1267.46V1581H1257.09L1134.41 1420.84V1581H1122.81ZM1325.57 1406.44V1581H1312.75V1406.44H1325.57ZM1505.14 1574.9C1489.27 1579.78 1472.99 1582.22 1456.31 1582.22C1395.27 1582.22 1364.75 1551.91 1364.75 1491.28C1364.75 1433.91 1395.27 1405.22 1456.31 1405.22C1472.99 1405.22 1489.27 1407.66 1505.14 1412.54V1423.53C1489.27 1418.65 1473.8 1416.21 1458.75 1416.21C1404.63 1416.21 1377.57 1441.23 1377.57 1491.28C1377.57 1544.58 1404.63 1571.23 1458.75 1571.23C1473.8 1571.23 1489.27 1568.79 1505.14 1563.91V1574.9ZM1540.9 1581H1527.23L1606.21 1406.44H1621.47L1700.81 1581H1685.56L1659.68 1522.41H1581.43L1585.21 1511.42H1654.92L1613.05 1416.45L1540.9 1581ZM1837.53 1406.44V1417.43H1777.72V1581H1764.9V1417.43H1706.31V1406.44H1837.53ZM1877.33 1406.44V1581H1864.51V1406.44H1877.33ZM1930.55 1493.23C1930.55 1545.23 1955.09 1571.23 2004.16 1571.23C2052.34 1571.23 2076.42 1545.23 2076.42 1493.23C2076.42 1441.88 2052.34 1416.21 2004.16 1416.21C1955.09 1416.21 1930.55 1441.88 1930.55 1493.23ZM1916.51 1493.96C1916.51 1434.8 1945.73 1405.22 2004.16 1405.22C2061.69 1405.22 2090.46 1434.8 2090.46 1493.96C2090.46 1552.8 2061.69 1582.22 2004.16 1582.22C1945.73 1582.22 1916.51 1552.8 1916.51 1493.96ZM2123.54 1581V1406.44H2140.02L2256.6 1559.27V1406.44H2268.2V1581H2257.82L2135.14 1420.84V1581H2123.54Z" fill="#0F63E3"/>
<path d="M76.1079 1902V1814.72H112.729C129.737 1814.72 138.242 1822.72 138.242 1838.71C138.242 1854.45 124.631 1864.48 97.4092 1868.8L96.3105 1862.94C119.504 1859.72 131.101 1851.81 131.101 1839.19C131.101 1826.66 124.631 1820.4 111.691 1820.4H82.5166V1902H76.1079ZM210.568 1814.72V1820.21H159.665V1855H208.493V1860.5H159.665V1896.51H211.423V1902H153.256V1814.72H210.568ZM229.428 1902V1814.72H265.439C281.227 1814.72 289.121 1821.7 289.121 1835.65C289.121 1847.74 280.555 1856.31 263.425 1861.35L292.905 1902H284.116L255.124 1861.53V1857.2C273.028 1854.56 281.979 1847.54 281.979 1836.14C281.979 1825.65 276.12 1820.4 264.401 1820.4H235.837V1902H229.428ZM362.18 1814.72V1820.21H311.276V1855H360.104V1860.5H311.276V1902H304.868V1814.72H362.18ZM433.835 1814.72V1820.21H382.932V1855H431.76V1860.5H382.932V1896.51H434.689V1902H376.523V1814.72H433.835ZM519.833 1898.95C511.899 1901.39 503.761 1902.61 495.419 1902.61C464.902 1902.61 449.643 1887.45 449.643 1857.14C449.643 1828.45 464.902 1814.11 495.419 1814.11C503.761 1814.11 511.899 1815.33 519.833 1817.77V1823.26C511.899 1820.82 504.168 1819.6 496.64 1819.6C469.581 1819.6 456.052 1832.11 456.052 1857.14C456.052 1883.79 469.581 1897.12 496.64 1897.12C504.168 1897.12 511.899 1895.9 519.833 1893.46V1898.95ZM594.968 1814.72V1820.21H565.061V1902H558.652V1820.21H529.355V1814.72H594.968ZM703.061 1898.95C695.126 1901.39 686.988 1902.61 678.647 1902.61C648.129 1902.61 632.871 1887.45 632.871 1857.14C632.871 1828.45 648.129 1814.11 678.647 1814.11C686.988 1814.11 695.126 1815.33 703.061 1817.77V1823.26C695.126 1820.82 687.395 1819.6 679.868 1819.6C652.809 1819.6 639.279 1832.11 639.279 1857.14C639.279 1883.79 652.809 1897.12 679.868 1897.12C687.395 1897.12 695.126 1895.9 703.061 1893.46V1898.95ZM725.705 1858.12C725.705 1884.12 737.973 1897.12 762.509 1897.12C786.598 1897.12 798.642 1884.12 798.642 1858.12C798.642 1832.44 786.598 1819.6 762.509 1819.6C737.973 1819.6 725.705 1832.44 725.705 1858.12ZM718.686 1858.48C718.686 1828.9 733.294 1814.11 762.509 1814.11C791.277 1814.11 805.661 1828.9 805.661 1858.48C805.661 1887.9 791.277 1902.61 762.509 1902.61C733.294 1902.61 718.686 1887.9 718.686 1858.48ZM822.202 1902V1814.72H828.61L867.978 1894.49L904.904 1814.72H910.703V1902H904.904V1826.5L870.236 1902H864.987L828 1825.89V1902H822.202ZM930.234 1902V1814.72H936.643L976.01 1894.49L1012.94 1814.72H1018.73V1902H1012.94V1826.5L978.269 1902H973.02L936.032 1825.89V1902H930.234ZM1038.27 1868.31V1814.72H1044.67V1868.31C1044.67 1887.51 1054.24 1897.12 1073.36 1897.12C1092.49 1897.12 1102.05 1887.51 1102.05 1868.31V1814.72H1108.46V1868.31C1108.46 1891.18 1096.76 1902.61 1073.36 1902.61C1049.96 1902.61 1038.27 1891.18 1038.27 1868.31ZM1127.99 1902V1814.72H1136.23L1194.52 1891.14V1814.72H1200.31V1902H1195.13L1133.79 1821.92V1902H1127.99ZM1229.37 1814.72V1902H1222.96V1814.72H1229.37ZM1319.15 1898.95C1311.22 1901.39 1303.08 1902.61 1294.74 1902.61C1264.22 1902.61 1248.96 1887.45 1248.96 1857.14C1248.96 1828.45 1264.22 1814.11 1294.74 1814.11C1303.08 1814.11 1311.22 1815.33 1319.15 1817.77V1823.26C1311.22 1820.82 1303.48 1819.6 1295.96 1819.6C1268.9 1819.6 1255.37 1832.11 1255.37 1857.14C1255.37 1883.79 1268.9 1897.12 1295.96 1897.12C1303.48 1897.12 1311.22 1895.9 1319.15 1893.46V1898.95ZM1337.03 1902H1330.2L1369.69 1814.72H1377.32L1416.99 1902H1409.36L1396.42 1872.7H1357.3L1359.19 1867.21H1394.04L1373.1 1819.72L1337.03 1902ZM1485.35 1814.72V1820.21H1455.44V1902H1449.03V1820.21H1419.74V1814.72H1485.35ZM1505.25 1814.72V1902H1498.84V1814.72H1505.25ZM1531.86 1858.12C1531.86 1884.12 1544.13 1897.12 1568.66 1897.12C1592.75 1897.12 1604.79 1884.12 1604.79 1858.12C1604.79 1832.44 1592.75 1819.6 1568.66 1819.6C1544.13 1819.6 1531.86 1832.44 1531.86 1858.12ZM1524.84 1858.48C1524.84 1828.9 1539.45 1814.11 1568.66 1814.11C1597.43 1814.11 1611.81 1828.9 1611.81 1858.48C1611.81 1887.9 1597.43 1902.61 1568.66 1902.61C1539.45 1902.61 1524.84 1887.9 1524.84 1858.48ZM1628.35 1902V1814.72H1636.59L1694.88 1891.14V1814.72H1700.68V1902H1695.49L1634.15 1821.92V1902H1628.35ZM1817.93 1898.95C1809.99 1901.39 1801.86 1902.61 1793.52 1902.61C1763 1902.61 1747.74 1887.45 1747.74 1857.14C1747.74 1828.45 1763 1814.11 1793.52 1814.11C1801.86 1814.11 1809.99 1815.33 1817.93 1817.77V1823.26C1809.99 1820.82 1802.26 1819.6 1794.74 1819.6C1767.68 1819.6 1754.15 1832.11 1754.15 1857.14C1754.15 1883.79 1767.68 1897.12 1794.74 1897.12C1802.26 1897.12 1809.99 1895.9 1817.93 1893.46V1898.95ZM1836.61 1902V1814.72H1843.01V1855H1902.52V1814.72H1908.93V1902H1902.52V1860.5H1843.01V1902H1836.61ZM1927.73 1902H1920.9L1960.39 1814.72H1968.01L2007.69 1902H2000.06L1987.12 1872.7H1948L1949.89 1867.21H1984.74L1963.8 1819.72L1927.73 1902ZM2019.59 1902V1814.72H2027.83L2086.12 1891.14V1814.72H2091.92V1902H2086.73L2025.39 1821.92V1902H2019.59ZM2111.51 1902V1814.72H2119.75L2178.04 1891.14V1814.72H2183.83V1902H2178.65L2117.31 1821.92V1902H2111.51ZM2260.74 1814.72V1820.21H2209.84V1855H2258.66V1860.5H2209.84V1896.51H2261.59V1902H2203.43V1814.72H2260.74ZM2286.01 1814.72V1896.51H2336.54V1902H2279.6V1814.72H2286.01Z" fill="#0647AA"/>
<defs>
<filter id="filter0_d" x="0" y="0" width="2408" height="952.486" filterUnits="userSpaceOnUse" color-interpolation-filters="sRGB">
<feFlood flood-opacity="0" result="BackgroundImageFix"/>
<feColorMatrix in="SourceAlpha" type="matrix" values="0 0 0 0 0 0 0 0 0 0 0 0 0 0 0 0 0 0 127 0"/>
<feOffset dx="1" dy="4"/>
<feGaussianBlur stdDeviation="5"/>
<feColorMatrix type="matrix" values="0 0 0 0 0 0 0 0 0 0 0 0 0 0 0 0 0 0 0.5 0"/>
<feBlend mode="normal" in2="BackgroundImageFix" result="effect1_dropShadow"/>
<feBlend mode="normal" in="SourceGraphic" in2="effect1_dropShadow" result="shape"/>
</filter>
<linearGradient id="paint0_linear" x1="1203" y1="6" x2="1203" y2="938.486" gradientUnits="userSpaceOnUse">
<stop stop-color="#0066FF"/>
<stop offset="0.21875" stop-color="#1371FE"/>
<stop offset="0.453125" stop-color="#0B54C3"/>
<stop offset="1" stop-color="#00388C"/>
</linearGradient>
<linearGradient id="paint1_linear" x1="1203" y1="6" x2="1203" y2="938.486" gradientUnits="userSpaceOnUse">
<stop stop-color="#0066FF"/>
<stop offset="0.21875" stop-color="#1371FE"/>
<stop offset="0.453125" stop-color="#0B54C3"/>
<stop offset="1" stop-color="#00388C"/>
</linearGradient>
<linearGradient id="paint2_linear" x1="1203" y1="6" x2="1203" y2="938.486" gradientUnits="userSpaceOnUse">
<stop stop-color="#0066FF"/>
<stop offset="0.21875" stop-color="#1371FE"/>
<stop offset="0.453125" stop-color="#0B54C3"/>
<stop offset="1" stop-color="#00388C"/>
</linearGradient>
<linearGradient id="paint3_linear" x1="1203" y1="6" x2="1203" y2="938.486" gradientUnits="userSpaceOnUse">
<stop stop-color="#0066FF"/>
<stop offset="0.21875" stop-color="#1371FE"/>
<stop offset="0.453125" stop-color="#0B54C3"/>
<stop offset="1" stop-color="#00388C"/>
</linearGradient>
<linearGradient id="paint4_linear" x1="1203" y1="6" x2="1203" y2="938.486" gradientUnits="userSpaceOnUse">
<stop stop-color="#0066FF"/>
<stop offset="0.21875" stop-color="#1371FE"/>
<stop offset="0.453125" stop-color="#0B54C3"/>
<stop offset="1" stop-color="#00388C"/>
</linearGradient>
<linearGradient id="paint5_linear" x1="1203" y1="6" x2="1203" y2="938.486" gradientUnits="userSpaceOnUse">
<stop stop-color="#0066FF"/>
<stop offset="0.21875" stop-color="#1371FE"/>
<stop offset="0.453125" stop-color="#0B54C3"/>
<stop offset="1" stop-color="#00388C"/>
</linearGradient>
<linearGradient id="paint6_linear" x1="1203" y1="6" x2="1203" y2="938.486" gradientUnits="userSpaceOnUse">
<stop stop-color="#0066FF"/>
<stop offset="0.21875" stop-color="#1371FE"/>
<stop offset="0.453125" stop-color="#0B54C3"/>
<stop offset="1" stop-color="#00388C"/>
</linearGradient>
<linearGradient id="paint7_linear" x1="1203" y1="6" x2="1203" y2="938.486" gradientUnits="userSpaceOnUse">
<stop stop-color="#0066FF"/>
<stop offset="0.21875" stop-color="#1371FE"/>
<stop offset="0.453125" stop-color="#0B54C3"/>
<stop offset="1" stop-color="#00388C"/>
</linearGradient>
<linearGradient id="paint8_linear" x1="1203" y1="6" x2="1203" y2="938.486" gradientUnits="userSpaceOnUse">
<stop stop-color="#0066FF"/>
<stop offset="0.21875" stop-color="#1371FE"/>
<stop offset="0.453125" stop-color="#0B54C3"/>
<stop offset="1" stop-color="#00388C"/>
</linearGradient>
</defs>
</svg>
